<?xml version="1.0" encoding="UTF-8" standalone="no"?>
<!-- Created with Inkscape (http://www.inkscape.org/) -->

<svg
   xmlns:dc="http://purl.org/dc/elements/1.1/"
   xmlns:cc="http://creativecommons.org/ns#"
   xmlns:rdf="http://www.w3.org/1999/02/22-rdf-syntax-ns#"
   xmlns:svg="http://www.w3.org/2000/svg"
   xmlns="http://www.w3.org/2000/svg"
   xmlns:sodipodi="http://sodipodi.sourceforge.net/DTD/sodipodi-0.dtd"
   xmlns:inkscape="http://www.inkscape.org/namespaces/inkscape"
   width="744.09448"
   height="524.40942"
   id="svg2"
   version="1.1"
   inkscape:version="0.48.1 r9760"
   sodipodi:docname="drawing-1.svg"
   inkscape:export-filename="/home/sneetsher/Documents/drawing-1.png"
   inkscape:export-xdpi="260.85999"
   inkscape:export-ydpi="260.85999">
  <defs
     id="defs4" />
  <sodipodi:namedview
     id="base"
     pagecolor="#ffffff"
     bordercolor="#666666"
     borderopacity="1.0"
     inkscape:pageopacity="0"
     inkscape:pageshadow="2"
     inkscape:zoom="32.655742"
     inkscape:cx="467.31217"
     inkscape:cy="371.77865"
     inkscape:document-units="px"
     inkscape:current-layer="g3242"
     showgrid="false"
     inkscape:window-width="1280"
     inkscape:window-height="725"
     inkscape:window-x="0"
     inkscape:window-y="24"
     inkscape:window-maximized="1" />
  <metadata
     id="metadata7">
    <rdf:RDF>
      <cc:Work
         rdf:about="">
        <dc:format>image/svg+xml</dc:format>
        <dc:type
           rdf:resource="http://purl.org/dc/dcmitype/StillImage" />
        <dc:title></dc:title>
      </cc:Work>
    </rdf:RDF>
  </metadata>
  <g
     inkscape:label="Layer 1 alpha outline"
     inkscape:groupmode="layer"
     id="layer1"
     transform="translate(0,-527.95273)"
     style="display:none"
     sodipodi:insensitive="true">
    <path
       style="fill:none;stroke:#000000;stroke-width:1px;stroke-linecap:butt;stroke-linejoin:miter;stroke-opacity:1"
       d="m 543.11982,734.73927 c 50.24335,-70.07751 189.43594,84.19905 32.47091,103.82673"
       id="path2985"
       inkscape:connector-curvature="0"
       sodipodi:nodetypes="cc" />
    <path
       style="fill:none;stroke:#000000;stroke-width:1px;stroke-linecap:butt;stroke-linejoin:miter;stroke-opacity:1"
       d="m 490.38015,720.73749 c 103.58915,0.67307 121.89188,185.67187 -18.03852,186.47976 0,0 -7.98953,-8.91009 -6.73728,-21.709 1.25225,-12.79891 14.45479,-6.60218 14.63232,-27.07653 0.17753,-20.47435 -19.64345,-64.2519 -19.57995,-72.32173 0.0635,-8.06983 5.02948,-16.38707 5.02948,-16.38707 0,0 6.5313,7.94409 6.28114,16.97199 -0.25016,9.0279 -18.6895,47.86473 -17.33419,71.91255 1.01756,18.05486 12.94587,13.96318 14.55047,27.4857 1.6046,13.52252 -8.81936,21.87267 -8.81936,21.87267 C 294.3209,896.88888 351.54569,724.39996 437.15809,720.07074"
       id="path2987"
       inkscape:connector-curvature="0"
       sodipodi:nodetypes="cczzzczszcc" />
    <path
       style="fill:none;stroke:#000000;stroke-width:1px;stroke-linecap:butt;stroke-linejoin:miter;stroke-opacity:1"
       d="m 481.25297,685.9397 c 9.35399,4.98065 42.39721,27.5657 -13.32902,26.24042 -92.92384,-2.20992 -122.67403,62.04061 -123.1572,117.13857 0,0 -10.25426,12.20052 -18.0479,13.08684 -7.79364,0.88632 -22.53177,-7.41889 -30.48753,-7.11123 -7.95576,0.30766 -28.46495,13.22871 -28.46495,13.22871 0,0 24.01688,6.27899 32.32872,5.08005 8.04669,-1.16069 17.19356,-10.72917 24.26129,-14.65872 7.06773,-3.92955 16.49302,-1.17525 21.74321,4.0461 -0.15223,40.33711 57.87924,56.59727 36.84505,54.65886 C 128.33702,889.48757 174.34403,753.32886 95.970598,720.77372"
       id="path2989"
       inkscape:connector-curvature="0"
       sodipodi:nodetypes="csczscszccc" />
    <path
       style="fill:none;stroke:#000000;stroke-width:1px;stroke-linecap:butt;stroke-linejoin:miter;stroke-opacity:1"
       d="m 449.48829,687.63769 c 0.23688,-5.59613 -34.66625,14.34247 -7.11424,20.71326 -32.5529,5.55272 -61.90402,5.68896 -105.85381,68.54256 -30.15563,12.09861 -35.03645,8.06874 -62.50291,28.46775 C 177.13837,774.326 191.04544,765.14161 137.45809,721.37072"
       id="path2991"
       inkscape:connector-curvature="0"
       sodipodi:nodetypes="ccccc" />
    <path
       sodipodi:type="arc"
       style="fill:none;stroke:#000000;stroke-width:1;stroke-linecap:round;stroke-linejoin:round;stroke-miterlimit:4;stroke-opacity:1;stroke-dasharray:none"
       id="path2993"
       sodipodi:cx="701.79938"
       sodipodi:cy="178.91205"
       sodipodi:rx="8.6087389"
       sodipodi:ry="8.2344456"
       d="m 710.40812,178.91205 a 8.6087389,8.2344456 0 1 1 -17.21748,0 8.6087389,8.2344456 0 1 1 17.21748,0 z"
       transform="translate(-234.48721,501.67145)" />
  </g>
  <g
     inkscape:groupmode="layer"
     id="layer2"
     inkscape:label="Layer 2 alpha black"
     style="display:none"
     sodipodi:insensitive="true">
    <path
       sodipodi:type="arc"
       style="fill:#000000;stroke:#000000;stroke-width:1;stroke-linecap:round;stroke-linejoin:round;stroke-miterlimit:4;stroke-opacity:1;stroke-dasharray:none;display:inline"
       id="path2993-2"
       sodipodi:cx="701.79938"
       sodipodi:cy="178.91205"
       sodipodi:rx="8.6087389"
       sodipodi:ry="8.2344456"
       d="m 710.40812,178.91205 a 8.6087389,8.2344456 0 1 1 -17.21748,0 8.6087389,8.2344456 0 1 1 17.21748,0 z"
       transform="translate(-234.48721,-26.281279)" />
    <path
       style="opacity:0.98999999;fill:#000000;stroke:#000000;stroke-width:1px;stroke-linecap:butt;stroke-linejoin:miter;stroke-opacity:1;display:inline"
       d="m 543.19725,206.16611 c 50.16592,-69.45708 189.35851,84.81948 32.32913,104.35284 170.80184,-11.81271 31.8928,-190.86934 -32.32913,-104.35284 z"
       id="path2985-1-1"
       inkscape:connector-curvature="0"
       sodipodi:nodetypes="ccc" />
    <path
       style="fill:#000000;stroke:#000000;stroke-width:1px;stroke-linecap:butt;stroke-linejoin:miter;stroke-opacity:1;display:inline"
       d="m 460.36426,380.0131 c 0,0 12.82071,-7.39145 11.21611,-20.91397 -1.6046,-13.52252 -25.03731,-11.82759 -26.05487,-29.88245 -1.35531,-24.04782 29.06778,-60.4879 29.31794,-69.5158 0.25016,-9.0279 -8.67789,-13.13719 -8.67789,-13.13719 0,0 -8.32143,4.96179 -8.38493,13.03162 -0.0635,8.06983 31.26188,48.49193 31.08435,68.96628 -0.17753,20.47435 -24.40512,17.63307 -25.65737,30.43198 -1.25225,12.79891 9.13403,20.27095 9.13403,20.27095 124.68653,-1.36646 103.68609,-186.52336 18.03852,-186.47976 103.58915,0.67307 121.89188,185.67187 -18.03852,186.47976 0,0 -7.98953,-8.91009 -6.73728,-21.709 1.25225,-12.79891 14.45479,-6.60218 14.63232,-27.07653 0.17753,-20.47435 -19.64345,-64.2519 -19.57995,-72.32173 0.0635,-8.06983 5.50883,-17.82512 5.50883,-17.82512 0,0 6.05195,9.38214 5.80179,18.41004 -0.25016,9.0279 -18.6895,47.86473 -17.33419,71.91255 1.01756,18.05486 12.94587,13.96318 14.55047,27.4857 1.6046,13.52252 -8.81936,21.87267 -8.81936,21.87267 C 294.3209,368.93615 351.54569,196.44723 437.15809,192.11801 368.20348,197.44385 302.86411,368.66676 460.36426,380.0131 z"
       id="path2987-6-9-9"
       inkscape:connector-curvature="0"
       sodipodi:nodetypes="czszczzzccczzzczszccc" />
    <path
       sodipodi:type="arc"
       style="fill:#ffffff;stroke:#000000;stroke-width:1;stroke-linecap:round;stroke-linejoin:round;stroke-miterlimit:4;stroke-opacity:1;stroke-dasharray:none;display:inline"
       id="path2993-2-8"
       sodipodi:cx="701.79938"
       sodipodi:cy="178.91205"
       sodipodi:rx="5.0235739"
       sodipodi:ry="7.1096878"
       d="m 706.82295,178.91205 a 5.0235739,7.1096878 0 1 1 -10.04715,0 5.0235739,7.1096878 0 1 1 10.04715,0 z"
       transform="translate(-234.48721,-26.281279)" />
    <path
       style="fill:#000000;stroke:#000000;stroke-width:1px;stroke-linecap:butt;stroke-linejoin:miter;stroke-opacity:1;display:inline"
       d="m 467.92395,184.22739 c -89.76168,-2.26432 -120.12513,54.73896 -123.1572,117.13857 0,0 -8.68728,15.36597 -14.43361,16.76412 -5.74633,1.39815 -24.13024,-16.37192 -32.086,-14.52878 -7.75628,1.79693 -18.45678,14.85868 -18.45678,14.85868 0,0 15.68554,11.91304 23.82453,9.84397 10.60583,-2.69617 18.05658,-21.761 24.93059,-23.58025 6.87402,-1.81925 12.30392,5.09266 17.55411,10.31401 -0.15223,40.33711 33.13123,44.73034 12.09704,42.79193 -221.12236,-16.23981 -190.208,-135.01268 -262.226032,-165.00865 78.373432,32.55514 32.366422,168.71385 286.974042,176.87558 21.03419,1.93841 -36.99728,-14.32175 -36.84505,-54.65886 -5.25019,-5.22135 -14.67548,-7.97565 -21.74321,-4.0461 -7.06773,3.92955 -16.2146,13.49803 -24.26129,14.65872 -8.31184,1.19894 -32.32872,-5.08005 -32.32872,-5.08005 0,0 20.50919,-12.92105 28.46495,-13.22871 7.95576,-0.30766 22.69389,7.99755 30.48753,7.11123 7.79364,-0.88632 18.0479,-13.08684 18.0479,-13.08684 0.48317,-55.09796 30.23336,-119.34849 123.1572,-117.13857 55.72623,1.32528 22.68301,-21.25977 13.32902,-26.24042 3.96253,4.21044 28.86031,27.30469 -13.32902,26.24042 z"
       id="path2989-8-7-0"
       inkscape:connector-curvature="0"
       sodipodi:nodetypes="sczscszccccczscszcscs" />
    <path
       style="fill:#000000;stroke:#000000;stroke-width:1px;stroke-linecap:butt;stroke-linejoin:miter;stroke-opacity:1;display:inline"
       d="m 274.01733,283.14301 c 27.46646,-20.39901 31.82596,-16.89045 64.58818,-29.51038 43.94979,-62.8536 71.21564,-67.68169 103.76854,-73.23441 -14.38297,-7.38379 5.37194,-20.86378 8.67819,-21.23458 -7.06155,0.65967 -36.2302,14.86379 -8.67819,21.23458 -32.5529,5.55272 -61.90402,5.68896 -105.85381,68.54256 -30.15563,12.09861 -35.03645,8.06874 -62.50291,28.46775 -96.87896,-31.03526 -94.96217,-60.02968 -145.68228,-83.46922 53.32669,28.13139 48.80332,58.16844 145.68228,89.2037 z"
       id="path2991-0-5-6"
       inkscape:connector-curvature="0"
       sodipodi:nodetypes="ccccccccc" />
  </g>
  <g
     style="display:inline"
     inkscape:label="Layer 2 copy green"
     id="g3242"
     inkscape:groupmode="layer">
    <path
       transform="translate(-234.48721,-26.281279)"
       d="m 710.40812,178.91205 a 8.6087389,8.2344456 0 1 1 -17.21748,0 8.6087389,8.2344456 0 1 1 17.21748,0 z"
       sodipodi:ry="8.2344456"
       sodipodi:rx="8.6087389"
       sodipodi:cy="178.91205"
       sodipodi:cx="701.79938"
       id="path3244"
       style="fill:#008000;stroke:#008000;stroke-width:1;stroke-linecap:round;stroke-linejoin:round;stroke-miterlimit:4;stroke-opacity:1;stroke-dasharray:none;display:inline"
       sodipodi:type="arc" />
    <path
       sodipodi:nodetypes="ccc"
       inkscape:connector-curvature="0"
       id="path3246"
       d="m 543.19725,206.16611 c 50.16592,-69.45708 189.35851,84.81948 32.32913,104.35284 170.80184,-11.81271 31.8928,-190.86934 -32.32913,-104.35284 z"
       style="opacity:0.98999999;fill:#008000;stroke:#008000;stroke-width:1px;stroke-linecap:butt;stroke-linejoin:miter;stroke-opacity:1;display:inline" />
    <path
       sodipodi:nodetypes="czszczzzccczzzczszccc"
       inkscape:connector-curvature="0"
       id="path3248"
       d="m 460.36426,380.0131 c 0,0 12.82071,-7.39145 11.21611,-20.91397 -1.6046,-13.52252 -25.03731,-11.82759 -26.05487,-29.88245 -1.35531,-24.04782 29.06778,-60.4879 29.31794,-69.5158 0.25016,-9.0279 -8.67789,-13.13719 -8.67789,-13.13719 0,0 -8.32143,4.96179 -8.38493,13.03162 -0.0635,8.06983 31.26188,48.49193 31.08435,68.96628 -0.17753,20.47435 -24.40512,17.63307 -25.65737,30.43198 -1.25225,12.79891 9.13403,20.27095 9.13403,20.27095 124.68653,-1.36646 103.68609,-186.52336 18.03852,-186.47976 103.58915,0.67307 121.89188,185.67187 -18.03852,186.47976 0,0 -7.98953,-8.91009 -6.73728,-21.709 1.25225,-12.79891 14.45479,-6.60218 14.63232,-27.07653 0.17753,-20.47435 -19.64345,-64.2519 -19.57995,-72.32173 0.0635,-8.06983 5.50883,-17.82512 5.50883,-17.82512 0,0 6.05195,9.38214 5.80179,18.41004 -0.25016,9.0279 -18.6895,47.86473 -17.33419,71.91255 1.01756,18.05486 12.94587,13.96318 14.55047,27.4857 1.6046,13.52252 -8.81936,21.87267 -8.81936,21.87267 C 294.3209,368.93615 351.54569,196.44723 437.15809,192.11801 368.20348,197.44385 302.86411,368.66676 460.36426,380.0131 z"
       style="fill:#008000;stroke:#008000;stroke-width:1px;stroke-linecap:butt;stroke-linejoin:miter;stroke-opacity:1;display:inline" />
    <path
       sodipodi:nodetypes="sczscszccccczscszcscs"
       inkscape:connector-curvature="0"
       id="path3252"
       d="m 467.92395,184.22739 c -89.76168,-2.26432 -120.12513,54.73896 -123.1572,117.13857 0,0 -8.68728,15.36597 -14.43361,16.76412 -5.74633,1.39815 -24.13024,-16.37192 -32.086,-14.52878 -7.75628,1.79693 -18.45678,14.85868 -18.45678,14.85868 0,0 15.68554,11.91304 23.82453,9.84397 10.60583,-2.69617 18.05658,-21.761 24.93059,-23.58025 6.87402,-1.81925 12.30392,5.09266 17.55411,10.31401 -0.15223,40.33711 33.13123,44.73034 12.09704,42.79193 -221.12236,-16.23981 -190.208,-135.01268 -262.226032,-165.00865 78.373432,32.55514 32.366422,168.71385 286.974042,176.87558 21.03419,1.93841 -36.99728,-14.32175 -36.84505,-54.65886 -5.25019,-5.22135 -14.67548,-7.97565 -21.74321,-4.0461 -7.06773,3.92955 -16.2146,13.49803 -24.26129,14.65872 -8.31184,1.19894 -32.32872,-5.08005 -32.32872,-5.08005 0,0 20.50919,-12.92105 28.46495,-13.22871 7.95576,-0.30766 22.69389,7.99755 30.48753,7.11123 7.79364,-0.88632 18.0479,-13.08684 18.0479,-13.08684 0.48317,-55.09796 30.23336,-119.34849 123.1572,-117.13857 55.72623,1.32528 22.68301,-21.25977 13.32902,-26.24042 3.96253,4.21044 28.86031,27.30469 -13.32902,26.24042 z"
       style="fill:#008000;stroke:#008000;stroke-width:1px;stroke-linecap:butt;stroke-linejoin:miter;stroke-opacity:1;display:inline" />
    <path
       sodipodi:nodetypes="ccccccccc"
       inkscape:connector-curvature="0"
       id="path3254"
       d="m 274.01733,283.14301 c 27.46646,-20.39901 31.82596,-16.89045 64.58818,-29.51038 43.94979,-62.8536 71.21564,-67.68169 103.76854,-73.23441 -14.38297,-7.38379 5.37194,-20.86378 8.67819,-21.23458 -7.06155,0.65967 -36.2302,14.86379 -8.67819,21.23458 -32.5529,5.55272 -61.90402,5.68896 -105.85381,68.54256 -30.15563,12.09861 -35.03645,8.06874 -62.50291,28.46775 -96.87896,-31.03526 -94.96217,-60.02968 -145.68228,-83.46922 53.32669,28.13139 48.80332,58.16844 145.68228,89.2037 z"
       style="fill:#008000;stroke:#008000;stroke-width:1px;stroke-linecap:butt;stroke-linejoin:miter;stroke-opacity:1;display:inline" />
  </g>
  <g
     inkscape:groupmode="layer"
     id="layer3"
     inkscape:label="Work"
     style="display:none"
     sodipodi:insensitive="true">
    <path
       style="fill:none;stroke:#000000;stroke-width:1px;stroke-linecap:butt;stroke-linejoin:miter;stroke-opacity:1;display:inline"
       d="m 451.05224,159.16364 c -3.30625,0.3708 -23.06116,13.85079 -8.67819,21.23458 -32.5529,5.55272 -59.81875,10.38081 -103.76854,73.23441 -32.76222,12.61993 -37.12172,9.11137 -64.58818,29.51038 -96.87896,-31.03526 -92.35559,-61.07231 -145.94294,-89.2037"
       id="path2991-0-5"
       inkscape:connector-curvature="0"
       sodipodi:nodetypes="ccccc" />
  </g>
</svg>
