<?xml version="1.0" standalone="yes"?>
<svg width="400" height="300">
<path style="fill:#325728; stroke:none;" d="M120.447 90.6518C120.094 91.7671 120.094 92.5106 119.74 92.5106C119.033 93.2541 118.68 93.6259 118.326 93.9976C117.619 94.7412 116.912 95.1129 116.559 95.1129C116.205 95.4847 115.145 95.4847 114.085 95.4847C114.438 96.2282 114.792 97.3435 116.205 99.5741C116.912 101.433 117.619 103.292 117.619 105.522C117.619 107.381 116.559 109.984 114.085 113.329C111.964 117.047 110.903 119.649 110.903 121.508C110.903 122.624 110.903 123.739 111.257 124.482C111.61 125.598 112.317 126.341 113.024 127.456C113.731 128.2 114.438 128.944 114.792 129.315C116.559 130.431 117.266 130.802 117.619 130.802C116.912 131.174 116.205 131.174 115.145 131.174C113.731 131.174 111.964 130.802 110.55 129.687C109.489 128.944 108.076 127.828 107.015 126.341C106.662 125.598 105.955 124.111 105.248 121.88C104.894 121.508 104.541 120.393 104.187 118.906C104.187 118.534 103.834 118.534 103.48 118.534L102.42 118.534C101.36 118.534 100.653 118.534 99.9456 118.162C98.5317 117.419 97.4713 116.304 96.0574 114.816C94.6435 112.958 93.5831 109.984 93.2296 105.894C92.8761 101.805 91.4622 98.4588 89.6949 95.8565C88.9879 95.1129 87.9275 94.3694 86.1601 93.2541C84.7462 92.5106 83.6858 91.7671 82.2719 91.3953L81.9184 90.6518C87.2205 90.6518 91.1088 91.3953 93.5831 93.6259C94.997 94.7412 96.4109 97.3435 98.1782 100.689C98.8852 100.689 99.2387 100.318 99.9456 99.9459C100.653 99.9459 101.36 99.5741 102.066 99.5741C103.127 99.5741 104.541 100.689 105.955 102.548C106.662 102.92 107.015 103.664 107.369 104.779C108.076 106.266 108.429 107.753 108.429 108.868C108.429 109.612 108.429 110.355 107.722 110.727C107.722 111.099 107.015 111.471 106.308 111.842C106.308 112.214 105.955 112.214 105.601 112.586C105.601 111.471 105.601 111.099 105.955 110.727C105.955 110.355 105.955 109.984 105.955 109.612C105.955 109.24 105.955 108.496 105.248 107.753C105.248 107.753 104.541 107.381 103.834 107.381L102.773 107.381C101.36 107.381 100.299 107.381 99.5921 107.009C98.1782 106.266 97.4713 105.151 97.1178 103.292L96.0574 103.292C95.7039 104.779 95.7039 105.894 95.7039 107.009C95.7039 108.125 95.7039 109.24 96.0574 110.355C96.4109 111.471 96.7644 112.214 97.4713 112.958C98.5317 114.073 99.5921 115.188 101.006 115.56C102.42 116.304 103.834 116.675 105.248 116.675C107.722 116.675 109.489 115.932 110.903 114.816C111.964 113.701 112.671 112.586 113.378 111.471C114.085 109.984 114.085 108.496 114.085 107.381C114.085 106.266 114.085 105.151 113.731 104.407C113.731 103.664 113.024 102.548 112.317 101.805C111.964 101.061 110.55 100.318 108.782 98.8306C108.076 98.4588 107.369 97.7153 106.662 96.9718C105.955 96.2282 105.601 95.8565 105.601 95.1129C105.601 94.7412 105.601 94.3694 105.955 94.3694C105.955 93.6259 106.308 93.2541 106.308 92.8824C104.187 93.2541 102.773 93.6259 101.36 93.6259C99.9456 93.6259 98.5317 93.2541 97.4713 92.5106C96.0574 92.1388 94.997 91.0235 93.5831 89.5365C93.2296 89.1647 92.5227 88.4212 91.1088 86.1906C90.4018 85.4471 89.6949 84.7035 89.3414 84.3318C88.9879 83.5882 88.9879 82.8447 88.9879 82.1012C88.9879 81.7294 88.9879 81.3576 89.3414 80.6141C90.0483 81.7294 91.1088 83.2165 92.1692 84.7035C93.2296 86.1906 94.6435 87.6776 95.7039 88.4212C97.8248 90.6518 99.9456 91.7671 101.713 91.3953C102.773 91.7671 103.48 91.3953 103.834 91.0235C104.187 90.28 104.541 89.9082 104.541 89.9082C104.541 89.5365 104.541 89.5365 104.541 88.7929C104.187 88.4212 104.187 88.0494 104.541 87.6776C104.541 87.3059 105.248 86.9341 106.662 86.1906C108.429 85.4471 109.489 84.7035 110.55 83.96C111.61 82.8447 112.317 82.1012 113.024 80.9859C113.378 79.8706 113.731 78.7553 113.731 77.64C113.731 75.7812 113.024 73.5506 111.257 71.6918C110.55 70.5765 109.843 69.8329 108.429 69.4612C107.015 68.7176 105.601 68.3459 103.834 68.3459C102.42 68.3459 101.36 68.7176 100.299 69.4612C100.299 69.8329 99.9456 70.2047 99.9456 70.5765C99.9456 71.32 99.5921 71.6918 99.5921 72.0635C102.773 72.0635 104.541 73.1788 105.248 75.0376C105.601 76.5247 107.015 78.0118 109.136 78.7553C108.782 79.1271 108.429 79.4988 108.429 79.8706C108.076 79.8706 107.015 80.2424 105.248 80.2424C103.48 80.2424 101.713 80.2424 99.5921 79.8706C97.4713 79.4988 96.0574 79.1271 94.6435 78.7553L92.1692 75.0376C92.1692 75.0376 92.5227 75.0376 92.8761 74.6659C93.5831 75.0376 94.29 75.0376 94.6435 75.0376C94.997 75.0376 95.3505 74.6659 95.7039 74.2941C96.0574 74.2941 96.7644 72.8071 98.1782 70.2047C98.8852 69.0894 99.2387 68.3459 99.9456 67.9741C101.006 66.8588 102.42 66.4871 104.187 66.4871C105.248 66.4871 106.662 66.4871 108.076 67.2306C109.136 67.6024 110.196 67.9741 111.257 68.3459C111.61 66.4871 112.317 65.3718 113.378 65.3718C113.731 65.3718 114.438 65.7435 114.792 66.4871C115.145 66.8588 115.498 66.8588 115.498 67.2306C115.498 67.6024 115.498 67.9741 115.498 67.9741C115.498 68.7176 115.145 69.0894 114.438 69.8329C113.731 70.2047 113.378 70.5765 113.378 70.5765C113.731 71.32 114.438 72.0635 114.792 72.8071C115.145 73.9224 115.498 75.0376 115.498 76.1529C115.498 77.64 115.145 79.1271 114.792 81.3576C114.438 83.2165 113.731 85.4471 112.671 88.4212C114.085 88.7929 115.145 89.1647 116.205 89.9082C117.266 90.28 118.68 90.6518 120.447 90.6518L120.447 90.6518M85.8066 71.32L82.2719 73.1788C80.858 73.9224 79.4441 74.2941 78.0302 74.6659C76.6163 75.4094 75.2024 77.2682 73.435 80.2424C73.0816 81.3577 72.3746 82.1012 71.3142 82.8447C70.2538 83.5882 69.1934 83.5882 67.7795 83.5882C67.426 83.5882 66.719 83.5882 66.0121 83.2165C65.3051 82.8447 64.5982 82.1012 64.2447 81.3576C63.8912 80.6141 63.5378 79.8706 63.5378 79.1271C63.5378 78.0118 63.8912 77.2682 64.2447 76.5247C64.5982 75.7812 64.9517 75.4094 65.6586 75.4094C66.0121 75.0376 66.3656 75.0376 66.719 75.0376C67.0725 75.0376 67.426 75.0376 67.7795 75.4094C68.1329 75.4094 68.4864 75.7812 68.4864 75.7812C68.4864 76.1529 68.8399 76.5247 69.1934 77.2682C69.1934 78.0118 69.1934 78.7553 68.8399 79.1271C68.4864 80.2424 67.7795 80.9859 67.426 81.7294C68.4864 81.7294 69.1934 81.7294 69.9003 81.3576C70.6073 80.9859 71.3142 80.2424 71.6677 79.4988C72.0211 78.3835 72.3746 77.2682 72.3746 76.1529C72.3746 75.0376 72.0211 73.9224 71.6677 72.8071C70.9607 71.6918 70.2538 70.9482 69.1934 70.2047C68.8399 69.8329 68.1329 69.8329 67.0725 69.8329C65.3051 69.8329 63.1843 70.2047 61.4169 70.9482C59.2961 72.0635 57.8822 73.5506 57.1752 75.4094C56.8218 75.7812 56.8218 76.5247 56.8218 76.8965C56.4683 77.2682 56.4683 77.64 56.4683 78.0118C56.4683 78.7553 56.8218 79.4988 57.1752 80.2424C57.5287 80.9859 57.8822 81.3576 58.5891 81.7294C60.003 82.4729 61.0634 83.2165 61.4169 83.2165C60.3565 84.3318 59.2961 84.7035 58.2356 84.7035C56.4683 84.7035 55.4079 83.96 54.3474 81.7294C53.287 78.7553 51.8731 76.5247 50.4592 75.4094C49.0453 74.6659 46.9245 73.5506 43.0363 72.4353C43.7432 72.4353 44.8036 72.0635 45.864 72.0635C46.9245 71.6918 47.9849 71.6918 48.6918 71.6918C50.1057 71.6918 51.5196 72.0635 52.9335 72.0635C53.287 72.0635 53.994 72.4353 54.3474 72.4353C55.7613 71.32 57.1752 70.2047 58.5891 69.0894C59.6495 67.9741 61.0634 67.2306 62.4773 66.8588C63.1843 66.4871 63.8912 66.4871 64.5982 66.4871C65.3051 66.1153 66.0121 66.1153 66.719 66.1153C68.1329 66.1153 69.1934 66.4871 70.6073 66.8588C70.9607 67.2306 72.0211 67.9741 73.7885 69.0894C75.2024 69.8329 76.2628 70.5765 77.3233 70.5765C78.7372 71.32 80.5045 71.6918 82.2719 71.6918C83.3323 71.6918 84.3927 71.32 85.8066 71.32L85.8066 71.32M119.387 201.066L83.3323 201.066C83.3323 205.899 80.1511 210.732 74.142 215.193C67.7795 220.026 61.7704 222.256 56.1148 222.256C51.1662 222.256 47.6314 222.256 45.1571 221.513C41.6224 220.769 38.4411 219.282 34.9063 217.052C29.2508 212.962 25.0091 208.501 22.5347 202.553C20.4139 197.72 19.3535 191.772 19.3535 185.08C19.3535 181.362 19.7069 177.645 20.0604 173.555C20.7674 169.094 21.8278 165.005 23.5952 161.287C24.6556 158.313 27.1299 154.595 30.3112 149.391C32.432 146.416 34.5529 143.814 36.6737 141.584C38.4411 139.725 40.9154 137.494 44.4502 134.148C46.571 132.661 49.3988 130.431 52.5801 128.2C54.3474 127.085 57.1752 125.226 61.4169 122.624C67.426 118.906 71.3142 115.932 73.0816 114.073C74.8489 112.214 75.9094 109.984 76.2628 107.753C76.2628 107.009 76.6163 106.266 76.6163 105.522C76.9698 104.779 76.9698 104.035 76.9698 103.292C76.9698 102.176 76.6163 101.061 76.2628 99.9459C75.9094 99.2024 75.5559 98.0871 74.8489 96.9718C74.4955 95.8565 73.7885 95.1129 72.7281 94.3694C72.0211 93.6259 70.9607 92.8824 70.2538 92.5106C69.1934 92.1388 68.4864 91.7671 67.426 91.7671C66.719 92.1388 66.3656 92.1388 66.3656 92.1388C62.1239 92.5106 60.003 95.4847 59.2961 99.9459C59.2961 101.061 58.9426 101.805 58.9426 102.176C58.9426 104.407 60.003 106.266 62.1239 108.125C62.1239 108.125 63.5378 109.24 66.3656 111.471C64.5982 111.842 63.5378 112.214 62.8308 112.214C61.0634 112.586 60.003 112.958 58.9426 112.958C56.8218 112.958 55.0544 112.214 53.6405 111.471C50.4592 109.24 48.6918 106.266 48.6918 102.548C48.6918 101.433 49.0453 99.5741 49.3988 98.0871C49.7523 96.2282 50.4592 94.3694 51.5196 92.1388C48.3384 93.2541 46.571 93.9976 46.2175 93.9976C45.5106 94.3694 44.4502 94.3694 43.0363 94.3694C39.148 94.3694 35.9668 93.6259 33.4924 92.5106C30.6647 91.3953 28.5438 89.1647 26.7764 86.1906C26.0695 85.0753 25.716 83.96 25.3625 82.4729C25.0091 80.9859 25.0091 79.4988 25.0091 78.0118C25.0091 75.7812 25.0091 73.1788 25.716 70.2047C25.716 69.4612 26.0695 67.9741 26.7764 66.4871C28.1903 69.0894 29.2508 70.9482 29.9577 72.4353C32.7855 76.5247 35.6133 79.4988 38.0876 80.9859C39.148 81.7294 40.2085 82.4729 40.9154 82.8447C41.9758 83.2165 43.0363 83.5882 44.4502 83.96C46.9245 85.0753 49.0453 85.4471 51.1662 85.8188C52.9335 85.8188 55.7613 86.1906 59.2961 86.1906C60.71 86.1906 62.4773 85.8188 64.5982 85.4471C66.719 85.0753 67.7795 85.0753 68.4864 85.0753C69.1934 85.0753 69.9003 85.0753 70.6073 85.0753C71.3142 85.0753 72.0211 85.4471 73.0816 86.1906C74.4955 86.9341 75.5559 87.6776 76.2628 88.4212C76.9698 89.5365 78.0302 90.6518 78.7372 92.1388C80.1511 93.9977 81.2115 95.8565 81.565 97.7153C82.2719 99.2024 82.6254 101.433 82.6254 104.035C82.6254 107.753 81.565 111.099 80.1511 114.073C78.7372 117.047 75.9094 120.021 72.0211 122.995C70.9607 123.739 67.0725 126.341 59.2961 131.546C54.3474 134.892 50.1057 137.866 47.2779 140.096C44.0967 142.699 41.2689 146.045 38.0876 149.391C34.1994 153.852 31.3716 157.941 29.6042 161.659C27.8369 166.12 26.7764 170.953 26.7764 176.529C26.7764 185.824 28.1903 193.259 31.0181 198.464C34.5529 204.784 40.2085 208.501 48.3384 209.616C50.4592 209.616 52.2266 209.988 53.994 209.988C56.8218 209.988 59.2961 209.616 61.4169 208.501C63.5378 207.758 65.6586 206.271 67.426 204.412C69.9003 202.181 71.3142 199.207 72.3746 195.489C72.7281 194.374 73.0816 192.887 73.0816 190.656L73.0816 173.184C73.0816 172.068 72.7281 171.325 72.0211 170.209C69.5468 167.607 67.426 165.005 65.3051 162.774C68.4864 162.774 70.2538 162.774 71.3142 162.402C72.0211 162.402 73.7885 162.031 75.9094 160.915C78.3837 160.172 79.7976 159.428 80.5045 158.313C81.2115 156.454 82.2719 154.595 83.3323 152.736L83.3323 190.656L91.1088 190.656L91.1088 162.031C90.0483 160.544 88.9879 159.428 87.2205 158.313C90.0483 156.082 92.5227 154.224 94.6435 152.365C97.1178 150.134 99.2387 147.904 101.36 144.929L101.36 190.656L109.489 190.656L109.489 157.569C109.489 156.454 108.782 154.967 107.015 153.108C105.955 152.365 105.248 151.621 104.894 151.249C108.782 149.762 111.964 146.788 114.792 142.699C116.559 140.468 117.973 138.238 119.387 135.635L119.387 201.066M51.1662 122.995C50.4592 124.111 49.3988 125.226 48.3384 125.969C46.571 127.085 45.1571 127.456 43.0363 127.456C40.5619 127.456 38.7946 126.341 37.0272 123.739C38.0876 122.995 39.148 122.252 39.855 121.508C40.5619 120.393 40.9154 119.649 40.9154 118.906C40.5619 118.534 40.5619 118.162 40.2085 118.162C39.855 117.419 39.5015 117.047 39.148 117.047C38.4411 117.047 37.7341 117.791 37.0272 118.906C36.6737 120.021 36.3202 121.136 36.3202 122.252C36.3202 122.624 36.3202 122.995 36.3202 123.367L33.4924 122.995L32.7855 123.739C33.139 124.111 34.1994 124.854 35.6133 125.598C37.0272 126.341 38.0876 127.085 38.7946 127.456C37.3807 128.944 36.6737 130.059 35.9668 131.546C35.6133 132.661 35.2598 133.776 35.2598 134.892C35.2598 135.264 35.6133 136.007 35.6133 136.379C35.6133 137.122 35.6133 137.494 35.6133 137.866C33.8459 136.751 32.7855 135.264 32.0785 133.776C31.3716 132.289 31.0181 130.802 31.0181 129.315C31.0181 128.2 31.3716 127.085 31.7251 125.598C32.0785 124.111 32.0785 123.367 32.0785 122.995C31.3716 122.252 31.0181 121.136 30.3112 120.021C29.9577 118.534 29.6042 117.047 29.6042 115.188C29.6042 114.445 29.6042 114.073 29.6042 113.329C29.6042 112.958 29.9577 112.586 30.3112 111.842C31.3716 112.214 31.7251 112.958 32.0785 112.958C32.7855 113.329 33.4924 113.701 34.1994 113.701C36.3202 113.701 38.0876 113.329 38.7946 112.214C39.855 111.099 40.2085 109.612 40.2085 107.753C40.2085 105.894 39.5015 104.035 38.0876 102.548C36.6737 101.433 34.9063 100.689 33.4924 100.689C29.9577 100.689 27.1299 102.176 25.716 105.522C24.6556 108.125 23.9486 111.471 23.9486 115.932C23.9486 118.162 24.3021 120.393 24.3021 122.624C24.6556 124.854 24.6556 126.713 25.0091 128.2C25.0091 130.059 24.6556 131.546 24.3021 133.033C23.5952 134.52 22.8882 136.007 22.5347 137.494C22.5347 138.238 23.2417 138.981 25.0091 138.981C26.7764 139.353 28.5438 139.353 29.9577 139.353C29.2508 139.725 28.5438 140.468 27.8369 140.84C27.1299 141.212 26.423 141.212 25.3625 141.212C25.0091 141.212 24.6556 141.212 23.9486 141.212C23.5952 141.212 23.2417 141.212 22.8882 141.212C22.1813 141.212 21.8278 141.212 21.4743 141.212C20.7674 141.584 20.0604 142.327 19.3535 143.814L19.3535 136.379C20.7674 136.379 21.4743 135.635 22.1813 133.405C22.8882 131.174 23.2417 128.572 23.2417 125.226C23.2417 124.482 22.8882 123.367 22.5347 122.624C21.8278 123.367 21.1208 123.739 20.7674 123.739C20.4139 124.111 20.0604 124.111 19.3535 124.482L19.3535 117.047L21.8278 117.419C21.8278 117.047 22.1813 117.047 22.1813 117.047C22.5347 117.047 22.5347 116.675 22.5347 116.304C22.5347 115.932 21.8278 114.073 20.7674 111.471C19.7069 108.868 19 107.009 19 105.894C19 105.151 19.3535 104.035 20.4139 102.548C20.7674 101.805 21.1208 100.689 21.1208 99.9459C21.1208 99.2024 20.7674 98.4588 20.0604 98.0871C19.7069 98.0871 19.7069 98.0871 19.3535 97.7153L19.3535 89.5365C21.1208 91.0235 22.1813 91.7671 22.8882 92.8824C23.2417 93.6259 23.2417 95.4847 23.2417 98.0871C23.5952 98.0871 23.9486 98.0871 24.3021 98.0871C24.6556 98.0871 25.0091 98.0871 25.716 97.7153C27.1299 97.3435 28.8973 96.9718 30.3112 96.9718C35.9668 96.9718 39.5015 99.2024 41.2689 103.664C41.9758 107.753 42.6828 112.214 43.7432 116.304C44.8036 120.765 47.2779 122.995 51.1662 122.995L51.1662 122.995M71.3142 183.593C70.6073 184.708 69.5468 185.824 68.4864 186.567C67.0725 187.682 65.3051 188.054 63.1843 188.054C60.71 188.054 58.9426 186.939 57.1752 184.336C58.2356 183.593 59.2961 182.849 60.003 181.734C60.71 180.991 61.0634 180.247 61.0634 179.504C60.71 179.132 60.71 178.76 60.71 178.76C60.003 178.016 59.6495 177.645 59.2961 177.645C58.5891 177.645 57.8822 178.388 57.5287 179.504C56.8218 180.619 56.4683 181.734 56.4683 182.849C56.4683 183.221 56.4683 183.593 56.4683 183.965L53.994 183.593L52.9335 184.336C53.6405 184.708 54.3474 185.452 55.7613 186.195C57.1752 186.939 58.5891 187.682 59.2961 188.054C57.8822 189.541 56.8218 190.656 56.4683 192.144C55.7613 193.259 55.7613 194.374 55.7613 195.489C55.7613 195.861 55.7613 196.605 55.7613 196.976C55.7613 197.72 55.7613 198.092 55.7613 198.464C54.3474 196.976 52.9335 195.861 52.2266 194.374C51.5196 192.887 51.1662 191.4 51.1662 189.913C51.1662 188.798 51.5196 187.682 51.8731 186.195C52.2266 184.708 52.2266 183.965 52.2266 183.593C51.5196 182.849 51.1662 181.734 50.4592 180.247C50.1057 179.132 49.7523 177.645 49.7523 175.786C49.7523 175.042 49.7523 174.671 49.7523 173.927C50.1057 173.555 50.1057 173.184 50.4592 172.44C51.5196 172.812 52.2266 173.555 52.5801 173.555C53.287 173.927 53.994 174.299 54.7009 174.299C56.8218 174.299 58.2356 173.555 58.9426 172.812C60.003 171.696 60.3565 170.209 60.3565 168.351C60.3565 166.492 59.6495 164.633 58.2356 163.146C56.8218 162.031 55.4079 161.287 53.6405 161.287C50.1057 161.287 47.6314 162.774 45.864 166.12C44.8036 168.722 44.0967 172.068 44.0967 176.529C44.0967 178.76 44.4502 180.991 44.4502 183.221C44.8036 185.452 45.1571 186.939 45.1571 188.798C45.1571 190.656 44.8036 192.144 44.4502 193.631C43.7432 195.118 43.3897 196.605 42.6828 198.092C42.6828 198.835 43.7432 199.579 45.1571 199.579C46.9245 199.951 48.6918 199.951 50.1057 199.951C49.3988 200.322 48.6918 201.066 47.9849 201.438C47.2779 201.809 46.571 201.809 45.5106 201.809C45.1571 201.809 44.8036 201.809 44.0967 201.809C43.7432 201.809 43.3897 201.809 43.0363 201.809C42.3293 201.809 41.9758 201.809 41.6224 201.809C40.9154 202.181 40.2085 202.925 39.5015 204.04L39.5015 196.976C40.9154 196.976 41.9758 195.861 42.6828 194.002C43.0363 191.772 43.3897 189.169 43.3897 185.824C43.3897 185.08 43.3897 183.965 42.6828 183.221C41.9758 183.965 41.2689 184.336 40.9154 184.336C40.9154 184.708 40.2085 184.708 39.5015 185.08L39.5015 177.645L41.9758 178.016C41.9758 177.645 42.3293 177.645 42.3293 177.645C42.6828 177.645 42.6828 177.273 42.6828 176.901C42.6828 176.529 41.9758 174.671 40.9154 172.068C39.855 169.466 39.148 167.607 39.148 166.492C39.148 165.748 39.855 164.633 40.5619 163.146C41.2689 162.402 41.2689 161.287 41.2689 160.544C41.2689 159.8 40.9154 159.056 40.2085 158.685C39.855 158.685 39.855 158.685 39.5015 158.313L39.5015 150.134C41.2689 151.621 42.6828 152.365 43.0363 153.48C43.3897 154.224 43.3897 155.711 43.3897 158.685C43.7432 158.685 44.0967 158.685 44.4502 158.685C44.8036 158.685 45.1571 158.685 45.864 158.313C47.2779 157.941 49.0453 157.569 50.4592 157.569C56.1148 157.569 59.6495 159.8 61.4169 164.261C62.1239 168.351 63.1843 172.44 63.8912 176.529C64.9517 181.362 67.426 183.593 71.3142 183.593L71.3142 183.593M102.42 76.5247C102.42 75.7812 102.42 75.4094 102.066 75.0376C101.713 74.6659 101.006 74.2941 100.653 74.2941C99.2387 74.2941 98.8852 75.0376 98.5317 76.1529C98.5317 76.8965 98.5317 77.64 98.8852 78.0118C99.2387 78.3835 99.5921 78.7553 100.299 78.7553C101.006 78.7553 101.36 78.3835 102.066 78.0118C102.42 77.64 102.42 77.2682 102.42 76.5247L102.42 76.5247M113.731 92.1388L110.903 90.6518C110.196 91.0235 109.843 91.3953 109.489 91.3953C108.782 91.7671 108.429 92.1388 107.722 92.8824C109.136 92.8824 110.196 93.2541 111.257 93.2541C112.317 93.2541 112.671 93.2541 113.378 92.8824C113.378 92.5106 113.731 92.1388 113.731 92.1388L113.731 92.1388M46.2175 124.111C45.1571 122.995 43.7432 121.88 42.6828 120.393C42.6828 121.508 42.3293 122.252 41.9758 122.624C41.6224 122.995 40.9154 123.739 40.5619 124.111C40.9154 124.482 41.2689 124.482 41.9758 124.854C42.3293 124.854 42.6828 124.854 43.3897 124.854C44.0967 124.854 44.8036 124.854 46.2175 124.111L46.2175 124.111M35.2598 116.304C34.5529 116.304 33.8459 115.932 33.139 115.932C32.432 115.56 32.0785 115.56 31.7251 115.56C32.0785 117.047 32.0785 117.791 32.432 118.162C32.7855 118.906 33.4924 119.278 34.5529 119.649C34.5529 118.906 34.5529 118.162 34.9063 117.791C34.9063 117.419 35.2598 116.675 35.2598 116.304L35.2598 116.304M66.3656 184.708C65.3051 183.593 64.2447 182.478 62.8308 180.991C62.8308 182.106 62.4773 182.849 62.1239 183.221C61.7704 183.593 61.4169 184.336 60.71 184.708C61.0634 185.08 61.4169 185.08 62.1239 185.452C62.4773 185.452 62.8308 185.452 63.5378 185.452C64.2447 185.452 64.9517 185.08 66.3656 184.708L66.3656 184.708M55.7613 176.529C55.0544 176.529 54.3474 176.529 53.287 176.529C52.5801 176.158 52.2266 176.158 51.8731 176.158C52.2266 177.645 52.2266 178.388 52.5801 178.76C52.9335 179.504 53.6405 179.875 54.7009 180.247C54.7009 179.504 54.7009 178.76 55.0544 178.388C55.0544 178.016 55.4079 177.273 55.7613 176.529L55.7613 176.529M87.2205 142.699C87.2205 141.955 87.574 141.212 87.574 140.096C88.281 138.238 88.281 136.751 88.281 136.751C88.281 135.635 87.9275 134.892 87.574 134.148C86.5136 133.405 85.8066 132.289 85.0997 131.546C84.3927 130.802 82.9789 130.431 81.565 130.431C78.0302 130.431 75.2024 131.546 73.435 133.776C71.6677 135.635 70.9607 137.494 70.9607 139.353C70.9607 141.212 71.6677 142.699 72.7281 144.186C74.142 145.673 75.9094 146.045 77.3233 146.045C78.7372 146.045 79.4441 146.045 80.1511 145.673C80.858 145.301 81.2115 144.558 81.9184 143.442C81.9184 143.442 81.2115 143.442 80.5045 143.442C79.7976 143.442 79.4441 143.442 79.4441 143.442C78.3837 143.442 77.6767 143.071 76.9698 142.699C76.6163 141.955 76.2628 141.584 76.2628 141.212C76.2628 141.212 76.2628 140.468 76.2628 140.096C76.2628 139.353 76.6163 138.981 76.9698 138.238C77.6767 137.866 78.3837 137.866 79.0906 137.494C80.1511 137.494 81.565 138.238 82.2719 138.981C83.3323 140.096 83.6858 141.212 83.6858 143.071C83.6858 144.186 82.9789 145.673 81.565 146.788C80.1511 147.904 78.7372 148.275 77.3233 148.275C74.142 148.275 71.6677 149.019 70.2538 149.762C68.8399 151.249 67.7795 152.365 66.719 153.108L63.1843 155.339C64.9517 153.108 66.0121 150.506 66.719 148.275C67.0725 146.788 67.426 144.929 67.426 142.699L67.426 140.84C67.426 138.609 67.7795 136.751 68.4864 135.264C69.1934 133.776 69.9003 132.289 71.3142 130.802C72.3746 130.059 73.7885 128.944 75.5559 128.2C78.7372 127.085 80.5045 126.341 80.5045 125.969C81.2115 124.482 81.565 123.367 81.9184 122.624C83.3323 119.649 84.7462 117.419 86.5136 115.188C86.1601 117.047 86.1601 118.906 86.1601 120.393C86.1601 122.995 86.5136 125.598 87.2205 127.828C88.281 130.431 89.3414 132.661 91.1088 135.264C91.8157 135.635 91.8157 136.379 91.8157 136.751C91.8157 137.866 91.4622 138.981 90.4018 140.096C89.6949 141.212 88.6344 141.955 87.2205 142.699L87.2205 142.699M107.722 209.616C105.955 209.988 104.541 210.732 103.127 211.847C101.713 213.334 101.006 214.449 101.006 215.936C101.006 216.68 101.36 217.052 101.713 217.795C102.42 218.539 102.773 218.911 103.48 219.654C104.187 220.026 104.894 220.398 105.601 220.398C105.955 220.398 106.662 220.026 106.662 219.654C107.015 218.911 107.369 218.539 107.369 217.795C107.369 217.052 107.015 216.308 106.662 215.565C106.308 214.821 105.601 214.078 104.894 212.962C105.248 212.962 105.601 212.962 105.955 212.962C106.662 212.962 107.369 212.962 108.076 213.334C108.429 213.706 108.782 214.449 108.782 215.193C108.782 217.052 109.136 218.167 109.489 218.167C109.843 218.539 110.55 218.539 111.257 218.167C111.964 218.167 112.671 218.167 112.671 218.167C113.024 218.167 113.378 218.167 113.731 218.167C111.964 219.282 110.55 220.398 108.782 221.141C107.369 221.885 106.308 222.256 105.248 222.256C104.187 222.256 103.127 221.885 102.42 220.769C101.36 218.911 100.299 217.424 99.2387 215.936C97.4713 217.795 96.4109 218.911 95.3505 220.026C93.5831 221.513 91.8157 222.256 90.4018 222.256C90.0483 222.256 89.6949 222.256 89.6949 222.256C87.9275 221.885 86.5136 221.141 85.8066 220.026C84.7462 218.911 84.3927 217.424 84.3927 215.193C84.3927 212.962 84.7462 211.104 86.1601 209.616C87.2205 207.758 88.281 207.014 89.6949 207.014C90.4018 207.014 90.7553 207.014 91.1088 207.386C92.1692 207.758 92.8761 208.501 93.5831 209.245C94.29 209.988 94.6435 211.104 94.6435 212.219C94.6435 214.449 93.5831 216.308 91.8157 217.052C91.4622 217.052 91.1088 217.052 90.4018 217.052C90.4018 217.052 90.0483 217.052 89.6949 217.052C89.6949 217.052 89.3414 217.052 88.9879 217.052C90.7553 215.565 91.4622 213.706 91.4622 211.847C91.4622 211.104 91.4622 210.36 91.1088 209.616C90.7553 209.245 90.4018 208.873 90.0483 208.873C88.9879 208.873 88.281 209.616 87.2205 211.475C86.5136 212.962 85.8066 214.821 85.8066 216.308C85.8066 217.795 86.5136 218.911 87.9275 219.654C88.9879 220.026 90.0483 220.398 91.1088 220.398C92.5227 220.398 95.3505 218.167 98.8852 214.078C102.773 209.616 105.955 207.758 108.782 207.758C111.257 207.758 113.024 209.616 114.085 212.962C114.792 214.821 115.852 215.936 116.912 215.936C117.619 215.936 118.326 215.565 119.387 215.193L117.266 217.795C114.438 217.795 113.024 216.308 111.964 213.706C111.257 211.104 109.843 209.616 108.429 209.616L107.722 209.616M155.795 138.609C155.088 140.84 154.381 142.327 153.674 143.071C153.32 143.442 152.613 143.814 151.553 143.814C151.906 142.699 151.906 141.955 151.906 141.212C151.906 140.096 151.906 139.353 151.906 138.238C152.613 138.609 153.674 138.609 154.381 138.609C155.088 138.609 155.795 138.609 155.795 138.609L155.795 138.609M143.423 148.275C142.716 148.275 142.009 148.647 140.949 148.647C140.595 148.647 139.888 148.647 139.535 148.275C138.828 147.904 138.121 147.532 137.414 146.416C139.181 145.301 140.595 143.814 142.363 142.327C142.363 144.558 142.363 145.673 142.716 146.416C143.069 147.16 143.069 147.532 143.423 148.275L143.423 148.275M159.683 108.868C158.622 110.727 157.915 112.214 156.855 112.958C155.441 114.816 153.674 115.56 151.553 115.56C150.139 115.56 148.725 115.188 147.665 114.073C146.604 113.329 145.544 111.842 144.837 109.984C145.897 108.868 146.958 107.753 147.665 106.266C148.725 104.779 149.079 103.664 149.079 102.548C148.725 102.176 148.725 101.805 148.372 101.433C148.018 100.689 147.311 100.318 146.958 100.318C146.251 100.318 145.19 101.061 144.837 102.548C144.13 104.407 143.776 105.894 143.776 107.753C143.776 108.496 143.776 108.868 143.776 109.24C143.069 109.24 142.716 109.24 142.363 109.24C142.009 109.24 141.302 109.24 140.949 108.868L139.888 109.984C140.595 110.727 141.656 111.471 143.423 112.958C145.19 114.445 146.251 115.188 146.958 115.56C145.544 117.419 144.483 119.649 143.776 121.508C143.069 123.367 143.069 125.226 143.069 126.713C143.069 127.456 143.069 128.2 143.069 128.944C143.069 130.059 143.069 130.431 143.069 130.802C141.302 129.315 139.888 127.085 139.181 125.226C138.474 122.995 138.121 120.765 138.121 118.534C138.121 117.419 138.121 115.932 138.474 114.073C138.828 112.586 138.828 111.099 139.181 109.24C138.474 107.753 137.767 106.266 137.06 104.407C136.707 102.548 136.353 99.9459 136.353 97.3435C136.353 96.6 136.353 95.8565 136.353 95.1129C136.353 93.9977 136.707 93.2541 137.06 92.1388C138.121 93.2541 138.828 93.6259 139.181 93.9976C139.888 94.7412 140.949 95.1129 141.656 95.1129C144.13 95.1129 145.897 94.3694 146.604 92.5106C147.665 91.0235 148.018 89.1647 148.018 86.1906C148.018 85.4471 148.018 84.3318 148.018 83.2165C148.018 82.1012 148.018 81.3576 148.372 80.2424C148.372 77.2682 148.018 75.4094 147.665 74.2941C147.311 72.4353 146.604 71.6918 145.544 71.6918C140.949 71.6918 137.767 75.0376 135.293 81.7294C133.172 86.5624 132.112 93.2541 131.405 101.433C131.051 105.522 131.051 110.355 131.051 116.304C131.051 118.534 130.698 121.508 129.991 125.226C129.637 128.572 128.931 131.918 128.577 135.264C128.577 136.751 128.931 137.494 129.991 137.494C131.758 137.494 133.879 136.007 137.06 133.776C132.465 141.212 129.637 147.532 128.931 152.365C128.577 154.224 127.87 159.8 126.81 168.722C126.81 166.864 126.456 164.633 126.456 162.774C126.103 158.685 125.749 153.48 125.396 147.532C125.042 141.955 124.689 137.122 124.689 133.776C124.689 130.431 125.042 127.085 125.749 123.739C126.456 119.649 127.163 116.304 127.87 113.701C127.163 114.073 127.163 114.445 126.81 114.816C126.456 115.188 125.749 115.56 124.689 116.304C125.042 113.701 125.042 111.842 125.042 110.727C125.749 107.009 126.456 105.151 127.87 105.522C127.87 105.151 127.87 104.779 128.224 104.779C128.224 104.779 128.577 104.407 128.577 103.664C128.577 102.92 127.87 100.689 126.456 96.6C125.396 92.8824 124.689 90.28 124.689 88.7929C124.689 87.3059 125.042 85.8188 125.749 84.3318C126.81 82.4729 127.163 80.9859 127.163 79.8706C127.163 78.7553 126.81 78.0118 126.103 77.2682C125.042 76.8965 124.689 76.5247 124.689 76.5247L124.689 65.3718C126.81 67.2306 128.224 68.7176 128.577 69.4612C128.931 70.5765 129.284 72.8071 129.284 76.8965C129.991 76.8965 131.758 75.4094 134.586 71.6918C137.767 67.9741 140.242 66.4871 142.009 66.4871C146.604 66.4871 149.432 67.9741 151.199 71.6918C152.26 74.2941 152.967 78.3835 152.967 84.3318C152.967 85.4471 152.967 88.0494 152.967 91.3953C152.967 94.3694 152.967 96.2282 152.967 96.2282C152.967 100.318 153.32 103.292 154.027 105.151C155.088 107.381 156.855 108.868 159.683 108.868L159.683 108.868M162.864 201.066L157.915 201.066C157.915 201.438 157.915 202.553 157.915 203.668C157.915 204.784 157.915 205.527 157.915 205.899C157.915 207.758 157.915 209.616 157.562 211.475C157.208 212.962 156.502 214.449 155.441 215.936C154.381 218.167 152.613 219.654 150.139 220.769C147.665 222.256 144.13 223 139.888 223C137.06 223 133.879 222.628 131.051 221.885C127.87 221.141 126.103 220.398 125.749 220.026C132.819 218.911 137.414 217.795 139.181 217.052C141.656 215.936 143.776 214.449 145.19 212.591C146.251 211.104 146.958 209.616 147.311 207.758C148.018 205.899 148.372 203.668 148.372 201.066L124.689 201.066C126.81 192.515 129.284 185.824 131.758 180.991C133.879 177.273 136.353 174.299 139.181 172.44C140.949 171.696 143.069 170.953 146.251 170.209C149.079 169.838 151.199 169.094 152.26 168.351C154.734 166.864 156.502 163.889 157.915 159.8L157.915 190.656L162.864 190.656L162.864 201.066M135.293 140.096C135.293 143.071 135.647 145.301 136 146.788C136.353 150.134 137.767 151.993 139.535 152.365C139.888 152.736 140.595 152.736 140.949 152.736C142.363 152.736 143.423 152.365 144.13 151.621C145.19 151.249 146.251 150.134 147.311 148.647C146.604 147.904 145.897 146.416 145.544 145.301C145.19 143.814 144.837 142.699 144.837 141.584C144.837 141.212 145.19 140.84 145.19 140.468C145.544 140.096 145.897 139.725 145.897 139.353C146.604 138.981 147.311 138.609 147.665 138.609C148.372 138.609 148.725 139.353 149.079 140.096C149.432 140.84 149.432 141.955 149.432 143.071C149.432 144.929 149.079 146.788 148.372 148.275C148.725 148.275 149.079 148.275 149.785 148.275C150.492 148.275 150.846 148.275 151.553 148.275L151.906 149.762C151.199 150.134 150.139 150.878 148.372 151.621C146.604 152.365 145.19 153.108 144.13 153.108C144.483 154.595 144.837 156.082 145.19 157.198C145.544 158.313 145.544 159.8 145.544 160.915C145.544 162.402 145.544 163.889 144.837 165.376C144.483 166.864 144.13 167.979 143.776 169.094C148.725 166.492 151.553 162.031 152.26 155.711C152.613 153.48 152.613 151.621 152.967 149.391C154.027 148.275 155.088 146.788 156.148 145.301C157.208 143.442 157.915 141.212 158.622 138.609C158.622 138.609 158.976 137.866 158.976 137.122C158.976 136.379 159.329 135.264 159.329 134.892C159.329 134.148 158.976 133.776 158.976 133.405C158.269 134.148 157.208 134.52 156.855 134.892C156.148 134.892 155.441 135.264 155.088 135.264C154.734 135.264 154.381 135.264 154.027 134.892C150.139 133.776 148.372 132.289 148.372 130.802C148.372 130.059 148.372 129.315 148.725 128.2C150.139 122.252 151.906 119.649 154.027 120.393C152.967 120.021 151.906 120.021 150.846 119.649C148.018 120.021 146.251 122.252 145.19 126.713C144.837 128.944 144.483 131.546 144.13 133.776C143.776 136.007 143.069 137.494 142.363 138.609C141.302 139.725 139.888 140.468 138.121 140.468C137.06 140.468 136.353 140.468 135.293 140.096L135.293 140.096M154.734 110.355C153.674 108.868 152.26 107.009 151.199 105.151C150.846 106.638 150.492 107.753 150.139 108.125C150.139 108.496 149.785 109.24 148.725 110.355C149.432 111.099 149.785 111.099 150.139 111.471C150.492 111.842 151.199 111.842 151.553 111.842C152.26 111.842 153.32 111.471 154.734 110.355L154.734 110.355M143.069 98.8306C140.949 98.0871 139.535 98.0871 138.828 98.0871C138.828 100.318 139.181 101.805 139.888 102.548C140.242 102.92 140.949 103.292 142.009 104.035C142.009 102.92 142.009 102.176 142.363 101.061C142.363 100.318 142.716 99.5741 143.069 98.8306L143.069 98.8306M146.958 190.656L146.958 183.965C146.604 183.965 146.604 183.965 145.897 183.965C145.544 183.965 144.837 183.965 144.13 183.965C143.423 184.336 142.716 184.708 142.009 185.08C140.949 185.452 140.242 186.195 139.888 187.311C139.181 188.426 138.828 189.541 138.121 190.656L146.958 190.656M213.057 131.174C211.29 130.059 210.23 129.315 209.523 128.944C207.755 127.828 206.341 127.085 205.281 127.085C203.867 127.085 202.1 127.456 200.332 127.828C196.798 128.572 193.97 129.687 190.789 131.174C190.435 131.546 189.375 131.546 188.314 131.546C187.254 131.918 186.193 131.918 184.779 131.918C183.012 131.918 181.245 131.918 179.831 131.546C178.417 131.546 177.003 131.546 175.589 131.174C175.589 128.572 175.943 126.713 177.003 125.598C177.71 124.854 178.77 124.111 180.184 124.111C181.245 124.111 182.659 124.482 184.073 124.854C187.254 125.969 189.375 126.341 189.375 126.341C192.909 126.341 196.444 124.854 200.332 121.508C203.514 118.906 206.341 115.932 208.462 112.214L208.462 108.125L204.927 108.125C204.574 107.381 204.221 107.009 203.867 106.638C204.574 106.266 205.281 105.522 205.988 104.779C206.341 104.407 207.048 104.407 207.755 104.407C208.462 104.407 209.169 104.407 209.876 104.407L209.876 98.8306C208.816 95.4847 208.109 93.6259 207.755 93.2541C207.048 91.3953 205.988 89.5365 204.927 88.4212C203.514 90.28 202.453 92.5106 201.746 95.4847C201.039 98.0871 200.332 100.689 199.979 103.664C198.918 105.522 197.858 107.381 196.444 109.24C194.677 110.727 193.263 112.214 191.495 113.701C191.849 113.701 191.849 113.701 191.849 114.073C192.202 114.816 192.556 115.932 192.556 117.047C192.556 117.791 192.556 118.534 192.202 119.649C192.202 119.649 191.849 119.649 191.495 120.021C190.789 120.393 190.435 120.393 190.082 120.393C189.375 119.278 188.668 118.162 187.961 117.791C185.486 115.932 181.952 115.188 177.003 115.188C173.468 115.188 169.58 117.047 165.692 120.765C164.985 121.508 163.924 122.624 163.218 123.367L163.218 118.162C166.045 113.329 168.166 110.355 169.227 108.496C169.934 106.638 170.287 105.522 170.287 104.779C170.287 104.779 170.287 104.407 169.58 103.664C168.873 102.92 168.873 101.805 168.873 100.318C168.873 99.2024 168.873 97.3435 169.227 95.4847C169.58 93.2541 170.287 90.6518 171.347 87.3059C168.166 85.8188 166.045 84.3318 165.338 83.5882C164.631 82.4729 163.571 80.2424 162.511 76.8965L163.218 66.1153C164.985 69.4612 166.399 72.4353 168.166 75.7812C170.287 79.1271 172.408 80.6141 174.529 80.6141C175.589 80.6141 177.003 80.2424 178.417 79.4988C181.952 77.64 184.073 76.8965 184.779 76.5247C185.486 76.5247 186.193 76.5247 186.9 76.5247C188.668 76.5247 190.435 76.8965 191.849 77.2682C193.616 78.0118 195.03 78.3835 196.444 79.1271C199.272 76.8965 201.039 75.0376 202.453 73.5506C207.048 69.8329 210.583 67.2306 213.057 66.1153C212.35 68.7176 210.937 71.6918 208.816 75.4094C207.402 78.0118 206.341 80.9859 206.341 83.5882C207.755 87.3059 209.169 91.0235 210.23 93.9976C211.644 97.3435 211.997 100.689 211.997 103.664C211.997 106.638 211.644 109.24 210.937 111.471C209.876 113.701 208.816 115.932 207.755 118.162C208.816 120.393 209.876 122.252 210.583 124.482C211.644 126.341 212.35 128.572 213.057 131.174L213.057 131.174M199.272 150.878C195.03 150.878 192.202 153.48 191.142 158.313C190.082 162.774 189.375 167.607 188.314 172.068C186.547 177.273 182.305 179.504 176.296 179.504C174.529 179.504 173.115 179.504 171.701 179.132C170.287 178.76 169.58 178.388 169.227 178.388C168.873 178.388 168.52 178.388 168.52 178.388C168.52 181.734 168.166 183.593 167.813 184.336C167.459 185.08 166.045 186.195 163.924 187.682L163.924 178.76C164.278 178.388 164.631 178.388 164.985 178.016C165.692 177.645 166.045 176.901 166.045 176.158C166.045 175.414 165.692 174.299 164.985 172.812C163.924 171.696 163.571 170.581 163.571 169.466C163.571 168.722 164.278 166.492 165.692 163.518C166.752 160.544 167.459 158.685 167.459 158.313C167.459 157.941 167.459 157.569 167.106 157.569C166.752 157.569 166.752 157.198 166.752 157.198L163.924 157.569L163.924 149.019C164.631 149.391 165.338 149.762 165.692 149.762C166.045 150.134 166.399 150.506 167.459 151.249C167.813 150.878 167.813 150.506 168.166 150.134C168.166 149.762 168.166 149.019 168.166 148.275C168.166 144.929 167.813 141.955 167.106 139.353C166.399 137.122 165.338 136.007 163.924 135.635L163.924 127.828C164.631 128.944 165.338 129.687 165.692 130.059C166.399 130.431 167.106 130.802 167.813 130.802C168.166 130.802 168.52 130.431 169.227 130.431C169.934 130.431 170.287 130.431 170.64 130.431C171.701 130.431 172.408 130.431 173.115 130.802C173.822 131.174 174.529 131.918 175.589 132.661C172.408 132.661 169.934 132.661 168.873 133.033C167.813 133.405 167.459 134.148 167.459 134.892C168.166 136.007 168.873 137.866 169.227 139.725C169.934 141.584 170.287 143.071 170.287 144.929C169.934 147.532 169.58 150.134 169.58 152.736C169.227 154.967 169.227 156.826 169.227 158.685C169.227 163.518 169.934 167.607 170.994 170.209C172.761 173.927 175.589 175.786 179.477 175.786C181.245 175.786 183.012 175.042 184.779 173.184C186.193 171.696 187.254 169.838 187.254 167.607C187.254 165.748 186.547 163.889 185.84 163.146C184.779 161.659 183.012 161.287 180.538 161.287C179.831 161.287 179.124 161.287 178.417 161.659C177.71 162.402 177.003 162.774 176.296 163.146C175.943 162.774 175.589 162.031 175.589 161.287C175.589 160.544 175.236 159.8 175.236 159.428C175.236 157.198 175.589 155.711 176.296 154.224C177.003 153.108 177.356 151.621 178.063 150.506C178.063 150.506 178.063 149.391 177.356 146.788C177.356 145.673 177.003 144.558 177.003 143.442C177.003 141.955 177.356 140.468 178.063 138.981C178.77 137.122 180.184 135.635 181.952 134.52C181.952 135.635 181.952 136.751 181.952 137.494C181.952 138.609 181.952 140.096 182.659 141.212C183.012 142.699 184.073 144.186 185.84 146.045C184.779 146.416 183.719 146.788 182.305 147.904C180.891 148.647 179.831 149.391 179.124 149.762L179.831 150.878L183.012 150.506C183.012 150.878 182.659 151.249 182.659 151.621C182.659 153.108 183.012 154.224 183.719 155.339C184.426 156.826 185.133 157.198 185.84 157.198C186.547 157.198 186.9 156.826 187.607 156.082C187.607 156.082 187.961 155.711 187.961 155.339C187.961 154.595 187.607 153.852 186.9 152.736C185.84 151.621 184.779 150.878 183.719 149.762C184.426 148.647 185.486 147.532 186.547 146.788C187.607 146.045 189.021 145.673 190.435 145.673C192.556 145.673 194.323 146.416 196.091 147.532C197.505 148.275 198.565 149.391 199.272 150.878L199.272 150.878M210.583 201.066C210.583 208.129 209.523 213.334 207.402 216.308C204.574 220.026 200.686 221.885 195.384 221.885C189.375 221.885 185.486 219.654 183.012 215.936C181.245 212.962 180.538 209.616 180.538 205.155C180.538 204.412 180.538 203.668 180.538 202.553C180.538 201.809 180.538 201.066 180.538 201.066L156.502 201.066L156.502 190.656L191.849 190.656C191.849 192.144 191.849 194.002 191.495 196.233C191.495 198.464 191.495 199.951 191.495 200.694C191.495 204.04 191.849 206.271 192.556 207.758C192.909 209.245 193.97 209.988 195.737 209.988C197.505 209.988 198.565 208.873 199.272 207.014C199.979 205.155 199.979 202.553 199.979 198.464L199.979 197.72C199.979 196.605 199.979 195.861 199.979 194.746C199.979 193.631 199.979 192.515 199.979 191.772L199.979 190.656L199.979 172.44C198.565 171.325 196.798 169.838 194.323 168.351C198.918 166.864 202.453 164.633 205.281 161.659C207.755 158.313 209.523 155.711 210.583 154.595L210.583 190.656L210.583 201.066M200.332 79.8706C199.979 80.6141 198.918 82.4729 196.798 84.7035C194.323 88.4212 192.909 91.3953 192.909 93.2541C192.909 94.7412 193.263 95.8565 193.97 97.3435C194.323 98.4588 195.03 99.2024 196.091 99.9459C196.444 99.2024 197.151 97.7153 197.858 95.1129C198.211 93.2541 198.565 91.7671 198.918 89.9082C199.625 88.0494 199.979 86.1906 199.979 84.3318C200.332 81.7294 200.332 80.2424 200.332 79.8706L200.332 79.8706M196.091 104.407C193.263 102.92 191.495 101.805 190.789 100.689C190.082 99.2024 189.375 96.9718 189.375 93.6259C189.375 90.6518 189.728 88.4212 190.435 86.5624C190.789 85.8188 191.495 83.96 192.909 81.3576C190.789 80.6141 189.375 80.6141 189.021 80.2424C188.314 80.2424 187.961 79.8706 187.254 79.8706C184.073 79.8706 180.891 81.3576 178.063 84.3318C175.943 86.9341 174.175 90.28 172.761 94.3694C174.175 92.8824 176.65 92.1388 179.124 92.1388C181.245 92.1388 183.012 92.5106 184.426 93.6259C185.84 94.7412 186.547 96.6 186.547 98.8306C186.547 100.318 186.547 101.433 185.84 102.176C185.133 103.292 184.426 103.664 183.012 103.664C181.598 103.664 180.891 103.292 180.538 102.548C180.184 102.176 180.184 101.061 180.184 99.9459C180.184 99.5741 180.184 99.2024 180.538 98.4588C180.538 97.7153 180.538 96.9718 180.538 95.8565C180.538 95.8565 180.184 95.8565 179.831 95.8565C179.124 95.8565 179.124 95.8565 178.77 95.8565C178.063 95.8565 177.71 95.8565 177.003 95.8565C174.882 96.6 173.468 99.2024 173.468 103.292C173.468 105.894 174.529 108.496 176.65 109.984C178.77 111.842 181.245 112.958 184.779 112.958C186.9 112.958 189.021 111.842 191.142 109.984C192.909 108.496 194.323 106.638 196.091 104.407L196.091 104.407M185.133 128.944C184.426 127.828 183.719 127.085 183.012 126.341L179.124 126.341L178.417 128.944L185.133 128.944M193.616 149.391C192.556 149.019 191.495 148.647 190.435 148.647C190.082 148.647 189.375 148.647 189.021 149.019C188.314 149.019 187.961 149.391 187.607 149.391C187.961 150.134 188.668 150.506 189.021 151.249C189.375 151.621 189.728 152.365 190.082 153.48C190.435 153.108 191.142 152.365 191.849 151.621C192.556 150.878 193.263 150.134 193.616 149.391L193.616 149.391M181.952 158.313C181.598 157.569 181.245 156.826 181.245 156.454C180.891 156.082 180.891 155.339 180.891 154.595C179.831 154.967 179.124 154.967 179.124 155.339C178.417 156.082 178.063 157.198 177.71 159.056C178.063 159.056 178.417 158.685 179.477 158.685C180.184 158.685 180.891 158.313 181.952 158.313L181.952 158.313M213.057 140.096C213.411 141.584 213.411 142.699 213.411 143.814C213.411 144.929 213.411 146.045 212.704 146.788C212.35 147.904 211.644 148.647 210.23 149.391C209.169 150.134 208.109 150.506 206.695 150.134C203.867 150.506 201.746 149.019 200.332 146.416C199.625 145.301 199.272 143.814 199.272 142.327C199.272 141.212 199.625 139.725 199.979 138.609C200.686 137.494 201.393 136.751 202.807 135.635C203.514 135.264 204.574 134.892 205.988 134.892C207.402 134.892 208.816 135.635 210.23 136.379C211.29 137.494 212.35 138.609 213.057 140.096L213.057 140.096M248.405 90.28C248.405 91.3953 248.051 92.8824 246.991 94.7412C245.931 96.2282 244.87 97.7153 244.517 98.8306C244.163 98.4588 244.163 98.4588 244.163 98.0871C244.163 97.7153 244.163 96.9718 244.517 96.2282C244.517 95.8565 244.517 95.4847 244.517 95.1129C244.517 95.1129 244.517 94.7412 244.517 94.3694C244.163 93.6259 243.103 93.2541 241.689 93.2541C240.982 93.2541 240.275 93.2541 239.921 92.5106C239.921 92.1388 239.568 91.3953 239.568 90.28C239.568 89.9082 239.568 89.9082 239.568 89.5365C239.568 89.5365 239.568 89.1647 239.568 89.1647C240.982 91.0235 242.749 91.7671 244.163 91.7671C244.517 91.7671 245.224 91.7671 245.577 91.3953C245.931 91.0235 246.284 90.6518 246.284 89.9082C246.284 89.1647 245.931 88.4212 245.577 87.6776C244.87 86.9341 244.517 86.1906 243.81 85.8188C243.103 85.4471 242.749 85.0753 242.396 85.0753C240.982 85.0753 239.568 85.8188 238.508 87.3059C237.094 89.1647 236.387 90.28 236.387 91.7671C236.387 93.2541 236.74 94.7412 237.801 95.8565C238.154 96.2282 240.275 98.0871 244.163 101.805L241.335 101.805C239.921 100.689 238.154 99.2024 236.74 98.0871C234.973 96.6 234.266 95.1129 234.266 93.2541C234.266 90.28 236.387 86.9341 240.275 82.8447C244.163 79.1271 246.284 76.5247 246.284 75.0376C246.284 73.9224 245.931 72.8071 245.577 71.6918C244.87 70.2047 243.81 69.4612 242.749 69.4612C240.982 69.4612 239.215 69.8329 237.801 70.9482C236.033 71.6918 235.326 72.8071 235.326 73.5506C235.326 74.2941 235.68 74.6659 236.387 75.0376C237.094 75.4094 237.801 75.4094 238.508 75.4094C240.275 75.4094 242.042 74.6659 243.456 72.8071C243.456 72.8071 243.456 73.1788 243.456 73.5506C243.456 73.9224 243.456 73.9224 243.456 74.2941C243.456 75.0376 243.456 75.4094 243.456 75.4094C242.396 77.64 240.982 78.3835 238.508 78.3835C237.447 78.3835 236.387 78.0118 235.68 77.64C234.973 76.8965 234.266 76.1529 233.912 75.0376C233.559 74.6659 233.559 73.9224 233.559 73.5506C233.559 72.0635 234.266 70.5765 236.033 69.4612C237.447 68.3459 239.215 67.6024 241.335 67.6024C243.456 67.6024 244.87 68.3459 246.284 69.8329C247.344 70.9482 248.051 72.4353 248.405 74.6659C248.405 74.6659 248.405 75.0376 248.405 75.4094C248.405 76.8965 247.698 78.3835 246.284 79.8706C244.87 81.3577 243.456 82.4729 242.396 83.5882C244.163 85.0753 245.224 85.8188 245.931 86.1906C247.698 87.3059 248.405 88.7929 248.405 90.28L248.405 90.28M238.508 82.4729C236.387 83.2165 234.619 85.0753 233.205 87.3059C232.852 88.0494 232.498 89.1647 231.792 90.6518L231.792 117.419C231.792 118.906 231.792 120.393 232.145 121.508C232.145 122.624 232.498 123.739 233.205 124.111C232.498 124.854 232.145 125.226 231.792 125.598C230.378 126.713 229.671 127.456 229.317 127.828C228.61 127.456 228.257 127.085 227.55 126.341C226.843 126.341 226.489 125.969 225.782 125.969C225.429 125.969 225.076 125.969 224.369 125.969C224.015 125.969 223.662 125.969 223.308 125.969C222.955 125.969 222.601 125.969 221.894 125.969L221.894 65C222.955 66.4871 223.662 67.2306 224.015 67.9741C225.782 70.5765 227.196 72.4353 228.257 73.5506C229.671 75.4094 231.085 76.8965 232.852 78.3835C234.266 79.4988 236.033 80.9859 238.508 82.4729L238.508 82.4729M247.698 134.148C247.344 133.776 246.991 133.405 246.284 133.033C245.577 133.033 245.224 132.661 244.517 132.661C243.81 132.661 243.103 132.661 242.396 133.033C241.689 133.405 241.335 133.776 240.982 134.52C240.628 134.892 240.275 135.635 240.275 136.007C239.921 135.264 239.215 134.148 238.508 132.661C238.508 132.661 238.508 132.289 238.154 131.918C238.508 131.174 238.861 130.802 239.215 130.431C239.568 130.059 239.921 129.687 240.628 128.944C240.982 128.944 241.335 128.944 242.042 128.572C242.396 128.572 243.103 128.572 243.81 128.572C244.163 128.572 244.517 128.572 244.517 128.572L244.517 128.572C243.81 127.828 243.456 127.085 243.103 127.085C242.749 126.713 242.042 126.341 240.982 126.341C239.215 126.341 236.74 127.456 234.266 129.315C230.024 132.661 227.55 134.892 226.489 136.379C227.903 137.122 228.964 137.866 230.378 138.981C230.731 138.981 231.438 139.725 231.792 140.096C231.792 140.468 231.438 140.84 231.085 141.212C231.085 141.584 230.731 141.955 230.378 142.327C228.964 140.84 227.196 139.725 224.722 138.238C224.015 137.866 222.601 137.494 220.834 136.751L220.834 136.007C224.369 133.405 227.55 131.174 230.378 128.572C233.912 125.226 235.68 122.995 235.68 121.88C236.033 121.136 236.387 120.393 236.387 119.649C236.74 118.906 236.74 118.162 236.74 117.419C236.74 115.188 236.387 113.329 235.326 111.471C234.619 110.727 234.266 109.612 233.559 108.868C233.205 108.125 232.852 107.753 232.852 107.381C232.498 106.266 232.145 105.151 232.145 104.407C232.145 104.035 232.145 104.035 232.145 103.664C232.852 102.548 233.205 101.433 233.559 101.061C233.912 100.689 234.619 100.689 235.68 100.689C236.387 100.689 237.094 101.061 237.447 101.805C238.154 102.548 238.508 103.292 238.508 104.035C238.508 105.151 238.154 105.894 237.447 106.266C236.387 107.009 235.68 107.381 235.68 107.381C238.508 110.355 240.275 112.586 241.335 114.445C241.689 117.419 242.396 119.649 243.103 120.765C243.103 121.136 243.456 121.508 244.163 122.252C245.931 124.111 247.344 125.598 247.698 127.085C248.051 128.572 248.405 130.059 248.405 131.174C248.405 132.661 248.051 133.405 247.698 134.148L247.698 134.148M249.112 142.327C249.112 144.186 248.051 146.416 246.284 149.019C245.577 149.762 244.517 150.878 243.103 152.365C243.103 153.108 243.103 153.48 243.103 154.224C243.103 154.967 242.749 155.339 242.749 156.082C242.396 156.454 242.042 157.569 240.982 158.685C240.275 160.172 239.215 161.287 238.154 162.774C238.154 162.774 237.801 163.146 237.094 163.518C236.74 163.889 236.033 164.633 235.68 165.376C236.387 165.748 237.094 166.12 237.094 166.12C238.154 166.864 238.508 167.607 238.508 169.094C238.508 169.838 238.154 170.209 237.447 170.581C237.094 171.325 236.387 171.325 235.68 171.325C234.619 171.325 233.912 170.953 233.205 169.838C232.498 168.722 232.145 167.607 232.145 166.492C232.145 165.748 233.205 163.146 235.326 159.428C236.387 157.569 236.74 156.082 236.74 154.595L236.033 151.249L234.973 148.275C234.973 147.904 235.326 147.16 235.68 146.416C235.68 146.045 236.033 145.301 236.387 144.558C237.094 145.301 237.801 145.673 238.861 146.416C239.568 146.416 239.921 146.788 240.628 147.16C240.982 147.16 241.689 146.788 242.396 146.416C243.456 146.045 244.163 145.673 244.517 144.558C243.81 144.558 243.456 144.186 242.749 144.186C242.042 143.814 241.689 143.442 240.982 143.071C239.568 142.327 238.861 141.584 238.154 140.84C237.801 140.096 237.094 138.981 236.033 137.494C235.68 136.751 235.326 135.635 234.973 134.52C234.266 133.405 233.912 131.918 233.559 130.802L236.033 128.572C237.447 131.174 238.508 133.776 239.921 136.379C240.628 137.494 241.689 138.238 242.396 138.981C243.456 139.725 244.517 140.096 245.224 140.096C245.931 140.096 246.284 140.096 246.991 139.725C247.698 139.353 248.051 138.981 248.405 138.609C248.758 139.353 249.112 140.84 249.112 142.327L249.112 142.327M249.112 201.066L221.894 201.066L221.894 145.301C222.601 145.301 222.955 145.301 223.308 145.301C223.662 145.301 224.369 145.301 224.722 145.301C227.55 145.301 230.024 144.558 231.438 142.699C231.792 142.327 232.852 140.468 234.973 136.751C234.973 137.494 235.68 138.238 236.033 139.353C236.74 140.096 237.094 140.84 237.094 140.84C237.094 141.212 236.74 141.584 236.387 142.699C234.973 145.301 234.266 147.16 233.559 148.275L231.792 150.134L231.792 190.656L249.112 190.656L249.112 201.066M248.405 180.247C248.405 182.478 247.698 183.965 246.284 185.08C245.224 186.195 243.81 186.939 242.042 187.311C241.689 187.682 241.335 187.682 240.982 187.682C239.921 187.682 239.215 186.939 238.154 186.195C237.801 185.824 236.74 183.965 234.266 180.247L236.387 181.362C236.74 182.106 237.447 182.849 238.154 183.593C239.568 184.708 240.275 185.452 241.335 185.452C242.749 185.452 243.81 185.08 244.517 184.708C245.931 183.965 246.637 182.478 246.637 180.991C246.637 179.504 246.284 178.016 245.224 176.529C244.517 174.671 243.456 173.927 242.749 173.927C242.042 173.927 241.689 174.299 241.335 175.042C241.335 175.786 240.982 176.158 240.982 176.901C240.982 179.132 241.689 180.619 243.456 182.106C243.456 182.106 243.103 182.106 242.749 182.106C242.749 182.478 242.396 182.478 242.042 182.478C241.335 182.478 240.982 182.106 240.982 182.106C239.215 181.362 238.154 179.875 238.154 177.273C238.154 176.158 238.508 175.414 239.215 174.299C239.568 173.555 240.628 172.812 241.335 172.44C242.042 172.44 242.396 172.068 242.749 172.068C244.163 172.068 245.577 173.184 246.637 174.671C247.698 176.158 248.405 178.016 248.405 180.247L248.405 180.247M246.991 213.706C246.991 215.565 246.284 217.424 245.224 218.539C244.163 219.654 242.749 220.398 241.335 220.769C239.921 221.141 238.508 220.398 236.74 218.911C235.68 217.424 234.619 215.936 233.559 214.449C232.498 216.308 231.792 217.795 231.438 218.167C230.378 220.026 229.317 220.769 227.903 220.769C226.843 220.769 225.782 220.398 224.015 219.282C222.601 218.167 221.541 217.424 220.48 217.052C220.834 216.68 221.187 216.68 221.894 217.052C222.601 217.052 223.308 217.052 223.308 217.052C223.662 217.052 224.015 217.052 224.015 217.052C224.722 216.68 225.076 215.565 225.076 213.706C225.076 212.962 225.076 212.219 225.782 211.847C226.136 211.847 226.843 211.475 227.55 211.475C227.903 211.475 227.903 211.475 228.257 211.475C228.257 211.475 228.257 211.475 228.257 211.475C227.55 212.591 227.196 213.334 226.843 214.078C226.489 214.821 226.136 215.936 226.136 216.68C226.136 217.052 226.489 217.795 226.489 218.167C226.843 218.539 227.196 218.911 227.903 218.911C228.61 218.911 228.964 218.539 229.671 218.167C230.378 217.424 230.731 217.052 231.085 216.308C231.792 215.936 231.792 215.193 231.792 214.821C231.792 213.334 231.438 211.847 230.024 210.36C228.61 208.873 227.55 208.129 226.136 208.129C225.076 208.129 223.662 208.873 222.601 209.616C222.601 209.988 220.834 212.219 217.653 216.308L217.653 213.334C218.713 211.847 219.773 210.36 220.834 208.501C222.248 207.014 223.662 206.271 225.076 206.271C227.55 206.271 230.378 208.501 233.912 212.591C237.094 216.68 239.568 218.911 240.628 218.911C242.042 218.911 243.456 218.539 244.163 217.424C244.87 216.68 245.224 215.565 245.224 214.449C245.224 212.962 244.87 211.475 244.163 209.988C243.456 208.129 242.749 207.386 242.042 207.386C241.335 207.386 240.982 207.758 240.628 208.501C240.628 209.245 240.275 209.616 240.275 210.36C240.275 211.475 240.628 212.219 240.982 213.334C241.335 214.078 241.689 214.821 242.396 215.565C242.042 215.565 241.689 215.936 241.335 215.936C240.628 215.936 240.628 215.565 240.275 215.565C238.508 214.821 237.801 212.962 237.801 210.732C237.801 209.616 238.154 208.501 238.508 207.758C239.215 207.014 239.921 206.642 240.628 205.899C240.982 205.899 241.689 205.527 242.042 205.527C243.456 205.527 244.517 206.642 245.577 208.129C246.284 209.988 246.991 211.847 246.991 213.706L246.991 213.706M279.511 190.656L279.511 183.593L259.716 183.593C259.716 183.221 259.716 182.849 259.363 181.734C259.009 180.991 259.009 180.247 259.009 180.247C259.009 170.581 261.483 163.518 266.079 158.313C268.199 155.711 272.795 152.365 279.511 148.647C285.166 145.673 288.347 142.699 289.408 139.353L289.408 190.656L295.417 190.656L295.417 201.066L245.224 201.066L245.224 190.656L279.511 190.656M278.804 161.659C277.39 162.774 275.976 163.889 274.208 165.748C272.795 167.607 271.734 169.466 271.027 171.325L278.804 171.325L278.804 161.659M291.882 102.176C290.468 104.407 289.054 105.522 286.934 106.638C285.52 107.753 283.752 108.125 281.985 108.125C280.218 108.125 278.804 107.753 277.39 107.009C276.329 105.894 275.269 104.779 274.208 103.292C275.622 102.548 276.683 101.433 277.743 100.318C278.804 99.2024 279.157 98.0871 279.157 97.3435C278.804 96.9718 278.804 96.6 278.45 96.2282C277.743 95.4847 277.39 95.1129 277.036 95.1129C275.976 95.1129 275.269 95.8565 274.562 97.3435C273.855 98.4588 273.502 99.9459 273.502 101.433C273.501 101.805 273.502 102.176 273.502 102.92C272.795 102.548 272.088 102.548 271.734 102.548C271.027 102.548 270.674 102.548 269.967 102.176L268.906 103.292C269.613 103.664 271.027 104.779 273.502 106.266C275.269 107.009 275.976 107.753 276.329 107.753C275.269 109.24 274.208 110.355 273.502 111.842C272.795 113.701 272.088 115.56 272.088 117.419C272.088 117.791 272.088 118.534 272.441 119.278C272.441 119.649 272.441 120.393 272.441 120.393C270.32 119.278 268.906 117.419 268.199 115.932C267.139 114.073 266.785 112.214 266.785 110.355C266.785 109.24 266.785 107.753 267.139 106.638C267.492 105.522 267.846 104.035 268.199 102.548C267.139 101.433 266.432 99.9459 265.725 98.4588C265.018 96.9718 264.665 95.1129 264.665 92.8824C264.665 92.1388 265.018 91.3953 265.018 90.6518C265.018 90.28 265.372 89.1647 265.725 88.4212C266.785 89.1647 267.846 89.9082 268.906 90.28C269.26 90.6518 269.967 91.0235 270.674 90.6518C273.501 91.0235 275.269 90.28 276.329 88.7929C277.39 87.6777 278.097 85.8188 278.097 83.5882C278.097 82.8447 278.097 82.1012 278.097 81.3576C278.097 80.6141 278.097 79.8706 278.097 78.7553C278.097 76.5247 277.743 74.6659 277.743 73.5506C277.036 72.0635 276.329 71.32 275.269 71.32C270.32 71.32 266.432 73.9224 263.604 79.4988C261.837 83.96 260.423 89.5365 259.716 96.2282C259.363 99.9459 259.009 104.035 259.009 108.496C259.009 110.727 258.656 113.329 257.949 115.932C257.595 118.906 256.888 121.508 256.181 124.111C256.181 125.598 256.888 125.969 258.302 125.969C259.716 125.969 262.19 125.226 265.725 122.995C260.776 129.315 257.949 134.52 256.888 138.609C256.888 139.725 255.828 144.558 254.767 152.365C254.414 149.019 253.707 146.045 253.707 144.186C252.647 137.494 252.293 131.918 252.293 127.828C252.293 127.085 252.293 126.341 252.293 125.598C252.293 124.854 252.293 124.111 252.293 122.995C252.647 119.649 253.353 115.932 253.707 112.586C254.414 109.984 255.121 107.753 255.474 106.266C254.767 106.638 254.414 107.009 254.06 107.381C253.707 107.753 253 108.125 252.293 108.496C252.293 106.266 252.293 104.779 252.293 103.664C253 100.689 254.06 99.2024 255.474 99.5741C255.474 99.2024 255.474 99.2024 255.828 99.2024C256.181 98.8306 256.181 98.8306 256.181 98.0871C256.181 97.7153 255.474 95.4847 254.06 92.1388C253 88.7929 252.293 86.5624 252.293 85.4471C252.293 84.3318 252.647 83.2165 253.353 81.7294C254.06 80.2424 254.414 79.1271 254.414 78.0118C254.414 77.64 254.414 76.8965 254.06 76.5247C253 75.7812 252.293 75.4094 252.293 75.4094L252.293 66.1153C254.767 67.6024 256.181 69.0894 256.535 69.8329C256.888 70.5765 257.242 72.4353 257.242 75.7812C257.949 75.7812 260.069 74.2941 263.251 71.6918C266.785 68.3459 269.613 66.8588 271.381 66.8588C276.683 66.8588 280.218 68.7176 281.985 71.6918C283.399 74.2941 284.106 78.0118 284.106 83.2165C284.106 83.96 284.106 85.0753 284.106 86.9341C284.106 88.4212 284.106 89.9082 284.106 90.6518C284.106 94.3694 284.459 97.3435 285.52 98.8306C286.58 101.061 288.701 102.176 291.882 102.176L291.882 102.176M285.52 103.664C284.106 102.176 282.338 100.689 280.924 99.2024C280.571 100.689 280.218 101.805 279.864 102.176C279.157 102.92 278.804 103.292 278.45 103.664C279.157 104.035 279.511 104.407 280.218 104.407C280.924 104.779 281.278 104.779 281.985 104.779C283.045 104.779 284.106 104.407 285.52 103.664L285.52 103.664M272.088 93.9977C271.381 93.9977 270.32 93.6259 269.613 93.6259C268.553 93.2541 268.199 93.2541 267.846 93.2541C267.846 95.1129 268.199 96.6 268.906 97.3435C269.26 97.7153 269.967 98.0871 271.027 98.0871C271.027 97.3435 271.027 96.2282 271.381 95.8565C271.734 95.1129 272.088 94.3694 272.088 93.9976L272.088 93.9977M264.311 208.129C263.251 208.501 262.544 209.245 261.483 210.36C260.423 211.847 260.069 213.334 260.069 214.821C260.069 215.193 260.423 215.936 260.776 216.68C261.13 217.052 261.483 217.795 261.837 218.167C262.19 218.539 262.544 218.911 263.251 218.911C263.604 218.911 263.958 218.539 263.958 218.167C264.311 217.795 264.311 217.424 264.311 216.68C264.311 215.936 264.311 215.193 263.958 214.449C263.604 213.334 263.251 212.591 262.897 211.847C263.251 211.847 263.958 211.847 264.311 211.847C264.665 212.219 265.018 212.591 265.018 214.078C265.018 215.936 265.372 216.68 265.725 217.052C266.079 217.424 266.432 217.052 266.785 217.052C267.492 216.68 267.846 216.68 267.846 216.68C268.199 216.68 268.199 216.68 268.553 217.052C267.492 218.167 266.432 218.911 265.372 220.026C264.665 220.769 263.958 220.769 263.251 220.769C262.544 220.769 261.837 220.398 261.13 219.282C260.423 217.424 259.716 215.936 259.009 214.449C258.302 216.308 257.242 218.167 256.181 219.654C255.121 220.769 254.414 221.141 253.707 220.769C252.647 220.398 251.586 219.654 250.879 218.539C250.172 217.424 249.819 215.565 249.819 213.706C249.819 211.475 250.172 209.616 250.879 208.129C251.586 206.271 252.293 205.527 253 205.527C253.353 205.527 253.707 205.527 254.06 205.899C254.767 206.271 255.121 207.014 255.474 207.758C256.181 208.501 256.181 209.616 256.181 210.732C256.181 211.847 256.181 212.962 255.828 213.706C255.474 214.449 255.121 215.193 254.414 215.565C254.414 215.565 254.06 215.936 253.707 215.936C253.353 215.936 253 215.936 253 215.565C252.647 215.565 252.647 215.565 252.647 215.565C253.707 214.078 254.414 212.591 254.414 210.36C254.414 209.988 254.06 209.245 254.06 208.501C253.707 207.758 253.707 207.386 253.353 207.386C252.647 207.386 251.94 208.129 251.586 209.988C250.879 211.847 250.526 213.334 250.526 214.821C250.526 216.308 251.233 217.424 251.94 218.167C252.647 218.539 253.353 218.911 254.06 218.911C254.767 218.911 256.535 216.68 259.009 212.591C261.13 208.501 263.251 206.271 265.018 206.271C266.785 206.271 268.553 208.501 270.674 212.591C272.795 216.68 274.208 218.911 275.622 218.911C275.976 218.911 276.329 218.911 276.683 218.539C278.45 217.795 279.511 216.68 279.864 215.565C280.571 214.821 280.924 213.334 280.924 212.219L280.924 211.475C280.924 210.732 280.571 209.616 279.864 209.245C279.511 208.501 278.804 208.129 278.45 208.129C278.45 208.129 278.097 208.501 277.743 208.873C277.39 209.616 277.39 209.988 277.39 210.732C277.39 211.475 277.743 212.219 277.743 212.962C278.097 214.078 278.45 214.821 279.157 215.565C278.45 215.565 278.097 215.193 277.743 215.193C277.036 214.449 276.683 213.706 276.683 212.591C276.683 211.475 276.329 211.104 276.329 210.36C275.976 209.988 275.976 209.616 275.622 209.616C274.915 209.988 274.208 209.988 273.855 209.988C273.501 209.988 273.148 209.988 273.148 209.616C274.562 208.501 275.269 208.129 275.622 207.758C276.683 207.014 277.743 206.642 278.804 206.271C279.511 206.271 280.218 207.014 280.924 208.873C281.278 209.616 281.985 210.732 282.692 212.591C282.692 212.591 283.399 211.475 284.459 209.616C285.873 207.014 286.934 205.899 287.994 206.271C289.408 206.642 290.115 207.386 290.822 208.501C291.882 209.616 292.236 211.475 292.236 213.334C292.236 215.565 291.882 217.424 291.175 218.911C290.468 220.769 289.761 221.513 288.701 221.513C288.701 221.513 288.347 221.141 287.994 221.141C287.287 220.398 286.58 220.026 286.227 219.282C285.873 218.539 285.873 217.424 285.873 216.308C285.873 214.078 286.227 212.591 287.64 211.475C287.64 211.475 288.347 211.475 288.701 211.475C288.701 211.475 289.054 211.475 289.054 211.475C288.701 212.219 288.347 212.962 287.994 213.706C287.64 214.821 287.64 215.565 287.64 216.308C287.64 217.052 287.64 217.795 287.994 218.539C287.994 218.911 288.347 219.282 288.701 219.282C289.054 219.282 289.761 218.539 290.115 217.052C290.822 215.565 291.175 214.078 291.175 212.591C291.175 211.104 290.822 209.988 290.115 209.245C289.408 208.501 288.701 208.129 287.64 208.129C287.64 208.129 285.166 211.104 280.924 217.424C279.157 220.026 277.39 221.141 275.622 221.141C273.855 221.141 272.088 218.911 269.613 214.449C267.492 209.988 265.725 208.129 264.311 208.129L264.311 208.129M284.813 127.085C285.166 128.2 285.52 129.315 285.52 130.802C285.52 133.776 284.106 136.379 281.631 137.866C281.278 137.866 280.571 138.238 279.864 138.238C279.157 138.609 278.804 138.609 278.097 138.609C277.036 138.609 275.976 138.238 274.915 137.494C273.855 137.122 272.795 136.007 272.088 134.892C271.381 133.405 271.027 131.918 271.027 130.431C271.027 127.828 271.734 125.598 273.855 124.111C275.269 123.367 276.683 122.995 278.097 122.995C281.278 122.995 283.399 124.482 284.813 127.085L284.813 127.085M331.118 125.969C331.118 125.969 330.411 125.969 330.057 125.969C329.35 125.969 328.997 125.969 328.644 125.969C328.29 125.969 328.29 125.969 327.937 125.969C327.583 125.969 327.583 125.969 327.23 125.969C326.523 125.969 325.462 126.341 324.402 126.713C323.695 127.085 322.988 127.456 322.281 127.828L319.453 124.111C320.16 123.739 320.514 122.995 320.867 122.252C321.221 121.508 321.221 120.393 321.221 119.278C321.221 118.534 321.221 117.791 321.221 117.419C321.221 108.868 321.221 103.292 321.221 99.9459C321.221 96.6 321.221 93.6259 321.221 90.6518C320.514 89.1647 320.16 88.0494 319.807 87.3059C318.393 85.0753 316.625 83.2165 314.505 82.4729C316.625 80.9859 318.393 79.8706 319.1 79.4988C321.221 77.64 323.341 75.7812 325.109 73.5506C326.169 72.4353 327.583 70.5765 328.997 68.3459C329.35 67.6024 330.057 66.4871 331.118 65L331.118 125.969M313.444 86.5624C313.798 87.3059 314.151 88.0494 314.505 88.7929C314.858 89.9082 314.858 90.6518 314.858 91.3953C314.858 92.8824 314.505 93.9976 313.444 94.3694C309.909 95.8565 307.082 97.3435 304.961 99.5741C302.486 101.805 301.073 104.779 300.012 107.753C300.012 107.381 299.659 106.638 299.659 105.894C299.659 105.151 299.659 104.779 299.659 104.035C299.659 101.805 300.012 99.5741 300.719 97.7153C300.719 97.3435 300.719 96.9718 301.073 96.2282C300.012 94.7412 298.952 93.6259 298.245 92.1388C297.184 91.0235 296.477 89.5365 296.124 88.0494C295.77 86.5624 295.417 85.0753 295.417 83.96C295.417 82.4729 295.77 81.3576 296.124 80.2424C296.477 79.8706 296.831 78.7553 297.891 76.8965C298.952 75.4094 299.659 73.9224 300.012 72.4353C300.012 71.32 300.366 69.8329 300.366 68.3459C300.366 67.2306 300.366 66.1153 300.012 65L301.779 68.7176C302.133 69.8329 302.486 71.32 303.193 72.8071C303.9 74.2941 305.314 75.7812 308.142 77.2682C308.849 77.64 309.556 78.3835 310.263 79.4988C310.97 80.6141 311.323 81.7294 311.323 82.8447C311.323 83.5882 310.97 83.96 310.616 84.7035C309.909 86.1906 308.495 86.9341 307.082 86.9341C306.021 86.9341 305.314 86.9341 304.961 86.5624C304.254 86.1906 303.9 85.4471 303.547 85.0753C303.547 84.7035 303.547 84.3318 303.547 84.3318C303.547 83.96 303.547 83.5882 303.547 83.2165C303.9 82.8447 303.9 82.4729 304.254 82.4729C304.254 82.1012 304.961 82.1012 305.314 81.7294C306.021 81.7294 306.728 81.7294 307.789 82.4729C308.142 82.8447 308.849 83.2165 309.556 83.5882C309.556 82.4729 309.202 81.7294 308.849 80.9859C308.849 80.2424 308.142 79.4988 307.435 79.1271C306.375 78.7553 305.668 78.3835 304.254 78.3835C302.133 78.3835 300.012 79.4988 298.952 81.3576C298.598 82.1012 298.598 83.2165 298.598 84.3318C298.598 85.8188 298.952 87.3059 299.659 88.7929C300.366 90.6518 301.779 92.1388 303.547 93.2541C304.607 93.6259 305.668 93.9976 306.375 93.9976C306.728 93.9977 307.435 93.9976 307.789 93.6259C308.849 93.2541 309.556 92.8824 309.909 92.8824C310.97 92.8824 311.677 91.7671 312.03 90.6518C312.737 88.4212 313.091 86.9341 313.444 86.5624L313.444 86.5624M331.471 136.379C330.057 137.122 328.644 137.494 327.583 138.238C325.462 139.353 323.695 140.84 322.281 142.327C321.221 141.584 320.867 140.84 320.867 140.468C321.574 139.725 321.927 139.353 322.281 138.981C323.695 137.494 325.109 136.751 326.169 136.379C325.816 135.264 324.048 133.776 320.867 130.802C316.979 127.828 314.151 125.969 312.03 125.969C310.97 125.969 310.263 126.341 309.556 126.713C309.556 126.713 309.202 127.085 308.495 128.2C308.849 128.2 309.556 128.2 310.263 128.2C310.97 128.2 311.677 128.572 312.384 128.572C312.737 128.944 313.091 129.315 313.444 129.315C313.798 129.687 314.505 130.431 314.858 131.546C314.505 131.918 314.505 131.918 314.505 132.289C314.151 133.033 313.444 134.148 312.384 135.635C312.384 135.264 312.384 134.52 312.03 133.776C311.677 133.405 311.323 132.661 310.616 132.661C309.909 132.289 309.202 132.289 308.495 132.289C307.789 132.289 307.082 132.289 306.728 132.661C306.021 133.405 305.668 133.776 305.314 133.776C304.961 133.033 304.607 131.918 304.607 130.802C304.607 129.687 304.961 128.2 305.314 126.713C305.668 125.226 306.728 124.111 307.789 122.624C308.849 121.508 309.556 120.765 309.909 120.393C310.616 118.534 310.97 116.304 311.677 114.073C312.737 112.214 314.505 109.984 316.979 107.009C316.625 106.638 315.918 106.266 315.565 105.894C314.858 105.151 314.505 104.407 314.505 103.664C314.505 102.92 314.858 101.805 315.565 101.061C315.918 100.689 316.625 100.318 317.332 99.9459C318.393 100.318 318.746 100.318 319.1 100.689C319.807 101.061 320.16 101.805 320.514 103.292C320.867 103.292 320.867 103.664 320.867 104.035C320.867 104.779 320.514 105.894 320.16 107.009C320.16 107.381 319.807 107.753 319.453 108.125C318.393 109.24 317.686 110.727 317.332 112.214C316.625 113.701 316.272 115.188 316.272 116.675C316.272 117.791 316.272 118.906 316.625 119.649C316.979 120.393 316.979 121.136 316.979 121.136C316.979 122.624 318.746 124.854 322.281 127.828C325.109 130.802 328.29 133.405 331.471 135.635L331.471 136.379M306.375 113.329C306.728 114.073 306.728 114.445 306.728 115.188C306.728 116.304 306.375 117.419 305.668 118.534C305.314 119.649 304.607 120.393 303.547 120.765C300.719 122.624 298.952 124.482 298.245 126.341C297.891 127.456 297.538 128.572 297.184 129.315L295.417 133.033C296.124 128.572 296.477 124.854 296.477 121.88C296.477 120.021 296.124 118.162 296.124 116.675C295.77 115.932 295.77 115.56 295.417 114.816C296.124 116.304 297.184 117.419 298.245 118.162C299.305 119.278 300.366 119.649 301.073 119.649C301.779 119.649 302.486 119.649 302.84 119.278C303.547 118.534 304.254 118.162 304.607 117.419C304.961 116.675 304.961 115.56 304.961 114.445C304.961 114.445 304.254 114.816 303.547 115.56C302.486 116.304 301.426 116.675 301.073 116.304C300.012 115.932 299.305 115.56 299.305 115.188C298.952 114.816 298.952 114.445 298.952 114.073C298.952 113.701 298.952 113.329 298.952 112.958C299.305 112.586 299.659 112.214 300.366 111.842C301.073 111.471 301.779 111.099 302.486 111.099C304.254 111.099 305.314 111.842 306.375 113.329L306.375 113.329M320.514 166.492C320.514 167.607 320.16 168.722 319.807 169.838C319.1 170.953 318.393 171.325 317.332 171.325C316.625 171.325 315.918 171.325 315.565 170.581C314.858 170.209 314.505 169.838 314.505 169.094C314.505 167.979 314.858 167.235 315.211 166.864C315.565 166.492 316.272 165.748 317.332 165.376C316.979 164.633 316.625 164.261 316.272 163.889C315.565 163.146 315.565 162.774 315.565 162.774C315.211 162.774 314.858 162.774 314.858 162.774C314.858 162.402 314.505 161.659 313.444 160.172C312.384 158.685 311.323 157.198 310.263 155.711C310.263 155.339 309.909 154.967 309.909 154.224C309.909 153.108 309.909 152.736 309.909 152.365C308.495 151.249 307.435 150.506 306.728 149.762C304.961 147.532 303.9 144.929 303.9 142.327L304.607 138.609C304.961 138.981 305.314 139.353 306.021 139.725C306.728 140.096 307.435 140.096 307.789 140.096C308.495 140.096 309.202 139.725 310.263 138.981C311.323 138.238 312.03 137.494 313.091 136.379C313.798 135.264 314.505 134.148 315.211 132.289C316.272 130.431 316.625 128.944 316.625 128.572L319.453 130.802C319.1 131.918 318.746 133.033 318.039 134.52C317.686 135.635 317.332 136.751 316.625 137.494C315.918 138.981 315.211 140.096 314.858 140.468C314.151 141.584 313.444 142.327 312.03 143.071C311.677 143.442 311.323 143.814 310.616 143.814C309.909 144.186 309.202 144.558 308.495 144.558C308.849 145.301 309.556 146.045 310.263 146.416C311.323 146.788 311.677 147.16 312.384 147.16C313.091 146.788 313.444 146.416 313.798 146.416C314.858 145.673 315.918 145.301 316.625 144.558C316.625 145.301 316.979 146.045 317.332 146.788C317.686 147.532 317.686 147.904 317.686 147.904L316.625 151.249L315.918 154.595C315.918 156.082 316.625 157.569 317.332 159.428C319.453 163.146 320.514 165.748 320.514 166.492L320.514 166.492M312.384 167.979C312.737 168.722 313.091 169.466 313.444 170.581C313.798 171.696 313.798 172.44 313.798 173.184C313.798 174.299 313.444 175.414 312.384 175.786C308.849 177.273 306.021 179.132 303.9 180.991C301.426 183.593 300.012 186.195 298.952 189.169C298.952 188.798 298.598 188.054 298.598 187.682C298.598 186.939 298.598 186.195 298.598 185.452C298.598 183.221 298.952 181.362 299.659 179.132C299.659 178.76 299.659 178.388 300.012 178.016C298.952 176.529 297.891 175.042 297.184 173.927C296.124 172.812 295.417 171.325 295.063 169.838C294.71 168.351 294.356 166.864 294.356 165.748C294.357 164.261 294.71 163.146 295.063 162.031C295.417 161.659 295.77 160.544 296.831 158.685C297.891 157.198 298.598 155.711 298.952 154.224C298.952 153.108 299.305 151.621 299.305 150.134C299.305 149.019 299.305 147.904 298.952 146.788L300.719 150.134C301.073 151.621 301.779 153.108 302.133 154.595C302.84 155.711 304.607 157.198 307.082 159.056C307.789 159.428 308.495 160.172 309.202 161.287C309.909 162.402 310.263 163.518 310.263 164.633C310.263 165.376 309.909 165.748 309.909 166.492C308.849 167.979 307.435 168.722 306.021 168.722C304.961 168.722 304.254 168.351 303.9 167.979C303.193 167.607 302.84 167.235 302.486 166.864C302.486 166.492 302.486 166.12 302.486 165.748C302.486 165.376 302.486 165.005 302.486 164.633C302.84 164.633 302.84 164.261 303.193 163.889C303.547 163.889 303.9 163.518 304.254 163.518C304.961 163.146 306.021 163.518 306.728 163.889C307.435 164.261 307.789 164.633 308.495 165.005C308.495 164.261 308.142 163.146 308.142 162.402C307.789 162.031 307.082 161.287 306.375 160.915C305.314 160.172 304.607 160.172 303.547 160.172C301.073 160.172 299.305 160.915 297.891 163.146C297.538 163.889 297.538 164.633 297.538 166.12C297.538 167.607 297.891 169.094 298.598 170.581C299.305 172.44 300.719 173.927 302.486 175.042C303.547 175.414 304.607 175.786 305.314 175.786C305.668 175.786 306.021 175.786 306.728 175.414C307.789 175.042 308.495 175.042 308.849 174.671C309.909 174.671 310.616 173.555 310.97 172.068C311.677 169.838 312.03 168.351 312.384 167.979L312.384 167.979M330.764 201.066L330.764 205.527C330.764 208.129 329.35 210.732 326.169 213.706C322.988 217.052 319.1 218.911 314.858 219.654C314.505 219.654 313.798 220.398 313.444 221.141C312.737 222.256 312.03 223 311.677 223C311.323 223 310.616 222.256 309.909 221.513C309.202 220.398 308.849 219.654 308.495 219.654C304.254 218.539 301.073 216.308 298.952 212.962C296.831 209.616 295.77 205.527 295.77 201.066L290.468 201.066L290.468 190.656L304.254 190.656L304.254 201.066C304.254 202.925 304.961 204.784 306.021 206.642C307.435 208.873 309.202 209.988 311.677 209.988C314.505 209.988 316.979 209.245 318.746 207.014C320.16 205.527 320.867 203.668 321.221 201.066L321.221 156.454C321.221 154.224 321.221 152.736 321.221 151.993C321.221 151.621 321.221 150.878 321.221 150.134L319.453 148.275C318.746 147.16 317.686 145.301 316.625 142.699C316.272 141.584 315.918 141.212 315.565 140.84L317.686 136.379C319.807 140.468 321.221 142.327 321.221 142.699C322.988 144.558 325.109 145.301 328.29 145.301C328.643 145.301 329.35 145.301 330.764 145.301L330.764 190.656L330.764 201.066M316.979 204.412L315.565 200.694C314.858 199.579 314.505 198.092 314.151 196.605C313.444 195.118 311.677 193.631 309.202 192.144C308.142 191.772 307.435 191.028 307.082 189.913C306.375 188.798 306.021 187.682 306.021 186.567C306.021 185.824 306.021 185.452 306.375 184.708C307.435 183.221 308.495 182.478 310.263 182.478C310.97 182.478 311.677 182.478 312.384 182.849C313.091 183.221 313.444 183.593 313.444 183.965C313.798 184.336 313.798 184.708 313.798 185.08C313.798 185.452 313.798 185.824 313.444 186.195C313.444 186.567 313.091 186.939 313.091 186.939C312.737 187.311 312.384 187.311 311.677 187.682C310.97 188.054 310.263 187.682 309.556 187.311C308.849 186.939 308.142 186.567 307.789 185.824C307.789 186.939 307.789 187.682 308.142 188.426C308.495 189.169 308.849 189.913 309.909 190.285C310.616 190.656 310.97 190.656 311.677 190.656C312.384 190.656 313.444 190.285 314.505 189.541C315.565 188.798 316.272 187.682 316.979 186.195C316.979 187.311 316.625 188.054 316.625 188.798C316.272 190.285 316.272 191.772 316.272 193.259C316.272 196.233 316.625 199.951 316.979 204.412L316.979 204.412M368.586 90.28C368.586 91.3953 368.233 92.8824 367.172 94.7412C366.112 96.2282 365.051 97.7153 364.698 98.8306C364.344 98.4588 364.344 98.4588 364.344 98.0871C364.344 97.7153 364.344 96.9718 364.698 96.2282C364.698 95.8565 364.698 95.4847 364.698 95.1129C364.698 95.1129 364.698 94.7412 364.698 94.3694C364.344 93.6259 363.284 93.2541 361.87 93.2541C361.163 93.2541 360.456 93.2541 360.103 92.5106C360.103 92.1388 359.749 91.3953 359.749 90.28C359.749 89.9082 359.749 89.9082 359.749 89.5365C359.749 89.5365 359.749 89.1647 359.749 89.1647C361.163 91.0235 362.931 91.7671 364.344 91.7671C364.698 91.7671 365.405 91.7671 365.758 91.3953C366.112 91.0235 366.465 90.6518 366.465 89.9082C366.465 89.1647 366.112 88.4212 365.758 87.6776C365.051 86.9341 364.698 86.1906 363.991 85.8188C363.637 85.4471 362.931 85.0753 362.577 85.0753C361.163 85.0753 359.749 85.8188 358.689 87.3059C357.275 89.1647 356.568 90.28 356.568 91.7671C356.568 93.2541 356.921 94.7412 357.982 95.8565C358.335 96.2282 360.456 98.0871 364.344 101.805L361.517 101.805C360.103 100.689 358.335 99.2024 356.921 98.0871C355.154 96.6 354.447 95.1129 354.447 93.2541C354.447 90.28 356.568 86.9341 360.456 82.8447C364.344 79.1271 366.465 76.5247 366.465 75.0376C366.465 73.9224 366.112 72.8071 365.758 71.6918C365.051 70.2047 363.991 69.4612 362.931 69.4612C361.163 69.4612 359.396 69.8329 357.982 70.9482C356.215 71.6918 355.508 72.8071 355.508 73.5506C355.508 74.2941 355.861 74.6659 356.568 75.0376C357.275 75.4094 357.982 75.4094 358.689 75.4094C360.456 75.4094 362.224 74.6659 363.637 72.8071C363.637 72.8071 363.637 73.1788 363.637 73.5506C363.637 73.9224 363.637 73.9224 363.637 74.2941C363.637 75.0376 363.637 75.4094 363.637 75.4094C362.577 77.64 361.163 78.3835 358.689 78.3835C357.628 78.3835 356.568 78.0118 355.861 77.64C355.154 76.8965 354.447 76.1529 354.094 75.0376C353.74 74.6659 353.74 73.9224 353.74 73.5506C353.74 72.0635 354.447 70.5765 356.215 69.4612C357.628 68.3459 359.396 67.6024 361.517 67.6024C363.637 67.6024 365.051 68.3459 366.465 69.8329C367.526 70.9482 368.233 72.4353 368.586 74.6659C368.586 74.6659 368.586 75.0376 368.586 75.4094C368.586 76.8965 367.879 78.3835 366.465 79.8706C365.051 81.3577 363.637 82.4729 362.577 83.5882C364.344 85.0753 365.405 85.8188 366.112 86.1906C367.879 87.3059 368.586 88.7929 368.586 90.28L368.586 90.28M358.689 82.4729C356.568 83.2165 354.801 85.0753 353.387 87.3059C353.033 88.0494 352.68 89.1647 351.973 90.6518L351.973 117.419C351.973 118.906 351.973 120.393 352.326 121.508C352.326 122.624 352.68 123.739 353.387 124.111C352.68 124.854 352.326 125.226 351.973 125.598C350.559 126.713 349.852 127.456 349.498 127.828C348.792 127.456 348.438 127.085 347.731 126.341C347.024 126.341 346.671 125.969 345.964 125.969C345.61 125.969 345.257 125.969 344.55 125.969C344.196 125.969 343.843 125.969 343.489 125.969C343.136 125.969 342.782 125.969 342.076 125.969L342.076 65C343.136 66.4871 343.843 67.2306 344.196 67.9741C345.964 70.5765 347.378 72.4353 348.438 73.5506C349.852 75.4094 351.266 76.8965 353.033 78.3835C354.447 79.4988 356.215 80.9859 358.689 82.4729L358.689 82.4729M367.879 134.148C367.526 133.776 367.172 133.405 366.465 133.033C365.758 133.033 365.405 132.661 364.698 132.661C363.991 132.661 363.284 132.661 362.577 133.033C361.87 133.405 361.517 133.776 361.163 134.52C360.81 134.892 360.456 135.635 360.456 136.007C360.103 135.264 359.396 134.148 358.689 132.661C358.689 132.661 358.689 132.289 358.335 131.918C358.689 131.174 359.042 130.802 359.396 130.431C359.749 130.059 360.103 129.687 360.81 128.944C361.163 128.944 361.517 128.944 362.224 128.572C362.577 128.572 363.284 128.572 363.991 128.572C364.344 128.572 364.698 128.572 364.698 128.572L364.698 128.572C363.991 127.828 363.637 127.085 363.284 127.085C362.931 126.713 362.224 126.341 361.163 126.341C359.396 126.341 356.921 127.456 354.447 129.315C350.205 132.661 347.731 134.892 346.671 136.379C348.085 137.122 349.145 137.866 350.559 138.981C350.912 138.981 351.619 139.725 351.973 140.096C351.973 140.468 351.619 140.84 351.266 141.212C351.266 141.584 350.912 141.955 350.559 142.327C349.145 140.84 347.378 139.725 344.903 138.238C344.196 137.866 342.782 137.494 341.015 136.751L341.015 136.007C344.55 133.405 347.731 131.174 350.559 128.572C354.094 125.226 355.861 122.995 355.861 121.88C356.215 121.136 356.568 120.393 356.568 119.649C356.921 118.906 356.921 118.162 356.921 117.419C356.921 115.188 356.568 113.329 355.508 111.471C354.801 110.727 354.447 109.612 353.74 108.868C353.387 108.125 353.033 107.753 353.033 107.381C352.68 106.266 352.326 105.151 352.326 104.407C352.326 104.035 352.326 104.035 352.326 103.664C353.033 102.548 353.387 101.433 353.74 101.061C354.094 100.689 354.801 100.689 355.861 100.689C356.568 100.689 357.275 101.061 357.628 101.805C358.335 102.548 358.689 103.292 358.689 104.035C358.689 105.151 358.335 105.894 357.628 106.266C356.568 107.009 355.861 107.381 355.861 107.381C358.689 110.355 360.456 112.586 361.517 114.445C361.87 117.419 362.577 119.649 363.284 120.765C363.284 121.136 363.637 121.508 364.344 122.252C366.112 124.111 367.526 125.598 367.879 127.085C368.233 128.572 368.586 130.059 368.586 131.174C368.586 132.661 368.233 133.405 367.879 134.148L367.879 134.148M369.293 142.327C369.293 144.186 368.233 146.416 366.465 149.019C365.758 149.762 364.698 150.878 363.284 152.365C363.284 153.108 363.284 153.48 363.284 154.224C363.284 154.967 362.931 155.339 362.931 156.082C362.577 156.454 362.224 157.569 361.163 158.685C360.456 160.172 359.396 161.287 358.335 162.774C358.335 162.774 357.982 163.146 357.275 163.518C356.921 163.889 356.215 164.633 355.861 165.376C356.568 165.748 357.275 166.12 357.275 166.12C358.335 166.864 358.689 167.607 358.689 169.094C358.689 169.838 358.335 170.209 357.628 170.581C357.275 171.325 356.568 171.325 355.861 171.325C354.801 171.325 354.094 170.953 353.387 169.838C352.68 168.722 352.326 167.607 352.326 166.492C352.326 165.748 353.387 163.146 355.508 159.428C356.568 157.569 356.921 156.082 356.921 154.595L356.215 151.249L355.154 148.275C355.154 147.904 355.508 147.16 355.861 146.416C355.861 146.045 356.215 145.301 356.568 144.558C357.275 145.301 357.982 145.673 359.042 146.416C359.749 146.416 360.103 146.788 360.81 147.16C361.163 147.16 361.87 146.788 362.577 146.416C363.637 146.045 364.344 145.673 364.698 144.558C363.991 144.558 363.637 144.186 362.931 144.186C362.224 143.814 361.87 143.442 361.163 143.071C359.749 142.327 359.042 141.584 358.335 140.84C357.982 140.096 357.275 138.981 356.215 137.494C355.861 136.751 355.508 135.635 355.154 134.52C354.447 133.405 354.094 131.918 353.74 130.802L356.215 128.572C357.628 131.174 358.689 133.776 360.103 136.379C360.81 137.494 361.87 138.238 362.577 138.981C363.637 139.725 364.698 140.096 365.405 140.096C366.112 140.096 366.465 140.096 367.172 139.725C367.879 139.353 368.233 138.981 368.586 138.609C368.94 139.353 369.293 140.84 369.293 142.327L369.293 142.327M370 201.066L342.076 201.066L342.076 145.301C342.782 145.301 343.136 145.301 343.489 145.301C343.843 145.301 344.55 145.301 344.903 145.301C347.731 145.301 350.205 144.558 351.619 142.699C351.973 142.327 353.033 140.468 355.154 136.751C355.154 137.494 355.861 138.238 356.215 139.353C356.921 140.096 357.275 140.84 357.275 140.84C357.275 141.212 356.921 141.584 356.568 142.699C355.154 145.301 354.447 147.16 353.74 148.275L351.973 150.134L351.973 190.656L362.577 190.656C361.517 192.144 360.81 193.631 360.81 194.746C360.81 195.489 360.81 195.861 360.81 195.861C361.163 197.72 362.577 198.835 365.405 199.951C366.465 200.322 367.879 200.694 370 201.066L370 201.066M368.586 180.247C368.586 182.478 367.879 183.965 366.465 185.08C365.405 186.195 363.991 186.939 362.224 187.311C361.87 187.682 361.517 187.682 361.163 187.682C360.103 187.682 359.396 186.939 358.335 186.195C357.982 185.824 356.921 183.965 354.447 180.247L356.568 181.362C356.921 182.106 357.628 182.849 358.335 183.593C359.749 184.708 360.456 185.452 361.517 185.452C362.931 185.452 363.991 185.08 364.698 184.708C366.112 183.965 366.819 182.478 366.819 180.991C366.819 179.504 366.465 178.016 365.405 176.529C364.698 174.671 363.637 173.927 362.931 173.927C362.224 173.927 361.87 174.299 361.517 175.042C361.517 175.786 361.163 176.158 361.163 176.901C361.163 179.132 361.87 180.619 363.637 182.106C363.637 182.106 363.284 182.106 362.931 182.106C362.931 182.478 362.577 182.478 362.224 182.478C361.517 182.478 361.163 182.106 361.163 182.106C359.396 181.362 358.335 179.875 358.335 177.273C358.335 176.158 358.689 175.414 359.396 174.299C359.749 173.555 360.81 172.812 361.517 172.44C362.224 172.44 362.577 172.068 362.931 172.068C364.344 172.068 365.758 173.184 366.819 174.671C367.879 176.158 368.586 178.016 368.586 180.247L368.586 180.247M367.172 213.706C367.172 215.565 366.465 217.424 365.405 218.539C364.344 219.654 362.931 220.398 361.517 220.769C360.103 221.141 358.689 220.398 356.921 218.911C355.861 217.424 354.801 215.936 353.74 214.449C352.68 216.308 351.973 217.795 351.619 218.167C350.559 220.026 349.498 220.769 348.085 220.769C347.024 220.769 345.964 220.398 344.196 219.282C342.782 218.167 341.722 217.424 340.662 217.052C341.015 216.68 341.369 216.68 342.076 217.052C342.782 217.052 343.489 217.052 343.489 217.052C343.843 217.052 344.196 217.052 344.196 217.052C344.903 216.68 345.257 215.565 345.257 213.706C345.257 212.962 345.257 212.219 345.964 211.847C346.317 211.847 347.024 211.475 347.731 211.475C348.085 211.475 348.085 211.475 348.438 211.475C348.438 211.475 348.438 211.475 348.438 211.475C347.731 212.591 347.378 213.334 347.024 214.078C346.671 214.821 346.317 215.936 346.317 216.68C346.317 217.052 346.671 217.795 346.671 218.167C347.024 218.539 347.378 218.911 348.085 218.911C348.792 218.911 349.145 218.539 349.852 218.167C350.559 217.424 350.912 217.052 351.266 216.308C351.973 215.936 351.973 215.193 351.973 214.821C351.973 213.334 351.619 211.847 350.205 210.36C348.792 208.873 347.731 208.129 346.317 208.129C345.257 208.129 343.843 208.873 342.782 209.616C342.782 209.988 341.015 212.219 337.834 216.308L337.834 213.334C338.894 211.847 339.955 210.36 341.015 208.501C342.429 207.014 343.843 206.271 345.257 206.271C347.731 206.271 350.559 208.501 354.094 212.591C357.275 216.68 359.749 218.911 360.81 218.911C362.224 218.911 363.637 218.539 364.344 217.424C365.051 216.68 365.405 215.565 365.405 214.449C365.405 212.962 365.051 211.475 364.344 209.988C363.637 208.129 362.931 207.386 362.224 207.386C361.517 207.386 361.163 207.758 360.81 208.501C360.81 209.245 360.456 209.616 360.456 210.36C360.456 211.475 360.81 212.219 361.163 213.334C361.517 214.078 361.87 214.821 362.577 215.565C362.224 215.565 361.87 215.936 361.517 215.936C360.81 215.936 360.81 215.565 360.456 215.565C358.689 214.821 357.982 212.962 357.982 210.732C357.982 209.616 358.335 208.501 358.689 207.758C359.396 207.014 360.103 206.642 360.81 205.899C361.163 205.899 361.87 205.527 362.224 205.527C363.637 205.527 364.698 206.642 365.758 208.129C366.465 209.988 367.172 211.847 367.172 213.706L367.172 213.706z"/>
</svg>
