<?xml version="1.0" standalone="no"?>
<!DOCTYPE svg PUBLIC "-//W3C//DTD SVG 20010904//EN"
 "http://www.w3.org/TR/2001/REC-SVG-20010904/DTD/svg10.dtd">
<svg version="1.0" xmlns="http://www.w3.org/2000/svg"
 width="1070.000000pt" height="966.000000pt" viewBox="0 0 1070.000000 966.000000"
 preserveAspectRatio="xMidYMid meet">
<metadata>
Created by potrace 1.10, written by Peter Selinger 2001-2011
</metadata>
<g transform="translate(0.000000,966.000000) scale(0.100000,-0.100000)"
fill="#000000" stroke="none">
<path d="M7137 8289 c-15 -11 -32 -39 -39 -62 -9 -32 -30 -59 -85 -110 -87
-82 -191 -204 -356 -421 -66 -87 -209 -271 -318 -410 l-198 -251 52 -52 c28
-29 55 -53 59 -53 10 0 211 271 344 464 180 262 262 364 374 464 57 51 119
102 138 114 l34 21 20 -20 c18 -18 18 -23 6 -45 -11 -21 -423 -606 -511 -726
-46 -63 -54 -205 -13 -229 15 -9 18 -28 107 -677 l60 -439 -32 -61 c-27 -52
-98 -138 -223 -273 -16 -18 -28 -35 -25 -37 2 -3 58 -12 124 -20 172 -23 911
-23 1087 0 67 9 125 17 127 19 2 2 -48 62 -112 132 -63 70 -127 152 -142 182
l-27 54 72 541 c52 389 77 548 89 564 58 84 65 141 29 209 -13 23 -141 209
-286 413 l-263 371 23 29 c30 38 44 37 86 -7 l35 -37 22 29 c75 93 48 249 -48
277 -23 7 -54 25 -69 40 -33 36 -101 39 -141 7z m336 -1289 c-2 -19 -12 -197
-24 -395 -11 -198 -26 -439 -32 -535 l-12 -175 -207 -3 -208 -2 0 28 c0 32
-56 937 -65 1050 l-6 72 278 -2 278 -3 -2 -35z m155 -23 l22 -23 -20 -150
c-12 -82 -36 -266 -55 -409 -19 -143 -37 -267 -39 -275 -13 -53 8 388 35 733
13 156 17 166 57 124z m-789 -419 c17 -238 34 -455 36 -483 7 -76 -38 192 -91
543 l-47 313 28 29 c16 17 32 30 35 30 3 0 21 -195 39 -432z m688 -520 c-2
-13 -4 -5 -4 17 -1 22 1 32 4 23 2 -10 2 -28 0 -40z"/>
<path d="M7165 6445 c19 -31 35 -63 35 -73 0 -21 -18 -49 -80 -122 -80 -94
-85 -115 -44 -189 47 -88 129 -93 206 -13 55 57 68 80 68 125 0 50 -17 93 -72
179 -41 65 -121 148 -142 148 -4 0 9 -25 29 -55z"/>
<path d="M5928 7098 c-12 -9 -28 -77 -57 -238 -22 -124 -54 -304 -72 -400 -28
-155 -31 -188 -26 -295 4 -66 20 -196 36 -289 37 -204 106 -778 122 -1006 6
-91 12 -329 13 -530 1 -377 -5 -473 -45 -718 -11 -68 -18 -131 -15 -139 11
-27 43 13 55 66 5 26 33 132 61 236 84 318 135 598 167 935 23 246 23 757 0
1024 -9 105 -14 192 -11 195 10 10 178 -174 233 -255 61 -88 104 -134 125
-134 20 0 143 135 201 220 l49 72 -13 106 c-23 195 -43 259 -126 405 -148 258
-322 460 -619 715 -54 47 -55 47 -78 30z"/>
<path d="M3355 7023 c-29 -7 -63 -41 -92 -91 -29 -50 -25 -62 13 -37 22 14 39
16 101 10 87 -8 86 -18 -6 -65 -31 -16 -65 -36 -76 -45 -19 -16 -17 -16 37
-11 76 6 146 45 181 99 34 51 37 111 7 127 -23 12 -135 22 -165 13z"/>
<path d="M5538 6922 c-49 -59 -92 -173 -83 -222 18 -95 107 -95 155 1 23 43
23 43 -16 29 -79 -30 -105 63 -46 165 22 36 15 57 -10 27z"/>
<path d="M4370 6865 c-70 -101 -217 -193 -375 -235 -44 -11 -150 -27 -235 -36
-85 -8 -223 -21 -306 -29 -156 -15 -289 -47 -367 -87 -169 -85 -301 -227 -394
-423 -50 -107 -64 -165 -70 -310 -7 -158 10 -259 60 -367 105 -226 289 -332
531 -306 164 17 308 117 404 278 29 50 86 222 102 309 l14 73 40 -6 c23 -3
109 -11 191 -17 599 -45 1195 148 1650 533 l100 84 22 115 c36 190 39 187 -74
78 -237 -228 -545 -435 -809 -543 -125 -51 -285 -98 -419 -122 -121 -22 -554
-30 -639 -12 -59 13 -60 13 -71 58 -22 83 -84 187 -163 273 -72 76 -77 70 -87
-98 l-5 -100 51 -55 c28 -30 62 -79 76 -109 22 -46 25 -63 21 -130 -6 -98 -39
-173 -108 -241 -167 -168 -499 -157 -665 22 -75 81 -97 142 -102 288 -12 303
115 509 385 625 147 64 196 72 592 106 371 31 576 131 674 331 35 70 39 98 16
98 -5 0 -23 -20 -40 -45z"/>
<path d="M4649 6791 c-49 -48 -52 -89 -12 -127 l28 -26 -35 -29 c-19 -16 -89
-61 -155 -100 -138 -83 -130 -77 -122 -85 8 -8 100 23 170 58 31 15 86 53 120
82 51 43 67 52 81 44 34 -19 62 47 31 72 -12 10 -14 24 -9 57 5 32 2 50 -10
68 -23 34 -42 31 -87 -14z m49 -54 c2 -10 -3 -17 -12 -17 -18 0 -29 16 -21 31
9 14 29 6 33 -14z"/>
<path d="M4471 6338 c-50 -24 -92 -59 -201 -167 -75 -75 -160 -167 -189 -205
-61 -82 -56 -92 42 -81 l62 7 60 76 c33 42 115 131 182 199 123 124 148 163
122 188 -12 11 -25 8 -78 -17z"/>
<path d="M4664 6338 c-14 -17 -60 -135 -68 -173 -6 -29 -4 -31 84 -78 49 -27
95 -45 100 -42 16 10 62 105 76 159 12 46 12 49 -13 72 -53 49 -161 87 -179
62z"/>
<path d="M5325 5932 c-165 -82 -306 -156 -313 -165 -8 -9 -16 -35 -19 -57 l-6
-41 64 36 c35 19 176 92 312 162 256 130 273 143 265 195 -3 16 -48 -4 -303
-130z"/>
<path d="M3082 5805 c-70 -89 -99 -219 -58 -264 40 -44 101 -18 141 58 16 32
16 33 -4 27 -12 -3 -30 -8 -40 -12 -13 -3 -28 3 -42 17 -17 17 -20 28 -15 61
4 22 16 58 27 80 25 50 20 70 -9 33z"/>
<path d="M5470 5810 c-6 -12 -24 -80 -40 -153 -16 -73 -39 -166 -50 -207 -23
-84 -58 -347 -61 -460 -4 -136 0 -180 15 -180 18 0 15 -11 72 268 27 127 51
232 55 232 4 0 20 -37 37 -82 82 -229 98 -423 48 -576 -15 -46 -43 -110 -62
-142 -41 -70 -140 -169 -204 -204 -51 -28 -128 -48 -135 -36 -3 5 4 29 15 55
36 83 62 240 57 335 -9 157 -47 210 -152 210 -55 0 -69 -4 -121 -38 -122 -80
-200 -216 -264 -464 -26 -98 -26 -183 0 -242 l19 -46 -26 -17 c-20 -13 -53
-19 -132 -21 -104 -4 -107 -3 -147 26 -30 22 -52 52 -80 108 -21 44 -40 81
-41 82 -3 7 -163 -119 -163 -127 0 -5 12 -49 26 -97 92 -319 289 -415 543
-265 62 37 157 109 185 140 16 17 31 21 85 21 126 0 215 38 354 149 159 128
292 304 356 471 86 222 92 528 16 831 -89 355 -163 508 -205 429z m-445 -1290
c32 -12 59 -72 52 -117 -9 -54 -36 -100 -76 -127 -50 -35 -92 -34 -129 4 -103
103 17 292 153 240z"/>
<path d="M4801 5771 c-30 -55 -97 -278 -87 -288 3 -4 14 2 25 11 18 16 21 16
55 -14 40 -35 62 -94 52 -135 -10 -41 -84 -114 -148 -146 -74 -37 -92 -37
-108 1 -29 69 -97 120 -160 120 -73 0 -123 -40 -167 -135 -24 -51 -28 -73 -28
-146 0 -73 3 -91 20 -109 30 -34 77 -50 149 -50 103 0 103 1 51 -100 -133
-257 -473 -497 -731 -517 -106 -8 -200 22 -263 85 -55 55 -75 94 -101 198 -26
103 -25 181 5 332 33 161 25 189 -30 102 -78 -124 -122 -464 -79 -611 41 -136
124 -239 239 -294 65 -31 81 -35 156 -35 47 0 112 7 144 15 336 86 742 505
809 835 4 17 20 33 51 49 90 47 174 140 232 256 32 61 75 231 80 316 9 126
-26 233 -87 264 -39 20 -67 19 -79 -4z"/>
<path d="M3860 5628 c-40 -66 -129 -255 -165 -352 -96 -259 -182 -682 -173
-851 3 -59 4 -60 42 -79 49 -24 166 -32 224 -16 l44 11 -9 52 c-4 29 -8 174
-7 322 0 240 3 282 23 374 28 132 68 257 131 411 28 66 50 127 50 135 0 11
-13 15 -54 15 -30 0 -61 3 -70 6 -10 4 -22 -5 -36 -28z"/>
<path d="M4180 5603 c-59 -100 -76 -191 -46 -238 13 -19 13 -25 2 -34 -66 -55
-119 -446 -98 -729 6 -79 13 -146 16 -149 6 -6 125 77 145 101 10 12 11 33 2
103 -6 48 -15 198 -21 333 -6 135 -13 269 -16 298 -6 50 -5 52 19 52 30 0 73
32 92 70 20 39 20 40 -21 28 -29 -8 -39 -6 -55 8 -27 24 -24 84 6 144 31 61
10 72 -25 13z"/>
<path d="M6592 5407 c-17 -20 -5 -76 48 -237 68 -207 85 -308 85 -520 0 -187
-13 -275 -61 -418 -66 -199 -152 -331 -334 -513 -152 -152 -233 -211 -435
-313 -150 -75 -271 -118 -429 -151 -495 -102 -825 -31 -1155 251 -157 134
-233 235 -346 457 -30 58 -44 76 -55 71 -91 -39 -140 -48 -252 -48 -84 0 -118
-4 -118 -12 0 -72 71 -335 130 -483 218 -547 596 -877 1137 -991 126 -27 340
-36 456 -21 339 45 669 208 926 456 221 213 341 377 494 675 182 355 254 598
303 1030 22 200 16 579 -11 705 -7 35 -41 45 -198 60 -185 18 -172 18 -185 2z"/>
<path d="M5046 5282 c-9 -15 -48 -116 -61 -160 l-13 -42 91 -50 c82 -44 93
-48 108 -34 22 19 69 124 76 169 5 31 2 36 -41 67 -69 48 -146 72 -160 50z"/>
<path d="M6388 5203 c-30 -34 -86 -148 -103 -209 -19 -69 -10 -129 26 -165 34
-34 105 -20 147 31 13 15 52 86 52 93 0 3 -19 -2 -42 -10 -111 -38 -150 68
-77 206 16 30 29 58 29 63 0 14 -16 9 -32 -9z"/>
<path d="M4488 4469 c-35 -46 -53 -85 -68 -144 -33 -133 82 -184 148 -66 27
48 27 55 3 41 -29 -15 -67 -12 -82 6 -19 23 -14 86 11 134 28 55 21 73 -12 29z"/>
<path d="M5280 3893 c-27 -10 -52 -37 -76 -85 -28 -56 -77 -237 -72 -269 6
-40 26 -32 38 13 37 142 65 191 109 186 16 -2 33 -15 46 -35 25 -41 40 -41 54
-2 35 101 -25 218 -99 192z"/>
<path d="M3187 1462 c-59 -224 -107 -411 -107 -415 0 -4 37 -7 81 -5 l82 3
108 410 c60 226 109 411 109 413 0 1 -37 2 -83 2 l-83 0 -107 -408z"/>
<path d="M3727 1856 c-89 -32 -154 -98 -193 -195 -21 -51 -26 -56 -57 -59 -31
-3 -35 -7 -46 -45 -7 -23 -15 -50 -17 -59 -4 -15 1 -18 31 -18 26 0 36 -4 32
-13 -2 -7 -31 -109 -63 -227 -47 -176 -63 -220 -85 -242 -31 -32 -64 -35 -97
-12 -27 19 -25 20 -40 -31 -11 -37 -10 -42 12 -64 55 -54 190 -30 257 47 44
49 54 78 119 322 l57 215 46 3 47 3 15 51 c20 69 21 68 -25 68 -22 0 -40 5
-40 10 0 23 51 109 76 129 39 30 86 27 127 -9 l34 -29 12 51 c10 45 9 53 -6
71 -40 45 -123 59 -196 33z"/>
<path d="M6047 1596 c-114 -41 -180 -168 -129 -249 9 -16 46 -45 82 -66 75
-43 99 -82 65 -107 -29 -22 -97 -18 -192 11 -23 7 -25 3 -47 -96 -7 -32 10
-41 110 -59 135 -24 229 14 278 111 53 107 28 175 -88 244 -38 22 -71 46 -74
53 -2 7 4 22 14 34 15 16 28 19 65 16 26 -3 65 -14 88 -25 23 -11 43 -18 45
-14 10 18 27 111 21 120 -10 16 -104 41 -154 41 -25 -1 -63 -7 -84 -14z"/>
<path d="M2732 1579 c-77 -39 -147 -137 -178 -254 -54 -199 60 -349 207 -273
l47 24 31 -28 c38 -34 78 -36 136 -8 34 17 43 27 53 65 16 58 15 66 -3 59 -8
-4 -21 -1 -29 5 -11 10 -5 47 39 221 l53 210 -83 0 c-75 0 -83 -2 -88 -20 l-5
-21 -39 21 c-48 26 -87 25 -141 -1z m129 -121 c18 -33 5 -127 -26 -187 -69
-136 -145 -135 -132 1 12 134 119 259 158 186z"/>
<path d="M3892 1579 c-77 -39 -147 -137 -178 -254 -54 -199 60 -349 207 -273
l47 24 31 -28 c38 -34 78 -36 136 -8 34 17 43 27 53 65 16 58 15 66 -3 59 -8
-4 -21 -1 -29 5 -11 10 -5 47 39 221 l53 210 -83 0 c-75 0 -83 -2 -88 -20 l-5
-21 -39 21 c-48 26 -87 25 -141 -1z m129 -121 c18 -33 5 -127 -26 -187 -69
-136 -145 -135 -132 1 12 134 119 259 158 186z"/>
<path d="M4316 1333 c-38 -148 -71 -274 -74 -280 -3 -10 17 -13 80 -13 l84 0
44 170 c40 157 46 174 79 206 20 19 46 37 59 40 27 7 55 -13 47 -34 -3 -9 -28
-100 -55 -202 -60 -227 -65 -300 -24 -350 41 -48 79 -63 141 -57 53 6 133 42
133 61 0 6 -7 29 -16 53 -14 36 -19 41 -35 33 -10 -6 -22 -10 -28 -10 -22 0
-51 41 -51 70 0 17 23 117 51 222 54 201 57 244 24 294 -40 62 -116 79 -193
44 -43 -19 -43 -19 -37 0 6 19 1 20 -77 20 l-83 0 -69 -267z"/>
<path d="M5012 1582 c-179 -72 -273 -349 -165 -491 52 -67 161 -89 240 -47
133 69 220 260 184 403 -31 123 -143 181 -259 135z m108 -112 c27 -17 19 -144
-14 -212 -26 -55 -75 -108 -99 -108 -74 1 -52 202 32 290 39 41 55 47 81 30z"/>
<path d="M5341 1398 c-55 -219 -58 -241 -37 -292 30 -72 92 -92 192 -61 59 18
57 18 49 5 -4 -6 25 -10 79 -10 47 0 86 2 86 5 0 3 32 128 70 277 39 149 70
273 70 275 0 2 -37 3 -83 3 l-83 0 -43 -174 c-46 -188 -63 -226 -112 -251 -43
-22 -85 -6 -74 28 3 12 26 98 50 190 24 93 47 177 50 188 6 18 1 19 -78 19
l-84 0 -52 -202z"/>
<path d="M6672 1582 c-71 -29 -127 -84 -169 -169 -35 -71 -38 -83 -38 -164 l0
-87 -28 24 c-80 68 -227 -25 -191 -121 9 -22 57 -45 94 -45 59 0 116 44 126
97 l6 34 15 -28 c48 -93 165 -129 261 -79 132 69 218 260 183 403 -31 123
-143 181 -259 135z m108 -112 c27 -17 19 -144 -14 -212 -26 -55 -75 -108 -99
-108 -74 1 -52 202 32 290 39 41 55 47 81 30z"/>
<path d="M7065 1588 c-2 -7 -34 -125 -70 -263 -36 -137 -68 -258 -71 -267 -5
-16 3 -18 78 -18 l84 0 18 68 c9 37 31 118 48 180 43 158 78 193 159 158 13
-6 18 7 31 66 9 40 14 76 11 81 -8 13 -53 7 -92 -13 -39 -19 -39 -19 -34 0 5
19 0 20 -76 20 -56 0 -83 -4 -86 -12z"/>
<path d="M7492 1579 c-160 -79 -250 -374 -148 -487 46 -51 98 -63 169 -38 44
16 46 10 16 -51 -21 -43 -65 -83 -92 -83 -8 0 -35 16 -61 36 -32 24 -48 31
-51 22 -23 -70 -25 -98 -8 -124 39 -60 128 -70 221 -24 65 33 110 77 141 138
16 31 171 599 171 626 0 4 -37 6 -82 4 -77 -3 -83 -5 -86 -25 l-3 -22 -36 25
c-45 30 -94 31 -151 3z m132 -125 c29 -75 -46 -264 -111 -280 -93 -24 -53 218
46 280 33 20 57 20 65 0z"/>
</g>
</svg>
