<?xml version="1.0" standalone="yes"?>
<svg width="400" height="300">
<title>RealDRAW</title>
<path style="fill:#325728; stroke:none" d="M121.291 92.002 C120.941 93.089 120.941 93.814 120.592 93.814 C119.893 94.538 119.543 94.901 119.194 95.263 C118.495 95.988 117.796 96.35 117.447 96.35 C117.097 96.712 116.049 96.712 115.001 96.712 C115.35 97.437 115.699 98.524 117.097 100.698 C117.796 102.51 118.495 104.322 118.495 106.496 C118.495 108.308 117.447 110.844 115.001 114.105 C112.904 117.729 111.855 120.265 111.855 122.077 C111.855 123.164 111.855 124.251 112.205 124.976 C112.554 126.063 113.253 126.788 113.952 127.875 C114.651 128.6 115.35 129.324 115.699 129.687 C117.447 130.774 118.146 131.136 118.495 131.136 C117.796 131.498 117.097 131.498 116.049 131.498 C114.651 131.498 112.904 131.136 111.506 130.049 C110.458 129.324 109.06 128.237 108.012 126.788 C107.662 126.063 106.963 124.614 106.264 122.44 C105.915 122.077 105.565 120.99 105.216 119.541 C105.216 119.178 104.867 119.178 104.517 119.178 L103.469 119.178 C102.42 119.178 101.722 119.178 101.023 118.816 C99.625 118.091 98.577 117.004 97.179 115.555 C95.781 113.743 94.733 110.844 94.383 106.858 C94.034 102.872 92.636 99.611 90.889 97.075 C90.19 96.35 89.141 95.625 87.394 94.538 C85.996 93.814 84.948 93.089 83.55 92.727 L83.201 92.002 C88.443 92.002 92.287 92.727 94.733 94.901 C96.13 95.988 97.528 98.524 99.275 101.785 C99.974 101.785 100.324 101.423 101.023 101.061 C101.722 101.061 102.42 100.698 103.119 100.698 C104.168 100.698 105.565 101.785 106.963 103.597 C107.662 103.96 108.012 104.684 108.361 105.771 C109.06 107.221 109.409 108.67 109.409 109.757 C109.409 110.482 109.409 111.207 108.71 111.569 C108.71 111.931 108.012 112.294 107.313 112.656 C107.313 113.018 106.963 113.018 106.614 113.381 C106.614 112.294 106.614 111.931 106.963 111.569 C106.963 111.207 106.963 110.844 106.963 110.482 C106.963 110.12 106.963 109.395 106.264 108.67 C106.264 108.67 105.565 108.308 104.867 108.308 L103.818 108.308 C102.42 108.308 101.372 108.308 100.673 107.945 C99.275 107.221 98.577 106.134 98.227 104.322 L97.179 104.322 C96.829 105.771 96.829 106.858 96.829 107.945 C96.829 109.032 96.829 110.12 97.179 111.207 C97.528 112.294 97.878 113.018 98.577 113.743 C99.625 114.83 100.673 115.917 102.071 116.28 C103.469 117.004 104.867 117.367 106.264 117.367 C108.71 117.367 110.458 116.642 111.855 115.555 C112.904 114.468 113.603 113.381 114.302 112.294 C115.001 110.844 115.001 109.395 115.001 108.308 C115.001 107.221 115.001 106.134 114.651 105.409 C114.651 104.684 113.952 103.597 113.253 102.872 C112.904 102.148 111.506 101.423 109.759 99.974 C109.06 99.611 108.361 98.887 107.662 98.162 C106.963 97.437 106.614 97.075 106.614 96.35 C106.614 95.988 106.614 95.625 106.963 95.625 C106.963 94.901 107.313 94.538 107.313 94.176 C105.216 94.538 103.818 94.901 102.42 94.901 C101.023 94.901 99.625 94.538 98.577 93.814 C97.179 93.451 96.13 92.364 94.733 90.915 C94.383 90.552 93.684 89.828 92.287 87.654 C91.588 86.929 90.889 86.204 90.539 85.842 C90.19 85.117 90.19 84.392 90.19 83.668 C90.19 83.305 90.19 82.943 90.539 82.218 C91.238 83.305 92.287 84.755 93.335 86.204 C94.383 87.654 95.781 89.103 96.829 89.828 C98.926 92.002 101.023 93.089 102.77 92.727 C103.818 93.089 104.517 92.727 104.867 92.364 C105.216 91.64 105.565 91.277 105.565 91.277 C105.565 90.915 105.565 90.915 105.565 90.19 C105.216 89.828 105.216 89.465 105.565 89.103 C105.565 88.741 106.264 88.378 107.662 87.654 C109.409 86.929 110.458 86.204 111.506 85.48 C112.554 84.392 113.253 83.668 113.952 82.581 C114.302 81.494 114.651 80.407 114.651 79.32 C114.651 77.508 113.952 75.334 112.205 73.522 C111.506 72.435 110.807 71.71 109.409 71.348 C108.012 70.623 106.614 70.261 104.867 70.261 C103.469 70.261 102.42 70.623 101.372 71.348 C101.372 71.71 101.023 72.072 101.023 72.435 C101.023 73.16 100.673 73.522 100.673 73.884 C103.818 73.884 105.565 74.971 106.264 76.783 C106.614 78.232 108.012 79.682 110.108 80.407 C109.759 80.769 109.409 81.131 109.409 81.494 C109.06 81.494 108.012 81.856 106.264 81.856 C104.517 81.856 102.77 81.856 100.673 81.494 C98.577 81.131 97.179 80.769 95.781 80.407 L93.335 76.783 C93.335 76.783 93.684 76.783 94.034 76.421 C94.733 76.783 95.432 76.783 95.781 76.783 C96.13 76.783 96.48 76.421 96.829 76.058 C97.179 76.058 97.878 74.609 99.275 72.072 C99.974 70.985 100.324 70.261 101.023 69.898 C102.071 68.811 103.469 68.449 105.216 68.449 C106.264 68.449 107.662 68.449 109.06 69.174 C110.108 69.536 111.157 69.898 112.205 70.261 C112.554 68.449 113.253 67.362 114.302 67.362 C114.651 67.362 115.35 67.724 115.699 68.449 C116.049 68.811 116.398 68.811 116.398 69.174 C116.398 69.536 116.398 69.898 116.398 69.898 C116.398 70.623 116.049 70.985 115.35 71.71 C114.651 72.072 114.302 72.435 114.302 72.435 C114.651 73.16 115.35 73.884 115.699 74.609 C116.049 75.696 116.398 76.783 116.398 77.87 C116.398 79.32 116.049 80.769 115.699 82.943 C115.35 84.755 114.651 86.929 113.603 89.828 C115.001 90.19 116.049 90.552 117.097 91.277 C118.146 91.64 119.543 92.002 121.291 92.002 L121.291 92.002 M87.045 73.16 L83.55 74.971 C82.153 75.696 80.755 76.058 79.357 76.421 C77.959 77.145 76.561 78.957 74.814 81.856 C74.465 82.943 73.766 83.668 72.718 84.392 C71.669 85.117 70.621 85.117 69.223 85.117 C68.874 85.117 68.175 85.117 67.476 84.755 C66.777 84.392 66.078 83.668 65.729 82.943 C65.379 82.218 65.03 81.494 65.03 80.769 C65.03 79.682 65.379 78.957 65.729 78.232 C66.078 77.508 66.427 77.145 67.126 77.145 C67.476 76.783 67.825 76.783 68.175 76.783 C68.524 76.783 68.874 76.783 69.223 77.145 C69.573 77.145 69.922 77.508 69.922 77.508 C69.922 77.87 70.271 78.232 70.621 78.957 C70.621 79.682 70.621 80.407 70.271 80.769 C69.922 81.856 69.223 82.581 68.874 83.305 C69.922 83.305 70.621 83.305 71.32 82.943 C72.019 82.581 72.718 81.856 73.067 81.131 C73.416 80.044 73.766 78.957 73.766 77.87 C73.766 76.783 73.416 75.696 73.067 74.609 C72.368 73.522 71.669 72.797 70.621 72.072 C70.271 71.71 69.573 71.71 68.524 71.71 C66.777 71.71 64.68 72.072 62.933 72.797 C60.836 73.884 59.439 75.334 58.74 77.145 C58.39 77.508 58.39 78.232 58.39 78.595 C58.041 78.957 58.041 79.32 58.041 79.682 C58.041 80.407 58.39 81.131 58.74 81.856 C59.089 82.581 59.439 82.943 60.137 83.305 C61.535 84.03 62.584 84.755 62.933 84.755 C61.885 85.842 60.836 86.204 59.788 86.204 C58.041 86.204 56.992 85.48 55.944 83.305 C54.896 80.407 53.498 78.232 52.1 77.145 C50.702 76.421 48.606 75.334 44.762 74.247 C45.461 74.247 46.509 73.884 47.557 73.884 C48.606 73.522 49.654 73.522 50.353 73.522 C51.751 73.522 53.149 73.884 54.546 73.884 C54.896 73.884 55.595 74.247 55.944 74.247 C57.342 73.16 58.74 72.072 60.137 70.985 C61.186 69.898 62.584 69.174 63.981 68.811 C64.68 68.449 65.379 68.449 66.078 68.449 C66.777 68.087 67.476 68.087 68.175 68.087 C69.573 68.087 70.621 68.449 72.019 68.811 C72.368 69.174 73.416 69.898 75.164 70.985 C76.561 71.71 77.61 72.435 78.658 72.435 C80.056 73.16 81.803 73.522 83.55 73.522 C84.599 73.522 85.647 73.16 87.045 73.16 L87.045 73.16 M120.242 199.621 L84.599 199.621 C84.599 204.331 81.454 209.042 75.513 213.39 C69.223 218.101 63.282 220.275 57.691 220.275 C52.799 220.275 49.305 220.275 46.859 219.55 C43.364 218.825 40.219 217.376 36.725 215.202 C31.133 211.216 26.94 206.868 24.494 201.07 C22.397 196.36 21.349 190.562 21.349 184.04 C21.349 180.416 21.698 176.792 22.048 172.807 C22.747 168.458 23.795 164.472 25.542 160.849 C26.591 157.95 29.037 154.327 32.182 149.254 C34.278 146.355 36.375 143.818 38.472 141.644 C40.219 139.832 42.665 137.658 46.16 134.397 C48.256 132.948 51.052 130.774 54.197 128.6 C55.944 127.512 58.74 125.701 62.933 123.164 C68.874 119.541 72.718 116.642 74.465 114.83 C76.212 113.018 77.26 110.844 77.61 108.67 C77.61 107.945 77.959 107.221 77.959 106.496 C78.309 105.771 78.309 105.047 78.309 104.322 C78.309 103.235 77.959 102.148 77.61 101.061 C77.26 100.336 76.911 99.249 76.212 98.162 C75.863 97.075 75.164 96.35 74.115 95.625 C73.416 94.901 72.368 94.176 71.669 93.814 C70.621 93.451 69.922 93.089 68.874 93.089 C68.175 93.451 67.825 93.451 67.825 93.451 C63.632 93.814 61.535 96.712 60.836 101.061 C60.836 102.148 60.487 102.872 60.487 103.235 C60.487 105.409 61.535 107.221 63.632 109.032 C63.632 109.032 65.03 110.12 67.825 112.294 C66.078 112.656 65.03 113.018 64.331 113.018 C62.584 113.381 61.535 113.743 60.487 113.743 C58.39 113.743 56.643 113.018 55.245 112.294 C52.1 110.12 50.353 107.221 50.353 103.597 C50.353 102.51 50.702 100.698 51.052 99.249 C51.401 97.437 52.1 95.625 53.149 93.451 C50.004 94.538 48.256 95.263 47.907 95.263 C47.208 95.625 46.16 95.625 44.762 95.625 C40.918 95.625 37.773 94.901 35.327 93.814 C32.531 92.727 30.435 90.552 28.687 87.654 C27.988 86.567 27.639 85.48 27.29 84.03 C26.94 82.581 26.94 81.131 26.94 79.682 C26.94 77.508 26.94 74.971 27.639 72.072 C27.639 71.348 27.988 69.898 28.687 68.449 C30.085 70.985 31.133 72.797 31.832 74.247 C34.628 78.232 37.423 81.131 39.87 82.581 C40.918 83.305 41.966 84.03 42.665 84.392 C43.713 84.755 44.762 85.117 46.16 85.48 C48.606 86.567 50.702 86.929 52.799 87.291 C54.546 87.291 57.342 87.654 60.836 87.654 C62.234 87.654 63.981 87.291 66.078 86.929 C68.175 86.567 69.223 86.567 69.922 86.567 C70.621 86.567 71.32 86.567 72.019 86.567 C72.718 86.567 73.416 86.929 74.465 87.654 C75.863 88.378 76.911 89.103 77.61 89.828 C78.309 90.915 79.357 92.002 80.056 93.451 C81.454 95.263 82.502 97.075 82.851 98.887 C83.55 100.336 83.9 102.51 83.9 105.047 C83.9 108.67 82.851 111.931 81.454 114.83 C80.056 117.729 77.26 120.628 73.416 123.527 C72.368 124.251 68.524 126.788 60.836 131.861 C55.944 135.122 51.751 138.021 48.955 140.195 C45.81 142.731 43.015 145.992 39.87 149.254 C36.026 153.602 33.23 157.588 31.483 161.211 C29.736 165.56 28.687 170.27 28.687 175.705 C28.687 184.764 30.085 192.011 32.881 197.084 C36.375 203.244 41.966 206.868 50.004 207.955 C52.1 207.955 53.847 208.317 55.595 208.317 C58.39 208.317 60.836 207.955 62.933 206.868 C65.03 206.143 67.126 204.694 68.874 202.882 C71.32 200.708 72.718 197.809 73.766 194.185 C74.115 193.098 74.465 191.649 74.465 189.475 L74.465 172.444 C74.465 171.357 74.115 170.632 73.416 169.545 C70.97 167.009 68.874 164.472 66.777 162.298 C69.922 162.298 71.669 162.298 72.718 161.936 C73.416 161.936 75.164 161.574 77.26 160.487 C79.706 159.762 81.104 159.037 81.803 157.95 C82.502 156.138 83.55 154.327 84.599 152.515 L84.599 189.475 L92.287 189.475 L92.287 161.574 C91.238 160.124 90.19 159.037 88.443 157.95 C91.238 155.776 93.684 153.964 95.781 152.152 C98.227 149.978 100.324 147.804 102.42 144.905 L102.42 189.475 L110.458 189.475 L110.458 157.225 C110.458 156.138 109.759 154.689 108.012 152.877 C106.963 152.152 106.264 151.428 105.915 151.065 C109.759 149.616 112.904 146.717 115.699 142.731 C117.447 140.557 118.844 138.383 120.242 135.847 L120.242 199.621 M52.799 123.527 C52.1 124.614 51.052 125.701 50.004 126.425 C48.256 127.512 46.859 127.875 44.762 127.875 C42.316 127.875 40.568 126.788 38.821 124.251 C39.87 123.527 40.918 122.802 41.617 122.077 C42.316 120.99 42.665 120.265 42.665 119.541 C42.316 119.178 42.316 118.816 41.966 118.816 C41.617 118.091 41.267 117.729 40.918 117.729 C40.219 117.729 39.52 118.454 38.821 119.541 C38.472 120.628 38.122 121.715 38.122 122.802 C38.122 123.164 38.122 123.527 38.122 123.889 L35.327 123.527 L34.628 124.251 C34.977 124.614 36.026 125.338 37.423 126.063 C38.821 126.788 39.87 127.512 40.568 127.875 C39.171 129.324 38.472 130.411 37.773 131.861 C37.423 132.948 37.074 134.035 37.074 135.122 C37.074 135.484 37.423 136.209 37.423 136.571 C37.423 137.296 37.423 137.658 37.423 138.021 C35.676 136.934 34.628 135.484 33.929 134.035 C33.23 132.585 32.881 131.136 32.881 129.687 C32.881 128.6 33.23 127.512 33.58 126.063 C33.929 124.614 33.929 123.889 33.929 123.527 C33.23 122.802 32.881 121.715 32.182 120.628 C31.832 119.178 31.483 117.729 31.483 115.917 C31.483 115.192 31.483 114.83 31.483 114.105 C31.483 113.743 31.832 113.381 32.182 112.656 C33.23 113.018 33.58 113.743 33.929 113.743 C34.628 114.105 35.327 114.468 36.026 114.468 C38.122 114.468 39.87 114.105 40.568 113.018 C41.617 111.931 41.966 110.482 41.966 108.67 C41.966 106.858 41.267 105.047 39.87 103.597 C38.472 102.51 36.725 101.785 35.327 101.785 C31.832 101.785 29.037 103.235 27.639 106.496 C26.591 109.032 25.892 112.294 25.892 116.642 C25.892 118.816 26.241 120.99 26.241 123.164 C26.591 125.338 26.591 127.15 26.94 128.6 C26.94 130.411 26.591 131.861 26.241 133.31 C25.542 134.76 24.843 136.209 24.494 137.658 C24.494 138.383 25.193 139.108 26.94 139.108 C28.687 139.47 30.435 139.47 31.832 139.47 C31.133 139.832 30.435 140.557 29.736 140.92 C29.037 141.282 28.338 141.282 27.29 141.282 C26.94 141.282 26.591 141.282 25.892 141.282 C25.542 141.282 25.193 141.282 24.843 141.282 C24.145 141.282 23.795 141.282 23.446 141.282 C22.747 141.644 22.048 142.369 21.349 143.818 L21.349 136.571 C22.747 136.571 23.446 135.847 24.145 133.672 C24.843 131.498 25.193 128.962 25.193 125.701 C25.193 124.976 24.843 123.889 24.494 123.164 C23.795 123.889 23.096 124.251 22.747 124.251 C22.397 124.614 22.048 124.614 21.349 124.976 L21.349 117.729 L23.795 118.091 C23.795 117.729 24.145 117.729 24.145 117.729 C24.494 117.729 24.494 117.367 24.494 117.004 C24.494 116.642 23.795 114.83 22.747 112.294 C21.698 109.757 21 107.945 21 106.858 C21 106.134 21.349 105.047 22.397 103.597 C22.747 102.872 23.096 101.785 23.096 101.061 C23.096 100.336 22.747 99.611 22.048 99.249 C21.698 99.249 21.698 99.249 21.349 98.887 L21.349 90.915 C23.096 92.364 24.145 93.089 24.843 94.176 C25.193 94.901 25.193 96.712 25.193 99.249 C25.542 99.249 25.892 99.249 26.241 99.249 C26.591 99.249 26.94 99.249 27.639 98.887 C29.037 98.524 30.784 98.162 32.182 98.162 C37.773 98.162 41.267 100.336 43.015 104.684 C43.713 108.67 44.412 113.018 45.461 117.004 C46.509 121.352 48.955 123.527 52.799 123.527 L52.799 123.527 M72.718 182.59 C72.019 183.677 70.97 184.764 69.922 185.489 C68.524 186.576 66.777 186.938 64.68 186.938 C62.234 186.938 60.487 185.851 58.74 183.315 C59.788 182.59 60.836 181.865 61.535 180.778 C62.234 180.054 62.584 179.329 62.584 178.604 C62.234 178.242 62.234 177.88 62.234 177.88 C61.535 177.155 61.186 176.792 60.836 176.792 C60.137 176.792 59.439 177.517 59.089 178.604 C58.39 179.691 58.041 180.778 58.041 181.865 C58.041 182.228 58.041 182.59 58.041 182.952 L55.595 182.59 L54.546 183.315 C55.245 183.677 55.944 184.402 57.342 185.127 C58.74 185.851 60.137 186.576 60.836 186.938 C59.439 188.388 58.39 189.475 58.041 190.924 C57.342 192.011 57.342 193.098 57.342 194.185 C57.342 194.548 57.342 195.272 57.342 195.635 C57.342 196.36 57.342 196.722 57.342 197.084 C55.944 195.635 54.546 194.548 53.847 193.098 C53.149 191.649 52.799 190.2 52.799 188.75 C52.799 187.663 53.149 186.576 53.498 185.127 C53.847 183.677 53.847 182.952 53.847 182.59 C53.149 181.865 52.799 180.778 52.1 179.329 C51.751 178.242 51.401 176.792 51.401 174.981 C51.401 174.256 51.401 173.894 51.401 173.169 C51.751 172.807 51.751 172.444 52.1 171.72 C53.149 172.082 53.847 172.807 54.197 172.807 C54.896 173.169 55.595 173.531 56.294 173.531 C58.39 173.531 59.788 172.807 60.487 172.082 C61.535 170.995 61.885 169.545 61.885 167.734 C61.885 165.922 61.186 164.11 59.788 162.661 C58.39 161.574 56.992 160.849 55.245 160.849 C51.751 160.849 49.305 162.298 47.557 165.56 C46.509 168.096 45.81 171.357 45.81 175.705 C45.81 177.88 46.16 180.054 46.16 182.228 C46.509 184.402 46.859 185.851 46.859 187.663 C46.859 189.475 46.509 190.924 46.16 192.374 C45.461 193.823 45.111 195.272 44.412 196.722 C44.412 197.447 45.461 198.171 46.859 198.171 C48.606 198.534 50.353 198.534 51.751 198.534 C51.052 198.896 50.353 199.621 49.654 199.983 C48.955 200.345 48.256 200.345 47.208 200.345 C46.859 200.345 46.509 200.345 45.81 200.345 C45.461 200.345 45.111 200.345 44.762 200.345 C44.063 200.345 43.713 200.345 43.364 200.345 C42.665 200.708 41.966 201.432 41.267 202.519 L41.267 195.635 C42.665 195.635 43.713 194.548 44.412 192.736 C44.762 190.562 45.111 188.025 45.111 184.764 C45.111 184.04 45.111 182.952 44.412 182.228 C43.713 182.952 43.015 183.315 42.665 183.315 C42.665 183.677 41.966 183.677 41.267 184.04 L41.267 176.792 L43.713 177.155 C43.713 176.792 44.063 176.792 44.063 176.792 C44.412 176.792 44.412 176.43 44.412 176.068 C44.412 175.705 43.713 173.894 42.665 171.357 C41.617 168.821 40.918 167.009 40.918 165.922 C40.918 165.197 41.617 164.11 42.316 162.661 C43.015 161.936 43.015 160.849 43.015 160.124 C43.015 159.4 42.665 158.675 41.966 158.312 C41.617 158.312 41.617 158.312 41.267 157.95 L41.267 149.978 C43.015 151.428 44.412 152.152 44.762 153.24 C45.111 153.964 45.111 155.414 45.111 158.312 C45.461 158.312 45.81 158.312 46.16 158.312 C46.509 158.312 46.859 158.312 47.557 157.95 C48.955 157.588 50.702 157.225 52.1 157.225 C57.691 157.225 61.186 159.4 62.933 163.748 C63.632 167.734 64.68 171.72 65.379 175.705 C66.427 180.416 68.874 182.59 72.718 182.59 L72.718 182.59 M103.469 78.232 C103.469 77.508 103.469 77.145 103.119 76.783 C102.77 76.421 102.071 76.058 101.722 76.058 C100.324 76.058 99.974 76.783 99.625 77.87 C99.625 78.595 99.625 79.32 99.974 79.682 C100.324 80.044 100.673 80.407 101.372 80.407 C102.071 80.407 102.42 80.044 103.119 79.682 C103.469 79.32 103.469 78.957 103.469 78.232 L103.469 78.232 M114.651 93.451 L111.855 92.002 C111.157 92.364 110.807 92.727 110.458 92.727 C109.759 93.089 109.409 93.451 108.71 94.176 C110.108 94.176 111.157 94.538 112.205 94.538 C113.253 94.538 113.603 94.538 114.302 94.176 C114.302 93.814 114.651 93.451 114.651 93.451 L114.651 93.451 M47.907 124.614 C46.859 123.527 45.461 122.44 44.412 120.99 C44.412 122.077 44.063 122.802 43.713 123.164 C43.364 123.527 42.665 124.251 42.316 124.614 C42.665 124.976 43.015 124.976 43.713 125.338 C44.063 125.338 44.412 125.338 45.111 125.338 C45.81 125.338 46.509 125.338 47.907 124.614 L47.907 124.614 M37.074 117.004 C36.375 117.004 35.676 116.642 34.977 116.642 C34.278 116.28 33.929 116.28 33.58 116.28 C33.929 117.729 33.929 118.454 34.278 118.816 C34.628 119.541 35.327 119.903 36.375 120.265 C36.375 119.541 36.375 118.816 36.725 118.454 C36.725 118.091 37.074 117.367 37.074 117.004 L37.074 117.004 M67.825 183.677 C66.777 182.59 65.729 181.503 64.331 180.054 C64.331 181.141 63.981 181.865 63.632 182.228 C63.282 182.59 62.933 183.315 62.234 183.677 C62.584 184.04 62.933 184.04 63.632 184.402 C63.981 184.402 64.331 184.402 65.03 184.402 C65.729 184.402 66.427 184.04 67.825 183.677 L67.825 183.677 M57.342 175.705 C56.643 175.705 55.944 175.705 54.896 175.705 C54.197 175.343 53.847 175.343 53.498 175.343 C53.847 176.792 53.847 177.517 54.197 177.88 C54.546 178.604 55.245 178.967 56.294 179.329 C56.294 178.604 56.294 177.88 56.643 177.517 C56.643 177.155 56.992 176.43 57.342 175.705 L57.342 175.705 M88.443 142.731 C88.443 142.007 88.792 141.282 88.792 140.195 C89.491 138.383 89.491 136.934 89.491 136.934 C89.491 135.847 89.141 135.122 88.792 134.397 C87.744 133.672 87.045 132.585 86.346 131.861 C85.647 131.136 84.249 130.774 82.851 130.774 C79.357 130.774 76.561 131.861 74.814 134.035 C73.067 135.847 72.368 137.658 72.368 139.47 C72.368 141.282 73.067 142.731 74.115 144.181 C75.513 145.63 77.26 145.992 78.658 145.992 C80.056 145.992 80.755 145.992 81.454 145.63 C82.153 145.268 82.502 144.543 83.201 143.456 C83.201 143.456 82.502 143.456 81.803 143.456 C81.104 143.456 80.755 143.456 80.755 143.456 C79.706 143.456 79.008 143.094 78.309 142.731 C77.959 142.007 77.61 141.644 77.61 141.282 C77.61 141.282 77.61 140.557 77.61 140.195 C77.61 139.47 77.959 139.108 78.309 138.383 C79.008 138.021 79.706 138.021 80.405 137.658 C81.454 137.658 82.851 138.383 83.55 139.108 C84.599 140.195 84.948 141.282 84.948 143.094 C84.948 144.181 84.249 145.63 82.851 146.717 C81.454 147.804 80.056 148.167 78.658 148.167 C75.513 148.167 73.067 148.891 71.669 149.616 C70.271 151.065 69.223 152.152 68.175 152.877 L64.68 155.051 C66.427 152.877 67.476 150.341 68.175 148.167 C68.524 146.717 68.874 144.905 68.874 142.731 L68.874 140.92 C68.874 138.745 69.223 136.934 69.922 135.484 C70.621 134.035 71.32 132.585 72.718 131.136 C73.766 130.411 75.164 129.324 76.911 128.6 C80.056 127.512 81.803 126.788 81.803 126.425 C82.502 124.976 82.851 123.889 83.201 123.164 C84.599 120.265 85.996 118.091 87.744 115.917 C87.394 117.729 87.394 119.541 87.394 120.99 C87.394 123.527 87.744 126.063 88.443 128.237 C89.491 130.774 90.539 132.948 92.287 135.484 C92.985 135.847 92.985 136.571 92.985 136.934 C92.985 138.021 92.636 139.108 91.588 140.195 C90.889 141.282 89.84 142.007 88.443 142.731 L88.443 142.731 M108.71 207.955 C106.963 208.317 105.565 209.042 104.168 210.129 C102.77 211.578 102.071 212.665 102.071 214.115 C102.071 214.84 102.42 215.202 102.77 215.927 C103.469 216.651 103.818 217.014 104.517 217.738 C105.216 218.101 105.915 218.463 106.614 218.463 C106.963 218.463 107.662 218.101 107.662 217.738 C108.012 217.014 108.361 216.651 108.361 215.927 C108.361 215.202 108.012 214.477 107.662 213.752 C107.313 213.028 106.614 212.303 105.915 211.216 C106.264 211.216 106.614 211.216 106.963 211.216 C107.662 211.216 108.361 211.216 109.06 211.578 C109.409 211.941 109.759 212.665 109.759 213.39 C109.759 215.202 110.108 216.289 110.458 216.289 C110.807 216.651 111.506 216.651 112.205 216.289 C112.904 216.289 113.603 216.289 113.603 216.289 C113.952 216.289 114.302 216.289 114.651 216.289 C112.904 217.376 111.506 218.463 109.759 219.188 C108.361 219.912 107.313 220.275 106.264 220.275 C105.216 220.275 104.168 219.912 103.469 218.825 C102.42 217.014 101.372 215.564 100.324 214.115 C98.577 215.927 97.528 217.014 96.48 218.101 C94.733 219.55 92.985 220.275 91.588 220.275 C91.238 220.275 90.889 220.275 90.889 220.275 C89.141 219.912 87.744 219.188 87.045 218.101 C85.996 217.014 85.647 215.564 85.647 213.39 C85.647 211.216 85.996 209.404 87.394 207.955 C88.443 206.143 89.491 205.418 90.889 205.418 C91.588 205.418 91.937 205.418 92.287 205.781 C93.335 206.143 94.034 206.868 94.733 207.592 C95.432 208.317 95.781 209.404 95.781 210.491 C95.781 212.665 94.733 214.477 92.985 215.202 C92.636 215.202 92.287 215.202 91.588 215.202 C91.588 215.202 91.238 215.202 90.889 215.202 C90.889 215.202 90.539 215.202 90.19 215.202 C91.937 213.752 92.636 211.941 92.636 210.129 C92.636 209.404 92.636 208.679 92.287 207.955 C91.937 207.592 91.588 207.23 91.238 207.23 C90.19 207.23 89.491 207.955 88.443 209.767 C87.744 211.216 87.045 213.028 87.045 214.477 C87.045 215.927 87.744 217.014 89.141 217.738 C90.19 218.101 91.238 218.463 92.287 218.463 C93.684 218.463 96.48 216.289 99.974 212.303 C103.818 207.955 106.963 206.143 109.759 206.143 C112.205 206.143 113.952 207.955 115.001 211.216 C115.699 213.028 116.748 214.115 117.796 214.115 C118.495 214.115 119.194 213.752 120.242 213.39 L118.146 215.927 C115.35 215.927 113.952 214.477 112.904 211.941 C112.205 209.404 110.807 207.955 109.409 207.955 L108.71 207.955 M156.235 138.745 C155.536 140.92 154.837 142.369 154.138 143.094 C153.789 143.456 153.09 143.818 152.042 143.818 C152.391 142.731 152.391 142.007 152.391 141.282 C152.391 140.195 152.391 139.47 152.391 138.383 C153.09 138.745 154.138 138.745 154.837 138.745 C155.536 138.745 156.235 138.745 156.235 138.745 L156.235 138.745 M144.005 148.167 C143.306 148.167 142.607 148.529 141.558 148.529 C141.209 148.529 140.51 148.529 140.161 148.167 C139.462 147.804 138.763 147.442 138.064 146.355 C139.811 145.268 141.209 143.818 142.956 142.369 C142.956 144.543 142.956 145.63 143.306 146.355 C143.655 147.08 143.655 147.442 144.005 148.167 L144.005 148.167 M160.079 109.757 C159.031 111.569 158.332 113.018 157.283 113.743 C155.886 115.555 154.138 116.28 152.042 116.28 C150.644 116.28 149.246 115.917 148.198 114.83 C147.15 114.105 146.101 112.656 145.402 110.844 C146.451 109.757 147.499 108.67 148.198 107.221 C149.246 105.771 149.596 104.684 149.596 103.597 C149.246 103.235 149.246 102.872 148.897 102.51 C148.547 101.785 147.848 101.423 147.499 101.423 C146.8 101.423 145.752 102.148 145.402 103.597 C144.703 105.409 144.354 106.858 144.354 108.67 C144.354 109.395 144.354 109.757 144.354 110.12 C143.655 110.12 143.306 110.12 142.956 110.12 C142.607 110.12 141.908 110.12 141.558 109.757 L140.51 110.844 C141.209 111.569 142.257 112.294 144.005 113.743 C145.752 115.192 146.8 115.917 147.499 116.28 C146.101 118.091 145.053 120.265 144.354 122.077 C143.655 123.889 143.655 125.701 143.655 127.15 C143.655 127.875 143.655 128.6 143.655 129.324 C143.655 130.411 143.655 130.774 143.655 131.136 C141.908 129.687 140.51 127.512 139.811 125.701 C139.112 123.527 138.763 121.352 138.763 119.178 C138.763 118.091 138.763 116.642 139.112 114.83 C139.462 113.381 139.462 111.931 139.811 110.12 C139.112 108.67 138.413 107.221 137.715 105.409 C137.365 103.597 137.016 101.061 137.016 98.524 C137.016 97.8 137.016 97.075 137.016 96.35 C137.016 95.263 137.365 94.538 137.715 93.451 C138.763 94.538 139.462 94.901 139.811 95.263 C140.51 95.988 141.558 96.35 142.257 96.35 C144.703 96.35 146.451 95.625 147.15 93.814 C148.198 92.364 148.547 90.552 148.547 87.654 C148.547 86.929 148.547 85.842 148.547 84.755 C148.547 83.668 148.547 82.943 148.897 81.856 C148.897 78.957 148.547 77.145 148.198 76.058 C147.848 74.247 147.15 73.522 146.101 73.522 C141.558 73.522 138.413 76.783 135.967 83.305 C133.871 88.016 132.822 94.538 132.123 102.51 C131.774 106.496 131.774 111.207 131.774 117.004 C131.774 119.178 131.424 122.077 130.726 125.701 C130.376 128.962 129.677 132.223 129.328 135.484 C129.328 136.934 129.677 137.658 130.726 137.658 C132.473 137.658 134.569 136.209 137.715 134.035 C133.172 141.282 130.376 147.442 129.677 152.152 C129.328 153.964 128.629 159.4 127.581 168.096 C127.581 166.284 127.231 164.11 127.231 162.298 C126.882 158.312 126.532 153.24 126.183 147.442 C125.833 142.007 125.484 137.296 125.484 134.035 C125.484 130.774 125.833 127.512 126.532 124.251 C127.231 120.265 127.93 117.004 128.629 114.468 C127.93 114.83 127.93 115.192 127.581 115.555 C127.231 115.917 126.532 116.28 125.484 117.004 C125.833 114.468 125.833 112.656 125.833 111.569 C126.532 107.945 127.231 106.134 128.629 106.496 C128.629 106.134 128.629 105.771 128.978 105.771 C128.978 105.771 129.328 105.409 129.328 104.684 C129.328 103.96 128.629 101.785 127.231 97.8 C126.183 94.176 125.484 91.64 125.484 90.19 C125.484 88.741 125.833 87.291 126.532 85.842 C127.581 84.03 127.93 82.581 127.93 81.494 C127.93 80.407 127.581 79.682 126.882 78.957 C125.833 78.595 125.484 78.232 125.484 78.232 L125.484 67.362 C127.581 69.174 128.978 70.623 129.328 71.348 C129.677 72.435 130.027 74.609 130.027 78.595 C130.726 78.595 132.473 77.145 135.268 73.522 C138.413 69.898 140.86 68.449 142.607 68.449 C147.15 68.449 149.945 69.898 151.692 73.522 C152.741 76.058 153.44 80.044 153.44 85.842 C153.44 86.929 153.44 89.465 153.44 92.727 C153.44 95.625 153.44 97.437 153.44 97.437 C153.44 101.423 153.789 104.322 154.488 106.134 C155.536 108.308 157.283 109.757 160.079 109.757 L160.079 109.757 M163.224 199.621 L158.332 199.621 C158.332 199.983 158.332 201.07 158.332 202.157 C158.332 203.244 158.332 203.969 158.332 204.331 C158.332 206.143 158.332 207.955 157.982 209.767 C157.633 211.216 156.934 212.665 155.886 214.115 C154.837 216.289 153.09 217.738 150.644 218.825 C148.198 220.275 144.703 220.999 140.51 220.999 C137.715 220.999 134.569 220.637 131.774 219.912 C128.629 219.188 126.882 218.463 126.532 218.101 C133.521 217.014 138.064 215.927 139.811 215.202 C142.257 214.115 144.354 212.665 145.752 210.854 C146.8 209.404 147.499 207.955 147.848 206.143 C148.547 204.331 148.897 202.157 148.897 199.621 L125.484 199.621 C127.581 191.287 130.027 184.764 132.473 180.054 C134.569 176.43 137.016 173.531 139.811 171.72 C141.558 170.995 143.655 170.27 146.8 169.545 C149.596 169.183 151.692 168.458 152.741 167.734 C155.187 166.284 156.934 163.385 158.332 159.4 L158.332 189.475 L163.224 189.475 L163.224 199.621 M135.967 140.195 C135.967 143.094 136.317 145.268 136.666 146.717 C137.016 149.978 138.413 151.79 140.161 152.152 C140.51 152.515 141.209 152.515 141.558 152.515 C142.956 152.515 144.005 152.152 144.703 151.428 C145.752 151.065 146.8 149.978 147.848 148.529 C147.15 147.804 146.451 146.355 146.101 145.268 C145.752 143.818 145.402 142.731 145.402 141.644 C145.402 141.282 145.752 140.92 145.752 140.557 C146.101 140.195 146.451 139.832 146.451 139.47 C147.15 139.108 147.848 138.745 148.198 138.745 C148.897 138.745 149.246 139.47 149.596 140.195 C149.945 140.92 149.945 142.007 149.945 143.094 C149.945 144.905 149.596 146.717 148.897 148.167 C149.246 148.167 149.596 148.167 150.295 148.167 C150.993 148.167 151.343 148.167 152.042 148.167 L152.391 149.616 C151.692 149.978 150.644 150.703 148.897 151.428 C147.15 152.152 145.752 152.877 144.703 152.877 C145.053 154.327 145.402 155.776 145.752 156.863 C146.101 157.95 146.101 159.4 146.101 160.487 C146.101 161.936 146.101 163.385 145.402 164.835 C145.053 166.284 144.703 167.371 144.354 168.458 C149.246 165.922 152.042 161.574 152.741 155.414 C153.09 153.24 153.09 151.428 153.44 149.254 C154.488 148.167 155.536 146.717 156.585 145.268 C157.633 143.456 158.332 141.282 159.031 138.745 C159.031 138.745 159.38 138.021 159.38 137.296 C159.38 136.571 159.73 135.484 159.73 135.122 C159.73 134.397 159.38 134.035 159.38 133.672 C158.681 134.397 157.633 134.76 157.283 135.122 C156.585 135.122 155.886 135.484 155.536 135.484 C155.187 135.484 154.837 135.484 154.488 135.122 C150.644 134.035 148.897 132.585 148.897 131.136 C148.897 130.411 148.897 129.687 149.246 128.6 C150.644 122.802 152.391 120.265 154.488 120.99 C153.44 120.628 152.391 120.628 151.343 120.265 C148.547 120.628 146.8 122.802 145.752 127.15 C145.402 129.324 145.053 131.861 144.703 134.035 C144.354 136.209 143.655 137.658 142.956 138.745 C141.908 139.832 140.51 140.557 138.763 140.557 C137.715 140.557 137.016 140.557 135.967 140.195 L135.967 140.195 M155.187 111.207 C154.138 109.757 152.741 107.945 151.692 106.134 C151.343 107.583 150.993 108.67 150.644 109.032 C150.644 109.395 150.295 110.12 149.246 111.207 C149.945 111.931 150.295 111.931 150.644 112.294 C150.993 112.656 151.692 112.656 152.042 112.656 C152.741 112.656 153.789 112.294 155.187 111.207 L155.187 111.207 M143.655 99.974 C141.558 99.249 140.161 99.249 139.462 99.249 C139.462 101.423 139.811 102.872 140.51 103.597 C140.86 103.96 141.558 104.322 142.607 105.047 C142.607 103.96 142.607 103.235 142.956 102.148 C142.956 101.423 143.306 100.698 143.655 99.974 L143.655 99.974 M147.499 189.475 L147.499 182.952 C147.15 182.952 147.15 182.952 146.451 182.952 C146.101 182.952 145.402 182.952 144.703 182.952 C144.005 183.315 143.306 183.677 142.607 184.04 C141.558 184.402 140.86 185.127 140.51 186.214 C139.811 187.301 139.462 188.388 138.763 189.475 L147.499 189.475 M212.845 131.498 C211.098 130.411 210.05 129.687 209.351 129.324 C207.604 128.237 206.206 127.512 205.158 127.512 C203.76 127.512 202.013 127.875 200.265 128.237 C196.771 128.962 193.975 130.049 190.83 131.498 C190.481 131.861 189.433 131.861 188.384 131.861 C187.336 132.223 186.288 132.223 184.89 132.223 C183.143 132.223 181.395 132.223 179.997 131.861 C178.6 131.861 177.202 131.861 175.804 131.498 C175.804 128.962 176.154 127.15 177.202 126.063 C177.901 125.338 178.949 124.614 180.347 124.614 C181.395 124.614 182.793 124.976 184.191 125.338 C187.336 126.425 189.433 126.788 189.433 126.788 C192.927 126.788 196.421 125.338 200.265 122.077 C203.41 119.541 206.206 116.642 208.303 113.018 L208.303 109.032 L204.808 109.032 C204.459 108.308 204.109 107.945 203.76 107.583 C204.459 107.221 205.158 106.496 205.856 105.771 C206.206 105.409 206.905 105.409 207.604 105.409 C208.303 105.409 209.002 105.409 209.7 105.409 L209.7 99.974 C208.652 96.712 207.953 94.901 207.604 94.538 C206.905 92.727 205.856 90.915 204.808 89.828 C203.41 91.64 202.362 93.814 201.663 96.712 C200.964 99.249 200.265 101.785 199.916 104.684 C198.868 106.496 197.819 108.308 196.421 110.12 C194.674 111.569 193.276 113.018 191.529 114.468 C191.879 114.468 191.879 114.468 191.879 114.83 C192.228 115.555 192.578 116.642 192.578 117.729 C192.578 118.454 192.578 119.178 192.228 120.265 C192.228 120.265 191.879 120.265 191.529 120.628 C190.83 120.99 190.481 120.99 190.131 120.99 C189.433 119.903 188.734 118.816 188.035 118.454 C185.589 116.642 182.094 115.917 177.202 115.917 C173.707 115.917 169.864 117.729 166.02 121.352 C165.321 122.077 164.272 123.164 163.574 123.889 L163.574 118.816 C166.369 114.105 168.466 111.207 169.514 109.395 C170.213 107.583 170.562 106.496 170.562 105.771 C170.562 105.771 170.562 105.409 169.864 104.684 C169.165 103.96 169.165 102.872 169.165 101.423 C169.165 100.336 169.165 98.524 169.514 96.712 C169.864 94.538 170.562 92.002 171.611 88.741 C168.466 87.291 166.369 85.842 165.67 85.117 C164.971 84.03 163.923 81.856 162.875 78.595 L163.574 68.087 C165.321 71.348 166.719 74.247 168.466 77.508 C170.562 80.769 172.659 82.218 174.756 82.218 C175.804 82.218 177.202 81.856 178.6 81.131 C182.094 79.32 184.191 78.595 184.89 78.232 C185.589 78.232 186.288 78.232 186.986 78.232 C188.734 78.232 190.481 78.595 191.879 78.957 C193.626 79.682 195.024 80.044 196.421 80.769 C199.217 78.595 200.964 76.783 202.362 75.334 C206.905 71.71 210.399 69.174 212.845 68.087 C212.147 70.623 210.749 73.522 208.652 77.145 C207.254 79.682 206.206 82.581 206.206 85.117 C207.604 88.741 209.002 92.364 210.05 95.263 C211.448 98.524 211.797 101.785 211.797 104.684 C211.797 107.583 211.448 110.12 210.749 112.294 C209.7 114.468 208.652 116.642 207.604 118.816 C208.652 120.99 209.7 122.802 210.399 124.976 C211.448 126.788 212.147 128.962 212.845 131.498 L212.845 131.498 M199.217 150.703 C195.024 150.703 192.228 153.24 191.18 157.95 C190.131 162.298 189.433 167.009 188.384 171.357 C186.637 176.43 182.444 178.604 176.503 178.604 C174.756 178.604 173.358 178.604 171.96 178.242 C170.562 177.88 169.864 177.517 169.514 177.517 C169.165 177.517 168.815 177.517 168.815 177.517 C168.815 180.778 168.466 182.59 168.116 183.315 C167.767 184.04 166.369 185.127 164.272 186.576 L164.272 177.88 C164.622 177.517 164.971 177.517 165.321 177.155 C166.02 176.792 166.369 176.068 166.369 175.343 C166.369 174.618 166.02 173.531 165.321 172.082 C164.272 170.995 163.923 169.908 163.923 168.821 C163.923 168.096 164.622 165.922 166.02 163.023 C167.068 160.124 167.767 158.312 167.767 157.95 C167.767 157.588 167.767 157.225 167.417 157.225 C167.068 157.225 167.068 156.863 167.068 156.863 L164.272 157.225 L164.272 148.891 C164.971 149.254 165.67 149.616 166.02 149.616 C166.369 149.978 166.719 150.341 167.767 151.065 C168.116 150.703 168.116 150.341 168.466 149.978 C168.466 149.616 168.466 148.891 168.466 148.167 C168.466 144.905 168.116 142.007 167.417 139.47 C166.719 137.296 165.67 136.209 164.272 135.847 L164.272 128.237 C164.971 129.324 165.67 130.049 166.02 130.411 C166.719 130.774 167.417 131.136 168.116 131.136 C168.466 131.136 168.815 130.774 169.514 130.774 C170.213 130.774 170.562 130.774 170.912 130.774 C171.96 130.774 172.659 130.774 173.358 131.136 C174.057 131.498 174.756 132.223 175.804 132.948 C172.659 132.948 170.213 132.948 169.165 133.31 C168.116 133.672 167.767 134.397 167.767 135.122 C168.466 136.209 169.165 138.021 169.514 139.832 C170.213 141.644 170.562 143.094 170.562 144.905 C170.213 147.442 169.864 149.978 169.864 152.515 C169.514 154.689 169.514 156.501 169.514 158.312 C169.514 163.023 170.213 167.009 171.261 169.545 C173.009 173.169 175.804 174.981 179.648 174.981 C181.395 174.981 183.143 174.256 184.89 172.444 C186.288 170.995 187.336 169.183 187.336 167.009 C187.336 165.197 186.637 163.385 185.938 162.661 C184.89 161.211 183.143 160.849 180.696 160.849 C179.997 160.849 179.299 160.849 178.6 161.211 C177.901 161.936 177.202 162.298 176.503 162.661 C176.154 162.298 175.804 161.574 175.804 160.849 C175.804 160.124 175.455 159.4 175.455 159.037 C175.455 156.863 175.804 155.414 176.503 153.964 C177.202 152.877 177.551 151.428 178.25 150.341 C178.25 150.341 178.25 149.254 177.551 146.717 C177.551 145.63 177.202 144.543 177.202 143.456 C177.202 142.007 177.551 140.557 178.25 139.108 C178.949 137.296 180.347 135.847 182.094 134.76 C182.094 135.847 182.094 136.934 182.094 137.658 C182.094 138.745 182.094 140.195 182.793 141.282 C183.143 142.731 184.191 144.181 185.938 145.992 C184.89 146.355 183.841 146.717 182.444 147.804 C181.046 148.529 179.997 149.254 179.299 149.616 L179.997 150.703 L183.143 150.341 C183.143 150.703 182.793 151.065 182.793 151.428 C182.793 152.877 183.143 153.964 183.841 155.051 C184.54 156.501 185.239 156.863 185.938 156.863 C186.637 156.863 186.986 156.501 187.685 155.776 C187.685 155.776 188.035 155.414 188.035 155.051 C188.035 154.327 187.685 153.602 186.986 152.515 C185.938 151.428 184.89 150.703 183.841 149.616 C184.54 148.529 185.589 147.442 186.637 146.717 C187.685 145.992 189.083 145.63 190.481 145.63 C192.578 145.63 194.325 146.355 196.072 147.442 C197.47 148.167 198.518 149.254 199.217 150.703 L199.217 150.703 M210.399 199.621 C210.399 206.505 209.351 211.578 207.254 214.477 C204.459 218.101 200.615 219.912 195.373 219.912 C189.433 219.912 185.589 217.738 183.143 214.115 C181.395 211.216 180.696 207.955 180.696 203.607 C180.696 202.882 180.696 202.157 180.696 201.07 C180.696 200.345 180.696 199.621 180.696 199.621 L156.934 199.621 L156.934 189.475 L191.879 189.475 C191.879 190.924 191.879 192.736 191.529 194.91 C191.529 197.084 191.529 198.534 191.529 199.258 C191.529 202.519 191.879 204.694 192.578 206.143 C192.927 207.592 193.975 208.317 195.723 208.317 C197.47 208.317 198.518 207.23 199.217 205.418 C199.916 203.607 199.916 201.07 199.916 197.084 L199.916 196.36 C199.916 195.272 199.916 194.548 199.916 193.461 C199.916 192.374 199.916 191.287 199.916 190.562 L199.916 189.475 L199.916 171.72 C198.518 170.632 196.771 169.183 194.325 167.734 C198.868 166.284 202.362 164.11 205.158 161.211 C207.604 157.95 209.351 155.414 210.399 154.327 L210.399 189.475 L210.399 199.621 M200.265 81.494 C199.916 82.218 198.868 84.03 196.771 86.204 C194.325 89.828 192.927 92.727 192.927 94.538 C192.927 95.988 193.276 97.075 193.975 98.524 C194.325 99.611 195.024 100.336 196.072 101.061 C196.421 100.336 197.12 98.887 197.819 96.35 C198.169 94.538 198.518 93.089 198.868 91.277 C199.566 89.465 199.916 87.654 199.916 85.842 C200.265 83.305 200.265 81.856 200.265 81.494 L200.265 81.494 M196.072 105.409 C193.276 103.96 191.529 102.872 190.83 101.785 C190.131 100.336 189.433 98.162 189.433 94.901 C189.433 92.002 189.782 89.828 190.481 88.016 C190.83 87.291 191.529 85.48 192.927 82.943 C190.83 82.218 189.433 82.218 189.083 81.856 C188.384 81.856 188.035 81.494 187.336 81.494 C184.191 81.494 181.046 82.943 178.25 85.842 C176.154 88.378 174.406 91.64 173.009 95.625 C174.406 94.176 176.852 93.451 179.299 93.451 C181.395 93.451 183.143 93.814 184.54 94.901 C185.938 95.988 186.637 97.8 186.637 99.974 C186.637 101.423 186.637 102.51 185.938 103.235 C185.239 104.322 184.54 104.684 183.143 104.684 C181.745 104.684 181.046 104.322 180.696 103.597 C180.347 103.235 180.347 102.148 180.347 101.061 C180.347 100.698 180.347 100.336 180.696 99.611 C180.696 98.887 180.696 98.162 180.696 97.075 C180.696 97.075 180.347 97.075 179.997 97.075 C179.299 97.075 179.299 97.075 178.949 97.075 C178.25 97.075 177.901 97.075 177.202 97.075 C175.105 97.8 173.707 100.336 173.707 104.322 C173.707 106.858 174.756 109.395 176.852 110.844 C178.949 112.656 181.395 113.743 184.89 113.743 C186.986 113.743 189.083 112.656 191.18 110.844 C192.927 109.395 194.325 107.583 196.072 105.409 L196.072 105.409 M185.239 129.324 C184.54 128.237 183.841 127.512 183.143 126.788 L179.299 126.788 L178.6 129.324 L185.239 129.324 M193.626 149.254 C192.578 148.891 191.529 148.529 190.481 148.529 C190.131 148.529 189.433 148.529 189.083 148.891 C188.384 148.891 188.035 149.254 187.685 149.254 C188.035 149.978 188.734 150.341 189.083 151.065 C189.433 151.428 189.782 152.152 190.131 153.24 C190.481 152.877 191.18 152.152 191.879 151.428 C192.578 150.703 193.276 149.978 193.626 149.254 L193.626 149.254 M182.094 157.95 C181.745 157.225 181.395 156.501 181.395 156.138 C181.046 155.776 181.046 155.051 181.046 154.327 C179.997 154.689 179.299 154.689 179.299 155.051 C178.6 155.776 178.25 156.863 177.901 158.675 C178.25 158.675 178.6 158.312 179.648 158.312 C180.347 158.312 181.046 157.95 182.094 157.95 L182.094 157.95 M212.845 140.195 C213.195 141.644 213.195 142.731 213.195 143.818 C213.195 144.905 213.195 145.992 212.496 146.717 C212.147 147.804 211.448 148.529 210.05 149.254 C209.002 149.978 207.953 150.341 206.555 149.978 C203.76 150.341 201.663 148.891 200.265 146.355 C199.566 145.268 199.217 143.818 199.217 142.369 C199.217 141.282 199.566 139.832 199.916 138.745 C200.615 137.658 201.314 136.934 202.711 135.847 C203.41 135.484 204.459 135.122 205.856 135.122 C207.254 135.122 208.652 135.847 210.05 136.571 C211.098 137.658 212.147 138.745 212.845 140.195 L212.845 140.195 M247.79 91.64 C247.79 92.727 247.441 94.176 246.392 95.988 C245.344 97.437 244.296 98.887 243.946 99.974 C243.597 99.611 243.597 99.611 243.597 99.249 C243.597 98.887 243.597 98.162 243.946 97.437 C243.946 97.075 243.946 96.712 243.946 96.35 C243.946 96.35 243.946 95.988 243.946 95.625 C243.597 94.901 242.548 94.538 241.151 94.538 C240.452 94.538 239.753 94.538 239.403 93.814 C239.403 93.451 239.054 92.727 239.054 91.64 C239.054 91.277 239.054 91.277 239.054 90.915 C239.054 90.915 239.054 90.552 239.054 90.552 C240.452 92.364 242.199 93.089 243.597 93.089 C243.946 93.089 244.645 93.089 244.994 92.727 C245.344 92.364 245.693 92.002 245.693 91.277 C245.693 90.552 245.344 89.828 244.994 89.103 C244.296 88.378 243.946 87.654 243.247 87.291 C242.548 86.929 242.199 86.567 241.849 86.567 C240.452 86.567 239.054 87.291 238.006 88.741 C236.608 90.552 235.909 91.64 235.909 93.089 C235.909 94.538 236.258 95.988 237.307 97.075 C237.656 97.437 239.753 99.249 243.597 102.872 L240.801 102.872 C239.403 101.785 237.656 100.336 236.258 99.249 C234.511 97.8 233.812 96.35 233.812 94.538 C233.812 91.64 235.909 88.378 239.753 84.392 C243.597 80.769 245.693 78.232 245.693 76.783 C245.693 75.696 245.344 74.609 244.994 73.522 C244.296 72.072 243.247 71.348 242.199 71.348 C240.452 71.348 238.704 71.71 237.307 72.797 C235.559 73.522 234.861 74.609 234.861 75.334 C234.861 76.058 235.21 76.421 235.909 76.783 C236.608 77.145 237.307 77.145 238.006 77.145 C239.753 77.145 241.5 76.421 242.898 74.609 C242.898 74.609 242.898 74.971 242.898 75.334 C242.898 75.696 242.898 75.696 242.898 76.058 C242.898 76.783 242.898 77.145 242.898 77.145 C241.849 79.32 240.452 80.044 238.006 80.044 C236.957 80.044 235.909 79.682 235.21 79.32 C234.511 78.595 233.812 77.87 233.463 76.783 C233.113 76.421 233.113 75.696 233.113 75.334 C233.113 73.884 233.812 72.435 235.559 71.348 C236.957 70.261 238.704 69.536 240.801 69.536 C242.898 69.536 244.296 70.261 245.693 71.71 C246.742 72.797 247.441 74.247 247.79 76.421 C247.79 76.421 247.79 76.783 247.79 77.145 C247.79 78.595 247.091 80.044 245.693 81.494 C244.296 82.943 242.898 84.03 241.849 85.117 C243.597 86.567 244.645 87.291 245.344 87.654 C247.091 88.741 247.79 90.19 247.79 91.64 L247.79 91.64 M238.006 84.03 C235.909 84.755 234.162 86.567 232.764 88.741 C232.414 89.465 232.065 90.552 231.366 92.002 L231.366 118.091 C231.366 119.541 231.366 120.99 231.716 122.077 C231.716 123.164 232.065 124.251 232.764 124.614 C232.065 125.338 231.716 125.701 231.366 126.063 C229.968 127.15 229.269 127.875 228.92 128.237 C228.221 127.875 227.872 127.512 227.173 126.788 C226.474 126.788 226.124 126.425 225.425 126.425 C225.076 126.425 224.727 126.425 224.028 126.425 C223.678 126.425 223.329 126.425 222.979 126.425 C222.63 126.425 222.28 126.425 221.582 126.425 L221.582 67 C222.63 68.449 223.329 69.174 223.678 69.898 C225.425 72.435 226.823 74.247 227.872 75.334 C229.269 77.145 230.667 78.595 232.414 80.044 C233.812 81.131 235.559 82.581 238.006 84.03 L238.006 84.03 M247.091 134.397 C246.742 134.035 246.392 133.672 245.693 133.31 C244.994 133.31 244.645 132.948 243.946 132.948 C243.247 132.948 242.548 132.948 241.849 133.31 C241.151 133.672 240.801 134.035 240.452 134.76 C240.102 135.122 239.753 135.847 239.753 136.209 C239.403 135.484 238.704 134.397 238.006 132.948 C238.006 132.948 238.006 132.585 237.656 132.223 C238.006 131.498 238.355 131.136 238.704 130.774 C239.054 130.411 239.403 130.049 240.102 129.324 C240.452 129.324 240.801 129.324 241.5 128.962 C241.849 128.962 242.548 128.962 243.247 128.962 C243.597 128.962 243.946 128.962 243.946 128.962 L243.946 128.962 C243.247 128.237 242.898 127.512 242.548 127.512 C242.199 127.15 241.5 126.788 240.452 126.788 C238.704 126.788 236.258 127.875 233.812 129.687 C229.619 132.948 227.173 135.122 226.124 136.571 C227.522 137.296 228.57 138.021 229.968 139.108 C230.318 139.108 231.017 139.832 231.366 140.195 C231.366 140.557 231.017 140.92 230.667 141.282 C230.667 141.644 230.318 142.007 229.968 142.369 C228.57 140.92 226.823 139.832 224.377 138.383 C223.678 138.021 222.28 137.658 220.533 136.934 L220.533 136.209 C224.028 133.672 227.173 131.498 229.968 128.962 C233.463 125.701 235.21 123.527 235.21 122.44 C235.559 121.715 235.909 120.99 235.909 120.265 C236.258 119.541 236.258 118.816 236.258 118.091 C236.258 115.917 235.909 114.105 234.861 112.294 C234.162 111.569 233.812 110.482 233.113 109.757 C232.764 109.032 232.414 108.67 232.414 108.308 C232.065 107.221 231.716 106.134 231.716 105.409 C231.716 105.047 231.716 105.047 231.716 104.684 C232.414 103.597 232.764 102.51 233.113 102.148 C233.463 101.785 234.162 101.785 235.21 101.785 C235.909 101.785 236.608 102.148 236.957 102.872 C237.656 103.597 238.006 104.322 238.006 105.047 C238.006 106.134 237.656 106.858 236.957 107.221 C235.909 107.945 235.21 108.308 235.21 108.308 C238.006 111.207 239.753 113.381 240.801 115.192 C241.151 118.091 241.849 120.265 242.548 121.352 C242.548 121.715 242.898 122.077 243.597 122.802 C245.344 124.614 246.742 126.063 247.091 127.512 C247.441 128.962 247.79 130.411 247.79 131.498 C247.79 132.948 247.441 133.672 247.091 134.397 L247.091 134.397 M248.489 142.369 C248.489 144.181 247.441 146.355 245.693 148.891 C244.994 149.616 243.946 150.703 242.548 152.152 C242.548 152.877 242.548 153.24 242.548 153.964 C242.548 154.689 242.199 155.051 242.199 155.776 C241.849 156.138 241.5 157.225 240.452 158.312 C239.753 159.762 238.704 160.849 237.656 162.298 C237.656 162.298 237.307 162.661 236.608 163.023 C236.258 163.385 235.559 164.11 235.21 164.835 C235.909 165.197 236.608 165.56 236.608 165.56 C237.656 166.284 238.006 167.009 238.006 168.458 C238.006 169.183 237.656 169.545 236.957 169.908 C236.608 170.632 235.909 170.632 235.21 170.632 C234.162 170.632 233.463 170.27 232.764 169.183 C232.065 168.096 231.716 167.009 231.716 165.922 C231.716 165.197 232.764 162.661 234.861 159.037 C235.909 157.225 236.258 155.776 236.258 154.327 L235.559 151.065 L234.511 148.167 C234.511 147.804 234.861 147.08 235.21 146.355 C235.21 145.992 235.559 145.268 235.909 144.543 C236.608 145.268 237.307 145.63 238.355 146.355 C239.054 146.355 239.403 146.717 240.102 147.08 C240.452 147.08 241.151 146.717 241.849 146.355 C242.898 145.992 243.597 145.63 243.946 144.543 C243.247 144.543 242.898 144.181 242.199 144.181 C241.5 143.818 241.151 143.456 240.452 143.094 C239.054 142.369 238.355 141.644 237.656 140.92 C237.307 140.195 236.608 139.108 235.559 137.658 C235.21 136.934 234.861 135.847 234.511 134.76 C233.812 133.672 233.463 132.223 233.113 131.136 L235.559 128.962 C236.957 131.498 238.006 134.035 239.403 136.571 C240.102 137.658 241.151 138.383 241.849 139.108 C242.898 139.832 243.946 140.195 244.645 140.195 C245.344 140.195 245.693 140.195 246.392 139.832 C247.091 139.47 247.441 139.108 247.79 138.745 C248.139 139.47 248.489 140.92 248.489 142.369 L248.489 142.369 M248.489 199.621 L221.582 199.621 L221.582 145.268 C222.28 145.268 222.63 145.268 222.979 145.268 C223.329 145.268 224.028 145.268 224.377 145.268 C227.173 145.268 229.619 144.543 231.017 142.731 C231.366 142.369 232.414 140.557 234.511 136.934 C234.511 137.658 235.21 138.383 235.559 139.47 C236.258 140.195 236.608 140.92 236.608 140.92 C236.608 141.282 236.258 141.644 235.909 142.731 C234.511 145.268 233.812 147.08 233.113 148.167 L231.366 149.978 L231.366 189.475 L248.489 189.475 L248.489 199.621 M247.79 179.329 C247.79 181.503 247.091 182.952 245.693 184.04 C244.645 185.127 243.247 185.851 241.5 186.214 C241.151 186.576 240.801 186.576 240.452 186.576 C239.403 186.576 238.704 185.851 237.656 185.127 C237.307 184.764 236.258 182.952 233.812 179.329 L235.909 180.416 C236.258 181.141 236.957 181.865 237.656 182.59 C239.054 183.677 239.753 184.402 240.801 184.402 C242.199 184.402 243.247 184.04 243.946 183.677 C245.344 182.952 246.043 181.503 246.043 180.054 C246.043 178.604 245.693 177.155 244.645 175.705 C243.946 173.894 242.898 173.169 242.199 173.169 C241.5 173.169 241.151 173.531 240.801 174.256 C240.801 174.981 240.452 175.343 240.452 176.068 C240.452 178.242 241.151 179.691 242.898 181.141 C242.898 181.141 242.548 181.141 242.199 181.141 C242.199 181.503 241.849 181.503 241.5 181.503 C240.801 181.503 240.452 181.141 240.452 181.141 C238.704 180.416 237.656 178.967 237.656 176.43 C237.656 175.343 238.006 174.618 238.704 173.531 C239.054 172.807 240.102 172.082 240.801 171.72 C241.5 171.72 241.849 171.357 242.199 171.357 C243.597 171.357 244.994 172.444 246.043 173.894 C247.091 175.343 247.79 177.155 247.79 179.329 L247.79 179.329 M246.392 211.941 C246.392 213.752 245.693 215.564 244.645 216.651 C243.597 217.738 242.199 218.463 240.801 218.825 C239.403 219.188 238.006 218.463 236.258 217.014 C235.21 215.564 234.162 214.115 233.113 212.665 C232.065 214.477 231.366 215.927 231.017 216.289 C229.968 218.101 228.92 218.825 227.522 218.825 C226.474 218.825 225.425 218.463 223.678 217.376 C222.28 216.289 221.232 215.564 220.184 215.202 C220.533 214.84 220.883 214.84 221.582 215.202 C222.28 215.202 222.979 215.202 222.979 215.202 C223.329 215.202 223.678 215.202 223.678 215.202 C224.377 214.84 224.727 213.752 224.727 211.941 C224.727 211.216 224.727 210.491 225.425 210.129 C225.775 210.129 226.474 209.767 227.173 209.767 C227.522 209.767 227.522 209.767 227.872 209.767 C227.872 209.767 227.872 209.767 227.872 209.767 C227.173 210.854 226.823 211.578 226.474 212.303 C226.124 213.028 225.775 214.115 225.775 214.84 C225.775 215.202 226.124 215.927 226.124 216.289 C226.474 216.651 226.823 217.014 227.522 217.014 C228.221 217.014 228.57 216.651 229.269 216.289 C229.968 215.564 230.318 215.202 230.667 214.477 C231.366 214.115 231.366 213.39 231.366 213.028 C231.366 211.578 231.017 210.129 229.619 208.679 C228.221 207.23 227.173 206.505 225.775 206.505 C224.727 206.505 223.329 207.23 222.28 207.955 C222.28 208.317 220.533 210.491 217.388 214.477 L217.388 211.578 C218.437 210.129 219.485 208.679 220.533 206.868 C221.931 205.418 223.329 204.694 224.727 204.694 C227.173 204.694 229.968 206.868 233.463 210.854 C236.608 214.84 239.054 217.014 240.102 217.014 C241.5 217.014 242.898 216.651 243.597 215.564 C244.296 214.84 244.645 213.752 244.645 212.665 C244.645 211.216 244.296 209.767 243.597 208.317 C242.898 206.505 242.199 205.781 241.5 205.781 C240.801 205.781 240.452 206.143 240.102 206.868 C240.102 207.592 239.753 207.955 239.753 208.679 C239.753 209.767 240.102 210.491 240.452 211.578 C240.801 212.303 241.151 213.028 241.849 213.752 C241.5 213.752 241.151 214.115 240.801 214.115 C240.102 214.115 240.102 213.752 239.753 213.752 C238.006 213.028 237.307 211.216 237.307 209.042 C237.307 207.955 237.656 206.868 238.006 206.143 C238.704 205.418 239.403 205.056 240.102 204.331 C240.452 204.331 241.151 203.969 241.5 203.969 C242.898 203.969 243.946 205.056 244.994 206.505 C245.693 208.317 246.392 210.129 246.392 211.941 L246.392 211.941 M278.541 189.475 L278.541 182.59 L258.972 182.59 C258.972 182.228 258.972 181.865 258.623 180.778 C258.273 180.054 258.273 179.329 258.273 179.329 C258.273 169.908 260.72 163.023 265.262 157.95 C267.359 155.414 271.902 152.152 278.541 148.529 C284.132 145.63 287.277 142.731 288.326 139.47 L288.326 189.475 L294.266 189.475 L294.266 199.621 L244.645 199.621 L244.645 189.475 L278.541 189.475 M277.842 161.211 C276.445 162.298 275.047 163.385 273.3 165.197 C271.902 167.009 270.853 168.821 270.155 170.632 L277.842 170.632 L277.842 161.211 M290.772 103.235 C289.374 105.409 287.976 106.496 285.88 107.583 C284.482 108.67 282.735 109.032 280.987 109.032 C279.24 109.032 277.842 108.67 276.445 107.945 C275.396 106.858 274.348 105.771 273.3 104.322 C274.697 103.597 275.746 102.51 276.794 101.423 C277.842 100.336 278.192 99.249 278.192 98.524 C277.842 98.162 277.842 97.8 277.493 97.437 C276.794 96.712 276.445 96.35 276.095 96.35 C275.047 96.35 274.348 97.075 273.649 98.524 C272.95 99.611 272.601 101.061 272.601 102.51 C272.601 102.872 272.601 103.235 272.601 103.96 C271.902 103.597 271.203 103.597 270.853 103.597 C270.155 103.597 269.805 103.597 269.106 103.235 L268.058 104.322 C268.757 104.684 270.155 105.771 272.601 107.221 C274.348 107.945 275.047 108.67 275.396 108.67 C274.348 110.12 273.3 111.207 272.601 112.656 C271.902 114.468 271.203 116.28 271.203 118.091 C271.203 118.454 271.203 119.178 271.552 119.903 C271.552 120.265 271.552 120.99 271.552 120.99 C269.456 119.903 268.058 118.091 267.359 116.642 C266.311 114.83 265.961 113.018 265.961 111.207 C265.961 110.12 265.961 108.67 266.311 107.583 C266.66 106.496 267.01 105.047 267.359 103.597 C266.311 102.51 265.612 101.061 264.913 99.611 C264.214 98.162 263.865 96.35 263.865 94.176 C263.865 93.451 264.214 92.727 264.214 92.002 C264.214 91.64 264.563 90.552 264.913 89.828 C265.961 90.552 267.01 91.277 268.058 91.64 C268.407 92.002 269.106 92.364 269.805 92.002 C272.601 92.364 274.348 91.64 275.396 90.19 C276.445 89.103 277.144 87.291 277.144 85.117 C277.144 84.392 277.144 83.668 277.144 82.943 C277.144 82.218 277.144 81.494 277.144 80.407 C277.144 78.232 276.794 76.421 276.794 75.334 C276.095 73.884 275.396 73.16 274.348 73.16 C269.456 73.16 265.612 75.696 262.816 81.131 C261.069 85.48 259.671 90.915 258.972 97.437 C258.623 101.061 258.273 105.047 258.273 109.395 C258.273 111.569 257.924 114.105 257.225 116.642 C256.876 119.541 256.177 122.077 255.478 124.614 C255.478 126.063 256.177 126.425 257.575 126.425 C258.972 126.425 261.418 125.701 264.913 123.527 C260.021 129.687 257.225 134.76 256.177 138.745 C256.177 139.832 255.128 144.543 254.08 152.152 C253.731 148.891 253.032 145.992 253.032 144.181 C251.983 137.658 251.634 132.223 251.634 128.237 C251.634 127.512 251.634 126.788 251.634 126.063 C251.634 125.338 251.634 124.614 251.634 123.527 C251.983 120.265 252.682 116.642 253.032 113.381 C253.731 110.844 254.43 108.67 254.779 107.221 C254.08 107.583 253.731 107.945 253.381 108.308 C253.032 108.67 252.333 109.032 251.634 109.395 C251.634 107.221 251.634 105.771 251.634 104.684 C252.333 101.785 253.381 100.336 254.779 100.698 C254.779 100.336 254.779 100.336 255.128 100.336 C255.478 99.974 255.478 99.974 255.478 99.249 C255.478 98.887 254.779 96.712 253.381 93.451 C252.333 90.19 251.634 88.016 251.634 86.929 C251.634 85.842 251.983 84.755 252.682 83.305 C253.381 81.856 253.731 80.769 253.731 79.682 C253.731 79.32 253.731 78.595 253.381 78.232 C252.333 77.508 251.634 77.145 251.634 77.145 L251.634 68.087 C254.08 69.536 255.478 70.985 255.827 71.71 C256.177 72.435 256.526 74.247 256.526 77.508 C257.225 77.508 259.322 76.058 262.467 73.522 C265.961 70.261 268.757 68.811 270.504 68.811 C275.746 68.811 279.24 70.623 280.987 73.522 C282.385 76.058 283.084 79.682 283.084 84.755 C283.084 85.48 283.084 86.567 283.084 88.378 C283.084 89.828 283.084 91.277 283.084 92.002 C283.084 95.625 283.434 98.524 284.482 99.974 C285.53 102.148 287.627 103.235 290.772 103.235 L290.772 103.235 M284.482 104.684 C283.084 103.235 281.337 101.785 279.939 100.336 C279.59 101.785 279.24 102.872 278.891 103.235 C278.192 103.96 277.842 104.322 277.493 104.684 C278.192 105.047 278.541 105.409 279.24 105.409 C279.939 105.771 280.289 105.771 280.987 105.771 C282.036 105.771 283.084 105.409 284.482 104.684 L284.482 104.684 M271.203 95.263 C270.504 95.263 269.456 94.901 268.757 94.901 C267.708 94.538 267.359 94.538 267.01 94.538 C267.01 96.35 267.359 97.8 268.058 98.524 C268.407 98.887 269.106 99.249 270.155 99.249 C270.155 98.524 270.155 97.437 270.504 97.075 C270.853 96.35 271.203 95.625 271.203 95.263 L271.203 95.263 M263.515 206.505 C262.467 206.868 261.768 207.592 260.72 208.679 C259.671 210.129 259.322 211.578 259.322 213.028 C259.322 213.39 259.671 214.115 260.021 214.84 C260.37 215.202 260.72 215.927 261.069 216.289 C261.418 216.651 261.768 217.014 262.467 217.014 C262.816 217.014 263.166 216.651 263.166 216.289 C263.515 215.927 263.515 215.564 263.515 214.84 C263.515 214.115 263.515 213.39 263.166 212.665 C262.816 211.578 262.467 210.854 262.117 210.129 C262.467 210.129 263.166 210.129 263.515 210.129 C263.865 210.491 264.214 210.854 264.214 212.303 C264.214 214.115 264.563 214.84 264.913 215.202 C265.262 215.564 265.612 215.202 265.961 215.202 C266.66 214.84 267.01 214.84 267.01 214.84 C267.359 214.84 267.359 214.84 267.708 215.202 C266.66 216.289 265.612 217.014 264.563 218.101 C263.865 218.825 263.166 218.825 262.467 218.825 C261.768 218.825 261.069 218.463 260.37 217.376 C259.671 215.564 258.972 214.115 258.273 212.665 C257.575 214.477 256.526 216.289 255.478 217.738 C254.43 218.825 253.731 219.188 253.032 218.825 C251.983 218.463 250.935 217.738 250.236 216.651 C249.537 215.564 249.188 213.752 249.188 211.941 C249.188 209.767 249.537 207.955 250.236 206.505 C250.935 204.694 251.634 203.969 252.333 203.969 C252.682 203.969 253.032 203.969 253.381 204.331 C254.08 204.694 254.43 205.418 254.779 206.143 C255.478 206.868 255.478 207.955 255.478 209.042 C255.478 210.129 255.478 211.216 255.128 211.941 C254.779 212.665 254.43 213.39 253.731 213.752 C253.731 213.752 253.381 214.115 253.032 214.115 C252.682 214.115 252.333 214.115 252.333 213.752 C251.983 213.752 251.983 213.752 251.983 213.752 C253.032 212.303 253.731 210.854 253.731 208.679 C253.731 208.317 253.381 207.592 253.381 206.868 C253.032 206.143 253.032 205.781 252.682 205.781 C251.983 205.781 251.284 206.505 250.935 208.317 C250.236 210.129 249.887 211.578 249.887 213.028 C249.887 214.477 250.586 215.564 251.284 216.289 C251.983 216.651 252.682 217.014 253.381 217.014 C254.08 217.014 255.827 214.84 258.273 210.854 C260.37 206.868 262.467 204.694 264.214 204.694 C265.961 204.694 267.708 206.868 269.805 210.854 C271.902 214.84 273.3 217.014 274.697 217.014 C275.047 217.014 275.396 217.014 275.746 216.651 C277.493 215.927 278.541 214.84 278.891 213.752 C279.59 213.028 279.939 211.578 279.939 210.491 L279.939 209.767 C279.939 209.042 279.59 207.955 278.891 207.592 C278.541 206.868 277.842 206.505 277.493 206.505 C277.493 206.505 277.144 206.868 276.794 207.23 C276.445 207.955 276.445 208.317 276.445 209.042 C276.445 209.767 276.794 210.491 276.794 211.216 C277.144 212.303 277.493 213.028 278.192 213.752 C277.493 213.752 277.144 213.39 276.794 213.39 C276.095 212.665 275.746 211.941 275.746 210.854 C275.746 209.767 275.396 209.404 275.396 208.679 C275.047 208.317 275.047 207.955 274.697 207.955 C273.998 208.317 273.3 208.317 272.95 208.317 C272.601 208.317 272.251 208.317 272.251 207.955 C273.649 206.868 274.348 206.505 274.697 206.143 C275.746 205.418 276.794 205.056 277.842 204.694 C278.541 204.694 279.24 205.418 279.939 207.23 C280.289 207.955 280.987 209.042 281.686 210.854 C281.686 210.854 282.385 209.767 283.434 207.955 C284.831 205.418 285.88 204.331 286.928 204.694 C288.326 205.056 289.025 205.781 289.724 206.868 C290.772 207.955 291.121 209.767 291.121 211.578 C291.121 213.752 290.772 215.564 290.073 217.014 C289.374 218.825 288.675 219.55 287.627 219.55 C287.627 219.55 287.277 219.188 286.928 219.188 C286.229 218.463 285.53 218.101 285.181 217.376 C284.831 216.651 284.831 215.564 284.831 214.477 C284.831 212.303 285.181 210.854 286.579 209.767 C286.579 209.767 287.277 209.767 287.627 209.767 C287.627 209.767 287.976 209.767 287.976 209.767 C287.627 210.491 287.277 211.216 286.928 211.941 C286.579 213.028 286.579 213.752 286.579 214.477 C286.579 215.202 286.579 215.927 286.928 216.651 C286.928 217.014 287.277 217.376 287.627 217.376 C287.976 217.376 288.675 216.651 289.025 215.202 C289.724 213.752 290.073 212.303 290.073 210.854 C290.073 209.404 289.724 208.317 289.025 207.592 C288.326 206.868 287.627 206.505 286.579 206.505 C286.579 206.505 284.132 209.404 279.939 215.564 C278.192 218.101 276.445 219.188 274.697 219.188 C272.95 219.188 271.203 217.014 268.757 212.665 C266.66 208.317 264.913 206.505 263.515 206.505 L263.515 206.505 M283.783 127.512 C284.132 128.6 284.482 129.687 284.482 131.136 C284.482 134.035 283.084 136.571 280.638 138.021 C280.289 138.021 279.59 138.383 278.891 138.383 C278.192 138.745 277.842 138.745 277.144 138.745 C276.095 138.745 275.047 138.383 273.998 137.658 C272.95 137.296 271.902 136.209 271.203 135.122 C270.504 133.672 270.155 132.223 270.155 130.774 C270.155 128.237 270.853 126.063 272.95 124.614 C274.348 123.889 275.746 123.527 277.144 123.527 C280.289 123.527 282.385 124.976 283.783 127.512 L283.783 127.512 M329.56 126.425 C329.56 126.425 328.862 126.425 328.512 126.425 C327.813 126.425 327.464 126.425 327.114 126.425 C326.765 126.425 326.765 126.425 326.415 126.425 C326.066 126.425 326.066 126.425 325.717 126.425 C325.018 126.425 323.969 126.788 322.921 127.15 C322.222 127.512 321.523 127.875 320.824 128.237 L318.029 124.614 C318.728 124.251 319.077 123.527 319.426 122.802 C319.776 122.077 319.776 120.99 319.776 119.903 C319.776 119.178 319.776 118.454 319.776 118.091 C319.776 109.757 319.776 104.322 319.776 101.061 C319.776 97.8 319.776 94.901 319.776 92.002 C319.077 90.552 318.728 89.465 318.378 88.741 C316.98 86.567 315.233 84.755 313.136 84.03 C315.233 82.581 316.98 81.494 317.679 81.131 C319.776 79.32 321.873 77.508 323.62 75.334 C324.668 74.247 326.066 72.435 327.464 70.261 C327.813 69.536 328.512 68.449 329.56 67 L329.56 126.425 M312.088 88.016 C312.438 88.741 312.787 89.465 313.136 90.19 C313.486 91.277 313.486 92.002 313.486 92.727 C313.486 94.176 313.136 95.263 312.088 95.625 C308.594 97.075 305.798 98.524 303.701 100.698 C301.255 102.872 299.858 105.771 298.809 108.67 C298.809 108.308 298.46 107.583 298.46 106.858 C298.46 106.134 298.46 105.771 298.46 105.047 C298.46 102.872 298.809 100.698 299.508 98.887 C299.508 98.524 299.508 98.162 299.858 97.437 C298.809 95.988 297.761 94.901 297.062 93.451 C296.014 92.364 295.315 90.915 294.965 89.465 C294.616 88.016 294.266 86.567 294.266 85.48 C294.266 84.03 294.616 82.943 294.965 81.856 C295.315 81.494 295.664 80.407 296.712 78.595 C297.761 77.145 298.46 75.696 298.809 74.247 C298.809 73.16 299.159 71.71 299.159 70.261 C299.159 69.174 299.159 68.087 298.809 67 L300.556 70.623 C300.906 71.71 301.255 73.16 301.954 74.609 C302.653 76.058 304.051 77.508 306.846 78.957 C307.545 79.32 308.244 80.044 308.943 81.131 C309.642 82.218 309.991 83.305 309.991 84.392 C309.991 85.117 309.642 85.48 309.293 86.204 C308.594 87.654 307.196 88.378 305.798 88.378 C304.75 88.378 304.051 88.378 303.701 88.016 C303.003 87.654 302.653 86.929 302.304 86.567 C302.304 86.204 302.304 85.842 302.304 85.842 C302.304 85.48 302.304 85.117 302.304 84.755 C302.653 84.392 302.653 84.03 303.003 84.03 C303.003 83.668 303.701 83.668 304.051 83.305 C304.75 83.305 305.449 83.305 306.497 84.03 C306.846 84.392 307.545 84.755 308.244 85.117 C308.244 84.03 307.895 83.305 307.545 82.581 C307.545 81.856 306.846 81.131 306.148 80.769 C305.099 80.407 304.4 80.044 303.003 80.044 C300.906 80.044 298.809 81.131 297.761 82.943 C297.411 83.668 297.411 84.755 297.411 85.842 C297.411 87.291 297.761 88.741 298.46 90.19 C299.159 92.002 300.556 93.451 302.304 94.538 C303.352 94.901 304.4 95.263 305.099 95.263 C305.449 95.263 306.148 95.263 306.497 94.901 C307.545 94.538 308.244 94.176 308.594 94.176 C309.642 94.176 310.341 93.089 310.69 92.002 C311.389 89.828 311.739 88.378 312.088 88.016 L312.088 88.016 M329.91 136.571 C328.512 137.296 327.114 137.658 326.066 138.383 C323.969 139.47 322.222 140.92 320.824 142.369 C319.776 141.644 319.426 140.92 319.426 140.557 C320.125 139.832 320.475 139.47 320.824 139.108 C322.222 137.658 323.62 136.934 324.668 136.571 C324.319 135.484 322.572 134.035 319.426 131.136 C315.583 128.237 312.787 126.425 310.69 126.425 C309.642 126.425 308.943 126.788 308.244 127.15 C308.244 127.15 307.895 127.512 307.196 128.6 C307.545 128.6 308.244 128.6 308.943 128.6 C309.642 128.6 310.341 128.962 311.04 128.962 C311.389 129.324 311.739 129.687 312.088 129.687 C312.438 130.049 313.136 130.774 313.486 131.861 C313.136 132.223 313.136 132.223 313.136 132.585 C312.787 133.31 312.088 134.397 311.04 135.847 C311.04 135.484 311.04 134.76 310.69 134.035 C310.341 133.672 309.991 132.948 309.293 132.948 C308.594 132.585 307.895 132.585 307.196 132.585 C306.497 132.585 305.798 132.585 305.449 132.948 C304.75 133.672 304.4 134.035 304.051 134.035 C303.701 133.31 303.352 132.223 303.352 131.136 C303.352 130.049 303.701 128.6 304.051 127.15 C304.4 125.701 305.449 124.614 306.497 123.164 C307.545 122.077 308.244 121.352 308.594 120.99 C309.293 119.178 309.642 117.004 310.341 114.83 C311.389 113.018 313.136 110.844 315.583 107.945 C315.233 107.583 314.534 107.221 314.185 106.858 C313.486 106.134 313.136 105.409 313.136 104.684 C313.136 103.96 313.486 102.872 314.185 102.148 C314.534 101.785 315.233 101.423 315.932 101.061 C316.98 101.423 317.33 101.423 317.679 101.785 C318.378 102.148 318.728 102.872 319.077 104.322 C319.426 104.322 319.426 104.684 319.426 105.047 C319.426 105.771 319.077 106.858 318.728 107.945 C318.728 108.308 318.378 108.67 318.029 109.032 C316.98 110.12 316.281 111.569 315.932 113.018 C315.233 114.468 314.884 115.917 314.884 117.367 C314.884 118.454 314.884 119.541 315.233 120.265 C315.583 120.99 315.583 121.715 315.583 121.715 C315.583 123.164 317.33 125.338 320.824 128.237 C323.62 131.136 326.765 133.672 329.91 135.847 L329.91 136.571 M305.099 114.105 C305.449 114.83 305.449 115.192 305.449 115.917 C305.449 117.004 305.099 118.091 304.4 119.178 C304.051 120.265 303.352 120.99 302.304 121.352 C299.508 123.164 297.761 124.976 297.062 126.788 C296.712 127.875 296.363 128.962 296.014 129.687 L294.266 133.31 C294.965 128.962 295.315 125.338 295.315 122.44 C295.315 120.628 294.965 118.816 294.965 117.367 C294.616 116.642 294.616 116.28 294.266 115.555 C294.965 117.004 296.014 118.091 297.062 118.816 C298.11 119.903 299.159 120.265 299.858 120.265 C300.556 120.265 301.255 120.265 301.605 119.903 C302.304 119.178 303.003 118.816 303.352 118.091 C303.701 117.367 303.701 116.28 303.701 115.192 C303.701 115.192 303.003 115.555 302.304 116.28 C301.255 117.004 300.207 117.367 299.858 117.004 C298.809 116.642 298.11 116.28 298.11 115.917 C297.761 115.555 297.761 115.192 297.761 114.83 C297.761 114.468 297.761 114.105 297.761 113.743 C298.11 113.381 298.46 113.018 299.159 112.656 C299.858 112.294 300.556 111.931 301.255 111.931 C303.003 111.931 304.051 112.656 305.099 114.105 L305.099 114.105 M319.077 165.922 C319.077 167.009 318.728 168.096 318.378 169.183 C317.679 170.27 316.98 170.632 315.932 170.632 C315.233 170.632 314.534 170.632 314.185 169.908 C313.486 169.545 313.136 169.183 313.136 168.458 C313.136 167.371 313.486 166.647 313.835 166.284 C314.185 165.922 314.884 165.197 315.932 164.835 C315.583 164.11 315.233 163.748 314.884 163.385 C314.185 162.661 314.185 162.298 314.185 162.298 C313.835 162.298 313.486 162.298 313.486 162.298 C313.486 161.936 313.136 161.211 312.088 159.762 C311.04 158.312 309.991 156.863 308.943 155.414 C308.943 155.051 308.594 154.689 308.594 153.964 C308.594 152.877 308.594 152.515 308.594 152.152 C307.196 151.065 306.148 150.341 305.449 149.616 C303.701 147.442 302.653 144.905 302.653 142.369 L303.352 138.745 C303.701 139.108 304.051 139.47 304.75 139.832 C305.449 140.195 306.148 140.195 306.497 140.195 C307.196 140.195 307.895 139.832 308.943 139.108 C309.991 138.383 310.69 137.658 311.739 136.571 C312.438 135.484 313.136 134.397 313.835 132.585 C314.884 130.774 315.233 129.324 315.233 128.962 L318.029 131.136 C317.679 132.223 317.33 133.31 316.631 134.76 C316.281 135.847 315.932 136.934 315.233 137.658 C314.534 139.108 313.835 140.195 313.486 140.557 C312.787 141.644 312.088 142.369 310.69 143.094 C310.341 143.456 309.991 143.818 309.293 143.818 C308.594 144.181 307.895 144.543 307.196 144.543 C307.545 145.268 308.244 145.992 308.943 146.355 C309.991 146.717 310.341 147.08 311.04 147.08 C311.739 146.717 312.088 146.355 312.438 146.355 C313.486 145.63 314.534 145.268 315.233 144.543 C315.233 145.268 315.583 145.992 315.932 146.717 C316.281 147.442 316.281 147.804 316.281 147.804 L315.233 151.065 L314.534 154.327 C314.534 155.776 315.233 157.225 315.932 159.037 C318.029 162.661 319.077 165.197 319.077 165.922 L319.077 165.922 M311.04 167.371 C311.389 168.096 311.739 168.821 312.088 169.908 C312.438 170.995 312.438 171.72 312.438 172.444 C312.438 173.531 312.088 174.618 311.04 174.981 C307.545 176.43 304.75 178.242 302.653 180.054 C300.207 182.59 298.809 185.127 297.761 188.025 C297.761 187.663 297.411 186.938 297.411 186.576 C297.411 185.851 297.411 185.127 297.411 184.402 C297.411 182.228 297.761 180.416 298.46 178.242 C298.46 177.88 298.46 177.517 298.809 177.155 C297.761 175.705 296.712 174.256 296.014 173.169 C294.965 172.082 294.266 170.632 293.917 169.183 C293.567 167.734 293.218 166.284 293.218 165.197 C293.218 163.748 293.567 162.661 293.917 161.574 C294.266 161.211 294.616 160.124 295.664 158.312 C296.712 156.863 297.411 155.414 297.761 153.964 C297.761 152.877 298.11 151.428 298.11 149.978 C298.11 148.891 298.11 147.804 297.761 146.717 L299.508 149.978 C299.858 151.428 300.556 152.877 300.906 154.327 C301.605 155.414 303.352 156.863 305.798 158.675 C306.497 159.037 307.196 159.762 307.895 160.849 C308.594 161.936 308.943 163.023 308.943 164.11 C308.943 164.835 308.594 165.197 308.594 165.922 C307.545 167.371 306.148 168.096 304.75 168.096 C303.701 168.096 303.003 167.734 302.653 167.371 C301.954 167.009 301.605 166.647 301.255 166.284 C301.255 165.922 301.255 165.56 301.255 165.197 C301.255 164.835 301.255 164.472 301.255 164.11 C301.605 164.11 301.605 163.748 301.954 163.385 C302.304 163.385 302.653 163.023 303.003 163.023 C303.701 162.661 304.75 163.023 305.449 163.385 C306.148 163.748 306.497 164.11 307.196 164.472 C307.196 163.748 306.846 162.661 306.846 161.936 C306.497 161.574 305.798 160.849 305.099 160.487 C304.051 159.762 303.352 159.762 302.304 159.762 C299.858 159.762 298.11 160.487 296.712 162.661 C296.363 163.385 296.363 164.11 296.363 165.56 C296.363 167.009 296.712 168.458 297.411 169.908 C298.11 171.72 299.508 173.169 301.255 174.256 C302.304 174.618 303.352 174.981 304.051 174.981 C304.4 174.981 304.75 174.981 305.449 174.618 C306.497 174.256 307.196 174.256 307.545 173.894 C308.594 173.894 309.293 172.807 309.642 171.357 C310.341 169.183 310.69 167.734 311.04 167.371 L311.04 167.371 M329.211 199.621 L329.211 203.969 C329.211 206.505 327.813 209.042 324.668 211.941 C321.523 215.202 317.679 217.014 313.486 217.738 C313.136 217.738 312.438 218.463 312.088 219.188 C311.389 220.275 310.69 220.999 310.341 220.999 C309.991 220.999 309.293 220.275 308.594 219.55 C307.895 218.463 307.545 217.738 307.196 217.738 C303.003 216.651 299.858 214.477 297.761 211.216 C295.664 207.955 294.616 203.969 294.616 199.621 L289.374 199.621 L289.374 189.475 L303.003 189.475 L303.003 199.621 C303.003 201.432 303.701 203.244 304.75 205.056 C306.148 207.23 307.895 208.317 310.341 208.317 C313.136 208.317 315.583 207.592 317.33 205.418 C318.728 203.969 319.426 202.157 319.776 199.621 L319.776 156.138 C319.776 153.964 319.776 152.515 319.776 151.79 C319.776 151.428 319.776 150.703 319.776 149.978 L318.029 148.167 C317.33 147.08 316.281 145.268 315.233 142.731 C314.884 141.644 314.534 141.282 314.185 140.92 L316.281 136.571 C318.378 140.557 319.776 142.369 319.776 142.731 C321.523 144.543 323.62 145.268 326.765 145.268 C327.114 145.268 327.813 145.268 329.211 145.268 L329.211 189.475 L329.211 199.621 M315.583 202.882 L314.185 199.258 C313.486 198.171 313.136 196.722 312.787 195.272 C312.088 193.823 310.341 192.374 307.895 190.924 C306.846 190.562 306.148 189.837 305.798 188.75 C305.099 187.663 304.75 186.576 304.75 185.489 C304.75 184.764 304.75 184.402 305.099 183.677 C306.148 182.228 307.196 181.503 308.943 181.503 C309.642 181.503 310.341 181.503 311.04 181.865 C311.739 182.228 312.088 182.59 312.088 182.952 C312.438 183.315 312.438 183.677 312.438 184.04 C312.438 184.402 312.438 184.764 312.088 185.127 C312.088 185.489 311.739 185.851 311.739 185.851 C311.389 186.214 311.04 186.214 310.341 186.576 C309.642 186.938 308.943 186.576 308.244 186.214 C307.545 185.851 306.846 185.489 306.497 184.764 C306.497 185.851 306.497 186.576 306.846 187.301 C307.196 188.025 307.545 188.75 308.594 189.112 C309.293 189.475 309.642 189.475 310.341 189.475 C311.04 189.475 312.088 189.112 313.136 188.388 C314.185 187.663 314.884 186.576 315.583 185.127 C315.583 186.214 315.233 186.938 315.233 187.663 C314.884 189.112 314.884 190.562 314.884 192.011 C314.884 194.91 315.233 198.534 315.583 202.882 L315.583 202.882 M366.602 91.64 C366.602 92.727 366.252 94.176 365.204 95.988 C364.156 97.437 363.107 98.887 362.758 99.974 C362.408 99.611 362.408 99.611 362.408 99.249 C362.408 98.887 362.408 98.162 362.758 97.437 C362.758 97.075 362.758 96.712 362.758 96.35 C362.758 96.35 362.758 95.988 362.758 95.625 C362.408 94.901 361.36 94.538 359.962 94.538 C359.263 94.538 358.564 94.538 358.215 93.814 C358.215 93.451 357.866 92.727 357.866 91.64 C357.866 91.277 357.866 91.277 357.866 90.915 C357.866 90.915 357.866 90.552 357.866 90.552 C359.263 92.364 361.011 93.089 362.408 93.089 C362.758 93.089 363.457 93.089 363.806 92.727 C364.156 92.364 364.505 92.002 364.505 91.277 C364.505 90.552 364.156 89.828 363.806 89.103 C363.107 88.378 362.758 87.654 362.059 87.291 C361.709 86.929 361.011 86.567 360.661 86.567 C359.263 86.567 357.866 87.291 356.817 88.741 C355.419 90.552 354.721 91.64 354.721 93.089 C354.721 94.538 355.07 95.988 356.118 97.075 C356.468 97.437 358.564 99.249 362.408 102.872 L359.613 102.872 C358.215 101.785 356.468 100.336 355.07 99.249 C353.323 97.8 352.624 96.35 352.624 94.538 C352.624 91.64 354.721 88.378 358.564 84.392 C362.408 80.769 364.505 78.232 364.505 76.783 C364.505 75.696 364.156 74.609 363.806 73.522 C363.107 72.072 362.059 71.348 361.011 71.348 C359.263 71.348 357.516 71.71 356.118 72.797 C354.371 73.522 353.672 74.609 353.672 75.334 C353.672 76.058 354.022 76.421 354.721 76.783 C355.419 77.145 356.118 77.145 356.817 77.145 C358.564 77.145 360.312 76.421 361.709 74.609 C361.709 74.609 361.709 74.971 361.709 75.334 C361.709 75.696 361.709 75.696 361.709 76.058 C361.709 76.783 361.709 77.145 361.709 77.145 C360.661 79.32 359.263 80.044 356.817 80.044 C355.769 80.044 354.721 79.682 354.022 79.32 C353.323 78.595 352.624 77.87 352.274 76.783 C351.925 76.421 351.925 75.696 351.925 75.334 C351.925 73.884 352.624 72.435 354.371 71.348 C355.769 70.261 357.516 69.536 359.613 69.536 C361.709 69.536 363.107 70.261 364.505 71.71 C365.553 72.797 366.252 74.247 366.602 76.421 C366.602 76.421 366.602 76.783 366.602 77.145 C366.602 78.595 365.903 80.044 364.505 81.494 C363.107 82.943 361.709 84.03 360.661 85.117 C362.408 86.567 363.457 87.291 364.156 87.654 C365.903 88.741 366.602 90.19 366.602 91.64 L366.602 91.64 M356.817 84.03 C354.721 84.755 352.973 86.567 351.576 88.741 C351.226 89.465 350.877 90.552 350.178 92.002 L350.178 118.091 C350.178 119.541 350.178 120.99 350.527 122.077 C350.527 123.164 350.877 124.251 351.576 124.614 C350.877 125.338 350.527 125.701 350.178 126.063 C348.78 127.15 348.081 127.875 347.732 128.237 C347.033 127.875 346.683 127.512 345.984 126.788 C345.286 126.788 344.936 126.425 344.237 126.425 C343.888 126.425 343.538 126.425 342.839 126.425 C342.49 126.425 342.14 126.425 341.791 126.425 C341.442 126.425 341.092 126.425 340.393 126.425 L340.393 67 C341.442 68.449 342.14 69.174 342.49 69.898 C344.237 72.435 345.635 74.247 346.683 75.334 C348.081 77.145 349.479 78.595 351.226 80.044 C352.624 81.131 354.371 82.581 356.817 84.03 L356.817 84.03 M365.903 134.397 C365.553 134.035 365.204 133.672 364.505 133.31 C363.806 133.31 363.457 132.948 362.758 132.948 C362.059 132.948 361.36 132.948 360.661 133.31 C359.962 133.672 359.613 134.035 359.263 134.76 C358.914 135.122 358.564 135.847 358.564 136.209 C358.215 135.484 357.516 134.397 356.817 132.948 C356.817 132.948 356.817 132.585 356.468 132.223 C356.817 131.498 357.167 131.136 357.516 130.774 C357.866 130.411 358.215 130.049 358.914 129.324 C359.263 129.324 359.613 129.324 360.312 128.962 C360.661 128.962 361.36 128.962 362.059 128.962 C362.408 128.962 362.758 128.962 362.758 128.962 L362.758 128.962 C362.059 128.237 361.709 127.512 361.36 127.512 C361.011 127.15 360.312 126.788 359.263 126.788 C357.516 126.788 355.07 127.875 352.624 129.687 C348.431 132.948 345.984 135.122 344.936 136.571 C346.334 137.296 347.382 138.021 348.78 139.108 C349.129 139.108 349.828 139.832 350.178 140.195 C350.178 140.557 349.828 140.92 349.479 141.282 C349.479 141.644 349.129 142.007 348.78 142.369 C347.382 140.92 345.635 139.832 343.189 138.383 C342.49 138.021 341.092 137.658 339.345 136.934 L339.345 136.209 C342.839 133.672 345.984 131.498 348.78 128.962 C352.274 125.701 354.022 123.527 354.022 122.44 C354.371 121.715 354.721 120.99 354.721 120.265 C355.07 119.541 355.07 118.816 355.07 118.091 C355.07 115.917 354.721 114.105 353.672 112.294 C352.973 111.569 352.624 110.482 351.925 109.757 C351.576 109.032 351.226 108.67 351.226 108.308 C350.877 107.221 350.527 106.134 350.527 105.409 C350.527 105.047 350.527 105.047 350.527 104.684 C351.226 103.597 351.576 102.51 351.925 102.148 C352.274 101.785 352.973 101.785 354.022 101.785 C354.721 101.785 355.419 102.148 355.769 102.872 C356.468 103.597 356.817 104.322 356.817 105.047 C356.817 106.134 356.468 106.858 355.769 107.221 C354.721 107.945 354.022 108.308 354.022 108.308 C356.817 111.207 358.564 113.381 359.613 115.192 C359.962 118.091 360.661 120.265 361.36 121.352 C361.36 121.715 361.709 122.077 362.408 122.802 C364.156 124.614 365.553 126.063 365.903 127.512 C366.252 128.962 366.602 130.411 366.602 131.498 C366.602 132.948 366.252 133.672 365.903 134.397 L365.903 134.397 M367.301 142.369 C367.301 144.181 366.252 146.355 364.505 148.891 C363.806 149.616 362.758 150.703 361.36 152.152 C361.36 152.877 361.36 153.24 361.36 153.964 C361.36 154.689 361.011 155.051 361.011 155.776 C360.661 156.138 360.312 157.225 359.263 158.312 C358.564 159.762 357.516 160.849 356.468 162.298 C356.468 162.298 356.118 162.661 355.419 163.023 C355.07 163.385 354.371 164.11 354.022 164.835 C354.721 165.197 355.419 165.56 355.419 165.56 C356.468 166.284 356.817 167.009 356.817 168.458 C356.817 169.183 356.468 169.545 355.769 169.908 C355.419 170.632 354.721 170.632 354.022 170.632 C352.973 170.632 352.274 170.27 351.576 169.183 C350.877 168.096 350.527 167.009 350.527 165.922 C350.527 165.197 351.576 162.661 353.672 159.037 C354.721 157.225 355.07 155.776 355.07 154.327 L354.371 151.065 L353.323 148.167 C353.323 147.804 353.672 147.08 354.022 146.355 C354.022 145.992 354.371 145.268 354.721 144.543 C355.419 145.268 356.118 145.63 357.167 146.355 C357.866 146.355 358.215 146.717 358.914 147.08 C359.263 147.08 359.962 146.717 360.661 146.355 C361.709 145.992 362.408 145.63 362.758 144.543 C362.059 144.543 361.709 144.181 361.011 144.181 C360.312 143.818 359.962 143.456 359.263 143.094 C357.866 142.369 357.167 141.644 356.468 140.92 C356.118 140.195 355.419 139.108 354.371 137.658 C354.022 136.934 353.672 135.847 353.323 134.76 C352.624 133.672 352.274 132.223 351.925 131.136 L354.371 128.962 C355.769 131.498 356.817 134.035 358.215 136.571 C358.914 137.658 359.962 138.383 360.661 139.108 C361.709 139.832 362.758 140.195 363.457 140.195 C364.156 140.195 364.505 140.195 365.204 139.832 C365.903 139.47 366.252 139.108 366.602 138.745 C366.951 139.47 367.301 140.92 367.301 142.369 L367.301 142.369 M368 199.621 L340.393 199.621 L340.393 145.268 C341.092 145.268 341.442 145.268 341.791 145.268 C342.14 145.268 342.839 145.268 343.189 145.268 C345.984 145.268 348.431 144.543 349.828 142.731 C350.178 142.369 351.226 140.557 353.323 136.934 C353.323 137.658 354.022 138.383 354.371 139.47 C355.07 140.195 355.419 140.92 355.419 140.92 C355.419 141.282 355.07 141.644 354.721 142.731 C353.323 145.268 352.624 147.08 351.925 148.167 L350.178 149.978 L350.178 189.475 L360.661 189.475 C359.613 190.924 358.914 192.374 358.914 193.461 C358.914 194.185 358.914 194.548 358.914 194.548 C359.263 196.36 360.661 197.447 363.457 198.534 C364.505 198.896 365.903 199.258 368 199.621 L368 199.621 M366.602 179.329 C366.602 181.503 365.903 182.952 364.505 184.04 C363.457 185.127 362.059 185.851 360.312 186.214 C359.962 186.576 359.613 186.576 359.263 186.576 C358.215 186.576 357.516 185.851 356.468 185.127 C356.118 184.764 355.07 182.952 352.624 179.329 L354.721 180.416 C355.07 181.141 355.769 181.865 356.468 182.59 C357.866 183.677 358.564 184.402 359.613 184.402 C361.011 184.402 362.059 184.04 362.758 183.677 C364.156 182.952 364.854 181.503 364.854 180.054 C364.854 178.604 364.505 177.155 363.457 175.705 C362.758 173.894 361.709 173.169 361.011 173.169 C360.312 173.169 359.962 173.531 359.613 174.256 C359.613 174.981 359.263 175.343 359.263 176.068 C359.263 178.242 359.962 179.691 361.709 181.141 C361.709 181.141 361.36 181.141 361.011 181.141 C361.011 181.503 360.661 181.503 360.312 181.503 C359.613 181.503 359.263 181.141 359.263 181.141 C357.516 180.416 356.468 178.967 356.468 176.43 C356.468 175.343 356.817 174.618 357.516 173.531 C357.866 172.807 358.914 172.082 359.613 171.72 C360.312 171.72 360.661 171.357 361.011 171.357 C362.408 171.357 363.806 172.444 364.854 173.894 C365.903 175.343 366.602 177.155 366.602 179.329 L366.602 179.329 M365.204 211.941 C365.204 213.752 364.505 215.564 363.457 216.651 C362.408 217.738 361.011 218.463 359.613 218.825 C358.215 219.188 356.817 218.463 355.07 217.014 C354.022 215.564 352.973 214.115 351.925 212.665 C350.877 214.477 350.178 215.927 349.828 216.289 C348.78 218.101 347.732 218.825 346.334 218.825 C345.286 218.825 344.237 218.463 342.49 217.376 C341.092 216.289 340.044 215.564 338.995 215.202 C339.345 214.84 339.694 214.84 340.393 215.202 C341.092 215.202 341.791 215.202 341.791 215.202 C342.14 215.202 342.49 215.202 342.49 215.202 C343.189 214.84 343.538 213.752 343.538 211.941 C343.538 211.216 343.538 210.491 344.237 210.129 C344.587 210.129 345.286 209.767 345.984 209.767 C346.334 209.767 346.334 209.767 346.683 209.767 C346.683 209.767 346.683 209.767 346.683 209.767 C345.984 210.854 345.635 211.578 345.286 212.303 C344.936 213.028 344.587 214.115 344.587 214.84 C344.587 215.202 344.936 215.927 344.936 216.289 C345.286 216.651 345.635 217.014 346.334 217.014 C347.033 217.014 347.382 216.651 348.081 216.289 C348.78 215.564 349.129 215.202 349.479 214.477 C350.178 214.115 350.178 213.39 350.178 213.028 C350.178 211.578 349.828 210.129 348.431 208.679 C347.033 207.23 345.984 206.505 344.587 206.505 C343.538 206.505 342.14 207.23 341.092 207.955 C341.092 208.317 339.345 210.491 336.2 214.477 L336.2 211.578 C337.248 210.129 338.297 208.679 339.345 206.868 C340.743 205.418 342.14 204.694 343.538 204.694 C345.984 204.694 348.78 206.868 352.274 210.854 C355.419 214.84 357.866 217.014 358.914 217.014 C360.312 217.014 361.709 216.651 362.408 215.564 C363.107 214.84 363.457 213.752 363.457 212.665 C363.457 211.216 363.107 209.767 362.408 208.317 C361.709 206.505 361.011 205.781 360.312 205.781 C359.613 205.781 359.263 206.143 358.914 206.868 C358.914 207.592 358.564 207.955 358.564 208.679 C358.564 209.767 358.914 210.491 359.263 211.578 C359.613 212.303 359.962 213.028 360.661 213.752 C360.312 213.752 359.962 214.115 359.613 214.115 C358.914 214.115 358.914 213.752 358.564 213.752 C356.817 213.028 356.118 211.216 356.118 209.042 C356.118 207.955 356.468 206.868 356.817 206.143 C357.516 205.418 358.215 205.056 358.914 204.331 C359.263 204.331 359.962 203.969 360.312 203.969 C361.709 203.969 362.758 205.056 363.806 206.505 C364.505 208.317 365.204 210.129 365.204 211.941 L365.204 211.941 z"/>
<!-- End of RealDRAW generated image, http://www.mediachance.com -->
</svg>
