<?xml version="1.0" standalone="yes"?>
<svg width="200" height="100">
<path style="fill:#07b750; stroke:none;" d="M59.4693 18.3129C59.283 18.8918 59.283 19.2776 59.0967 19.2776C58.7241 19.6635 58.5378 19.8565 58.3515 20.0494C57.9789 20.4353 57.6062 20.6282 57.4199 20.6282C57.2336 20.8212 56.6747 20.8212 56.1158 20.8212C56.3021 21.2071 56.4884 21.7859 57.2336 22.9435C57.6062 23.9082 57.9789 24.8729 57.9789 26.0306C57.9789 26.9953 57.4199 28.3459 56.1158 30.0824C54.998 32.0118 54.4391 33.3624 54.4391 34.3271C54.4391 34.9059 54.4391 35.4847 54.6254 35.8706C54.8117 36.4494 55.1843 36.8353 55.5569 37.4141C55.9295 37.8 56.3021 38.1859 56.4884 38.3788C57.4199 38.9576 57.7925 39.1506 57.9789 39.1506C57.6062 39.3435 57.2336 39.3435 56.6747 39.3435C55.9295 39.3435 54.998 39.1506 54.2528 38.5718C53.6939 38.1859 52.9486 37.6071 52.3897 36.8353C52.2034 36.4494 51.8308 35.6776 51.4582 34.52C51.2719 34.3271 51.0856 33.7482 50.8993 32.9765C50.8993 32.7835 50.713 32.7835 50.5267 32.7835L49.9678 32.7835C49.4089 32.7835 49.0363 32.7835 48.6636 32.5906C47.9184 32.2047 47.3595 31.6259 46.6143 30.8541C45.8691 29.8894 45.3102 28.3459 45.1239 26.2235C44.9376 24.1012 44.1923 22.3647 43.2608 21.0141C42.8882 20.6282 42.3293 20.2424 41.3978 19.6635C40.6526 19.2776 40.0937 18.8918 39.3484 18.6988L39.1621 18.3129C41.9567 18.3129 44.006 18.6988 45.3102 19.8565C46.0554 20.4353 46.8006 21.7859 47.7321 23.5224C48.1047 23.5224 48.291 23.3294 48.6636 23.1365C49.0363 23.1365 49.4089 22.9435 49.7815 22.9435C50.3404 22.9435 51.0856 23.5224 51.8308 24.4871C52.2034 24.68 52.3897 25.0659 52.576 25.6447C52.9486 26.4165 53.1349 27.1882 53.1349 27.7671C53.1349 28.1529 53.1349 28.5388 52.7623 28.7318C52.7623 28.9247 52.3897 29.1176 52.0171 29.3106C52.0171 29.5035 51.8308 29.5035 51.6445 29.6965C51.6445 29.1176 51.6445 28.9247 51.8308 28.7318C51.8308 28.5388 51.8308 28.3459 51.8308 28.1529C51.8308 27.96 51.8308 27.5741 51.4582 27.1882C51.4582 27.1882 51.0856 26.9953 50.713 26.9953L50.1541 26.9953C49.4089 26.9953 48.8499 26.9953 48.4773 26.8024C47.7321 26.4165 47.3595 25.8376 47.1732 24.8729L46.6143 24.8729C46.428 25.6447 46.428 26.2235 46.428 26.8024C46.428 27.3812 46.428 27.96 46.6143 28.5388C46.8006 29.1176 46.9869 29.5035 47.3595 29.8894C47.9184 30.4682 48.4773 31.0471 49.2226 31.24C49.9678 31.6259 50.713 31.8188 51.4582 31.8188C52.7623 31.8188 53.6939 31.4329 54.4391 30.8541C54.998 30.2753 55.3706 29.6965 55.7432 29.1176C56.1158 28.3459 56.1158 27.5741 56.1158 26.9953C56.1158 26.4165 56.1158 25.8376 55.9295 25.4518C55.9295 25.0659 55.5569 24.4871 55.1843 24.1012C54.998 23.7153 54.2528 23.3294 53.3212 22.5576C52.9486 22.3647 52.576 21.9788 52.2034 21.5929C51.8308 21.2071 51.6445 21.0141 51.6445 20.6282C51.6445 20.4353 51.6445 20.2424 51.8308 20.2424C51.8308 19.8565 52.0171 19.6635 52.0171 19.4706C50.8993 19.6635 50.1541 19.8565 49.4089 19.8565C48.6636 19.8565 47.9184 19.6635 47.3595 19.2776C46.6143 19.0847 46.0554 18.5059 45.3102 17.7341C45.1239 17.5412 44.7513 17.1553 44.006 15.9976C43.6334 15.6118 43.2608 15.2259 43.0745 15.0329C42.8882 14.6471 42.8882 14.2612 42.8882 13.8753C42.8882 13.6824 42.8882 13.4894 43.0745 13.1035C43.4471 13.6824 44.006 14.4541 44.565 15.2259C45.1239 15.9976 45.8691 16.7694 46.428 17.1553C47.5458 18.3129 48.6636 18.8918 49.5952 18.6988C50.1541 18.8918 50.5267 18.6988 50.713 18.5059C50.8993 18.12 51.0856 17.9271 51.0856 17.9271C51.0856 17.7341 51.0856 17.7341 51.0856 17.3482C50.8993 17.1553 50.8993 16.9624 51.0856 16.7694C51.0856 16.5765 51.4582 16.3835 52.2034 15.9976C53.1349 15.6118 53.6939 15.2259 54.2528 14.84C54.8117 14.2612 55.1843 13.8753 55.5569 13.2965C55.7432 12.7176 55.9295 12.1388 55.9295 11.56C55.9295 10.5953 55.5569 9.43765 54.6254 8.47294C54.2528 7.89412 53.8802 7.50824 53.1349 7.31529C52.3897 6.92941 51.6445 6.73647 50.713 6.73647C49.9678 6.73647 49.4089 6.92941 48.8499 7.31529C48.8499 7.50824 48.6636 7.70118 48.6636 7.89412C48.6636 8.28 48.4773 8.47294 48.4773 8.66588C50.1541 8.66588 51.0856 9.24471 51.4582 10.2094C51.6445 10.9812 52.3897 11.7529 53.5076 12.1388C53.3212 12.3318 53.1349 12.5247 53.1349 12.7176C52.9486 12.7176 52.3897 12.9106 51.4582 12.9106C50.5267 12.9106 49.5952 12.9106 48.4773 12.7176C47.3595 12.5247 46.6143 12.3318 45.8691 12.1388L44.565 10.2094C44.565 10.2094 44.7513 10.2094 44.9376 10.0165C45.3102 10.2094 45.6828 10.2094 45.8691 10.2094C46.0554 10.2094 46.2417 10.0165 46.428 9.82353C46.6143 9.82353 46.9869 9.05176 47.7321 7.70118C48.1047 7.12235 48.291 6.73647 48.6636 6.54353C49.2226 5.96471 49.9678 5.77176 50.8993 5.77176C51.4582 5.77176 52.2034 5.77176 52.9486 6.15765C53.5076 6.35059 54.0665 6.54353 54.6254 6.73647C54.8117 5.77176 55.1843 5.19294 55.7432 5.19294C55.9295 5.19294 56.3021 5.38588 56.4884 5.77176C56.6747 5.96471 56.861 5.96471 56.861 6.15765C56.861 6.35059 56.861 6.54353 56.861 6.54353C56.861 6.92941 56.6747 7.12235 56.3021 7.50824C55.9295 7.70118 55.7432 7.89412 55.7432 7.89412C55.9295 8.28 56.3021 8.66588 56.4884 9.05176C56.6747 9.63059 56.861 10.2094 56.861 10.7882C56.861 11.56 56.6747 12.3318 56.4884 13.4894C56.3021 14.4541 55.9295 15.6118 55.3706 17.1553C56.1158 17.3482 56.6747 17.5412 57.2336 17.9271C57.7925 18.12 58.5378 18.3129 59.4693 18.3129L59.4693 18.3129M41.2115 8.28L39.3484 9.24471C38.6032 9.63059 37.858 9.82353 37.1128 10.0165C36.3676 10.4024 35.6224 11.3671 34.6908 12.9106C34.5045 13.4894 34.1319 13.8753 33.573 14.2612C33.0141 14.6471 32.4552 14.6471 31.71 14.6471C31.5237 14.6471 31.1511 14.6471 30.7784 14.4541C30.4058 14.2612 30.0332 13.8753 29.8469 13.4894C29.6606 13.1035 29.4743 12.7176 29.4743 12.3318C29.4743 11.7529 29.6606 11.3671 29.8469 10.9812C30.0332 10.5953 30.2195 10.4024 30.5921 10.4024C30.7785 10.2094 30.9648 10.2094 31.1511 10.2094C31.3374 10.2094 31.5237 10.2094 31.71 10.4024C31.8963 10.4024 32.0826 10.5953 32.0826 10.5953C32.0826 10.7882 32.2689 10.9812 32.4552 11.3671C32.4552 11.7529 32.4552 12.1388 32.2689 12.3318C32.0826 12.9106 31.71 13.2965 31.5237 13.6824C32.0826 13.6824 32.4552 13.6824 32.8278 13.4894C33.2004 13.2965 33.573 12.9106 33.7593 12.5247C33.9456 11.9459 34.1319 11.3671 34.1319 10.7882C34.1319 10.2094 33.9456 9.63059 33.7593 9.05176C33.3867 8.47294 33.0141 8.08706 32.4552 7.70118C32.2689 7.50824 31.8963 7.50824 31.3374 7.50824C30.4058 7.50824 29.288 7.70118 28.3565 8.08706C27.2387 8.66588 26.4935 9.43765 26.1208 10.4024C25.9345 10.5953 25.9345 10.9812 25.9345 11.1741C25.7482 11.3671 25.7482 11.56 25.7482 11.7529C25.7482 12.1388 25.9345 12.5247 26.1208 12.9106C26.3071 13.2965 26.4935 13.4894 26.8661 13.6824C27.6113 14.0682 28.1702 14.4541 28.3565 14.4541C27.7976 15.0329 27.2387 15.2259 26.6798 15.2259C25.7482 15.2259 25.1893 14.84 24.6304 13.6824C24.0715 12.1388 23.3263 10.9812 22.5811 10.4024C21.8359 10.0165 20.718 9.43765 18.6687 8.85882C19.0413 8.85882 19.6002 8.66588 20.1591 8.66588C20.718 8.47294 21.2769 8.47294 21.6495 8.47294C22.3948 8.47294 23.14 8.66588 23.8852 8.66588C24.0715 8.66588 24.4441 8.85882 24.6304 8.85882C25.3756 8.28 26.1208 7.70118 26.8661 7.12235C27.425 6.54353 28.1702 6.15765 28.9154 5.96471C29.288 5.77176 29.6606 5.77176 30.0332 5.77176C30.4058 5.57882 30.7784 5.57882 31.1511 5.57882C31.8963 5.57882 32.4552 5.77176 33.2004 5.96471C33.3867 6.15765 33.9456 6.54353 34.8771 7.12235C35.6224 7.50824 36.1813 7.89412 36.7402 7.89412C37.4854 8.28 38.4169 8.47294 39.3484 8.47294C39.9074 8.47294 40.4663 8.28 41.2115 8.28L41.2115 8.28M58.9104 75.6165L39.9074 75.6165C39.9074 78.1247 38.2306 80.6329 35.0634 82.9482C31.71 85.4565 28.5428 86.6141 25.5619 86.6141C22.9537 86.6141 21.0906 86.6141 19.7865 86.2282C17.9235 85.8424 16.2467 85.0706 14.3837 83.9129C11.4028 81.7906 9.16717 79.4753 7.86304 76.3882C6.74522 73.88 6.1863 70.7929 6.1863 67.32C6.1863 65.3906 6.37261 63.4612 6.55891 61.3388C6.93152 59.0235 7.49043 56.9012 8.42195 54.9718C8.98087 53.4282 10.285 51.4988 11.9617 48.7976C13.0796 47.2541 14.1974 45.9035 15.3152 44.7459C16.2467 43.7812 17.5509 42.6235 19.4139 40.8871C20.5317 40.1153 22.0222 38.9576 23.6989 37.8C24.6304 37.2212 26.1208 36.2565 28.3565 34.9059C31.5237 32.9765 33.573 31.4329 34.5045 30.4682C35.4361 29.5035 35.995 28.3459 36.1813 27.1882C36.1813 26.8024 36.3676 26.4165 36.3676 26.0306C36.5539 25.6447 36.5539 25.2588 36.5539 24.8729C36.5539 24.2941 36.3676 23.7153 36.1813 23.1365C35.995 22.7506 35.8087 22.1718 35.4361 21.5929C35.2497 21.0141 34.8771 20.6282 34.3182 20.2424C33.9456 19.8565 33.3867 19.4706 33.0141 19.2776C32.4552 19.0847 32.0826 18.8918 31.5237 18.8918C31.1511 19.0847 30.9648 19.0847 30.9648 19.0847C28.7291 19.2776 27.6113 20.8212 27.2387 23.1365C27.2387 23.7153 27.0524 24.1012 27.0524 24.2941C27.0524 25.4518 27.6113 26.4165 28.7291 27.3812C28.7291 27.3812 29.4743 27.96 30.9648 29.1176C30.0332 29.3106 29.4743 29.5035 29.1017 29.5035C28.1702 29.6965 27.6113 29.8894 27.0524 29.8894C25.9345 29.8894 25.003 29.5035 24.2578 29.1176C22.5811 27.96 21.6495 26.4165 21.6495 24.4871C21.6495 23.9082 21.8359 22.9435 22.0222 22.1718C22.2085 21.2071 22.5811 20.2424 23.14 19.0847C21.4632 19.6635 20.5317 20.0494 20.3454 20.0494C19.9728 20.2424 19.4139 20.2424 18.6687 20.2424C16.6193 20.2424 14.9426 19.8565 13.6385 19.2776C12.148 18.6988 11.0302 17.5412 10.0987 15.9976C9.72608 15.4188 9.53978 14.84 9.35347 14.0682C9.16717 13.2965 9.16717 12.5247 9.16717 11.7529C9.16717 10.5953 9.16717 9.24471 9.53978 7.70118C9.53978 7.31529 9.72608 6.54353 10.0987 5.77176C10.8439 7.12235 11.4028 8.08706 11.7754 8.85882C13.2659 10.9812 14.7563 12.5247 16.0604 13.2965C16.6193 13.6824 17.1782 14.0682 17.5509 14.2612C18.1098 14.4541 18.6687 14.6471 19.4139 14.84C20.718 15.4188 21.8359 15.6118 22.9537 15.8047C23.8852 15.8047 25.3756 15.9976 27.2387 15.9976C27.9839 15.9976 28.9154 15.8047 30.0332 15.6118C31.1511 15.4188 31.71 15.4188 32.0826 15.4188C32.4552 15.4188 32.8278 15.4188 33.2004 15.4188C33.573 15.4188 33.9456 15.6118 34.5045 15.9976C35.2497 16.3835 35.8087 16.7694 36.1813 17.1553C36.5539 17.7341 37.1128 18.3129 37.4854 19.0847C38.2306 20.0494 38.7895 21.0141 38.9758 21.9788C39.3484 22.7506 39.5347 23.9082 39.5347 25.2588C39.5347 27.1882 38.9758 28.9247 38.2306 30.4682C37.4854 32.0118 35.995 33.5553 33.9456 35.0988C33.3867 35.4847 31.3374 36.8353 27.2387 39.5365C24.6304 41.2729 22.3948 42.8165 20.9043 43.9741C19.2276 45.3247 17.7372 47.0612 16.0604 48.7976C14.0111 51.1129 12.5206 53.2353 11.5891 55.1647C10.6576 57.48 10.0987 59.9882 10.0987 62.8824C10.0987 67.7059 10.8439 71.5647 12.3343 74.2659C14.1974 77.5459 17.1782 79.4753 21.4632 80.0541C22.5811 80.0541 23.5126 80.2471 24.4441 80.2471C25.9345 80.2471 27.2387 80.0541 28.3565 79.4753C29.4743 79.0894 30.5921 78.3176 31.5237 77.3529C32.8278 76.1953 33.573 74.6518 34.1319 72.7224C34.3182 72.1435 34.5045 71.3718 34.5045 70.2141L34.5045 61.1459C34.5045 60.5671 34.3182 60.1812 33.9456 59.6024C32.6415 58.2518 31.5237 56.9012 30.4058 55.7435C32.0826 55.7435 33.0141 55.7435 33.573 55.5506C33.9456 55.5506 34.8771 55.3576 35.995 54.7788C37.2991 54.3929 38.0443 54.0071 38.4169 53.4282C38.7895 52.4635 39.3484 51.4988 39.9074 50.5341L39.9074 70.2141L44.006 70.2141L44.006 55.3576C43.4471 54.5859 42.8882 54.0071 41.9567 53.4282C43.4471 52.2706 44.7513 51.3059 45.8691 50.3412C47.1732 49.1835 48.291 48.0259 49.4089 46.4824L49.4089 70.2141L53.6939 70.2141L53.6939 53.0424C53.6939 52.4635 53.3212 51.6918 52.3897 50.7271C51.8308 50.3412 51.4582 49.9553 51.2719 49.7624C53.3212 48.9906 54.998 47.4471 56.4884 45.3247C57.4199 44.1671 58.1652 43.0094 58.9104 41.6588L58.9104 75.6165M22.9537 35.0988C22.5811 35.6776 22.0222 36.2565 21.4632 36.6424C20.5317 37.2212 19.7865 37.4141 18.6687 37.4141C17.3646 37.4141 16.433 36.8353 15.5015 35.4847C16.0604 35.0988 16.6193 34.7129 16.9919 34.3271C17.3646 33.7482 17.5509 33.3624 17.5509 32.9765C17.3646 32.7835 17.3646 32.5906 17.1782 32.5906C16.9919 32.2047 16.8056 32.0118 16.6193 32.0118C16.2467 32.0118 15.8741 32.3976 15.5015 32.9765C15.3152 33.5553 15.1289 34.1341 15.1289 34.7129C15.1289 34.9059 15.1289 35.0988 15.1289 35.2918L13.6385 35.0988L13.2659 35.4847C13.4522 35.6776 14.0111 36.0635 14.7563 36.4494C15.5015 36.8353 16.0604 37.2212 16.433 37.4141C15.6878 38.1859 15.3152 38.7647 14.9426 39.5365C14.7563 40.1153 14.57 40.6941 14.57 41.2729C14.57 41.4659 14.7563 41.8518 14.7563 42.0447C14.7563 42.4306 14.7563 42.6235 14.7563 42.8165C13.8248 42.2376 13.2659 41.4659 12.8933 40.6941C12.5206 39.9224 12.3343 39.1506 12.3343 38.3788C12.3343 37.8 12.5206 37.2212 12.7069 36.4494C12.8933 35.6776 12.8933 35.2918 12.8933 35.0988C12.5206 34.7129 12.3343 34.1341 11.9617 33.5553C11.7754 32.7835 11.5891 32.0118 11.5891 31.0471C11.5891 30.6612 11.5891 30.4682 11.5891 30.0824C11.5891 29.8894 11.7754 29.6965 11.9617 29.3106C12.5206 29.5035 12.7069 29.8894 12.8933 29.8894C13.2659 30.0824 13.6385 30.2753 14.0111 30.2753C15.1289 30.2753 16.0604 30.0824 16.433 29.5035C16.9919 28.9247 17.1782 28.1529 17.1782 27.1882C17.1782 26.2235 16.8056 25.2588 16.0604 24.4871C15.3152 23.9082 14.3837 23.5224 13.6385 23.5224C11.7754 23.5224 10.285 24.2941 9.53978 26.0306C8.98087 27.3812 8.60826 29.1176 8.60826 31.4329C8.60826 32.5906 8.79456 33.7482 8.79456 34.9059C8.98087 36.0635 8.98087 37.0282 9.16717 37.8C9.16717 38.7647 8.98087 39.5365 8.79456 40.3082C8.42195 41.08 8.04935 41.8518 7.86304 42.6235C7.86304 43.0094 8.23565 43.3953 9.16717 43.3953C10.0987 43.5882 11.0302 43.5882 11.7754 43.5882C11.4028 43.7812 11.0302 44.1671 10.6576 44.36C10.285 44.5529 9.91239 44.5529 9.35347 44.5529C9.16717 44.5529 8.98087 44.5529 8.60826 44.5529C8.42195 44.5529 8.23565 44.5529 8.04935 44.5529C7.67674 44.5529 7.49043 44.5529 7.30413 44.5529C6.93152 44.7459 6.55891 45.1318 6.1863 45.9035L6.1863 42.0447C6.93152 42.0447 7.30413 41.6588 7.67674 40.5012C8.04935 39.3435 8.23565 37.9929 8.23565 36.2565C8.23565 35.8706 8.04935 35.2918 7.86304 34.9059C7.49043 35.2918 7.11782 35.4847 6.93152 35.4847C6.74522 35.6776 6.55891 35.6776 6.1863 35.8706L6.1863 32.0118L7.49043 32.2047C7.49043 32.0118 7.67674 32.0118 7.67674 32.0118C7.86304 32.0118 7.86304 31.8188 7.86304 31.6259C7.86304 31.4329 7.49043 30.4682 6.93152 29.1176C6.37261 27.7671 6 26.8024 6 26.2235C6 25.8376 6.1863 25.2588 6.74522 24.4871C6.93152 24.1012 7.11782 23.5224 7.11782 23.1365C7.11782 22.7506 6.93152 22.3647 6.55891 22.1718C6.37261 22.1718 6.37261 22.1718 6.1863 21.9788L6.1863 17.7341C7.11782 18.5059 7.67674 18.8918 8.04935 19.4706C8.23565 19.8565 8.23565 20.8212 8.23565 22.1718C8.42195 22.1718 8.60826 22.1718 8.79456 22.1718C8.98087 22.1718 9.16717 22.1718 9.53978 21.9788C10.285 21.7859 11.2165 21.5929 11.9617 21.5929C14.9426 21.5929 16.8056 22.7506 17.7372 25.0659C18.1098 27.1882 18.4824 29.5035 19.0413 31.6259C19.6002 33.9412 20.9043 35.0988 22.9537 35.0988L22.9537 35.0988M33.573 66.5482C33.2004 67.1271 32.6415 67.7059 32.0826 68.0918C31.3374 68.6706 30.4058 68.8635 29.288 68.8635C27.9839 68.8635 27.0524 68.2847 26.1208 66.9341C26.6798 66.5482 27.2387 66.1624 27.6113 65.5835C27.9839 65.1976 28.1702 64.8118 28.1702 64.4259C27.9839 64.2329 27.9839 64.04 27.9839 64.04C27.6113 63.6541 27.425 63.4612 27.2387 63.4612C26.8661 63.4612 26.4935 63.8471 26.3072 64.4259C25.9345 65.0047 25.7482 65.5835 25.7482 66.1624C25.7482 66.3553 25.7482 66.5482 25.7482 66.7412L24.4441 66.5482L23.8852 66.9341C24.2578 67.1271 24.6304 67.5129 25.3756 67.8988C26.1208 68.2847 26.8661 68.6706 27.2387 68.8635C26.4935 69.6353 25.9345 70.2141 25.7482 70.9859C25.3756 71.5647 25.3756 72.1435 25.3756 72.7224C25.3756 72.9153 25.3756 73.3012 25.3756 73.4941C25.3756 73.88 25.3756 74.0729 25.3756 74.2659C24.6304 73.4941 23.8852 72.9153 23.5126 72.1435C23.14 71.3718 22.9537 70.6 22.9537 69.8282C22.9537 69.2494 23.14 68.6706 23.3263 67.8988C23.5126 67.1271 23.5126 66.7412 23.5126 66.5482C23.14 66.1624 22.9537 65.5835 22.5811 64.8118C22.3948 64.2329 22.2085 63.4612 22.2085 62.4965C22.2085 62.1106 22.2085 61.9176 22.2085 61.5318C22.3948 61.3388 22.3948 61.1459 22.5811 60.76C23.14 60.9529 23.5126 61.3388 23.6989 61.3388C24.0715 61.5318 24.4441 61.7247 24.8167 61.7247C25.9345 61.7247 26.6798 61.3388 27.0524 60.9529C27.6113 60.3741 27.7976 59.6024 27.7976 58.6376C27.7976 57.6729 27.425 56.7082 26.6798 55.9365C25.9345 55.3576 25.1893 54.9718 24.2578 54.9718C22.3948 54.9718 21.0906 55.7435 20.1591 57.48C19.6002 58.8306 19.2276 60.5671 19.2276 62.8824C19.2276 64.04 19.4139 65.1976 19.4139 66.3553C19.6002 67.5129 19.7865 68.2847 19.7865 69.2494C19.7865 70.2141 19.6002 70.9859 19.4139 71.7576C19.0413 72.5294 18.855 73.3012 18.4824 74.0729C18.4824 74.4588 19.0413 74.8447 19.7865 74.8447C20.718 75.0376 21.6495 75.0376 22.3948 75.0376C22.0222 75.2306 21.6495 75.6165 21.2769 75.8094C20.9043 76.0023 20.5317 76.0024 19.9728 76.0024C19.7865 76.0023 19.6002 76.0024 19.2276 76.0024C19.0413 76.0023 18.855 76.0024 18.6687 76.0024C18.2961 76.0023 18.1098 76.0024 17.9235 76.0024C17.5509 76.1953 17.1782 76.5812 16.8056 77.16L16.8056 73.4941C17.5509 73.4941 18.1098 72.9153 18.4824 71.9506C18.6687 70.7929 18.855 69.4424 18.855 67.7059C18.855 67.32 18.855 66.7412 18.4824 66.3553C18.1098 66.7412 17.7372 66.9341 17.5509 66.9341C17.5509 67.1271 17.1782 67.1271 16.8056 67.32L16.8056 63.4612L18.1098 63.6541C18.1098 63.4612 18.2961 63.4612 18.2961 63.4612C18.4824 63.4612 18.4824 63.2682 18.4824 63.0753C18.4824 62.8824 18.1098 61.9176 17.5509 60.5671C16.9919 59.2165 16.6193 58.2518 16.6193 57.6729C16.6193 57.2871 16.9919 56.7082 17.3646 55.9365C17.7372 55.5506 17.7372 54.9718 17.7372 54.5859C17.7372 54.2 17.5509 53.8141 17.1782 53.6212C16.9919 53.6212 16.9919 53.6212 16.8056 53.4282L16.8056 49.1835C17.7372 49.9553 18.4824 50.3412 18.6687 50.92C18.855 51.3059 18.855 52.0776 18.855 53.6212C19.0413 53.6212 19.2276 53.6212 19.4139 53.6212C19.6002 53.6212 19.7865 53.6212 20.1591 53.4282C20.9043 53.2353 21.8359 53.0424 22.5811 53.0424C25.5619 53.0424 27.425 54.2 28.3565 56.5153C28.7291 58.6376 29.288 60.76 29.6606 62.8824C30.2195 65.3906 31.5237 66.5482 33.573 66.5482L33.573 66.5482M49.9678 10.9812C49.9678 10.5953 49.9678 10.4024 49.7815 10.2094C49.5952 10.0165 49.2226 9.82353 49.0363 9.82353C48.291 9.82353 48.1047 10.2094 47.9184 10.7882C47.9184 11.1741 47.9184 11.56 48.1047 11.7529C48.291 11.9459 48.4773 12.1388 48.8499 12.1388C49.2226 12.1388 49.4089 11.9459 49.7815 11.7529C49.9678 11.56 49.9678 11.3671 49.9678 10.9812L49.9678 10.9812M55.9295 19.0847L54.4391 18.3129C54.0665 18.5059 53.8802 18.6988 53.6939 18.6988C53.3212 18.8918 53.1349 19.0847 52.7623 19.4706C53.5076 19.4706 54.0665 19.6635 54.6254 19.6635C55.1843 19.6635 55.3706 19.6635 55.7432 19.4706C55.7432 19.2776 55.9295 19.0847 55.9295 19.0847L55.9295 19.0847M20.3454 35.6776C19.7865 35.0988 19.0413 34.52 18.4824 33.7482C18.4824 34.3271 18.2961 34.7129 18.1098 34.9059C17.9235 35.0988 17.5509 35.4847 17.3646 35.6776C17.5509 35.8706 17.7372 35.8706 18.1098 36.0635C18.2961 36.0635 18.4824 36.0635 18.855 36.0635C19.2276 36.0635 19.6002 36.0635 20.3454 35.6776L20.3454 35.6776M14.57 31.6259C14.1974 31.6259 13.8248 31.4329 13.4522 31.4329C13.0796 31.24 12.8933 31.24 12.7069 31.24C12.8933 32.0118 12.8933 32.3976 13.0796 32.5906C13.2659 32.9765 13.6385 33.1694 14.1974 33.3624C14.1974 32.9765 14.1974 32.5906 14.3837 32.3976C14.3837 32.2047 14.57 31.8188 14.57 31.6259L14.57 31.6259M30.9648 67.1271C30.4058 66.5482 29.8469 65.9694 29.1017 65.1976C29.1017 65.7765 28.9154 66.1624 28.7291 66.3553C28.5428 66.5482 28.3565 66.9341 27.9839 67.1271C28.1702 67.32 28.3565 67.32 28.7291 67.5129C28.9154 67.5129 29.1017 67.5129 29.4743 67.5129C29.8469 67.5129 30.2195 67.32 30.9648 67.1271L30.9648 67.1271M25.3756 62.8824C25.003 62.8824 24.6304 62.8824 24.0715 62.8824C23.6989 62.6894 23.5126 62.6894 23.3263 62.6894C23.5126 63.4612 23.5126 63.8471 23.6989 64.04C23.8852 64.4259 24.2578 64.6188 24.8167 64.8118C24.8167 64.4259 24.8167 64.04 25.003 63.8471C25.003 63.6541 25.1893 63.2682 25.3756 62.8824L25.3756 62.8824M41.9567 45.3247C41.9567 44.9388 42.143 44.5529 42.143 43.9741C42.5156 43.0094 42.5156 42.2376 42.5156 42.2376C42.5156 41.6588 42.3293 41.2729 42.143 40.8871C41.5841 40.5012 41.2115 39.9224 40.8389 39.5365C40.4663 39.1506 39.721 38.9576 38.9758 38.9576C37.1128 38.9576 35.6224 39.5365 34.6908 40.6941C33.7593 41.6588 33.3867 42.6235 33.3867 43.5882C33.3867 44.5529 33.7593 45.3247 34.3182 46.0965C35.0634 46.8682 35.995 47.0612 36.7402 47.0612C37.4854 47.0612 37.858 47.0612 38.2306 46.8682C38.6032 46.6753 38.7895 46.2894 39.1621 45.7106C39.1621 45.7106 38.7895 45.7106 38.4169 45.7106C38.0443 45.7106 37.858 45.7106 37.858 45.7106C37.2991 45.7106 36.9265 45.5176 36.5539 45.3247C36.3676 44.9388 36.1813 44.7459 36.1813 44.5529C36.1813 44.5529 36.1813 44.1671 36.1813 43.9741C36.1813 43.5882 36.3676 43.3953 36.5539 43.0094C36.9265 42.8165 37.2991 42.8165 37.6717 42.6235C38.2306 42.6235 38.9758 43.0094 39.3484 43.3953C39.9074 43.9741 40.0937 44.5529 40.0937 45.5176C40.0937 46.0965 39.721 46.8682 38.9758 47.4471C38.2306 48.0259 37.4854 48.2188 36.7402 48.2188C35.0634 48.2188 33.7593 48.6047 33.0141 48.9906C32.2689 49.7624 31.71 50.3412 31.1511 50.7271L29.288 51.8847C30.2195 50.7271 30.7784 49.3765 31.1511 48.2188C31.3374 47.4471 31.5237 46.4824 31.5237 45.3247L31.5237 44.36C31.5237 43.2024 31.71 42.2376 32.0826 41.4659C32.4552 40.6941 32.8278 39.9224 33.573 39.1506C34.1319 38.7647 34.8771 38.1859 35.8087 37.8C37.4854 37.2212 38.4169 36.8353 38.4169 36.6424C38.7895 35.8706 38.9758 35.2918 39.1621 34.9059C39.9074 33.3624 40.6526 32.2047 41.5841 31.0471C41.3978 32.0118 41.3978 32.9765 41.3978 33.7482C41.3978 35.0988 41.5841 36.4494 41.9567 37.6071C42.5156 38.9576 43.0745 40.1153 44.006 41.4659C44.3787 41.6588 44.3787 42.0447 44.3787 42.2376C44.3787 42.8165 44.1923 43.3953 43.6334 43.9741C43.2608 44.5529 42.7019 44.9388 41.9567 45.3247L41.9567 45.3247M52.7623 80.0541C51.8308 80.2471 51.0856 80.6329 50.3404 81.2118C49.5952 81.9835 49.2226 82.5624 49.2226 83.3341C49.2226 83.72 49.4089 83.9129 49.5952 84.2988C49.9678 84.6847 50.1541 84.8776 50.5267 85.2635C50.8993 85.4565 51.2719 85.6494 51.6445 85.6494C51.8308 85.6494 52.2034 85.4565 52.2034 85.2635C52.3897 84.8776 52.576 84.6847 52.576 84.2988C52.576 83.9129 52.3897 83.5271 52.2034 83.1412C52.0171 82.7553 51.6445 82.3694 51.2719 81.7906C51.4582 81.7906 51.6445 81.7906 51.8308 81.7906C52.2034 81.7906 52.576 81.7906 52.9486 81.9835C53.1349 82.1765 53.3212 82.5624 53.3212 82.9482C53.3212 83.9129 53.5076 84.4918 53.6939 84.4918C53.8802 84.6847 54.2528 84.6847 54.6254 84.4918C54.998 84.4918 55.3706 84.4918 55.3706 84.4918C55.5569 84.4918 55.7432 84.4918 55.9295 84.4918C54.998 85.0706 54.2528 85.6494 53.3212 86.0353C52.576 86.4212 52.0171 86.6141 51.4582 86.6141C50.8993 86.6141 50.3404 86.4212 49.9678 85.8424C49.4089 84.8776 48.8499 84.1059 48.291 83.3341C47.3595 84.2988 46.8006 84.8776 46.2417 85.4565C45.3102 86.2282 44.3787 86.6141 43.6334 86.6141C43.4471 86.6141 43.2608 86.6141 43.2608 86.6141C42.3293 86.4212 41.5841 86.0353 41.2115 85.4565C40.6526 84.8776 40.4663 84.1059 40.4663 82.9482C40.4663 81.7906 40.6526 80.8259 41.3978 80.0541C41.9567 79.0894 42.5156 78.7035 43.2608 78.7035C43.6334 78.7035 43.8197 78.7035 44.006 78.8965C44.565 79.0894 44.9376 79.4753 45.3102 79.8612C45.6828 80.2471 45.8691 80.8259 45.8691 81.4047C45.8691 82.5624 45.3102 83.5271 44.3787 83.9129C44.1923 83.9129 44.006 83.9129 43.6334 83.9129C43.6334 83.9129 43.4471 83.9129 43.2608 83.9129C43.2608 83.9129 43.0745 83.9129 42.8882 83.9129C43.8197 83.1412 44.1923 82.1765 44.1923 81.2118C44.1923 80.8259 44.1923 80.44 44.006 80.0541C43.8197 79.8612 43.6334 79.6682 43.4471 79.6682C42.8882 79.6682 42.5156 80.0541 41.9567 81.0188C41.5841 81.7906 41.2115 82.7553 41.2115 83.5271C41.2115 84.2988 41.5841 84.8776 42.3293 85.2635C42.8882 85.4565 43.4471 85.6494 44.006 85.6494C44.7513 85.6494 46.2417 84.4918 48.1047 82.3694C50.1541 80.0541 51.8308 79.0894 53.3212 79.0894C54.6254 79.0894 55.5569 80.0541 56.1158 81.7906C56.4884 82.7553 57.0473 83.3341 57.6062 83.3341C57.9789 83.3341 58.3515 83.1412 58.9104 82.9482L57.7925 84.2988C56.3021 84.2988 55.5569 83.5271 54.998 82.1765C54.6254 80.8259 53.8802 80.0541 53.1349 80.0541L52.7623 80.0541M78.0997 43.2024C77.7271 44.36 77.3545 45.1318 76.9819 45.5176C76.7956 45.7106 76.423 45.9035 75.864 45.9035C76.0504 45.3247 76.0504 44.9388 76.0504 44.5529C76.0504 43.9741 76.0504 43.5882 76.0504 43.0094C76.423 43.2024 76.9819 43.2024 77.3545 43.2024C77.7271 43.2024 78.0997 43.2024 78.0997 43.2024L78.0997 43.2024M71.5791 48.2188C71.2064 48.2188 70.8338 48.4118 70.2749 48.4118C70.0886 48.4118 69.716 48.4118 69.5297 48.2188C69.1571 48.0259 68.7845 47.8329 68.4119 47.2541C69.3434 46.6753 70.0886 45.9035 71.0201 45.1318C71.0201 46.2894 71.0201 46.8682 71.2064 47.2541C71.3927 47.64 71.3927 47.8329 71.5791 48.2188L71.5791 48.2188M80.149 27.7671C79.5901 28.7318 79.2175 29.5035 78.6586 29.8894C77.9134 30.8541 76.9819 31.24 75.864 31.24C75.1188 31.24 74.3736 31.0471 73.8147 30.4682C73.2558 30.0824 72.6969 29.3106 72.3243 28.3459C72.8832 27.7671 73.4421 27.1882 73.8147 26.4165C74.3736 25.6447 74.5599 25.0659 74.5599 24.4871C74.3736 24.2941 74.3736 24.1012 74.1873 23.9082C74.001 23.5224 73.6284 23.3294 73.4421 23.3294C73.0695 23.3294 72.5106 23.7153 72.3243 24.4871C71.9517 25.4518 71.7654 26.2235 71.7654 27.1882C71.7654 27.5741 71.7654 27.7671 71.7654 27.96C71.3927 27.96 71.2064 27.96 71.0201 27.96C70.8338 27.96 70.4612 27.96 70.2749 27.7671L69.716 28.3459C70.0886 28.7318 70.6475 29.1176 71.5791 29.8894C72.5106 30.6612 73.0695 31.0471 73.4421 31.24C72.6969 32.2047 72.138 33.3624 71.7654 34.3271C71.3927 35.2918 71.3927 36.2565 71.3927 37.0282C71.3927 37.4141 71.3927 37.8 71.3927 38.1859C71.3927 38.7647 71.3927 38.9576 71.3927 39.1506C70.4612 38.3788 69.716 37.2212 69.3434 36.2565C68.9708 35.0988 68.7845 33.9412 68.7845 32.7835C68.7845 32.2047 68.7845 31.4329 68.9708 30.4682C69.1571 29.6965 69.1571 28.9247 69.3434 27.96C68.9708 27.1882 68.5982 26.4165 68.2256 25.4518C68.0393 24.4871 67.853 23.1365 67.853 21.7859C67.853 21.4 67.853 21.0141 67.853 20.6282C67.853 20.0494 68.0393 19.6635 68.2256 19.0847C68.7845 19.6635 69.1571 19.8565 69.3434 20.0494C69.716 20.4353 70.2749 20.6282 70.6475 20.6282C71.9517 20.6282 72.8832 20.2424 73.2558 19.2776C73.8147 18.5059 74.001 17.5412 74.001 15.9976C74.001 15.6118 74.001 15.0329 74.001 14.4541C74.001 13.8753 74.001 13.4894 74.1873 12.9106C74.1873 11.3671 74.001 10.4024 73.8147 9.82353C73.6284 8.85882 73.2558 8.47294 72.6969 8.47294C70.2749 8.47294 68.5982 10.2094 67.2941 13.6824C66.1762 16.1906 65.6173 19.6635 65.2447 23.9082C65.0584 26.0306 65.0584 28.5388 65.0584 31.6259C65.0584 32.7835 64.8721 34.3271 64.4995 36.2565C64.3132 37.9929 63.9406 39.7294 63.7543 41.4659C63.7543 42.2376 63.9406 42.6235 64.4995 42.6235C65.431 42.6235 66.5488 41.8518 68.2256 40.6941C65.8036 44.5529 64.3132 47.8329 63.9406 50.3412C63.7543 51.3059 63.3817 54.2 62.8228 58.8306C62.8228 57.8659 62.6365 56.7082 62.6365 55.7435C62.4501 53.6212 62.2638 50.92 62.0775 47.8329C61.8912 44.9388 61.7049 42.4306 61.7049 40.6941C61.7049 38.9576 61.8912 37.2212 62.2638 35.4847C62.6365 33.3624 63.0091 31.6259 63.3817 30.2753C63.0091 30.4682 63.0091 30.6612 62.8228 30.8541C62.6365 31.0471 62.2638 31.24 61.7049 31.6259C61.8912 30.2753 61.8912 29.3106 61.8912 28.7318C62.2638 26.8024 62.6365 25.8376 63.3817 26.0306C63.3817 25.8376 63.3817 25.6447 63.568 25.6447C63.568 25.6447 63.7543 25.4518 63.7543 25.0659C63.7543 24.68 63.3817 23.5224 62.6365 21.4C62.0775 19.4706 61.7049 18.12 61.7049 17.3482C61.7049 16.5765 61.8912 15.8047 62.2638 15.0329C62.8228 14.0682 63.0091 13.2965 63.0091 12.7176C63.0091 12.1388 62.8228 11.7529 62.4502 11.3671C61.8912 11.1741 61.7049 10.9812 61.7049 10.9812L61.7049 5.19294C62.8228 6.15765 63.568 6.92941 63.7543 7.31529C63.9406 7.89412 64.1269 9.05176 64.1269 11.1741C64.4995 11.1741 65.431 10.4024 66.9215 8.47294C68.5982 6.54353 69.9023 5.77176 70.8338 5.77176C73.2558 5.77176 74.7462 6.54353 75.6777 8.47294C76.2367 9.82353 76.6093 11.9459 76.6093 15.0329C76.6093 15.6118 76.6093 16.9624 76.6093 18.6988C76.6093 20.2424 76.6093 21.2071 76.6093 21.2071C76.6093 23.3294 76.7956 24.8729 77.1682 25.8376C77.7271 26.9953 78.6586 27.7671 80.149 27.7671L80.149 27.7671M81.8258 75.6165L79.2175 75.6165C79.2175 75.8094 79.2175 76.3882 79.2175 76.9671C79.2175 77.5459 79.2175 77.9318 79.2175 78.1247C79.2175 79.0894 79.2175 80.0541 79.0312 81.0188C78.8449 81.7906 78.4723 82.5624 77.9134 83.3341C77.3545 84.4918 76.423 85.2635 75.1188 85.8424C73.8147 86.6141 71.9517 87 69.716 87C68.2256 87 66.5488 86.8071 65.0584 86.4212C63.3817 86.0353 62.4502 85.6494 62.2638 85.4565C65.9899 84.8776 68.4119 84.2988 69.3434 83.9129C70.6475 83.3341 71.7654 82.5624 72.5106 81.5976C73.0695 80.8259 73.4421 80.0541 73.6284 79.0894C74.001 78.1247 74.1873 76.9671 74.1873 75.6165L61.7049 75.6165C62.8228 71.1788 64.1269 67.7059 65.431 65.1976C66.5488 63.2682 67.853 61.7247 69.3434 60.76C70.2749 60.3741 71.3927 59.9882 73.0695 59.6024C74.5599 59.4094 75.6777 59.0235 76.2367 58.6376C77.5408 57.8659 78.4723 56.3224 79.2175 54.2L79.2175 70.2141L81.8258 70.2141L81.8258 75.6165M67.2941 43.9741C67.2941 45.5176 67.4804 46.6753 67.6667 47.4471C67.853 49.1835 68.5982 50.1482 69.5297 50.3412C69.716 50.5341 70.0886 50.5341 70.2749 50.5341C71.0201 50.5341 71.5791 50.3412 71.9517 49.9553C72.5106 49.7624 73.0695 49.1835 73.6284 48.4118C73.2558 48.0259 72.8832 47.2541 72.6969 46.6753C72.5106 45.9035 72.3243 45.3247 72.3243 44.7459C72.3243 44.5529 72.5106 44.36 72.5106 44.1671C72.6969 43.9741 72.8832 43.7812 72.8832 43.5882C73.2558 43.3953 73.6284 43.2024 73.8147 43.2024C74.1873 43.2024 74.3736 43.5882 74.5599 43.9741C74.7462 44.36 74.7462 44.9388 74.7462 45.5176C74.7462 46.4824 74.5599 47.4471 74.1873 48.2188C74.3736 48.2188 74.5599 48.2188 74.9325 48.2188C75.3051 48.2188 75.4914 48.2188 75.864 48.2188L76.0504 48.9906C75.6777 49.1835 75.1188 49.5694 74.1873 49.9553C73.2558 50.3412 72.5106 50.7271 71.9517 50.7271C72.138 51.4988 72.3243 52.2706 72.5106 52.8494C72.6969 53.4282 72.6969 54.2 72.6969 54.7788C72.6969 55.5506 72.6969 56.3224 72.3243 57.0941C72.138 57.8659 71.9517 58.4447 71.7654 59.0235C74.3736 57.6729 75.864 55.3576 76.2367 52.0776C76.423 50.92 76.423 49.9553 76.6093 48.7976C77.1682 48.2188 77.7271 47.4471 78.286 46.6753C78.8449 45.7106 79.2175 44.5529 79.5901 43.2024C79.5901 43.2024 79.7764 42.8165 79.7764 42.4306C79.7764 42.0447 79.9627 41.4659 79.9627 41.2729C79.9627 40.8871 79.7764 40.6941 79.7764 40.5012C79.4038 40.8871 78.8449 41.08 78.6586 41.2729C78.286 41.2729 77.9134 41.4659 77.7271 41.4659C77.5408 41.4659 77.3545 41.4659 77.1682 41.2729C75.1188 40.6941 74.1873 39.9224 74.1873 39.1506C74.1873 38.7647 74.1873 38.3788 74.3736 37.8C75.1188 34.7129 76.0504 33.3624 77.1682 33.7482C76.6093 33.5553 76.0504 33.5553 75.4914 33.3624C74.001 33.5553 73.0695 34.7129 72.5106 37.0282C72.3243 38.1859 72.138 39.5365 71.9517 40.6941C71.7654 41.8518 71.3927 42.6235 71.0201 43.2024C70.4612 43.7812 69.716 44.1671 68.7845 44.1671C68.2256 44.1671 67.853 44.1671 67.2941 43.9741L67.2941 43.9741M77.5408 28.5388C76.9819 27.7671 76.2367 26.8024 75.6777 25.8376C75.4914 26.6094 75.3051 27.1882 75.1188 27.3812C75.1188 27.5741 74.9325 27.96 74.3736 28.5388C74.7462 28.9247 74.9325 28.9247 75.1188 29.1176C75.3051 29.3106 75.6777 29.3106 75.864 29.3106C76.2367 29.3106 76.7956 29.1176 77.5408 28.5388L77.5408 28.5388M71.3927 22.5576C70.2749 22.1718 69.5297 22.1718 69.1571 22.1718C69.1571 23.3294 69.3434 24.1012 69.716 24.4871C69.9023 24.68 70.2749 24.8729 70.8338 25.2588C70.8338 24.68 70.8338 24.2941 71.0201 23.7153C71.0201 23.3294 71.2064 22.9435 71.3927 22.5576L71.3927 22.5576M73.4421 70.2141L73.4421 66.7412C73.2558 66.7412 73.2558 66.7412 72.8832 66.7412C72.6969 66.7412 72.3243 66.7412 71.9517 66.7412C71.5791 66.9341 71.2064 67.1271 70.8338 67.32C70.2749 67.5129 69.9023 67.8988 69.716 68.4776C69.3434 69.0565 69.1571 69.6353 68.7845 70.2141L73.4421 70.2141M108.281 39.3435C107.349 38.7647 106.791 38.3788 106.418 38.1859C105.486 37.6071 104.741 37.2212 104.182 37.2212C103.437 37.2212 102.506 37.4141 101.574 37.6071C99.711 37.9929 98.2205 38.5718 96.5438 39.3435C96.3575 39.5365 95.7986 39.5365 95.2397 39.5365C94.6808 39.7294 94.1219 39.7294 93.3766 39.7294C92.4451 39.7294 91.5136 39.7294 90.7684 39.5365C90.0232 39.5365 89.2779 39.5365 88.5327 39.3435C88.5327 37.9929 88.719 37.0282 89.2779 36.4494C89.6506 36.0635 90.2095 35.6776 90.9547 35.6776C91.5136 35.6776 92.2588 35.8706 93.004 36.0635C94.6808 36.6424 95.7986 36.8353 95.7986 36.8353C97.6616 36.8353 99.5247 36.0635 101.574 34.3271C103.251 32.9765 104.741 31.4329 105.859 29.5035L105.859 27.3812L103.996 27.3812C103.81 26.9953 103.623 26.8024 103.437 26.6094C103.81 26.4165 104.182 26.0306 104.555 25.6447C104.741 25.4518 105.114 25.4518 105.486 25.4518C105.859 25.4518 106.232 25.4518 106.604 25.4518L106.604 22.5576C106.045 20.8212 105.673 19.8565 105.486 19.6635C105.114 18.6988 104.555 17.7341 103.996 17.1553C103.251 18.12 102.692 19.2776 102.319 20.8212C101.947 22.1718 101.574 23.5224 101.388 25.0659C100.829 26.0306 100.27 26.9953 99.5247 27.96C98.5932 28.7318 97.8479 29.5035 96.9164 30.2753C97.1027 30.2753 97.1027 30.2753 97.1027 30.4682C97.289 30.8541 97.4753 31.4329 97.4753 32.0118C97.4753 32.3976 97.4753 32.7835 97.289 33.3624C97.289 33.3624 97.1027 33.3624 96.9164 33.5553C96.5438 33.7482 96.3575 33.7482 96.1712 33.7482C95.7986 33.1694 95.426 32.5906 95.0534 32.3976C93.7492 31.4329 91.8862 31.0471 89.2779 31.0471C87.4149 31.0471 85.3656 32.0118 83.3162 33.9412C82.9436 34.3271 82.3847 34.9059 82.0121 35.2918L82.0121 32.5906C83.5025 30.0824 84.6203 28.5388 85.1793 27.5741C85.5519 26.6094 85.7382 26.0306 85.7382 25.6447C85.7382 25.6447 85.7382 25.4518 85.3656 25.0659C84.993 24.68 84.993 24.1012 84.993 23.3294C84.993 22.7506 84.993 21.7859 85.1793 20.8212C85.3656 19.6635 85.7382 18.3129 86.2971 16.5765C84.6203 15.8047 83.5025 15.0329 83.1299 14.6471C82.7573 14.0682 82.1984 12.9106 81.6395 11.1741L82.0121 5.57882C82.9436 7.31529 83.6888 8.85882 84.6203 10.5953C85.7382 12.3318 86.856 13.1035 87.9738 13.1035C88.5327 13.1035 89.2779 12.9106 90.0232 12.5247C91.8862 11.56 93.004 11.1741 93.3766 10.9812C93.7492 10.9812 94.1219 10.9812 94.4945 10.9812C95.426 10.9812 96.3575 11.1741 97.1027 11.3671C98.0342 11.7529 98.7795 11.9459 99.5247 12.3318C101.015 11.1741 101.947 10.2094 102.692 9.43765C105.114 7.50824 106.977 6.15765 108.281 5.57882C107.908 6.92941 107.163 8.47294 106.045 10.4024C105.3 11.7529 104.741 13.2965 104.741 14.6471C105.486 16.5765 106.232 18.5059 106.791 20.0494C107.536 21.7859 107.722 23.5224 107.722 25.0659C107.722 26.6094 107.536 27.96 107.163 29.1176C106.604 30.2753 106.045 31.4329 105.486 32.5906C106.045 33.7482 106.604 34.7129 106.977 35.8706C107.536 36.8353 107.908 37.9929 108.281 39.3435L108.281 39.3435M101.015 49.5694C98.7795 49.5694 97.289 50.92 96.7301 53.4282C96.1712 55.7435 95.7986 58.2518 95.2397 60.5671C94.3082 63.2682 92.0725 64.4259 88.9053 64.4259C87.9738 64.4259 87.2286 64.4259 86.4834 64.2329C85.7382 64.04 85.3656 63.8471 85.1793 63.8471C84.993 63.8471 84.8066 63.8471 84.8066 63.8471C84.8066 65.5835 84.6203 66.5482 84.434 66.9341C84.2477 67.32 83.5025 67.8988 82.3847 68.6706L82.3847 64.04C82.571 63.8471 82.7573 63.8471 82.9436 63.6541C83.3162 63.4612 83.5025 63.0753 83.5025 62.6894C83.5025 62.3035 83.3162 61.7247 82.9436 60.9529C82.3847 60.3741 82.1984 59.7953 82.1984 59.2165C82.1984 58.8306 82.571 57.6729 83.3162 56.1294C83.8751 54.5859 84.2477 53.6212 84.2477 53.4282C84.2477 53.2353 84.2477 53.0424 84.0614 53.0424C83.8751 53.0424 83.8751 52.8494 83.8751 52.8494L82.3847 53.0424L82.3847 48.6047C82.7573 48.7976 83.1299 48.9906 83.3162 48.9906C83.5025 49.1835 83.6888 49.3765 84.2477 49.7624C84.434 49.5694 84.434 49.3765 84.6203 49.1835C84.6203 48.9906 84.6203 48.6047 84.6203 48.2188C84.6203 46.4824 84.434 44.9388 84.0614 43.5882C83.6888 42.4306 83.1299 41.8518 82.3847 41.6588L82.3847 37.6071C82.7573 38.1859 83.1299 38.5718 83.3162 38.7647C83.6888 38.9576 84.0614 39.1506 84.434 39.1506C84.6203 39.1506 84.8066 38.9576 85.1793 38.9576C85.5519 38.9576 85.7382 38.9576 85.9245 38.9576C86.4834 38.9576 86.856 38.9576 87.2286 39.1506C87.6012 39.3435 87.9738 39.7294 88.5327 40.1153C86.856 40.1153 85.5519 40.1153 84.993 40.3082C84.434 40.5012 84.2477 40.8871 84.2477 41.2729C84.6203 41.8518 84.993 42.8165 85.1793 43.7812C85.5519 44.7459 85.7382 45.5176 85.7382 46.4824C85.5519 47.8329 85.3656 49.1835 85.3656 50.5341C85.1793 51.6918 85.1793 52.6565 85.1793 53.6212C85.1793 56.1294 85.5519 58.2518 86.1108 59.6024C87.0423 61.5318 88.5327 62.4965 90.5821 62.4965C91.5136 62.4965 92.4451 62.1106 93.3766 61.1459C94.1219 60.3741 94.6808 59.4094 94.6808 58.2518C94.6808 57.2871 94.3082 56.3224 93.9355 55.9365C93.3766 55.1647 92.4451 54.9718 91.141 54.9718C90.7684 54.9718 90.3958 54.9718 90.0232 55.1647C89.6506 55.5506 89.2779 55.7435 88.9053 55.9365C88.719 55.7435 88.5327 55.3576 88.5327 54.9718C88.5327 54.5859 88.3464 54.2 88.3464 54.0071C88.3464 52.8494 88.5327 52.0776 88.9053 51.3059C89.2779 50.7271 89.4642 49.9553 89.8369 49.3765C89.8369 49.3765 89.8369 48.7976 89.4642 47.4471C89.4642 46.8682 89.2779 46.2894 89.2779 45.7106C89.2779 44.9388 89.4642 44.1671 89.8369 43.3953C90.2095 42.4306 90.9547 41.6588 91.8862 41.08C91.8862 41.6588 91.8862 42.2376 91.8862 42.6235C91.8862 43.2024 91.8862 43.9741 92.2588 44.5529C92.4451 45.3247 93.004 46.0965 93.9355 47.0612C93.3766 47.2541 92.8177 47.4471 92.0725 48.0259C91.3273 48.4118 90.7684 48.7976 90.3958 48.9906L90.7684 49.5694L92.4451 49.3765C92.4451 49.5694 92.2588 49.7624 92.2588 49.9553C92.2588 50.7271 92.4451 51.3059 92.8177 51.8847C93.1903 52.6565 93.5629 52.8494 93.9355 52.8494C94.3082 52.8494 94.4945 52.6565 94.8671 52.2706C94.8671 52.2706 95.0534 52.0776 95.0534 51.8847C95.0534 51.4988 94.8671 51.1129 94.4945 50.5341C93.9355 49.9553 93.3766 49.5694 92.8177 48.9906C93.1903 48.4118 93.7492 47.8329 94.3082 47.4471C94.8671 47.0612 95.6123 46.8682 96.3575 46.8682C97.4753 46.8682 98.4068 47.2541 99.3384 47.8329C100.084 48.2188 100.642 48.7976 101.015 49.5694L101.015 49.5694M106.977 75.6165C106.977 79.2824 106.418 81.9835 105.3 83.5271C103.81 85.4565 101.76 86.4212 98.9658 86.4212C95.7986 86.4212 93.7492 85.2635 92.4451 83.3341C91.5136 81.7906 91.141 80.0541 91.141 77.7388C91.141 77.3529 91.141 76.9671 91.141 76.3882C91.141 76.0023 91.141 75.6165 91.141 75.6165L78.4723 75.6165L78.4723 70.2141L97.1027 70.2141C97.1027 70.9859 97.1027 71.9506 96.9164 73.1082C96.9164 74.2659 96.9164 75.0376 96.9164 75.4235C96.9164 77.16 97.1027 78.3176 97.4753 79.0894C97.6616 79.8612 98.2205 80.2471 99.1521 80.2471C100.084 80.2471 100.642 79.6682 101.015 78.7035C101.388 77.7388 101.388 76.3882 101.388 74.2659L101.388 73.88C101.388 73.3012 101.388 72.9153 101.388 72.3365C101.388 71.7576 101.388 71.1788 101.388 70.7929L101.388 70.2141L101.388 60.76C100.642 60.1812 99.711 59.4094 98.4068 58.6376C100.829 57.8659 102.692 56.7082 104.182 55.1647C105.486 53.4282 106.418 52.0776 106.977 51.4988L106.977 70.2141L106.977 75.6165M101.574 12.7176C101.388 13.1035 100.829 14.0682 99.711 15.2259C98.4068 17.1553 97.6616 18.6988 97.6616 19.6635C97.6616 20.4353 97.8479 21.0141 98.2205 21.7859C98.4068 22.3647 98.7795 22.7506 99.3384 23.1365C99.5247 22.7506 99.8973 21.9788 100.27 20.6282C100.456 19.6635 100.642 18.8918 100.829 17.9271C101.201 16.9624 101.388 15.9976 101.388 15.0329C101.574 13.6824 101.574 12.9106 101.574 12.7176L101.574 12.7176M99.3384 25.4518C97.8479 24.68 96.9164 24.1012 96.5438 23.5224C96.1712 22.7506 95.7986 21.5929 95.7986 19.8565C95.7986 18.3129 95.9849 17.1553 96.3575 16.1906C96.5438 15.8047 96.9164 14.84 97.6616 13.4894C96.5438 13.1035 95.7986 13.1035 95.6123 12.9106C95.2397 12.9106 95.0534 12.7176 94.6808 12.7176C93.004 12.7176 91.3273 13.4894 89.8369 15.0329C88.719 16.3835 87.7875 18.12 87.0423 20.2424C87.7875 19.4706 89.0916 19.0847 90.3958 19.0847C91.5136 19.0847 92.4451 19.2776 93.1903 19.8565C93.9355 20.4353 94.3082 21.4 94.3082 22.5576C94.3082 23.3294 94.3082 23.9082 93.9355 24.2941C93.5629 24.8729 93.1903 25.0659 92.4451 25.0659C91.6999 25.0659 91.3273 24.8729 91.141 24.4871C90.9547 24.2941 90.9547 23.7153 90.9547 23.1365C90.9547 22.9435 90.9547 22.7506 91.141 22.3647C91.141 21.9788 91.141 21.5929 91.141 21.0141C91.141 21.0141 90.9547 21.0141 90.7684 21.0141C90.3958 21.0141 90.3958 21.0141 90.2095 21.0141C89.8369 21.0141 89.6506 21.0141 89.2779 21.0141C88.1601 21.4 87.4149 22.7506 87.4149 24.8729C87.4149 26.2235 87.9738 27.5741 89.0916 28.3459C90.2095 29.3106 91.5136 29.8894 93.3766 29.8894C94.4945 29.8894 95.6123 29.3106 96.7301 28.3459C97.6616 27.5741 98.4068 26.6094 99.3384 25.4518L99.3384 25.4518M93.5629 38.1859C93.1903 37.6071 92.8177 37.2212 92.4451 36.8353L90.3958 36.8353L90.0232 38.1859L93.5629 38.1859M98.0342 48.7976C97.4753 48.6047 96.9164 48.4118 96.3575 48.4118C96.1712 48.4118 95.7986 48.4118 95.6123 48.6047C95.2397 48.6047 95.0534 48.7976 94.8671 48.7976C95.0534 49.1835 95.426 49.3765 95.6123 49.7624C95.7986 49.9553 95.9849 50.3412 96.1712 50.92C96.3575 50.7271 96.7301 50.3412 97.1027 49.9553C97.4753 49.5694 97.8479 49.1835 98.0342 48.7976L98.0342 48.7976M91.8862 53.4282C91.6999 53.0424 91.5136 52.6565 91.5136 52.4635C91.3273 52.2706 91.3273 51.8847 91.3273 51.4988C90.7684 51.6918 90.3958 51.6918 90.3958 51.8847C90.0232 52.2706 89.8369 52.8494 89.6506 53.8141C89.8369 53.8141 90.0232 53.6212 90.5821 53.6212C90.9547 53.6212 91.3273 53.4282 91.8862 53.4282L91.8862 53.4282M108.281 43.9741C108.467 44.7459 108.467 45.3247 108.467 45.9035C108.467 46.4824 108.467 47.0612 108.095 47.4471C107.908 48.0259 107.536 48.4118 106.791 48.7976C106.232 49.1835 105.673 49.3765 104.927 49.1835C103.437 49.3765 102.319 48.6047 101.574 47.2541C101.201 46.6753 101.015 45.9035 101.015 45.1318C101.015 44.5529 101.201 43.7812 101.388 43.2024C101.76 42.6235 102.133 42.2376 102.878 41.6588C103.251 41.4659 103.81 41.2729 104.555 41.2729C105.3 41.2729 106.045 41.6588 106.791 42.0447C107.349 42.6235 107.908 43.2024 108.281 43.9741L108.281 43.9741M126.911 18.12C126.911 18.6988 126.725 19.4706 126.166 20.4353C125.607 21.2071 125.048 21.9788 124.862 22.5576C124.676 22.3647 124.676 22.3647 124.676 22.1718C124.676 21.9788 124.676 21.5929 124.862 21.2071C124.862 21.0141 124.862 20.8212 124.862 20.6282C124.862 20.6282 124.862 20.4353 124.862 20.2424C124.676 19.8565 124.117 19.6635 123.372 19.6635C122.999 19.6635 122.626 19.6635 122.44 19.2776C122.44 19.0847 122.254 18.6988 122.254 18.12C122.254 17.9271 122.254 17.9271 122.254 17.7341C122.254 17.7341 122.254 17.5412 122.254 17.5412C122.999 18.5059 123.931 18.8918 124.676 18.8918C124.862 18.8918 125.235 18.8918 125.421 18.6988C125.607 18.5059 125.794 18.3129 125.794 17.9271C125.794 17.5412 125.607 17.1553 125.421 16.7694C125.048 16.3835 124.862 15.9976 124.489 15.8047C124.117 15.6118 123.931 15.4188 123.744 15.4188C122.999 15.4188 122.254 15.8047 121.695 16.5765C120.95 17.5412 120.577 18.12 120.577 18.8918C120.577 19.6635 120.763 20.4353 121.322 21.0141C121.509 21.2071 122.626 22.1718 124.676 24.1012L123.185 24.1012C122.44 23.5224 121.509 22.7506 120.763 22.1718C119.832 21.4 119.459 20.6282 119.459 19.6635C119.459 18.12 120.577 16.3835 122.626 14.2612C124.676 12.3318 125.794 10.9812 125.794 10.2094C125.794 9.63059 125.607 9.05176 125.421 8.47294C125.048 7.70118 124.489 7.31529 123.931 7.31529C122.999 7.31529 122.067 7.50824 121.322 8.08706C120.391 8.47294 120.018 9.05176 120.018 9.43765C120.018 9.82353 120.204 10.0165 120.577 10.2094C120.95 10.4024 121.322 10.4024 121.695 10.4024C122.626 10.4024 123.558 10.0165 124.303 9.05176C124.303 9.05176 124.303 9.24471 124.303 9.43765C124.303 9.63059 124.303 9.63059 124.303 9.82353C124.303 10.2094 124.303 10.4024 124.303 10.4024C123.744 11.56 122.999 11.9459 121.695 11.9459C121.136 11.9459 120.577 11.7529 120.204 11.56C119.832 11.1741 119.459 10.7882 119.273 10.2094C119.087 10.0165 119.087 9.63059 119.087 9.43765C119.087 8.66588 119.459 7.89412 120.391 7.31529C121.136 6.73647 122.067 6.35059 123.185 6.35059C124.303 6.35059 125.048 6.73647 125.794 7.50824C126.352 8.08706 126.725 8.85882 126.911 10.0165C126.911 10.0165 126.911 10.2094 126.911 10.4024C126.911 11.1741 126.539 11.9459 125.794 12.7176C125.048 13.4894 124.303 14.0682 123.744 14.6471C124.676 15.4188 125.235 15.8047 125.607 15.9976C126.539 16.5765 126.911 17.3482 126.911 18.12L126.911 18.12M121.695 14.0682C120.577 14.4541 119.646 15.4188 118.9 16.5765C118.714 16.9624 118.528 17.5412 118.155 18.3129L118.155 32.2047C118.155 32.9765 118.155 33.7482 118.341 34.3271C118.341 34.9059 118.528 35.4847 118.9 35.6776C118.528 36.0635 118.341 36.2565 118.155 36.4494C117.41 37.0282 117.037 37.4141 116.851 37.6071C116.478 37.4141 116.292 37.2212 115.919 36.8353C115.547 36.8353 115.361 36.6424 114.988 36.6424C114.802 36.6424 114.615 36.6424 114.243 36.6424C114.056 36.6424 113.87 36.6424 113.684 36.6424C113.497 36.6424 113.311 36.6424 112.939 36.6424L112.939 5C113.497 5.77176 113.87 6.15765 114.056 6.54353C114.988 7.89412 115.733 8.85882 116.292 9.43765C117.037 10.4024 117.782 11.1741 118.714 11.9459C119.459 12.5247 120.391 13.2965 121.695 14.0682L121.695 14.0682M126.539 40.8871C126.352 40.6941 126.166 40.5012 125.794 40.3082C125.421 40.3082 125.235 40.1153 124.862 40.1153C124.489 40.1153 124.117 40.1153 123.744 40.3082C123.372 40.5012 123.185 40.6941 122.999 41.08C122.813 41.2729 122.626 41.6588 122.626 41.8518C122.44 41.4659 122.067 40.8871 121.695 40.1153C121.695 40.1153 121.695 39.9224 121.509 39.7294C121.695 39.3435 121.881 39.1506 122.067 38.9576C122.254 38.7647 122.44 38.5718 122.813 38.1859C122.999 38.1859 123.185 38.1859 123.558 37.9929C123.744 37.9929 124.117 37.9929 124.489 37.9929C124.676 37.9929 124.862 37.9929 124.862 37.9929L124.862 37.9929C124.489 37.6071 124.303 37.2212 124.117 37.2212C123.931 37.0282 123.558 36.8353 122.999 36.8353C122.067 36.8353 120.763 37.4141 119.459 38.3788C117.224 40.1153 115.919 41.2729 115.361 42.0447C116.106 42.4306 116.665 42.8165 117.41 43.3953C117.596 43.3953 117.969 43.7812 118.155 43.9741C118.155 44.1671 117.969 44.36 117.782 44.5529C117.782 44.7459 117.596 44.9388 117.41 45.1318C116.665 44.36 115.733 43.7812 114.429 43.0094C114.056 42.8165 113.311 42.6235 112.38 42.2376L112.38 41.8518C114.243 40.5012 115.919 39.3435 117.41 37.9929C119.273 36.2565 120.204 35.0988 120.204 34.52C120.391 34.1341 120.577 33.7482 120.577 33.3624C120.763 32.9765 120.763 32.5906 120.763 32.2047C120.763 31.0471 120.577 30.0824 120.018 29.1176C119.646 28.7318 119.459 28.1529 119.087 27.7671C118.9 27.3812 118.714 27.1882 118.714 26.9953C118.528 26.4165 118.341 25.8376 118.341 25.4518C118.341 25.2588 118.341 25.2588 118.341 25.0659C118.714 24.4871 118.9 23.9082 119.087 23.7153C119.273 23.5224 119.646 23.5224 120.204 23.5224C120.577 23.5224 120.95 23.7153 121.136 24.1012C121.509 24.4871 121.695 24.8729 121.695 25.2588C121.695 25.8376 121.509 26.2235 121.136 26.4165C120.577 26.8024 120.204 26.9953 120.204 26.9953C121.695 28.5388 122.626 29.6965 123.185 30.6612C123.372 32.2047 123.744 33.3624 124.117 33.9412C124.117 34.1341 124.303 34.3271 124.676 34.7129C125.607 35.6776 126.352 36.4494 126.539 37.2212C126.725 37.9929 126.911 38.7647 126.911 39.3435C126.911 40.1153 126.725 40.5012 126.539 40.8871L126.539 40.8871M127.284 45.1318C127.284 46.0965 126.725 47.2541 125.794 48.6047C125.421 48.9906 124.862 49.5694 124.117 50.3412C124.117 50.7271 124.117 50.92 124.117 51.3059C124.117 51.6918 123.931 51.8847 123.931 52.2706C123.744 52.4635 123.558 53.0424 122.999 53.6212C122.626 54.3929 122.067 54.9718 121.509 55.7435C121.509 55.7435 121.322 55.9365 120.95 56.1294C120.763 56.3224 120.391 56.7082 120.204 57.0941C120.577 57.2871 120.95 57.48 120.95 57.48C121.509 57.8659 121.695 58.2518 121.695 59.0235C121.695 59.4094 121.509 59.6024 121.136 59.7953C120.95 60.1812 120.577 60.1812 120.204 60.1812C119.646 60.1812 119.273 59.9882 118.9 59.4094C118.528 58.8306 118.341 58.2518 118.341 57.6729C118.341 57.2871 118.9 55.9365 120.018 54.0071C120.577 53.0424 120.763 52.2706 120.763 51.4988L120.391 49.7624L119.832 48.2188C119.832 48.0259 120.018 47.64 120.204 47.2541C120.204 47.0612 120.391 46.6753 120.577 46.2894C120.95 46.6753 121.322 46.8682 121.881 47.2541C122.254 47.2541 122.44 47.4471 122.813 47.64C122.999 47.64 123.372 47.4471 123.744 47.2541C124.303 47.0612 124.676 46.8682 124.862 46.2894C124.489 46.2894 124.303 46.0965 123.931 46.0965C123.558 45.9035 123.372 45.7106 122.999 45.5176C122.254 45.1318 121.881 44.7459 121.509 44.36C121.322 43.9741 120.95 43.3953 120.391 42.6235C120.204 42.2376 120.018 41.6588 119.832 41.08C119.459 40.5012 119.273 39.7294 119.087 39.1506L120.391 37.9929C121.136 39.3435 121.695 40.6941 122.44 42.0447C122.813 42.6235 123.372 43.0094 123.744 43.3953C124.303 43.7812 124.862 43.9741 125.235 43.9741C125.607 43.9741 125.794 43.9741 126.166 43.7812C126.539 43.5882 126.725 43.3953 126.911 43.2024C127.098 43.5882 127.284 44.36 127.284 45.1318L127.284 45.1318M127.284 75.6165L112.939 75.6165L112.939 46.6753C113.311 46.6753 113.497 46.6753 113.684 46.6753C113.87 46.6753 114.243 46.6753 114.429 46.6753C115.919 46.6753 117.224 46.2894 117.969 45.3247C118.155 45.1318 118.714 44.1671 119.832 42.2376C119.832 42.6235 120.204 43.0094 120.391 43.5882C120.763 43.9741 120.95 44.36 120.95 44.36C120.95 44.5529 120.763 44.7459 120.577 45.3247C119.832 46.6753 119.459 47.64 119.087 48.2188L118.155 49.1835L118.155 70.2141L127.284 70.2141L127.284 75.6165M126.911 64.8118C126.911 65.9694 126.539 66.7412 125.794 67.32C125.235 67.8988 124.489 68.2847 123.558 68.4776C123.372 68.6706 123.185 68.6706 122.999 68.6706C122.44 68.6706 122.067 68.2847 121.509 67.8988C121.322 67.7059 120.763 66.7412 119.459 64.8118L120.577 65.3906C120.763 65.7765 121.136 66.1624 121.509 66.5482C122.254 67.1271 122.626 67.5129 123.185 67.5129C123.931 67.5129 124.489 67.32 124.862 67.1271C125.607 66.7412 125.98 65.9694 125.98 65.1976C125.98 64.4259 125.794 63.6541 125.235 62.8824C124.862 61.9176 124.303 61.5318 123.931 61.5318C123.558 61.5318 123.372 61.7247 123.185 62.1106C123.185 62.4965 122.999 62.6894 122.999 63.0753C122.999 64.2329 123.372 65.0047 124.303 65.7765C124.303 65.7765 124.117 65.7765 123.931 65.7765C123.931 65.9694 123.744 65.9694 123.558 65.9694C123.185 65.9694 122.999 65.7765 122.999 65.7765C122.067 65.3906 121.509 64.6188 121.509 63.2682C121.509 62.6894 121.695 62.3035 122.067 61.7247C122.254 61.3388 122.813 60.9529 123.185 60.76C123.558 60.76 123.744 60.5671 123.931 60.5671C124.676 60.5671 125.421 61.1459 125.98 61.9176C126.539 62.6894 126.911 63.6541 126.911 64.8118L126.911 64.8118M126.166 82.1765C126.166 83.1412 125.794 84.1059 125.235 84.6847C124.676 85.2635 123.931 85.6494 123.185 85.8424C122.44 86.0353 121.695 85.6494 120.763 84.8776C120.204 84.1059 119.646 83.3341 119.087 82.5624C118.528 83.5271 118.155 84.2988 117.969 84.4918C117.41 85.4565 116.851 85.8424 116.106 85.8424C115.547 85.8424 114.988 85.6494 114.056 85.0706C113.311 84.4918 112.752 84.1059 112.193 83.9129C112.38 83.72 112.566 83.72 112.939 83.9129C113.311 83.9129 113.684 83.9129 113.684 83.9129C113.87 83.9129 114.056 83.9129 114.056 83.9129C114.429 83.72 114.615 83.1412 114.615 82.1765C114.615 81.7906 114.615 81.4047 114.988 81.2118C115.174 81.2118 115.547 81.0188 115.919 81.0188C116.106 81.0188 116.106 81.0188 116.292 81.0188C116.292 81.0188 116.292 81.0188 116.292 81.0188C115.919 81.5976 115.733 81.9835 115.547 82.3694C115.361 82.7553 115.174 83.3341 115.174 83.72C115.174 83.9129 115.361 84.2988 115.361 84.4918C115.547 84.6847 115.733 84.8776 116.106 84.8776C116.478 84.8776 116.665 84.6847 117.037 84.4918C117.41 84.1059 117.596 83.9129 117.782 83.5271C118.155 83.3341 118.155 82.9482 118.155 82.7553C118.155 81.9835 117.969 81.2118 117.224 80.44C116.478 79.6682 115.919 79.2824 115.174 79.2824C114.615 79.2824 113.87 79.6682 113.311 80.0541C113.311 80.2471 112.38 81.4047 110.703 83.5271L110.703 81.9835C111.262 81.2118 111.821 80.44 112.38 79.4753C113.125 78.7035 113.87 78.3176 114.615 78.3176C115.919 78.3176 117.41 79.4753 119.273 81.5976C120.95 83.72 122.254 84.8776 122.813 84.8776C123.558 84.8776 124.303 84.6847 124.676 84.1059C125.048 83.72 125.235 83.1412 125.235 82.5624C125.235 81.7906 125.048 81.0188 124.676 80.2471C124.303 79.2824 123.931 78.8965 123.558 78.8965C123.185 78.8965 122.999 79.0894 122.813 79.4753C122.813 79.8612 122.626 80.0541 122.626 80.44C122.626 81.0188 122.813 81.4047 122.999 81.9835C123.185 82.3694 123.372 82.7553 123.744 83.1412C123.558 83.1412 123.372 83.3341 123.185 83.3341C122.813 83.3341 122.813 83.1412 122.626 83.1412C121.695 82.7553 121.322 81.7906 121.322 80.6329C121.322 80.0541 121.509 79.4753 121.695 79.0894C122.067 78.7035 122.44 78.5106 122.813 78.1247C122.999 78.1247 123.372 77.9318 123.558 77.9318C124.303 77.9318 124.862 78.5106 125.421 79.2824C125.794 80.2471 126.166 81.2118 126.166 82.1765L126.166 82.1765M143.306 70.2141L143.306 66.5482L132.873 66.5482C132.873 66.3553 132.873 66.1624 132.687 65.5835C132.501 65.1976 132.501 64.8118 132.501 64.8118C132.501 59.7953 133.805 56.1294 136.227 53.4282C137.344 52.0776 139.766 50.3412 143.306 48.4118C146.287 46.8682 147.964 45.3247 148.523 43.5882L148.523 70.2141L151.69 70.2141L151.69 75.6165L125.235 75.6165L125.235 70.2141L143.306 70.2141M142.934 55.1647C142.188 55.7435 141.443 56.3224 140.512 57.2871C139.766 58.2518 139.207 59.2165 138.835 60.1812L142.934 60.1812L142.934 55.1647M149.827 24.2941C149.082 25.4518 148.336 26.0306 147.219 26.6094C146.473 27.1882 145.542 27.3812 144.61 27.3812C143.679 27.3812 142.934 27.1882 142.188 26.8024C141.629 26.2235 141.07 25.6447 140.512 24.8729C141.257 24.4871 141.816 23.9082 142.375 23.3294C142.934 22.7506 143.12 22.1718 143.12 21.7859C142.934 21.5929 142.934 21.4 142.747 21.2071C142.375 20.8212 142.188 20.6282 142.002 20.6282C141.443 20.6282 141.07 21.0141 140.698 21.7859C140.325 22.3647 140.139 23.1365 140.139 23.9082C140.139 24.1012 140.139 24.2941 140.139 24.68C139.766 24.4871 139.394 24.4871 139.207 24.4871C138.835 24.4871 138.649 24.4871 138.276 24.2941L137.717 24.8729C138.09 25.0659 138.835 25.6447 140.139 26.4165C141.07 26.8024 141.443 27.1882 141.629 27.1882C141.07 27.96 140.512 28.5388 140.139 29.3106C139.766 30.2753 139.394 31.24 139.394 32.2047C139.394 32.3976 139.394 32.7835 139.58 33.1694C139.58 33.3624 139.58 33.7482 139.58 33.7482C138.462 33.1694 137.717 32.2047 137.344 31.4329C136.785 30.4682 136.599 29.5035 136.599 28.5388C136.599 27.96 136.599 27.1882 136.785 26.6094C136.972 26.0306 137.158 25.2588 137.344 24.4871C136.785 23.9082 136.413 23.1365 136.04 22.3647C135.668 21.5929 135.481 20.6282 135.481 19.4706C135.481 19.0847 135.668 18.6988 135.668 18.3129C135.668 18.12 135.854 17.5412 136.04 17.1553C136.599 17.5412 137.158 17.9271 137.717 18.12C137.903 18.3129 138.276 18.5059 138.649 18.3129C140.139 18.5059 141.07 18.12 141.629 17.3482C142.188 16.7694 142.561 15.8047 142.561 14.6471C142.561 14.2612 142.561 13.8753 142.561 13.4894C142.561 13.1035 142.561 12.7176 142.561 12.1388C142.561 10.9812 142.375 10.0165 142.375 9.43765C142.002 8.66588 141.629 8.28 141.07 8.28C138.462 8.28 136.413 9.63059 134.922 12.5247C133.991 14.84 133.246 17.7341 132.873 21.2071C132.687 23.1365 132.501 25.2588 132.501 27.5741C132.501 28.7318 132.314 30.0824 131.942 31.4329C131.755 32.9765 131.383 34.3271 131.01 35.6776C131.01 36.4494 131.383 36.6424 132.128 36.6424C132.873 36.6424 134.177 36.2565 136.04 35.0988C133.432 38.3788 131.942 41.08 131.383 43.2024C131.383 43.7812 130.824 46.2894 130.265 50.3412C130.079 48.6047 129.706 47.0612 129.706 46.0965C129.147 42.6235 128.961 39.7294 128.961 37.6071C128.961 37.2212 128.961 36.8353 128.961 36.4494C128.961 36.0635 128.961 35.6776 128.961 35.0988C129.147 33.3624 129.52 31.4329 129.706 29.6965C130.079 28.3459 130.451 27.1882 130.637 26.4165C130.265 26.6094 130.079 26.8024 129.892 26.9953C129.706 27.1882 129.333 27.3812 128.961 27.5741C128.961 26.4165 128.961 25.6447 128.961 25.0659C129.333 23.5224 129.892 22.7506 130.637 22.9435C130.637 22.7506 130.637 22.7506 130.824 22.7506C131.01 22.5576 131.01 22.5576 131.01 22.1718C131.01 21.9788 130.637 20.8212 129.892 19.0847C129.333 17.3482 128.961 16.1906 128.961 15.6118C128.961 15.0329 129.147 14.4541 129.52 13.6824C129.892 12.9106 130.079 12.3318 130.079 11.7529C130.079 11.56 130.079 11.1741 129.892 10.9812C129.333 10.5953 128.961 10.4024 128.961 10.4024L128.961 5.57882C130.265 6.35059 131.01 7.12235 131.196 7.50824C131.383 7.89412 131.569 8.85882 131.569 10.5953C131.942 10.5953 133.059 9.82353 134.736 8.47294C136.599 6.73647 138.09 5.96471 139.021 5.96471C141.816 5.96471 143.679 6.92941 144.61 8.47294C145.355 9.82353 145.728 11.7529 145.728 14.4541C145.728 14.84 145.728 15.4188 145.728 16.3835C145.728 17.1553 145.728 17.9271 145.728 18.3129C145.728 20.2424 145.914 21.7859 146.473 22.5576C147.032 23.7153 148.15 24.2941 149.827 24.2941L149.827 24.2941M146.473 25.0659C145.728 24.2941 144.797 23.5224 144.051 22.7506C143.865 23.5224 143.679 24.1012 143.492 24.2941C143.12 24.68 142.934 24.8729 142.747 25.0659C143.12 25.2588 143.306 25.4518 143.679 25.4518C144.051 25.6447 144.238 25.6447 144.61 25.6447C145.169 25.6447 145.728 25.4518 146.473 25.0659L146.473 25.0659M139.394 20.0494C139.021 20.0494 138.462 19.8565 138.09 19.8565C137.531 19.6635 137.344 19.6635 137.158 19.6635C137.158 20.6282 137.344 21.4 137.717 21.7859C137.903 21.9788 138.276 22.1718 138.835 22.1718C138.835 21.7859 138.835 21.2071 139.021 21.0141C139.207 20.6282 139.394 20.2424 139.394 20.0494L139.394 20.0494M135.295 79.2824C134.736 79.4753 134.364 79.8612 133.805 80.44C133.246 81.2118 133.059 81.9835 133.059 82.7553C133.059 82.9482 133.246 83.3341 133.432 83.72C133.618 83.9129 133.805 84.2988 133.991 84.4918C134.177 84.6847 134.364 84.8776 134.736 84.8776C134.922 84.8776 135.109 84.6847 135.109 84.4918C135.295 84.2988 135.295 84.1059 135.295 83.72C135.295 83.3341 135.295 82.9482 135.109 82.5624C134.922 81.9835 134.736 81.5976 134.55 81.2118C134.736 81.2118 135.109 81.2118 135.295 81.2118C135.481 81.4047 135.668 81.5976 135.668 82.3694C135.668 83.3341 135.854 83.72 136.04 83.9129C136.227 84.1059 136.413 83.9129 136.599 83.9129C136.972 83.72 137.158 83.72 137.158 83.72C137.344 83.72 137.344 83.72 137.531 83.9129C136.972 84.4918 136.413 84.8776 135.854 85.4565C135.481 85.8424 135.109 85.8424 134.736 85.8424C134.364 85.8424 133.991 85.6494 133.618 85.0706C133.246 84.1059 132.873 83.3341 132.501 82.5624C132.128 83.5271 131.569 84.4918 131.01 85.2635C130.451 85.8424 130.079 86.0353 129.706 85.8424C129.147 85.6494 128.588 85.2635 128.216 84.6847C127.843 84.1059 127.657 83.1412 127.657 82.1765C127.657 81.0188 127.843 80.0541 128.216 79.2824C128.588 78.3176 128.961 77.9318 129.333 77.9318C129.52 77.9318 129.706 77.9318 129.892 78.1247C130.265 78.3176 130.451 78.7035 130.637 79.0894C131.01 79.4753 131.01 80.0541 131.01 80.6329C131.01 81.2118 131.01 81.7906 130.824 82.1765C130.637 82.5624 130.451 82.9482 130.079 83.1412C130.079 83.1412 129.892 83.3341 129.706 83.3341C129.52 83.3341 129.333 83.3341 129.333 83.1412C129.147 83.1412 129.147 83.1412 129.147 83.1412C129.706 82.3694 130.079 81.5976 130.079 80.44C130.079 80.2471 129.892 79.8612 129.892 79.4753C129.706 79.0894 129.706 78.8965 129.52 78.8965C129.147 78.8965 128.774 79.2824 128.588 80.2471C128.216 81.2118 128.029 81.9835 128.029 82.7553C128.029 83.5271 128.402 84.1059 128.774 84.4918C129.147 84.6847 129.52 84.8776 129.892 84.8776C130.265 84.8776 131.196 83.72 132.501 81.5976C133.618 79.4753 134.736 78.3176 135.668 78.3176C136.599 78.3176 137.531 79.4753 138.649 81.5976C139.766 83.72 140.512 84.8776 141.257 84.8776C141.443 84.8776 141.629 84.8776 141.816 84.6847C142.747 84.2988 143.306 83.72 143.492 83.1412C143.865 82.7553 144.051 81.9835 144.051 81.4047L144.051 81.0188C144.051 80.6329 143.865 80.0541 143.492 79.8612C143.306 79.4753 142.934 79.2824 142.747 79.2824C142.747 79.2824 142.561 79.4753 142.375 79.6682C142.188 80.0541 142.188 80.2471 142.188 80.6329C142.188 81.0188 142.375 81.4047 142.375 81.7906C142.561 82.3694 142.747 82.7553 143.12 83.1412C142.747 83.1412 142.561 82.9482 142.375 82.9482C142.002 82.5624 141.816 82.1765 141.816 81.5976C141.816 81.0188 141.629 80.8259 141.629 80.44C141.443 80.2471 141.443 80.0541 141.257 80.0541C140.884 80.2471 140.512 80.2471 140.325 80.2471C140.139 80.2471 139.953 80.2471 139.953 80.0541C140.698 79.4753 141.07 79.2824 141.257 79.0894C141.816 78.7035 142.375 78.5106 142.934 78.3176C143.306 78.3176 143.679 78.7035 144.051 79.6682C144.238 80.0541 144.61 80.6329 144.983 81.5976C144.983 81.5976 145.355 81.0188 145.914 80.0541C146.66 78.7035 147.219 78.1247 147.777 78.3176C148.523 78.5106 148.895 78.8965 149.268 79.4753C149.827 80.0541 150.013 81.0188 150.013 81.9835C150.013 83.1412 149.827 84.1059 149.454 84.8776C149.082 85.8424 148.709 86.2282 148.15 86.2282C148.15 86.2282 147.964 86.0353 147.777 86.0353C147.405 85.6494 147.032 85.4565 146.846 85.0706C146.66 84.6847 146.66 84.1059 146.66 83.5271C146.66 82.3694 146.846 81.5976 147.591 81.0188C147.591 81.0188 147.964 81.0188 148.15 81.0188C148.15 81.0188 148.336 81.0188 148.336 81.0188C148.15 81.4047 147.964 81.7906 147.777 82.1765C147.591 82.7553 147.591 83.1412 147.591 83.5271C147.591 83.9129 147.591 84.2988 147.777 84.6847C147.777 84.8776 147.964 85.0706 148.15 85.0706C148.336 85.0706 148.709 84.6847 148.895 83.9129C149.268 83.1412 149.454 82.3694 149.454 81.5976C149.454 80.8259 149.268 80.2471 148.895 79.8612C148.523 79.4753 148.15 79.2824 147.591 79.2824C147.591 79.2824 146.287 80.8259 144.051 84.1059C143.12 85.4565 142.188 86.0353 141.257 86.0353C140.325 86.0353 139.394 84.8776 138.09 82.5624C136.972 80.2471 136.04 79.2824 135.295 79.2824L135.295 79.2824M146.101 37.2212C146.287 37.8 146.473 38.3788 146.473 39.1506C146.473 40.6941 145.728 42.0447 144.424 42.8165C144.238 42.8165 143.865 43.0094 143.492 43.0094C143.12 43.2024 142.934 43.2024 142.561 43.2024C142.002 43.2024 141.443 43.0094 140.884 42.6235C140.325 42.4306 139.766 41.8518 139.394 41.2729C139.021 40.5012 138.835 39.7294 138.835 38.9576C138.835 37.6071 139.207 36.4494 140.325 35.6776C141.07 35.2918 141.816 35.0988 142.561 35.0988C144.238 35.0988 145.355 35.8706 146.101 37.2212L146.101 37.2212M170.507 36.6424C170.507 36.6424 170.134 36.6424 169.948 36.6424C169.575 36.6424 169.389 36.6424 169.202 36.6424C169.016 36.6424 169.016 36.6424 168.83 36.6424C168.644 36.6424 168.644 36.6424 168.457 36.6424C168.085 36.6424 167.526 36.8353 166.967 37.0282C166.594 37.2212 166.222 37.4141 165.849 37.6071L164.359 35.6776C164.731 35.4847 164.917 35.0988 165.104 34.7129C165.29 34.3271 165.29 33.7482 165.29 33.1694C165.29 32.7835 165.29 32.3976 165.29 32.2047C165.29 27.7671 165.29 24.8729 165.29 23.1365C165.29 21.4 165.29 19.8565 165.29 18.3129C164.917 17.5412 164.731 16.9624 164.545 16.5765C163.8 15.4188 162.868 14.4541 161.75 14.0682C162.868 13.2965 163.8 12.7176 164.172 12.5247C165.29 11.56 166.408 10.5953 167.339 9.43765C167.898 8.85882 168.644 7.89412 169.389 6.73647C169.575 6.35059 169.948 5.77176 170.507 5L170.507 36.6424M161.191 16.1906C161.378 16.5765 161.564 16.9624 161.75 17.3482C161.937 17.9271 161.937 18.3129 161.937 18.6988C161.937 19.4706 161.75 20.0494 161.191 20.2424C159.328 21.0141 157.838 21.7859 156.72 22.9435C155.416 24.1012 154.671 25.6447 154.112 27.1882C154.112 26.9953 153.925 26.6094 153.925 26.2235C153.925 25.8376 153.925 25.6447 153.925 25.2588C153.925 24.1012 154.112 22.9435 154.484 21.9788C154.484 21.7859 154.484 21.5929 154.671 21.2071C154.112 20.4353 153.553 19.8565 153.18 19.0847C152.621 18.5059 152.249 17.7341 152.062 16.9624C151.876 16.1906 151.69 15.4188 151.69 14.84C151.69 14.0682 151.876 13.4894 152.062 12.9106C152.249 12.7176 152.435 12.1388 152.994 11.1741C153.553 10.4024 153.925 9.63059 154.112 8.85882C154.112 8.28 154.298 7.50824 154.298 6.73647C154.298 6.15765 154.298 5.57882 154.112 5L155.043 6.92941C155.23 7.50824 155.416 8.28 155.789 9.05176C156.161 9.82353 156.906 10.5953 158.397 11.3671C158.769 11.56 159.142 11.9459 159.515 12.5247C159.887 13.1035 160.074 13.6824 160.074 14.2612C160.074 14.6471 159.887 14.84 159.701 15.2259C159.328 15.9976 158.583 16.3835 157.838 16.3835C157.279 16.3835 156.906 16.3835 156.72 16.1906C156.347 15.9976 156.161 15.6118 155.975 15.4188C155.975 15.2259 155.975 15.0329 155.975 15.0329C155.975 14.84 155.975 14.6471 155.975 14.4541C156.161 14.2612 156.161 14.0682 156.347 14.0682C156.347 13.8753 156.72 13.8753 156.906 13.6824C157.279 13.6824 157.652 13.6824 158.21 14.0682C158.397 14.2612 158.769 14.4541 159.142 14.6471C159.142 14.0682 158.956 13.6824 158.769 13.2965C158.769 12.9106 158.397 12.5247 158.024 12.3318C157.465 12.1388 157.093 11.9459 156.347 11.9459C155.23 11.9459 154.112 12.5247 153.553 13.4894C153.367 13.8753 153.367 14.4541 153.367 15.0329C153.367 15.8047 153.553 16.5765 153.925 17.3482C154.298 18.3129 155.043 19.0847 155.975 19.6635C156.534 19.8565 157.093 20.0494 157.465 20.0494C157.652 20.0494 158.024 20.0494 158.21 19.8565C158.769 19.6635 159.142 19.4706 159.328 19.4706C159.887 19.4706 160.26 18.8918 160.446 18.3129C160.819 17.1553 161.005 16.3835 161.191 16.1906L161.191 16.1906M170.693 42.0447C169.948 42.4306 169.202 42.6235 168.644 43.0094C167.526 43.5882 166.594 44.36 165.849 45.1318C165.29 44.7459 165.104 44.36 165.104 44.1671C165.476 43.7812 165.663 43.5882 165.849 43.3953C166.594 42.6235 167.339 42.2376 167.898 42.0447C167.712 41.4659 166.78 40.6941 165.104 39.1506C163.054 37.6071 161.564 36.6424 160.446 36.6424C159.887 36.6424 159.515 36.8353 159.142 37.0282C159.142 37.0282 158.956 37.2212 158.583 37.8C158.769 37.8 159.142 37.8 159.515 37.8C159.887 37.8 160.26 37.9929 160.632 37.9929C160.819 38.1859 161.005 38.3788 161.191 38.3788C161.378 38.5718 161.75 38.9576 161.937 39.5365C161.75 39.7294 161.75 39.7294 161.75 39.9224C161.564 40.3082 161.191 40.8871 160.632 41.6588C160.632 41.4659 160.632 41.08 160.446 40.6941C160.26 40.5012 160.074 40.1153 159.701 40.1153C159.328 39.9224 158.956 39.9224 158.583 39.9224C158.21 39.9224 157.838 39.9224 157.652 40.1153C157.279 40.5012 157.093 40.6941 156.906 40.6941C156.72 40.3082 156.534 39.7294 156.534 39.1506C156.534 38.5718 156.72 37.8 156.906 37.0282C157.093 36.2565 157.652 35.6776 158.21 34.9059C158.769 34.3271 159.142 33.9412 159.328 33.7482C159.701 32.7835 159.887 31.6259 160.26 30.4682C160.819 29.5035 161.75 28.3459 163.054 26.8024C162.868 26.6094 162.495 26.4165 162.309 26.2235C161.937 25.8376 161.75 25.4518 161.75 25.0659C161.75 24.68 161.937 24.1012 162.309 23.7153C162.495 23.5224 162.868 23.3294 163.241 23.1365C163.8 23.3294 163.986 23.3294 164.172 23.5224C164.545 23.7153 164.731 24.1012 164.917 24.8729C165.104 24.8729 165.104 25.0659 165.104 25.2588C165.104 25.6447 164.917 26.2235 164.731 26.8024C164.731 26.9953 164.545 27.1882 164.359 27.3812C163.8 27.96 163.427 28.7318 163.241 29.5035C162.868 30.2753 162.682 31.0471 162.682 31.8188C162.682 32.3976 162.682 32.9765 162.868 33.3624C163.054 33.7482 163.054 34.1341 163.054 34.1341C163.054 34.9059 163.986 36.0635 165.849 37.6071C167.339 39.1506 169.016 40.5012 170.693 41.6588L170.693 42.0447M157.465 30.0824C157.652 30.4682 157.652 30.6612 157.652 31.0471C157.652 31.6259 157.465 32.2047 157.093 32.7835C156.906 33.3624 156.534 33.7482 155.975 33.9412C154.484 34.9059 153.553 35.8706 153.18 36.8353C152.994 37.4141 152.808 37.9929 152.621 38.3788L151.69 40.3082C152.062 37.9929 152.249 36.0635 152.249 34.52C152.249 33.5553 152.062 32.5906 152.062 31.8188C151.876 31.4329 151.876 31.24 151.69 30.8541C152.062 31.6259 152.621 32.2047 153.18 32.5906C153.739 33.1694 154.298 33.3624 154.671 33.3624C155.043 33.3624 155.416 33.3624 155.602 33.1694C155.975 32.7835 156.347 32.5906 156.534 32.2047C156.72 31.8188 156.72 31.24 156.72 30.6612C156.72 30.6612 156.347 30.8541 155.975 31.24C155.416 31.6259 154.857 31.8188 154.671 31.6259C154.112 31.4329 153.739 31.24 153.739 31.0471C153.553 30.8541 153.553 30.6612 153.553 30.4682C153.553 30.2753 153.553 30.0824 153.553 29.8894C153.739 29.6965 153.925 29.5035 154.298 29.3106C154.671 29.1176 155.043 28.9247 155.416 28.9247C156.347 28.9247 156.906 29.3106 157.465 30.0824L157.465 30.0824M164.917 57.6729C164.917 58.2518 164.731 58.8306 164.545 59.4094C164.172 59.9882 163.8 60.1812 163.241 60.1812C162.868 60.1812 162.495 60.1812 162.309 59.7953C161.937 59.6024 161.75 59.4094 161.75 59.0235C161.75 58.4447 161.937 58.0588 162.123 57.8659C162.309 57.6729 162.682 57.2871 163.241 57.0941C163.054 56.7082 162.868 56.5153 162.682 56.3224C162.309 55.9365 162.309 55.7435 162.309 55.7435C162.123 55.7435 161.937 55.7435 161.937 55.7435C161.937 55.5506 161.75 55.1647 161.191 54.3929C160.632 53.6212 160.074 52.8494 159.515 52.0776C159.515 51.8847 159.328 51.6918 159.328 51.3059C159.328 50.7271 159.328 50.5341 159.328 50.3412C158.583 49.7624 158.024 49.3765 157.652 48.9906C156.72 47.8329 156.161 46.4824 156.161 45.1318L156.534 43.2024C156.72 43.3953 156.906 43.5882 157.279 43.7812C157.652 43.9741 158.024 43.9741 158.21 43.9741C158.583 43.9741 158.956 43.7812 159.515 43.3953C160.074 43.0094 160.446 42.6235 161.005 42.0447C161.378 41.4659 161.75 40.8871 162.123 39.9224C162.682 38.9576 162.868 38.1859 162.868 37.9929L164.359 39.1506C164.172 39.7294 163.986 40.3082 163.613 41.08C163.427 41.6588 163.241 42.2376 162.868 42.6235C162.495 43.3953 162.123 43.9741 161.937 44.1671C161.564 44.7459 161.191 45.1318 160.446 45.5176C160.26 45.7106 160.074 45.9035 159.701 45.9035C159.328 46.0965 158.956 46.2894 158.583 46.2894C158.769 46.6753 159.142 47.0612 159.515 47.2541C160.074 47.4471 160.26 47.64 160.632 47.64C161.005 47.4471 161.191 47.2541 161.378 47.2541C161.937 46.8682 162.495 46.6753 162.868 46.2894C162.868 46.6753 163.054 47.0612 163.241 47.4471C163.427 47.8329 163.427 48.0259 163.427 48.0259L162.868 49.7624L162.495 51.4988C162.495 52.2706 162.868 53.0424 163.241 54.0071C164.359 55.9365 164.917 57.2871 164.917 57.6729L164.917 57.6729M160.632 58.4447C160.819 58.8306 161.005 59.2165 161.191 59.7953C161.378 60.3741 161.378 60.76 161.378 61.1459C161.378 61.7247 161.191 62.3035 160.632 62.4965C158.769 63.2682 157.279 64.2329 156.161 65.1976C154.857 66.5482 154.112 67.8988 153.553 69.4424C153.553 69.2494 153.367 68.8635 153.367 68.6706C153.367 68.2847 153.367 67.8988 153.367 67.5129C153.367 66.3553 153.553 65.3906 153.925 64.2329C153.925 64.04 153.925 63.8471 154.112 63.6541C153.553 62.8824 152.994 62.1106 152.621 61.5318C152.062 60.9529 151.69 60.1812 151.504 59.4094C151.317 58.6376 151.131 57.8659 151.131 57.2871C151.131 56.5153 151.317 55.9365 151.504 55.3576C151.69 55.1647 151.876 54.5859 152.435 53.6212C152.994 52.8494 153.367 52.0776 153.553 51.3059C153.553 50.7271 153.739 49.9553 153.739 49.1835C153.739 48.6047 153.739 48.0259 153.553 47.4471L154.484 49.1835C154.671 49.9553 155.043 50.7271 155.23 51.4988C155.602 52.0776 156.534 52.8494 157.838 53.8141C158.21 54.0071 158.583 54.3929 158.956 54.9718C159.328 55.5506 159.515 56.1294 159.515 56.7082C159.515 57.0941 159.328 57.2871 159.328 57.6729C158.769 58.4447 158.024 58.8306 157.279 58.8306C156.72 58.8306 156.347 58.6376 156.161 58.4447C155.789 58.2518 155.602 58.0588 155.416 57.8659C155.416 57.6729 155.416 57.48 155.416 57.2871C155.416 57.0941 155.416 56.9012 155.416 56.7082C155.602 56.7082 155.602 56.5153 155.789 56.3224C155.975 56.3224 156.161 56.1294 156.347 56.1294C156.72 55.9365 157.279 56.1294 157.652 56.3224C158.024 56.5153 158.21 56.7082 158.583 56.9012C158.583 56.5153 158.397 55.9365 158.397 55.5506C158.21 55.3576 157.838 54.9718 157.465 54.7788C156.906 54.3929 156.534 54.3929 155.975 54.3929C154.671 54.3929 153.739 54.7788 152.994 55.9365C152.808 56.3224 152.808 56.7082 152.808 57.48C152.808 58.2518 152.994 59.0235 153.367 59.7953C153.739 60.76 154.484 61.5318 155.416 62.1106C155.975 62.3035 156.534 62.4965 156.906 62.4965C157.093 62.4965 157.279 62.4965 157.652 62.3035C158.21 62.1106 158.583 62.1106 158.769 61.9176C159.328 61.9176 159.701 61.3388 159.887 60.5671C160.26 59.4094 160.446 58.6376 160.632 58.4447L160.632 58.4447M170.32 75.6165L170.32 77.9318C170.32 79.2824 169.575 80.6329 167.898 82.1765C166.222 83.9129 164.172 84.8776 161.937 85.2635C161.75 85.2635 161.378 85.6494 161.191 86.0353C160.819 86.6141 160.446 87 160.26 87C160.074 87 159.701 86.6141 159.328 86.2282C158.956 85.6494 158.769 85.2635 158.583 85.2635C156.347 84.6847 154.671 83.5271 153.553 81.7906C152.435 80.0541 151.876 77.9318 151.876 75.6165L149.082 75.6165L149.082 70.2141L156.347 70.2141L156.347 75.6165C156.347 76.5812 156.72 77.5459 157.279 78.5106C158.024 79.6682 158.956 80.2471 160.26 80.2471C161.75 80.2471 163.054 79.8612 163.986 78.7035C164.731 77.9318 165.104 76.9671 165.29 75.6165L165.29 52.4635C165.29 51.3059 165.29 50.5341 165.29 50.1482C165.29 49.9553 165.29 49.5694 165.29 49.1835L164.359 48.2188C163.986 47.64 163.427 46.6753 162.868 45.3247C162.682 44.7459 162.495 44.5529 162.309 44.36L163.427 42.0447C164.545 44.1671 165.29 45.1318 165.29 45.3247C166.222 46.2894 167.339 46.6753 169.016 46.6753C169.202 46.6753 169.575 46.6753 170.32 46.6753L170.32 70.2141L170.32 75.6165M163.054 77.3529L162.309 75.4235C161.937 74.8447 161.75 74.0729 161.564 73.3012C161.191 72.5294 160.26 71.7576 158.956 70.9859C158.397 70.7929 158.024 70.4071 157.838 69.8282C157.465 69.2494 157.279 68.6706 157.279 68.0918C157.279 67.7059 157.279 67.5129 157.465 67.1271C158.024 66.3553 158.583 65.9694 159.515 65.9694C159.887 65.9694 160.26 65.9694 160.632 66.1624C161.005 66.3553 161.191 66.5482 161.191 66.7412C161.378 66.9341 161.378 67.1271 161.378 67.32C161.378 67.5129 161.378 67.7059 161.191 67.8988C161.191 68.0918 161.005 68.2847 161.005 68.2847C160.819 68.4776 160.632 68.4776 160.26 68.6706C159.887 68.8635 159.515 68.6706 159.142 68.4776C158.769 68.2847 158.397 68.0918 158.21 67.7059C158.21 68.2847 158.21 68.6706 158.397 69.0565C158.583 69.4424 158.769 69.8282 159.328 70.0212C159.701 70.2141 159.887 70.2141 160.26 70.2141C160.632 70.2141 161.191 70.0212 161.75 69.6353C162.309 69.2494 162.682 68.6706 163.054 67.8988C163.054 68.4776 162.868 68.8635 162.868 69.2494C162.682 70.0212 162.682 70.7929 162.682 71.5647C162.682 73.1082 162.868 75.0376 163.054 77.3529L163.054 77.3529M190.255 18.12C190.255 18.6988 190.068 19.4706 189.51 20.4353C188.951 21.2071 188.392 21.9788 188.205 22.5576C188.019 22.3647 188.019 22.3647 188.019 22.1718C188.019 21.9788 188.019 21.5929 188.205 21.2071C188.205 21.0141 188.205 20.8212 188.205 20.6282C188.205 20.6282 188.205 20.4353 188.205 20.2424C188.019 19.8565 187.46 19.6635 186.715 19.6635C186.342 19.6635 185.97 19.6635 185.783 19.2776C185.783 19.0847 185.597 18.6988 185.597 18.12C185.597 17.9271 185.597 17.9271 185.597 17.7341C185.597 17.7341 185.597 17.5412 185.597 17.5412C186.342 18.5059 187.274 18.8918 188.019 18.8918C188.205 18.8918 188.578 18.8918 188.764 18.6988C188.951 18.5059 189.137 18.3129 189.137 17.9271C189.137 17.5412 188.951 17.1553 188.764 16.7694C188.392 16.3835 188.205 15.9976 187.833 15.8047C187.647 15.6118 187.274 15.4188 187.088 15.4188C186.342 15.4188 185.597 15.8047 185.038 16.5765C184.293 17.5412 183.92 18.12 183.92 18.8918C183.92 19.6635 184.107 20.4353 184.666 21.0141C184.852 21.2071 185.97 22.1718 188.019 24.1012L186.529 24.1012C185.783 23.5224 184.852 22.7506 184.107 22.1718C183.175 21.4 182.803 20.6282 182.803 19.6635C182.803 18.12 183.92 16.3835 185.97 14.2612C188.019 12.3318 189.137 10.9812 189.137 10.2094C189.137 9.63059 188.951 9.05176 188.764 8.47294C188.392 7.70118 187.833 7.31529 187.274 7.31529C186.342 7.31529 185.411 7.50824 184.666 8.08706C183.734 8.47294 183.362 9.05176 183.362 9.43765C183.362 9.82353 183.548 10.0165 183.92 10.2094C184.293 10.4024 184.666 10.4024 185.038 10.4024C185.97 10.4024 186.901 10.0165 187.647 9.05176C187.647 9.05176 187.647 9.24471 187.647 9.43765C187.647 9.63059 187.647 9.63059 187.647 9.82353C187.647 10.2094 187.647 10.4024 187.647 10.4024C187.088 11.56 186.342 11.9459 185.038 11.9459C184.479 11.9459 183.92 11.7529 183.548 11.56C183.175 11.1741 182.803 10.7882 182.616 10.2094C182.43 10.0165 182.43 9.63059 182.43 9.43765C182.43 8.66588 182.803 7.89412 183.734 7.31529C184.479 6.73647 185.411 6.35059 186.529 6.35059C187.647 6.35059 188.392 6.73647 189.137 7.50824C189.696 8.08706 190.068 8.85882 190.255 10.0165C190.255 10.0165 190.255 10.2094 190.255 10.4024C190.255 11.1741 189.882 11.9459 189.137 12.7176C188.392 13.4894 187.647 14.0682 187.088 14.6471C188.019 15.4188 188.578 15.8047 188.951 15.9976C189.882 16.5765 190.255 17.3482 190.255 18.12L190.255 18.12M185.038 14.0682C183.92 14.4541 182.989 15.4188 182.244 16.5765C182.057 16.9624 181.871 17.5412 181.498 18.3129L181.498 32.2047C181.498 32.9765 181.498 33.7482 181.685 34.3271C181.685 34.9059 181.871 35.4847 182.244 35.6776C181.871 36.0635 181.685 36.2565 181.498 36.4494C180.753 37.0282 180.381 37.4141 180.194 37.6071C179.822 37.4141 179.635 37.2212 179.263 36.8353C178.89 36.8353 178.704 36.6424 178.331 36.6424C178.145 36.6424 177.959 36.6424 177.586 36.6424C177.4 36.6424 177.213 36.6424 177.027 36.6424C176.841 36.6424 176.655 36.6424 176.282 36.6424L176.282 5C176.841 5.77176 177.213 6.15765 177.4 6.54353C178.331 7.89412 179.077 8.85882 179.635 9.43765C180.381 10.4024 181.126 11.1741 182.057 11.9459C182.803 12.5247 183.734 13.2965 185.038 14.0682L185.038 14.0682M189.882 40.8871C189.696 40.6941 189.51 40.5012 189.137 40.3082C188.764 40.3082 188.578 40.1153 188.205 40.1153C187.833 40.1153 187.46 40.1153 187.088 40.3082C186.715 40.5012 186.529 40.6941 186.342 41.08C186.156 41.2729 185.97 41.6588 185.97 41.8518C185.783 41.4659 185.411 40.8871 185.038 40.1153C185.038 40.1153 185.038 39.9224 184.852 39.7294C185.038 39.3435 185.225 39.1506 185.411 38.9576C185.597 38.7647 185.783 38.5718 186.156 38.1859C186.342 38.1859 186.529 38.1859 186.901 37.9929C187.088 37.9929 187.46 37.9929 187.833 37.9929C188.019 37.9929 188.205 37.9929 188.205 37.9929L188.205 37.9929C187.833 37.6071 187.647 37.2212 187.46 37.2212C187.274 37.0282 186.901 36.8353 186.342 36.8353C185.411 36.8353 184.107 37.4141 182.803 38.3788C180.567 40.1153 179.263 41.2729 178.704 42.0447C179.449 42.4306 180.008 42.8165 180.753 43.3953C180.94 43.3953 181.312 43.7812 181.498 43.9741C181.498 44.1671 181.312 44.36 181.126 44.5529C181.126 44.7459 180.94 44.9388 180.753 45.1318C180.008 44.36 179.077 43.7812 177.772 43.0094C177.4 42.8165 176.655 42.6235 175.723 42.2376L175.723 41.8518C177.586 40.5012 179.263 39.3435 180.753 37.9929C182.616 36.2565 183.548 35.0988 183.548 34.52C183.734 34.1341 183.92 33.7482 183.92 33.3624C184.107 32.9765 184.107 32.5906 184.107 32.2047C184.107 31.0471 183.92 30.0824 183.362 29.1176C182.989 28.7318 182.803 28.1529 182.43 27.7671C182.244 27.3812 182.057 27.1882 182.057 26.9953C181.871 26.4165 181.685 25.8376 181.685 25.4518C181.685 25.2588 181.685 25.2588 181.685 25.0659C182.057 24.4871 182.244 23.9082 182.43 23.7153C182.616 23.5224 182.989 23.5224 183.548 23.5224C183.92 23.5224 184.293 23.7153 184.479 24.1012C184.852 24.4871 185.038 24.8729 185.038 25.2588C185.038 25.8376 184.852 26.2235 184.479 26.4165C183.92 26.8024 183.548 26.9953 183.548 26.9953C185.038 28.5388 185.97 29.6965 186.529 30.6612C186.715 32.2047 187.088 33.3624 187.46 33.9412C187.46 34.1341 187.647 34.3271 188.019 34.7129C188.951 35.6776 189.696 36.4494 189.882 37.2212C190.068 37.9929 190.255 38.7647 190.255 39.3435C190.255 40.1153 190.068 40.5012 189.882 40.8871L189.882 40.8871M190.627 45.1318C190.627 46.0965 190.068 47.2541 189.137 48.6047C188.764 48.9906 188.205 49.5694 187.46 50.3412C187.46 50.7271 187.46 50.92 187.46 51.3059C187.46 51.6918 187.274 51.8847 187.274 52.2706C187.088 52.4635 186.901 53.0424 186.342 53.6212C185.97 54.3929 185.411 54.9718 184.852 55.7435C184.852 55.7435 184.666 55.9365 184.293 56.1294C184.107 56.3224 183.734 56.7082 183.548 57.0941C183.92 57.2871 184.293 57.48 184.293 57.48C184.852 57.8659 185.038 58.2518 185.038 59.0235C185.038 59.4094 184.852 59.6024 184.479 59.7953C184.293 60.1812 183.92 60.1812 183.548 60.1812C182.989 60.1812 182.616 59.9882 182.244 59.4094C181.871 58.8306 181.685 58.2518 181.685 57.6729C181.685 57.2871 182.244 55.9365 183.362 54.0071C183.92 53.0424 184.107 52.2706 184.107 51.4988L183.734 49.7624L183.175 48.2188C183.175 48.0259 183.362 47.64 183.548 47.2541C183.548 47.0612 183.734 46.6753 183.92 46.2894C184.293 46.6753 184.666 46.8682 185.225 47.2541C185.597 47.2541 185.783 47.4471 186.156 47.64C186.342 47.64 186.715 47.4471 187.088 47.2541C187.647 47.0612 188.019 46.8682 188.205 46.2894C187.833 46.2894 187.647 46.0965 187.274 46.0965C186.901 45.9035 186.715 45.7106 186.342 45.5176C185.597 45.1318 185.225 44.7459 184.852 44.36C184.666 43.9741 184.293 43.3953 183.734 42.6235C183.548 42.2376 183.362 41.6588 183.175 41.08C182.803 40.5012 182.616 39.7294 182.43 39.1506L183.734 37.9929C184.479 39.3435 185.038 40.6941 185.783 42.0447C186.156 42.6235 186.715 43.0094 187.088 43.3953C187.647 43.7812 188.205 43.9741 188.578 43.9741C188.951 43.9741 189.137 43.9741 189.51 43.7812C189.882 43.5882 190.068 43.3953 190.255 43.2024C190.441 43.5882 190.627 44.36 190.627 45.1318L190.627 45.1318M191 75.6165L176.282 75.6165L176.282 46.6753C176.655 46.6753 176.841 46.6753 177.027 46.6753C177.214 46.6753 177.586 46.6753 177.772 46.6753C179.263 46.6753 180.567 46.2894 181.312 45.3247C181.498 45.1318 182.057 44.1671 183.175 42.2376C183.175 42.6235 183.548 43.0094 183.734 43.5882C184.107 43.9741 184.293 44.36 184.293 44.36C184.293 44.5529 184.107 44.7459 183.92 45.3247C183.175 46.6753 182.803 47.64 182.43 48.2188L181.498 49.1835L181.498 70.2141L187.088 70.2141C186.529 70.9859 186.156 71.7576 186.156 72.3365C186.156 72.7224 186.156 72.9153 186.156 72.9153C186.342 73.88 187.088 74.4588 188.578 75.0376C189.137 75.2306 189.882 75.4235 191 75.6165L191 75.6165M190.255 64.8118C190.255 65.9694 189.882 66.7412 189.137 67.32C188.578 67.8988 187.833 68.2847 186.901 68.4776C186.715 68.6706 186.529 68.6706 186.342 68.6706C185.783 68.6706 185.411 68.2847 184.852 67.8988C184.666 67.7059 184.107 66.7412 182.803 64.8118L183.92 65.3906C184.107 65.7765 184.479 66.1624 184.852 66.5482C185.597 67.1271 185.97 67.5129 186.529 67.5129C187.274 67.5129 187.833 67.32 188.205 67.1271C188.951 66.7412 189.323 65.9694 189.323 65.1976C189.323 64.4259 189.137 63.6541 188.578 62.8824C188.205 61.9176 187.647 61.5318 187.274 61.5318C186.901 61.5318 186.715 61.7247 186.529 62.1106C186.529 62.4965 186.342 62.6894 186.342 63.0753C186.342 64.2329 186.715 65.0047 187.647 65.7765C187.647 65.7765 187.46 65.7765 187.274 65.7765C187.274 65.9694 187.088 65.9694 186.901 65.9694C186.529 65.9694 186.342 65.7765 186.342 65.7765C185.411 65.3906 184.852 64.6188 184.852 63.2682C184.852 62.6894 185.038 62.3035 185.411 61.7247C185.597 61.3388 186.156 60.9529 186.529 60.76C186.901 60.76 187.088 60.5671 187.274 60.5671C188.019 60.5671 188.764 61.1459 189.323 61.9176C189.882 62.6894 190.255 63.6541 190.255 64.8118L190.255 64.8118M189.51 82.1765C189.51 83.1412 189.137 84.1059 188.578 84.6847C188.019 85.2635 187.274 85.6494 186.529 85.8424C185.783 86.0353 185.038 85.6494 184.107 84.8776C183.548 84.1059 182.989 83.3341 182.43 82.5624C181.871 83.5271 181.498 84.2988 181.312 84.4918C180.753 85.4565 180.194 85.8424 179.449 85.8424C178.89 85.8424 178.331 85.6494 177.4 85.0706C176.655 84.4918 176.096 84.1059 175.537 83.9129C175.723 83.72 175.909 83.72 176.282 83.9129C176.655 83.9129 177.027 83.9129 177.027 83.9129C177.214 83.9129 177.4 83.9129 177.4 83.9129C177.772 83.72 177.959 83.1412 177.959 82.1765C177.959 81.7906 177.959 81.4047 178.331 81.2118C178.518 81.2118 178.89 81.0188 179.263 81.0188C179.449 81.0188 179.449 81.0188 179.635 81.0188C179.635 81.0188 179.635 81.0188 179.635 81.0188C179.263 81.5976 179.077 81.9835 178.89 82.3694C178.704 82.7553 178.518 83.3341 178.518 83.72C178.518 83.9129 178.704 84.2988 178.704 84.4918C178.89 84.6847 179.077 84.8776 179.449 84.8776C179.822 84.8776 180.008 84.6847 180.381 84.4918C180.753 84.1059 180.94 83.9129 181.126 83.5271C181.498 83.3341 181.498 82.9482 181.498 82.7553C181.498 81.9835 181.312 81.2118 180.567 80.44C179.822 79.6682 179.263 79.2824 178.518 79.2824C177.959 79.2824 177.213 79.6682 176.655 80.0541C176.655 80.2471 175.723 81.4047 174.046 83.5271L174.046 81.9835C174.605 81.2118 175.164 80.44 175.723 79.4753C176.468 78.7035 177.213 78.3176 177.959 78.3176C179.263 78.3176 180.753 79.4753 182.616 81.5976C184.293 83.72 185.597 84.8776 186.156 84.8776C186.901 84.8776 187.647 84.6847 188.019 84.1059C188.392 83.72 188.578 83.1412 188.578 82.5624C188.578 81.7906 188.392 81.0188 188.019 80.2471C187.647 79.2824 187.274 78.8965 186.901 78.8965C186.529 78.8965 186.342 79.0894 186.156 79.4753C186.156 79.8612 185.97 80.0541 185.97 80.44C185.97 81.0188 186.156 81.4047 186.342 81.9835C186.529 82.3694 186.715 82.7553 187.088 83.1412C186.901 83.1412 186.715 83.3341 186.529 83.3341C186.156 83.3341 186.156 83.1412 185.97 83.1412C185.038 82.7553 184.666 81.7906 184.666 80.6329C184.666 80.0541 184.852 79.4753 185.038 79.0894C185.411 78.7035 185.783 78.5106 186.156 78.1247C186.342 78.1247 186.715 77.9318 186.901 77.9318C187.647 77.9318 188.205 78.5106 188.764 79.2824C189.137 80.2471 189.51 81.2118 189.51 82.1765L189.51 82.1765z"/>
</svg>
