<?xml version="1.0" encoding="UTF-8" standalone="no"?>
<!-- Created with Inkscape (http://www.inkscape.org/) -->

<svg
   xmlns:dc="http://purl.org/dc/elements/1.1/"
   xmlns:cc="http://creativecommons.org/ns#"
   xmlns:rdf="http://www.w3.org/1999/02/22-rdf-syntax-ns#"
   xmlns:svg="http://www.w3.org/2000/svg"
   xmlns="http://www.w3.org/2000/svg"
   xmlns:xlink="http://www.w3.org/1999/xlink"
   xmlns:sodipodi="http://sodipodi.sourceforge.net/DTD/sodipodi-0.dtd"
   xmlns:inkscape="http://www.inkscape.org/namespaces/inkscape"
   width="512"
   height="512"
   id="svg2"
   version="1.1"
   inkscape:version="0.47pre4 r22446"
   sodipodi:docname="AlFanous-A_2010-03-25.svg"
   inkscape:export-filename="/home/sneetsher/Desktop/AlFanous/AlFanous-A2_192_2010-03-25.png"
   inkscape:export-xdpi="33.75"
   inkscape:export-ydpi="33.75">
  <defs
     id="defs4">
    <inkscape:perspective
       sodipodi:type="inkscape:persp3d"
       inkscape:vp_x="0 : 526.18109 : 1"
       inkscape:vp_y="0 : 1000 : 0"
       inkscape:vp_z="744.09448 : 526.18109 : 1"
       inkscape:persp3d-origin="372.04724 : 350.78739 : 1"
       id="perspective10" />
    <inkscape:perspective
       id="perspective2906"
       inkscape:persp3d-origin="0.5 : 0.33333333 : 1"
       inkscape:vp_z="1 : 0.5 : 1"
       inkscape:vp_y="0 : 1000 : 0"
       inkscape:vp_x="0 : 0.5 : 1"
       sodipodi:type="inkscape:persp3d" />
    <inkscape:perspective
       id="perspective2920"
       inkscape:persp3d-origin="0.5 : 0.33333333 : 1"
       inkscape:vp_z="1 : 0.5 : 1"
       inkscape:vp_y="0 : 1000 : 0"
       inkscape:vp_x="0 : 0.5 : 1"
       sodipodi:type="inkscape:persp3d" />
    <inkscape:perspective
       id="perspective3545"
       inkscape:persp3d-origin="0.5 : 0.33333333 : 1"
       inkscape:vp_z="1 : 0.5 : 1"
       inkscape:vp_y="0 : 1000 : 0"
       inkscape:vp_x="0 : 0.5 : 1"
       sodipodi:type="inkscape:persp3d" />
    <inkscape:perspective
       id="perspective3584"
       inkscape:persp3d-origin="0.5 : 0.33333333 : 1"
       inkscape:vp_z="1 : 0.5 : 1"
       inkscape:vp_y="0 : 1000 : 0"
       inkscape:vp_x="0 : 0.5 : 1"
       sodipodi:type="inkscape:persp3d" />
    <inkscape:perspective
       id="perspective3584-2"
       inkscape:persp3d-origin="0.5 : 0.33333333 : 1"
       inkscape:vp_z="1 : 0.5 : 1"
       inkscape:vp_y="0 : 1000 : 0"
       inkscape:vp_x="0 : 0.5 : 1"
       sodipodi:type="inkscape:persp3d" />
    <inkscape:perspective
       id="perspective3664"
       inkscape:persp3d-origin="0.5 : 0.33333333 : 1"
       inkscape:vp_z="1 : 0.5 : 1"
       inkscape:vp_y="0 : 1000 : 0"
       inkscape:vp_x="0 : 0.5 : 1"
       sodipodi:type="inkscape:persp3d" />
    <inkscape:perspective
       id="perspective3727"
       inkscape:persp3d-origin="0.5 : 0.33333333 : 1"
       inkscape:vp_z="1 : 0.5 : 1"
       inkscape:vp_y="0 : 1000 : 0"
       inkscape:vp_x="0 : 0.5 : 1"
       sodipodi:type="inkscape:persp3d" />
    <inkscape:perspective
       id="perspective4567"
       inkscape:persp3d-origin="0.5 : 0.33333333 : 1"
       inkscape:vp_z="1 : 0.5 : 1"
       inkscape:vp_y="0 : 1000 : 0"
       inkscape:vp_x="0 : 0.5 : 1"
       sodipodi:type="inkscape:persp3d" />
    <inkscape:perspective
       id="perspective4619"
       inkscape:persp3d-origin="0.5 : 0.33333333 : 1"
       inkscape:vp_z="1 : 0.5 : 1"
       inkscape:vp_y="0 : 1000 : 0"
       inkscape:vp_x="0 : 0.5 : 1"
       sodipodi:type="inkscape:persp3d" />
    <filter
       inkscape:collect="always"
       id="filter6204">
      <feGaussianBlur
         inkscape:collect="always"
         stdDeviation="2.2433833"
         id="feGaussianBlur6206" />
    </filter>
    <inkscape:perspective
       id="perspective6216"
       inkscape:persp3d-origin="0.5 : 0.33333333 : 1"
       inkscape:vp_z="1 : 0.5 : 1"
       inkscape:vp_y="0 : 1000 : 0"
       inkscape:vp_x="0 : 0.5 : 1"
       sodipodi:type="inkscape:persp3d" />
    <inkscape:perspective
       id="perspective2908"
       inkscape:persp3d-origin="0.5 : 0.33333333 : 1"
       inkscape:vp_z="1 : 0.5 : 1"
       inkscape:vp_y="0 : 1000 : 0"
       inkscape:vp_x="0 : 0.5 : 1"
       sodipodi:type="inkscape:persp3d" />
  </defs>
  <sodipodi:namedview
     id="base"
     pagecolor="#ffffff"
     bordercolor="#666666"
     borderopacity="1.0"
     inkscape:pageopacity="0.0"
     inkscape:pageshadow="2"
     inkscape:zoom="0.92382812"
     inkscape:cx="116.90486"
     inkscape:cy="256"
     inkscape:document-units="px"
     inkscape:current-layer="layer6"
     showgrid="false"
     showguides="false"
     inkscape:guide-bbox="true"
     inkscape:snap-to-guides="true"
     inkscape:window-width="1280"
     inkscape:window-height="726"
     inkscape:window-x="0"
     inkscape:window-y="25"
     inkscape:window-maximized="1">
    <sodipodi:guide
       orientation="1,0"
       position="256,545"
       id="guide2964" />
    <sodipodi:guide
       orientation="0,1"
       position="552,405"
       id="guide3527" />
    <sodipodi:guide
       orientation="0,1"
       position="157,330"
       id="guide3529" />
    <sodipodi:guide
       orientation="0,1"
       position="532,211"
       id="guide3531" />
    <sodipodi:guide
       orientation="0,1"
       position="574,70"
       id="guide3533" />
    <sodipodi:guide
       orientation="0,1"
       position="547,435"
       id="guide3535" />
    <sodipodi:guide
       orientation="0,1"
       position="556,235"
       id="guide3574" />
  </sodipodi:namedview>
  <metadata
     id="metadata7">
    <rdf:RDF>
      <cc:Work
         rdf:about="">
        <dc:format>image/svg+xml</dc:format>
        <dc:type
           rdf:resource="http://purl.org/dc/dcmitype/StillImage" />
        <dc:title></dc:title>
      </cc:Work>
    </rdf:RDF>
  </metadata>
  <g
     inkscape:groupmode="layer"
     id="layer7"
     inkscape:label="As Original Reversed"
     style="display:none">
    <rect
       style="fill:none;stroke:#008700;stroke-width:20;stroke-miterlimit:4;stroke-opacity:1;stroke-dasharray:none;display:inline"
       id="rect4666-8"
       width="447.05313"
       height="450.30017"
       x="31.391121"
       y="32.473572"
       rx="40"
       ry="40" />
    <path
       style="fill:#008700;fill-opacity:1;stroke:none;display:inline"
       d="m 256,107 c 0,0 -69.29358,23.19865 -71.15625,29.21875 -1.86267,6.0201 12.40161,19.91118 5.34375,24.21875 0,0 -45.73824,21.69964 -35.3125,21.5625 10.42574,-0.13714 101.125,0 101.125,0 0,0 90.69926,-0.13714 101.125,0 10.42574,0.13714 -35.3125,-21.5625 -35.3125,-21.5625 -7.05786,-4.30757 7.20642,-18.19865 5.34375,-24.21875 C 325.29358,130.19865 256,107 256,107 z"
       id="path2936-4-4-7-4-7" />
    <path
       style="fill:none;stroke:#008700;stroke-width:10;stroke-linecap:butt;stroke-linejoin:miter;stroke-miterlimit:4;stroke-opacity:1;stroke-dasharray:none;display:inline"
       d="m 190.4375,182 c 0,0 -15.79135,14.00289 -15.25,44.0625 C 175.66158,252.3867 212.08106,301 221.25,301 l 34.75,0 34.75,0 c 9.16894,0 45.58842,-48.6133 46.0625,-74.9375 C 337.35385,196.00289 321.5625,182 321.5625,182 L 256,182 l -65.5625,0 z"
       id="path2940-4-2-0-3-4" />
    <path
       style="fill:#008700;fill-opacity:1;stroke:none;display:inline"
       d="m 255.54123,274.02537 c 0,0 -10.74882,-9.51188 -11.74208,-16.07188 C 241.98048,245.94202 256,240.70787 256,218.47992 c 6,8.20403 12.11529,17.21106 12.77801,25.22621 0.90869,10.99008 -13.23678,30.31924 -13.23678,30.31924 z"
       id="path2942-1-4-3-7-6"
       sodipodi:nodetypes="cscsc" />
    <path
       style="fill:#008700;fill-opacity:1;stroke:none;display:inline"
       d="m 256,277 -17.875,1.1875 -1.0625,18.40625 L 221,301 l -5.59375,41.0625 -29.21875,0 -6.5,-16.25 -10.8125,6.5 3.24135,19.5 c 0,0 -18.74601,14.74098 -21.6476,20.5625 -2.49551,5.00681 6.5,58.4375 6.5,58.4375 L 152.125,442 256,442 l 103.875,0 -4.84375,-11.1875 c 0,0 8.54378,-53.22994 6.5,-58.4375 -3.98404,-10.15133 -35.71948,-30.30457 -35.71948,-30.30457 l 7.3e-4,-0.008 -29.21875,0 L 291,301 274.9375,296.59375 273.875,278.1875 256,277 z"
       id="path2948-9-9-0-0-1"
       sodipodi:nodetypes="cccccccccscccccsccccccc" />
    <path
       style="fill:none;stroke:#008700;stroke-width:10;stroke-linecap:butt;stroke-linejoin:miter;stroke-miterlimit:4;stroke-opacity:1;stroke-dasharray:none;display:inline"
       d="m 256,82.999998 c 0,0 -14.49496,0.882428 -14.53125,14.84375 C 241.43245,111.80507 256,113 256,113 c 0,0 14.56754,-1.19493 14.53125,-15.156252 C 270.49496,83.882426 256,82.999998 256,82.999998 z"
       id="path2950-1-0-5-6-6" />
    <path
       style="fill:#008700;fill-opacity:1;stroke:none;display:inline"
       d="m 141.80042,246.32301 17.35207,7.04378 -16.78732,9.36545 -24.91741,-5.43205 24.35266,-10.97718 z"
       id="path2954-5-1-7-3-3"
       sodipodi:nodetypes="ccccc" />
    <path
       sodipodi:nodetypes="ccccc"
       id="path3652-5-3-5-2"
       d="m 146.95651,281.64244 18.68512,1.25513 -13.00975,14.15176 -25.36512,2.64482 19.68975,-18.05171 z"
       style="fill:#008700;fill-opacity:1;stroke:none;display:inline" />
    <path
       style="fill:#008700;fill-opacity:1;stroke:none;display:inline"
       d="m 143.05253,206.66314 14.66898,11.64175 -18.74433,4.26339 -22.38215,-12.22391 26.4575,-3.68123 z"
       id="path3654-0-2-0-5"
       sodipodi:nodetypes="ccccc" />
    <path
       sodipodi:nodetypes="ccccc"
       id="path3708-1-2-1"
       d="m 370.19958,246.32301 -17.35207,7.04378 16.78732,9.36545 24.91741,-5.43205 -24.35266,-10.97718 z"
       style="fill:#008700;fill-opacity:1;stroke:none;display:inline" />
    <path
       style="fill:#008700;fill-opacity:1;stroke:none;display:inline"
       d="m 365.04349,281.64244 -18.68512,1.25513 13.00975,14.15176 25.36512,2.64482 -19.68975,-18.05171 z"
       id="path3710-0-6-4"
       sodipodi:nodetypes="ccccc" />
    <path
       sodipodi:nodetypes="ccccc"
       id="path3712-8-8-6"
       d="m 368.94747,206.66314 -14.66898,11.64175 18.74433,4.26339 22.38215,-12.22391 -26.4575,-3.68123 z"
       style="fill:#008700;fill-opacity:1;stroke:none;display:inline" />
  </g>
  <g
     inkscape:groupmode="layer"
     id="layer6"
     inkscape:label="As Original"
     style="display:inline">
    <rect
       style="fill:#008700;fill-opacity:1;stroke-width:5;stroke-miterlimit:4;stroke-dasharray:none;filter:url(#filter6204)"
       id="rect4666"
       width="447.05313"
       height="450.30017"
       x="31.391121"
       y="32.473572"
       rx="40"
       ry="40" />
    <path
       style="fill:#ffffff;fill-opacity:1;stroke:none;display:inline"
       d="m 256,107 c 0,0 -69.29358,23.19865 -71.15625,29.21875 -1.86267,6.0201 12.40161,19.91118 5.34375,24.21875 0,0 -45.73824,21.69964 -35.3125,21.5625 10.42574,-0.13714 101.125,0 101.125,0 0,0 90.69926,-0.13714 101.125,0 10.42574,0.13714 -35.3125,-21.5625 -35.3125,-21.5625 -7.05786,-4.30757 7.20642,-18.19865 5.34375,-24.21875 C 325.29358,130.19865 256,107 256,107 z"
       id="path2936-4-4-7-4" />
    <path
       style="fill:none;stroke:#ffffff;stroke-width:10;stroke-linecap:butt;stroke-linejoin:miter;stroke-miterlimit:4;stroke-opacity:1;stroke-dasharray:none;display:inline"
       d="m 190.4375,182 c 0,0 -15.79135,14.00289 -15.25,44.0625 C 175.66158,252.3867 212.08106,301 221.25,301 l 34.75,0 34.75,0 c 9.16894,0 45.58842,-48.6133 46.0625,-74.9375 C 337.35385,196.00289 321.5625,182 321.5625,182 L 256,182 l -65.5625,0 z"
       id="path2940-4-2-0-3" />
    <path
       style="fill:#ffffff;fill-opacity:1;stroke:none;display:inline"
       d="m 255.54123,274.02537 c 0,0 -10.74882,-9.51188 -11.74208,-16.07188 C 241.98048,245.94202 256,240.70787 256,218.47992 c 6,8.20403 12.11529,17.21106 12.77801,25.22621 0.90869,10.99008 -13.23678,30.31924 -13.23678,30.31924 z"
       id="path2942-1-4-3-7"
       sodipodi:nodetypes="cscsc" />
    <path
       style="fill:#ffffff;fill-opacity:1;stroke:none;display:inline"
       d="m 256,277 -17.875,1.1875 -1.0625,18.40625 L 221,301 l -5.59375,41.0625 -29.21875,0 -6.5,-16.25 -10.8125,6.5 3.24135,19.5 c 0,0 -18.74601,14.74098 -21.6476,20.5625 -2.49551,5.00681 6.5,58.4375 6.5,58.4375 L 152.125,442 256,442 l 103.875,0 -4.84375,-11.1875 c 0,0 8.54378,-53.22994 6.5,-58.4375 -3.98404,-10.15133 -35.71948,-30.30457 -35.71948,-30.30457 l 7.3e-4,-0.008 -29.21875,0 L 291,301 274.9375,296.59375 273.875,278.1875 256,277 z"
       id="path2948-9-9-0-0"
       sodipodi:nodetypes="cccccccccscccccsccccccc" />
    <path
       style="fill:none;stroke:#ffffff;stroke-width:10;stroke-linecap:butt;stroke-linejoin:miter;stroke-miterlimit:4;stroke-opacity:1;stroke-dasharray:none;display:inline"
       d="m 256,83 c 0,0 -14.49496,0.882428 -14.53125,14.84375 C 241.43245,111.80507 256,113 256,113 c 0,0 14.56754,-1.19493 14.53125,-15.15625 C 270.49496,83.882428 256,83 256,83 z"
       id="path2950-1-0-5-6" />
    <path
       style="fill:#ffffff;fill-opacity:1;stroke:none;display:inline"
       d="m 141.80042,246.32301 17.35207,7.04378 -16.78732,9.36545 -24.91741,-5.43205 24.35266,-10.97718 z"
       id="path2954-5-1-7-3"
       sodipodi:nodetypes="ccccc" />
    <path
       sodipodi:nodetypes="ccccc"
       id="path3652-5-3-5"
       d="m 146.95651,281.64244 18.68512,1.25513 -13.00975,14.15176 -25.36512,2.64482 19.68975,-18.05171 z"
       style="fill:#ffffff;fill-opacity:1;stroke:none;display:inline" />
    <path
       style="fill:#ffffff;fill-opacity:1;stroke:none;display:inline"
       d="m 143.05253,206.66314 14.66898,11.64175 -18.74433,4.26339 -22.38215,-12.22391 26.4575,-3.68123 z"
       id="path3654-0-2-0"
       sodipodi:nodetypes="ccccc" />
    <path
       sodipodi:nodetypes="ccccc"
       id="path3708-1-2"
       d="m 370.19958,246.32301 -17.35207,7.04378 16.78732,9.36545 24.91741,-5.43205 -24.35266,-10.97718 z"
       style="fill:#ffffff;fill-opacity:1;stroke:none;display:inline" />
    <path
       style="fill:#ffffff;fill-opacity:1;stroke:none;display:inline"
       d="m 365.04349,281.64244 -18.68512,1.25513 13.00975,14.15176 25.36512,2.64482 -19.68975,-18.05171 z"
       id="path3710-0-6"
       sodipodi:nodetypes="ccccc" />
    <path
       sodipodi:nodetypes="ccccc"
       id="path3712-8-8"
       d="m 368.94747,206.66314 -14.66898,11.64175 18.74433,4.26339 22.38215,-12.22391 -26.4575,-3.68123 z"
       style="fill:#ffffff;fill-opacity:1;stroke:none;display:inline" />
  </g>
  <g
     inkscape:groupmode="layer"
     id="layer5"
     inkscape:label="BW 1 Outline"
     style="display:none">
    <path
       style="fill:none;stroke:#000000;stroke-width:5;stroke-linecap:butt;stroke-linejoin:miter;stroke-miterlimit:4;stroke-opacity:1;stroke-dasharray:none;display:inline"
       d="m 256,107 c 0,0 -69.29358,23.19865 -71.15625,29.21875 -1.86267,6.0201 12.40161,19.91118 5.34375,24.21875 0,0 -45.73824,21.69964 -35.3125,21.5625 10.42574,-0.13714 101.125,0 101.125,0 0,0 90.69926,-0.13714 101.125,0 10.42574,0.13714 -35.3125,-21.5625 -35.3125,-21.5625 -7.05786,-4.30757 7.20642,-18.19865 5.34375,-24.21875 C 325.29358,130.19865 256,107 256,107 z"
       id="path2936-4-4-7" />
    <path
       style="fill:none;stroke:#000000;stroke-width:5;stroke-linecap:butt;stroke-linejoin:miter;stroke-miterlimit:4;stroke-opacity:1;stroke-dasharray:none;display:inline"
       d="m 190.4375,182 c 0,0 -15.79135,14.00289 -15.25,44.0625 C 175.66158,252.3867 212.08106,301 221.25,301 l 34.75,0 34.75,0 c 9.16894,0 45.58842,-48.6133 46.0625,-74.9375 C 337.35385,196.00289 321.5625,182 321.5625,182 L 256,182 l -65.5625,0 z"
       id="path2940-4-2-0" />
    <path
       style="fill:none;stroke:#000000;stroke-width:5;stroke-linecap:butt;stroke-linejoin:miter;stroke-miterlimit:4;stroke-opacity:1;stroke-dasharray:none;display:inline"
       d="m 255.54123,274.02537 c 0,0 -10.74882,-9.51188 -11.74208,-16.07188 C 241.98048,245.94202 256,240.70787 256,218.47992 c 6,8.20403 12.11529,17.21106 12.77801,25.22621 0.90869,10.99008 -13.23678,30.31924 -13.23678,30.31924 z"
       id="path2942-1-4-3"
       sodipodi:nodetypes="cscsc" />
    <path
       style="fill:none;stroke:#000000;stroke-width:5;stroke-linecap:butt;stroke-linejoin:miter;stroke-miterlimit:4;stroke-opacity:1;stroke-dasharray:none;display:inline"
       d="m 256,277 -17.875,1.1875 -1.0625,18.40625 L 221,301 l -5.59375,41.0625 -29.21875,0 -6.5,-16.25 -10.8125,6.5 3.24135,19.5 c 0,0 -18.74601,14.74098 -21.6476,20.5625 -2.49551,5.00681 6.5,58.4375 6.5,58.4375 L 152.125,442 256,442 l 103.875,0 -4.84375,-11.1875 c 0,0 8.54378,-53.22994 6.5,-58.4375 -3.98404,-10.15133 -35.71948,-30.30457 -35.71948,-30.30457 l 7.3e-4,-0.008 -29.21875,0 L 291,301 274.9375,296.59375 273.875,278.1875 256,277 z"
       id="path2948-9-9-0"
       sodipodi:nodetypes="cccccccccscccccsccccccc" />
    <path
       style="fill:none;stroke:#000000;stroke-width:5;stroke-linecap:butt;stroke-linejoin:miter;stroke-miterlimit:4;stroke-opacity:1;stroke-dasharray:none;display:inline"
       d="m 256,77 c 0,0 -14.49496,0.882428 -14.53125,14.84375 C 241.43245,105.80507 256,107 256,107 c 0,0 14.56754,-1.19493 14.53125,-15.15625 C 270.49496,77.882428 256,77 256,77 z"
       id="path2950-1-0-5" />
    <path
       style="fill:none;stroke:#000000;stroke-width:5;stroke-linecap:butt;stroke-linejoin:miter;stroke-miterlimit:4;stroke-opacity:1;stroke-dasharray:none;display:inline"
       d="m 141.80042,246.32301 17.35207,7.04378 -16.78732,9.36545 -24.91741,-5.43205 24.35266,-10.97718 z"
       id="path2954-5-1-7"
       sodipodi:nodetypes="ccccc" />
    <path
       sodipodi:nodetypes="ccccc"
       id="path3652-5-3"
       d="m 146.95651,281.64244 18.68512,1.25513 -13.00975,14.15176 -25.36512,2.64482 19.68975,-18.05171 z"
       style="fill:none;stroke:#000000;stroke-width:5;stroke-linecap:butt;stroke-linejoin:miter;stroke-miterlimit:4;stroke-opacity:1;stroke-dasharray:none;display:inline" />
    <path
       style="fill:none;stroke:#000000;stroke-width:5;stroke-linecap:butt;stroke-linejoin:miter;stroke-miterlimit:4;stroke-opacity:1;stroke-dasharray:none;display:inline"
       d="m 143.05253,206.66314 14.66898,11.64175 -18.74433,4.26339 -22.38215,-12.22391 26.4575,-3.68123 z"
       id="path3654-0-2"
       sodipodi:nodetypes="ccccc" />
    <path
       sodipodi:nodetypes="ccccc"
       id="path3708-1"
       d="m 370.19958,246.32301 -17.35207,7.04378 16.78732,9.36545 24.91741,-5.43205 -24.35266,-10.97718 z"
       style="fill:none;stroke:#000000;stroke-width:5;stroke-linecap:butt;stroke-linejoin:miter;stroke-miterlimit:4;stroke-opacity:1;stroke-dasharray:none;display:inline" />
    <path
       style="fill:none;stroke:#000000;stroke-width:5;stroke-linecap:butt;stroke-linejoin:miter;stroke-miterlimit:4;stroke-opacity:1;stroke-dasharray:none;display:inline"
       d="m 365.04349,281.64244 -18.68512,1.25513 13.00975,14.15176 25.36512,2.64482 -19.68975,-18.05171 z"
       id="path3710-0"
       sodipodi:nodetypes="ccccc" />
    <path
       sodipodi:nodetypes="ccccc"
       id="path3712-8"
       d="m 368.94747,206.66314 -14.66898,11.64175 18.74433,4.26339 22.38215,-12.22391 -26.4575,-3.68123 z"
       style="fill:none;stroke:#000000;stroke-width:5;stroke-linecap:butt;stroke-linejoin:miter;stroke-miterlimit:4;stroke-opacity:1;stroke-dasharray:none;display:inline" />
  </g>
  <g
     inkscape:groupmode="layer"
     id="layer4"
     inkscape:label="Round Symetry"
     style="display:none">
    <path
       style="fill:none;stroke:#000000;stroke-width:1px;stroke-linecap:butt;stroke-linejoin:miter;stroke-opacity:1;display:inline"
       d="m 256,107 c 0,0 -69.29358,23.19865 -71.15625,29.21875 -1.86267,6.0201 12.40161,19.91118 5.34375,24.21875 0,0 -45.73824,21.69964 -35.3125,21.5625 10.42574,-0.13714 101.125,0 101.125,0 0,0 90.69926,-0.13714 101.125,0 10.42574,0.13714 -35.3125,-21.5625 -35.3125,-21.5625 -7.05786,-4.30757 7.20642,-18.19865 5.34375,-24.21875 C 325.29358,130.19865 256,107 256,107 z"
       id="path2936-4-4" />
    <path
       style="fill:none;stroke:#000000;stroke-width:1px;stroke-linecap:butt;stroke-linejoin:miter;stroke-opacity:1;display:inline"
       d="m 190.4375,182 c 0,0 -15.79135,14.00289 -15.25,44.0625 C 175.66158,252.3867 212.08106,301 221.25,301 l 34.75,0 34.75,0 c 9.16894,0 45.58842,-48.6133 46.0625,-74.9375 C 337.35385,196.00289 321.5625,182 321.5625,182 L 256,182 l -65.5625,0 z"
       id="path2940-4-2" />
    <path
       style="fill:none;stroke:#000000;stroke-width:1px;stroke-linecap:butt;stroke-linejoin:miter;stroke-opacity:1;display:inline"
       d="m 255.54123,278.02537 c 0,0 -10.74882,-9.51188 -11.74208,-16.07188 C 241.98048,249.94202 256,244.70787 256,222.47992 c 6,8.20403 12.11529,17.21106 12.77801,25.22621 0.90869,10.99008 -13.23678,30.31924 -13.23678,30.31924 z"
       id="path2942-1-4"
       sodipodi:nodetypes="cscsc" />
    <path
       style="fill:none;stroke:#000000;stroke-width:1px;stroke-linecap:butt;stroke-linejoin:miter;stroke-opacity:1;display:inline"
       d="m 256,277 -17.875,1.1875 -1.0625,18.40625 L 221,301 l -5.59375,41.0625 -29.21875,0 -6.5,-16.25 -10.8125,6.5 3.24135,19.5 c 0,0 -18.74601,14.74098 -21.6476,20.5625 -2.49551,5.00681 6.5,58.4375 6.5,58.4375 L 152.125,442 256,442 l 103.875,0 -4.84375,-11.1875 c 0,0 8.54378,-53.22994 6.5,-58.4375 -3.98404,-10.15133 -35.71948,-30.30457 -35.71948,-30.30457 l 7.3e-4,-0.008 -29.21875,0 L 291,301 274.9375,296.59375 273.875,278.1875 256,277 z"
       id="path2948-9-9"
       sodipodi:nodetypes="cccccccccscccccsccccccc" />
    <path
       style="fill:none;stroke:#000000;stroke-width:1px;stroke-linecap:butt;stroke-linejoin:miter;stroke-opacity:1;display:inline"
       d="m 256,77 c 0,0 -14.49496,0.882428 -14.53125,14.84375 C 241.43246,105.80507 256,107 256,107 c 0,0 14.56754,-1.19493 14.53125,-15.15625 C 270.49496,77.882428 256,77 256,77 z"
       id="path2950-1-0" />
    <path
       style="fill:none;stroke:#000000;stroke-width:1px;stroke-linecap:butt;stroke-linejoin:miter;stroke-opacity:1;display:inline"
       d="m 141.80042,246.32301 17.35207,7.04378 -16.78732,9.36545 -24.91741,-5.43205 24.35266,-10.97718 z"
       id="path2954-5-1"
       sodipodi:nodetypes="ccccc" />
    <path
       sodipodi:nodetypes="ccccc"
       id="path3652-5"
       d="m 146.95651,281.64244 18.68512,1.25513 -13.00975,14.15176 -25.36512,2.64482 19.68975,-18.05171 z"
       style="fill:none;stroke:#000000;stroke-width:1px;stroke-linecap:butt;stroke-linejoin:miter;stroke-opacity:1;display:inline" />
    <path
       style="fill:none;stroke:#000000;stroke-width:1px;stroke-linecap:butt;stroke-linejoin:miter;stroke-opacity:1;display:inline"
       d="m 143.05253,206.66314 14.66898,11.64175 -18.74433,4.26339 -22.38215,-12.22391 26.4575,-3.68123 z"
       id="path3654-0"
       sodipodi:nodetypes="ccccc" />
    <path
       sodipodi:nodetypes="ccccc"
       id="path3708"
       d="m 370.19958,246.32301 -17.35207,7.04378 16.78732,9.36545 24.91741,-5.43205 -24.35266,-10.97718 z"
       style="fill:none;stroke:#000000;stroke-width:1px;stroke-linecap:butt;stroke-linejoin:miter;stroke-opacity:1;display:inline" />
    <path
       style="fill:none;stroke:#000000;stroke-width:1px;stroke-linecap:butt;stroke-linejoin:miter;stroke-opacity:1;display:inline"
       d="m 365.04349,281.64244 -18.68512,1.25513 13.00975,14.15176 25.36512,2.64482 -19.68975,-18.05171 z"
       id="path3710"
       sodipodi:nodetypes="ccccc" />
    <path
       sodipodi:nodetypes="ccccc"
       id="path3712"
       d="m 368.94747,206.66314 -14.66898,11.64175 18.74433,4.26339 22.38215,-12.22391 -26.4575,-3.68123 z"
       style="fill:none;stroke:#000000;stroke-width:1px;stroke-linecap:butt;stroke-linejoin:miter;stroke-opacity:1;display:inline" />
  </g>
  <g
     inkscape:groupmode="layer"
     id="layer3"
     inkscape:label="Round"
     style="display:none">
    <path
       style="fill:none;stroke:#000000;stroke-width:1px;stroke-linecap:butt;stroke-linejoin:miter;stroke-opacity:1"
       d="m 256,107 c 0,0 -69.28532,23.204 -71.14799,29.2241 -1.86267,6.0201 12.38767,19.91865 5.32981,24.22622 0,0 -45.73441,21.68682 -35.30867,21.54968 C 165.29889,181.86286 256,182 256,182 l 0,-75 z"
       id="path2936-4"
       sodipodi:nodetypes="czszcc" />
    <path
       style="fill:none;stroke:#000000;stroke-width:1px;stroke-linecap:butt;stroke-linejoin:miter;stroke-opacity:1"
       d="M 175.19239,226.05708 C 175.66647,252.38128 212.07419,301 221.24313,301 L 256,301 l 0,-119 -65.57082,0 c 0,0 -15.77814,13.99747 -15.23679,44.05708 z"
       id="path2940-4"
       sodipodi:nodetypes="cscccs" />
    <path
       style="fill:none;stroke:#000000;stroke-width:1px;stroke-linecap:butt;stroke-linejoin:miter;stroke-opacity:1"
       d="m 255.54123,278.02537 c 0,0 -10.74882,-9.51188 -11.74208,-16.07188 C 241.98048,249.94202 256,244.70787 256,222.47992 c 6,8.20403 12.11529,17.21106 12.77801,25.22621 0.90869,10.99008 -13.23678,30.31924 -13.23678,30.31924 z"
       id="path2942-1"
       sodipodi:nodetypes="cscsc" />
    <path
       style="fill:none;stroke:#000000;stroke-width:1px;stroke-linecap:butt;stroke-linejoin:miter;stroke-opacity:1"
       d="m 152.13108,442 4.82452,-11.18393 c 0,0 -8.99022,-53.44562 -6.49471,-58.45243 2.90159,-5.82152 23.81395,-20.5666 23.81395,-20.5666 l -5.41226,-19.48414 10.82452,-6.49472 6.49472,16.23679 29.22621,0 L 220.9852,301 l 16.07188,-4.40803 1.08245,-18.4017 L 256,277 l 0,165 -103.86892,0 z"
       id="path2948-9"
       sodipodi:nodetypes="cczccccccccccc" />
    <path
       style="fill:none;stroke:#000000;stroke-width:1px;stroke-linecap:butt;stroke-linejoin:miter;stroke-opacity:1"
       d="m 256,77 c 0,0 -14.49437,0.88223 -14.53066,14.843552 C 241.43305,105.80487 256,107 256,107 l 0,-30 z"
       id="path2950-1"
       sodipodi:nodetypes="czcc" />
    <path
       style="fill:none;stroke:#000000;stroke-width:1px;stroke-linecap:butt;stroke-linejoin:miter;stroke-opacity:1"
       d="m 141.80042,246.32301 17.35207,7.04378 -16.78732,9.36545 -24.91741,-5.43205 24.35266,-10.97718 z"
       id="path2954-5"
       sodipodi:nodetypes="ccccc" />
    <path
       sodipodi:nodetypes="ccccc"
       id="path3652"
       d="m 146.95651,281.64244 18.68512,1.25513 -13.00975,14.15176 -25.36512,2.64482 19.68975,-18.05171 z"
       style="fill:none;stroke:#000000;stroke-width:1px;stroke-linecap:butt;stroke-linejoin:miter;stroke-opacity:1" />
    <path
       style="fill:none;stroke:#000000;stroke-width:1px;stroke-linecap:butt;stroke-linejoin:miter;stroke-opacity:1"
       d="m 143.05253,206.66314 14.66898,11.64175 -18.74433,4.26339 -22.38215,-12.22391 26.4575,-3.68123 z"
       id="path3654"
       sodipodi:nodetypes="ccccc" />
  </g>
  <g
     inkscape:label="Angle"
     inkscape:groupmode="layer"
     id="layer1"
     transform="translate(0,-540.36215)"
     style="display:none">
    <path
       style="fill:none;stroke:#000000;stroke-width:1px;stroke-linecap:butt;stroke-linejoin:miter;stroke-opacity:1"
       d="m 256,647.36215 -71.14799,29.2241 5.32981,24.22622 -35.30867,21.54968 101.12685,0 0,-75 z"
       id="path2936"
       sodipodi:nodetypes="cccccc" />
    <path
       style="fill:none;stroke:#000000;stroke-width:1px;stroke-linecap:butt;stroke-linejoin:miter;stroke-opacity:1"
       d="m 173.19239,777.41923 41.05074,63.94292 41.75687,0 0,-119 -65.57082,0 -17.23679,55.05708 z"
       id="path2940"
       sodipodi:nodetypes="cccccc" />
    <path
       style="fill:none;stroke:#000000;stroke-width:1px;stroke-linecap:butt;stroke-linejoin:miter;stroke-opacity:1"
       d="m 255.54123,818.38752 -11.74208,-16.07188 11.82453,-34.47357 13.15433,20.22621 -13.23678,30.31924 z"
       id="path2942"
       sodipodi:nodetypes="ccccc" />
    <path
       style="fill:none;stroke:#000000;stroke-width:1px;stroke-linecap:butt;stroke-linejoin:miter;stroke-opacity:1"
       d="m 152.13108,982.36215 4.82452,-11.18393 -6.49471,-58.45243 23.81395,-20.5666 -5.41226,-19.48414 10.82452,-6.49472 6.49472,16.23679 29.22621,0 5.57717,-41.05497 16.07188,-4.40803 1.08245,-18.4017 17.86047,-1.19027 0,165 -103.86892,0 z"
       id="path2948"
       sodipodi:nodetypes="cccccccccccccc" />
    <path
       style="fill:none;stroke:#000000;stroke-width:1px;stroke-linecap:butt;stroke-linejoin:miter;stroke-opacity:1"
       d="M 256,617.36215 241.46934,632.2057 256,647.36215 l 0,-30 z"
       id="path2950"
       sodipodi:nodetypes="cccc" />
    <path
       style="fill:none;stroke:#000000;stroke-width:1px;stroke-linecap:butt;stroke-linejoin:miter;stroke-opacity:1"
       d="m 143.47146,785.9964 16.7315,8.41226 -17.48414,7.98943 -24.4017,-7.41226 25.15434,-8.98943 z"
       id="path2954"
       sodipodi:nodetypes="ccccc" />
  </g>
  <g
     inkscape:groupmode="layer"
     id="layer2"
     inkscape:label="Original"
     style="display:none">
    <image
       y="9.1395416"
       x="-68.059204"
       id="image2908"
       height="48"
       width="48"
       xlink:href="file:///home/sneetsher/Desktop/lantern-icon.jpg" />
    <image
       y="-0.18605264"
       x="-0.18604666"
       id="image2908-6"
       height="512.37207"
       width="511.28964"
       xlink:href="file:///home/sneetsher/Desktop/lantern-icon.jpg" />
  </g>
</svg>
